<?xml version="1.0"?>
<svg xmlns="http://www.w3.org/2000/svg" xmlns:xlink="http://www.w3.org/1999/xlink" version="1.1" id="Capa_1" x="0px" y="0px" viewBox="0 0 480 480" style="enable-background:new 0 0 480 480;" xml:space="preserve" width="512px" height="512px" class=""><g><g>
	<path style="fill:#62B45A" d="M221.897,280h-48v-43.92l115.28-82.32l-33.52-44.72L147.417,184h-81.12l-54,60.08   c-14.189,15.853-13.486,40.038,1.6,55.04l49.2,49.2l14.8-21.04V480h64V344h56v56h64v-80C261.897,297.909,243.989,280,221.897,280   L221.897,280z M77.897,285.44L65.097,272l12.8-12.8V285.44z" data-original="#63C8CD" class="" data-old_color="#63C8CD"/>
	<circle style="fill:#62B45A" cx="117.897" cy="128" r="56" data-original="#63C8CD" class="" data-old_color="#63C8CD"/>
</g><path style="fill:#62B45A" d="M165.897,384h176v96h-176V384z" data-original="#EF9F35" class="active-path" data-old_color="#EF9F35"/><path style="fill:#62B45A" d="M421.897,0h-16c0,30.928-25.072,56-56,56v16c30.928,0,56,25.072,56,56h16c0-30.928,25.072-56,56-56  V56C446.97,56,421.897,30.928,421.897,0z" data-original="#F7D04F" class="" data-old_color="#F7D04F"/><g>
	<path style="fill:#62B45A" d="M249.182,217.567l21.801-15.997l9.465,12.9l-21.801,15.997L249.182,217.567z" data-original="#5A5A60" class="" data-old_color="#5A5A60"/>
	<path style="fill:#62B45A" d="M289.214,188.252l79.968-58.7l9.468,12.898l-79.968,58.7L289.214,188.252z" data-original="#5A5A60" class="" data-old_color="#5A5A60"/>
	<path style="fill:#62B45A" d="M289.441,121.327l47.993-31.995l8.875,13.313l-47.993,31.995L289.441,121.327z" data-original="#5A5A60" class="" data-old_color="#5A5A60"/>
</g><path style="fill:#62B45A" d="M85.897,184l32,56l32-56H85.897z" data-original="#E05B69" class="" data-old_color="#E05B69"/></g> </svg>
