<svg xmlns="http://www.w3.org/2000/svg" viewBox="0 0 1332.51 254.22"><defs><style>.cls-1{fill:#fba578;opacity:0.6;}.cls-2{fill:#017552;}.cls-3{fill:#fbe4cd;opacity:0.9;}</style></defs><title>membercard</title><g id="圖層_2" data-name="圖層 2"><g id="圖層_2-2" data-name="圖層 2"><rect class="cls-1" x="26.86" y="151.27" width="1305.65" height="102"/><polygon class="cls-2" points="477.69 124.72 464.44 139.16 421.09 95.81 402.57 115.99 363.73 77.15 329.25 114.74 310.32 95.81 256.74 154.21 293.03 154.21 365.02 154.21 357.76 162.11 515.38 162.41 477.69 124.72"/><polygon class="cls-2" points="1067.28 124.72 1054.03 139.16 1010.67 95.81 992.16 115.99 953.32 77.15 918.83 114.74 899.9 95.81 846.33 154.21 882.61 154.21 954.6 154.21 947.35 162.11 1104.96 162.41 1067.28 124.72"/><polygon class="cls-2" points="1028.51 234.21 1015.26 248.65 971.91 205.3 953.4 225.48 914.55 186.63 880.07 224.22 861.14 205.3 817.12 253.28 1047.59 253.28 1028.51 234.21"/><polygon class="cls-2" points="359.37 216.53 346.12 230.97 302.77 187.62 284.25 207.8 245.41 168.96 210.92 206.54 192 187.62 138.42 246.01 174.71 246.01 246.69 246.01 239.44 253.92 397.06 254.22 359.37 216.53"/><polygon class="cls-2" points="180.69 139.86 169.86 151.67 134.41 116.21 119.26 132.72 87.5 100.95 59.29 131.69 43.82 116.21 0 163.97 29.68 163.97 88.55 163.97 76.8 176.77 99.74 176.77 146.82 176.77 147.59 176.77 193.15 176.77 217.61 176.77 180.69 139.86"/><path class="cls-3" d="M690.45,66.26A25.78,25.78,0,0,0,651,54.32a43.81,43.81,0,0,0-20.7-5c-17,0-31.19,9-35,21-7.64,2.16-13.18,8.6-13.18,16.21,0,9.38,8.42,17,18.81,17a20.35,20.35,0,0,0,8.56-1.86c1.63,5.72,9.53,10.06,19,10.06a25.36,25.36,0,0,0,14.38-4.06,74.14,74.14,0,0,0,10.87.78c11.14,0,21.12-2.37,27.83-6.11a18.81,18.81,0,1,0,8.87-36.11Z"/><path class="cls-3" d="M1104.74,95a21.93,21.93,0,0,0-33.59-10.16,37.34,37.34,0,0,0-17.62-4.26c-14.43,0-26.53,7.64-29.76,17.91-6.5,1.84-11.21,7.32-11.21,13.79,0,8,7.16,14.46,16,14.46a17.4,17.4,0,0,0,7.29-1.58c1.38,4.86,8.1,8.56,16.18,8.56a21.58,21.58,0,0,0,12.24-3.46,63.69,63.69,0,0,0,9.25.67c9.48,0,18-2,23.68-5.21a15.76,15.76,0,0,0,6.12,1.22A16,16,0,0,0,1104.74,95Z"/><path class="cls-3" d="M598,47.22a25.78,25.78,0,0,0-39.49-11.94,43.88,43.88,0,0,0-20.71-5c-17,0-31.18,9-35,21.05-7.64,2.16-13.18,8.6-13.18,16.21,0,9.38,8.42,17,18.8,17A20.36,20.36,0,0,0,517,82.66c1.62,5.72,9.52,10.06,19,10.06a25.36,25.36,0,0,0,14.38-4.06,74.1,74.1,0,0,0,10.86.78c11.14,0,21.12-2.37,27.84-6.12A18.8,18.8,0,1,0,598,47.22Z"/><path class="cls-3" d="M241,62.86a25.78,25.78,0,0,0-39.49-11.94,43.81,43.81,0,0,0-20.7-5c-17,0-31.19,9-35,21-7.63,2.16-13.17,8.6-13.17,16.21,0,9.38,8.41,17,18.8,17A20.36,20.36,0,0,0,160,98.3c1.62,5.72,9.52,10.06,19,10.06a25.36,25.36,0,0,0,14.38-4.06,74.34,74.34,0,0,0,10.87.78c11.14,0,21.12-2.37,27.83-6.11A18.81,18.81,0,1,0,241,62.86Z"/><path class="cls-3" d="M908,15.66a23.82,23.82,0,0,0-36.49-11A40.42,40.42,0,0,0,852.37,0c-15.68,0-28.82,8.29-32.32,19.45-7.06,2-12.18,8-12.18,15,0,8.67,7.78,15.7,17.38,15.7a18.85,18.85,0,0,0,7.92-1.72c1.5,5.29,8.8,9.3,17.58,9.3A23.44,23.44,0,0,0,864,54a68.65,68.65,0,0,0,10,.72c10.3,0,19.52-2.19,25.72-5.65A17.38,17.38,0,1,0,908,15.66Z"/><polygon class="cls-2" points="1235.92 144.44 1222.67 158.88 1179.32 115.53 1160.8 135.71 1121.96 96.87 1087.47 134.46 1068.55 115.53 1014.97 173.93 1051.26 173.93 1123.25 173.93 1115.99 181.83 1273.61 182.13 1235.92 144.44"/></g></g></svg>