<svg id="e9e97000-cd85-4c49-8076-880b8ab2870c" data-name="圖層 1" xmlns="http://www.w3.org/2000/svg" viewBox="0 0 25.83 25.81"><defs><style>.b421ab0e-edda-4f35-a665-03a66893a5e6{fill:#007552;}</style></defs><title>tag</title><path class="b421ab0e-edda-4f35-a665-03a66893a5e6" d="M639.49,356.88l5.52.31a1.75,1.75,0,0,1,1.2.55q5.64,5.65,11.26,11.32a1.88,1.88,0,0,1,.09,2.64c-.1.12-.21.23-.32.34-3.23,3.22-6.47,6.42-9.69,9.64a2.09,2.09,0,0,1-1.29.71,1.8,1.8,0,0,1-1.53-.52q-5.64-5.69-11.26-11.39a2,2,0,0,1-.6-1.34c-.16-2.82-.34-5.64-.51-8.47l-.12-1.95a2,2,0,0,1,2.12-2.12c1.71.11,3.42.19,5.13.28Zm-.86,8.71a2.61,2.61,0,0,0,5.22,0,2.61,2.61,0,1,0-5.22,0Z" transform="translate(-632.23 -356.6)"/></svg>