<svg id="fde8edd9-5842-4fd7-8491-a6e0e964920c" data-name="圖層 1" xmlns="http://www.w3.org/2000/svg" viewBox="0 0 20 19.98"><defs><style>.ba87fe07-1dc0-423a-b316-6b11b6643d1b{fill:#a0a0a0;}</style></defs><title>tag</title><path class="ba87fe07-1dc0-423a-b316-6b11b6643d1b" d="M581.53,497.29l4.28.24a1.37,1.37,0,0,1,.93.43l8.72,8.76a1.47,1.47,0,0,1,.07,2,3.07,3.07,0,0,1-.25.26c-2.5,2.49-5,5-7.51,7.47a1.6,1.6,0,0,1-1,.54,1.39,1.39,0,0,1-1.18-.4l-8.72-8.82a1.54,1.54,0,0,1-.46-1c-.12-2.19-.26-4.37-.4-6.55l-.09-1.51a1.52,1.52,0,0,1,1.64-1.65l4,.22Zm-.67,6.74a2,2,0,1,0,2-2A2,2,0,0,0,580.86,504Z" transform="translate(-575.91 -497.07)"/></svg>