<svg id="faafa188-38b3-4389-affc-954ecf616a06" data-name="圖層 1" xmlns="http://www.w3.org/2000/svg" viewBox="0 0 47.7 85"><defs><style>.f0324735-9cd3-400f-8008-3172c3c8ce23{fill:#ffae34;}.a1501c69-10e0-4ac4-8f76-8c795435a7c0{fill:#ffc37a;}.b88c89f9-6655-4f8a-be6b-fcb5d6e376cb{fill:#ffa600;}.b5abb586-db83-4e01-b6e8-2ee47c23db52{fill:#f7d263;}.f9c400fe-ebfa-4ab9-be48-29273d52fa5c{fill:#fffcd6;}</style></defs><title>binbo</title><rect class="f0324735-9cd3-400f-8008-3172c3c8ce23" x="19.5" y="58.38" width="6.87" height="26.62" rx="3.43"/><rect class="a1501c69-10e0-4ac4-8f76-8c795435a7c0" x="18.64" y="58.38" width="6.87" height="26.62" rx="3.43"/><path class="b88c89f9-6655-4f8a-be6b-fcb5d6e376cb" d="M623.39,531.82H591c-2.46,0-4.42-3.79-4.28-6.26l.6-50.41c.13-2.27,2.57-5.15,6.63-5.15h30.41a4.3,4.3,0,0,1,4.29,4.17l3.19,51.52C631.85,530.1,625.81,531.82,623.39,531.82Z" transform="translate(-584.14 -470)"/><path class="b5abb586-db83-4e01-b6e8-2ee47c23db52" d="M623.26,531.82H588.44a4.3,4.3,0,0,1-4.29-4.54l2.94-51.51a4.29,4.29,0,0,1,4.29-4h30.41a4.3,4.3,0,0,1,4.29,4.17l1.47,51.51A4.29,4.29,0,0,1,623.26,531.82Z" transform="translate(-584.14 -470)"/><rect class="f9c400fe-ebfa-4ab9-be48-29273d52fa5c" x="15.2" y="12.02" width="3.43" height="42.07" rx="1.72"/><rect class="f9c400fe-ebfa-4ab9-be48-29273d52fa5c" x="25.51" y="12.02" width="3.43" height="42.07" rx="1.72"/></svg>