<svg id="a0675eba-2c5d-43e3-9484-c696ccd3a03c" data-name="圖層 1" xmlns="http://www.w3.org/2000/svg" viewBox="0 0 261.18 277.73"><defs><style>.ac6b029f-6fb5-4f25-8b36-69a585a8d5d1{fill:#ffae34;}.b217f195-5417-4556-837f-eadc5e294155{fill:#ffc37a;}.f3ed61c2-a232-413e-b7e6-a0fff8e4ae49{fill:#ffa600;}.a649f053-ba1c-4ebf-b033-32690e6924e3{fill:#f7d263;}.a822f1b2-ed3d-452d-a243-e81db4e63635{fill:#fffcd6;}</style></defs><title>bk_ct_binbos</title><rect class="ac6b029f-6fb5-4f25-8b36-69a585a8d5d1" x="666.03" y="239.59" width="4.82" height="18.69" rx="2.41" transform="translate(-485.93 -380.72) rotate(16.83)"/><rect class="b217f195-5417-4556-837f-eadc5e294155" x="665.45" y="239.41" width="4.82" height="18.69" rx="2.41" transform="translate(-486.01 -380.57) rotate(16.83)"/><path class="f3ed61c2-a232-413e-b7e6-a0fff8e4ae49" d="M681.41,245.61,659.66,239c-1.66-.5-2.21-3.45-1.61-5.07L668.7,200.2c.55-1.5,2.78-2.94,5.5-2.11l20.44,6.18a3,3,0,0,1,2,3.67l-8.33,35.27C687.45,246.18,683,246.1,681.41,245.61Z" transform="translate(-586.64 -197.84)"/><path class="a649f053-ba1c-4ebf-b033-32690e6924e3" d="M681.33,245.59l-23.41-7.08a3,3,0,0,1-1.95-3.92l12.45-34a3,3,0,0,1,3.7-1.84l20.44,6.18a3,3,0,0,1,2,3.67l-9.48,34.92A3,3,0,0,1,681.33,245.59Z" transform="translate(-586.64 -197.84)"/><rect class="a822f1b2-ed3d-452d-a243-e81db4e63635" x="671.05" y="206.98" width="2.41" height="29.54" rx="1.21" transform="translate(-493.64 -382.99) rotate(16.83)"/><rect class="a822f1b2-ed3d-452d-a243-e81db4e63635" x="677.97" y="209.07" width="2.41" height="29.54" rx="1.21" transform="translate(-492.74 -384.91) rotate(16.83)"/><rect class="ac6b029f-6fb5-4f25-8b36-69a585a8d5d1" x="731.95" y="309.92" width="5.94" height="23.02" rx="2.97" transform="translate(-462.09 -396.87) rotate(16.83)"/><rect class="b217f195-5417-4556-837f-eadc5e294155" x="731.24" y="309.71" width="5.94" height="23.02" rx="2.97" transform="translate(-462.19 -396.67) rotate(16.83)"/><path class="f3ed61c2-a232-413e-b7e6-a0fff8e4ae49" d="M750.9,317.34l-26.8-8.1c-2-.62-2.71-4.25-2-6.25l13.12-41.58c.67-1.85,3.42-3.62,6.78-2.6l25.17,7.61a3.71,3.71,0,0,1,2.5,4.53l-10.25,43.44C758.33,318,752.9,318,750.9,317.34Z" transform="translate(-586.64 -197.84)"/><path class="a649f053-ba1c-4ebf-b033-32690e6924e3" d="M750.79,317.31,722,308.59a3.7,3.7,0,0,1-2.41-4.83l15.33-41.9a3.71,3.71,0,0,1,4.56-2.28l25.17,7.62a3.7,3.7,0,0,1,2.51,4.52l-11.68,43A3.71,3.71,0,0,1,750.79,317.31Z" transform="translate(-586.64 -197.84)"/><rect class="a822f1b2-ed3d-452d-a243-e81db4e63635" x="738.14" y="269.76" width="2.97" height="36.38" rx="1.48" transform="translate(-471.59 -399.66) rotate(16.83)"/><rect class="a822f1b2-ed3d-452d-a243-e81db4e63635" x="746.67" y="272.34" width="2.97" height="36.38" rx="1.48" transform="translate(-470.47 -402.02) rotate(16.83)"/><rect class="ac6b029f-6fb5-4f25-8b36-69a585a8d5d1" x="779.04" y="389.98" width="7.44" height="28.81" rx="3.43" transform="translate(-436.03 -407.17) rotate(16.83)"/><rect class="b217f195-5417-4556-837f-eadc5e294155" x="778.15" y="389.71" width="7.44" height="28.81" rx="3.43" transform="translate(-436.14 -406.92) rotate(16.83)"/><path class="f3ed61c2-a232-413e-b7e6-a0fff8e4ae49" d="M802.76,399.26l-33.55-10.14c-2.55-.78-3.4-5.32-2.48-7.83l16.42-52c.85-2.31,4.29-4.53,8.49-3.26l31.51,9.53a4.65,4.65,0,0,1,3.13,5.67l-12.84,54.37C812.06,400.14,805.26,400,802.76,399.26Z" transform="translate(-586.64 -197.84)"/><path class="a649f053-ba1c-4ebf-b033-32690e6924e3" d="M802.63,399.23l-36.09-10.92a4.64,4.64,0,0,1-3-6l19.19-52.46a4.65,4.65,0,0,1,5.71-2.85l31.51,9.53a4.65,4.65,0,0,1,3.14,5.67L808.46,396A4.66,4.66,0,0,1,802.63,399.23Z" transform="translate(-586.64 -197.84)"/><rect class="a822f1b2-ed3d-452d-a243-e81db4e63635" x="786.78" y="339.7" width="3.72" height="45.54" rx="1.72" transform="translate(-447.91 -410.66) rotate(16.83)"/><rect class="a822f1b2-ed3d-452d-a243-e81db4e63635" x="797.46" y="342.93" width="3.72" height="45.54" rx="1.72" transform="translate(-446.52 -413.62) rotate(16.83)"/><rect class="ac6b029f-6fb5-4f25-8b36-69a585a8d5d1" x="706.95" y="452.92" width="5.94" height="23.02" rx="2.97" transform="translate(-421.76 -383.5) rotate(16.83)"/><rect class="b217f195-5417-4556-837f-eadc5e294155" x="706.24" y="452.71" width="5.94" height="23.02" rx="2.97" transform="translate(-421.85 -383.31) rotate(16.83)"/><path class="f3ed61c2-a232-413e-b7e6-a0fff8e4ae49" d="M725.9,460.34l-26.8-8.1c-2-.62-2.71-4.25-2-6.25l13.12-41.58c.67-1.85,3.42-3.62,6.78-2.6l25.17,7.61a3.71,3.71,0,0,1,2.5,4.53l-10.25,43.44C733.33,461,727.9,461,725.9,460.34Z" transform="translate(-586.64 -197.84)"/><path class="a649f053-ba1c-4ebf-b033-32690e6924e3" d="M725.79,460.31,697,451.59a3.7,3.7,0,0,1-2.41-4.83l15.33-41.9a3.71,3.71,0,0,1,4.56-2.28l25.17,7.62a3.7,3.7,0,0,1,2.51,4.52l-11.68,43A3.71,3.71,0,0,1,725.79,460.31Z" transform="translate(-586.64 -197.84)"/><rect class="a822f1b2-ed3d-452d-a243-e81db4e63635" x="713.14" y="412.76" width="2.97" height="36.38" rx="1.48" transform="translate(-431.25 -386.3) rotate(16.83)"/><rect class="a822f1b2-ed3d-452d-a243-e81db4e63635" x="721.67" y="415.34" width="2.97" height="36.38" rx="1.48" transform="translate(-430.14 -388.66) rotate(16.83)"/><rect class="ac6b029f-6fb5-4f25-8b36-69a585a8d5d1" x="661.23" y="367.87" width="6.87" height="26.62" rx="3.43" transform="translate(-447.8 -373.97) rotate(16.83)"/><rect class="b217f195-5417-4556-837f-eadc5e294155" x="660.4" y="367.62" width="6.87" height="26.62" rx="3.43" transform="translate(-447.91 -373.74) rotate(16.83)"/><path class="f3ed61c2-a232-413e-b7e6-a0fff8e4ae49" d="M683.13,376.45l-31-9.38c-2.37-.71-3.14-4.91-2.29-7.22L665,311.77c.78-2.14,4-4.19,7.83-3l29.11,8.8a4.29,4.29,0,0,1,2.9,5.23L693,373C691.73,377.25,685.45,377.15,683.13,376.45Z" transform="translate(-586.64 -197.84)"/><path class="a649f053-ba1c-4ebf-b033-32690e6924e3" d="M683,376.41l-33.33-10.08a4.3,4.3,0,0,1-2.79-5.59l17.74-48.45a4.29,4.29,0,0,1,5.27-2.64L699,318.46a4.29,4.29,0,0,1,2.9,5.23L688.4,373.43A4.29,4.29,0,0,1,683,376.41Z" transform="translate(-586.64 -197.84)"/><rect class="a822f1b2-ed3d-452d-a243-e81db4e63635" x="668.38" y="321.42" width="3.43" height="42.07" rx="1.72" transform="translate(-458.78 -377.2) rotate(16.83)"/><rect class="a822f1b2-ed3d-452d-a243-e81db4e63635" x="678.24" y="324.4" width="3.43" height="42.07" rx="1.72" transform="translate(-457.5 -379.93) rotate(16.83)"/><rect class="ac6b029f-6fb5-4f25-8b36-69a585a8d5d1" x="596.43" y="419.14" width="4.61" height="17.85" rx="2.3" transform="translate(-437.05 -352.87) rotate(16.83)"/><rect class="b217f195-5417-4556-837f-eadc5e294155" x="595.88" y="418.97" width="4.61" height="17.85" rx="2.3" transform="translate(-437.12 -352.72) rotate(16.83)"/><path class="f3ed61c2-a232-413e-b7e6-a0fff8e4ae49" d="M611.12,424.89l-20.78-6.29c-1.58-.48-2.1-3.29-1.54-4.84L599,381.51a4.21,4.21,0,0,1,5.26-2l19.52,5.91a2.87,2.87,0,0,1,1.94,3.51l-8,33.69C616.89,425.43,612.68,425.36,611.12,424.89Z" transform="translate(-586.64 -197.84)"/><path class="a649f053-ba1c-4ebf-b033-32690e6924e3" d="M611,424.87l-22.35-6.77a2.87,2.87,0,0,1-1.87-3.74l11.89-32.5a2.89,2.89,0,0,1,3.54-1.77L621.77,386a2.88,2.88,0,0,1,1.94,3.51l-9.05,33.35A2.89,2.89,0,0,1,611,424.87Z" transform="translate(-586.64 -197.84)"/><rect class="a822f1b2-ed3d-452d-a243-e81db4e63635" x="601.23" y="387.98" width="2.3" height="28.22" rx="1.15" transform="translate(-444.42 -355.04) rotate(16.83)"/><rect class="a822f1b2-ed3d-452d-a243-e81db4e63635" x="607.84" y="389.98" width="2.3" height="28.22" rx="1.15" transform="translate(-443.55 -356.87) rotate(16.83)"/><rect class="ac6b029f-6fb5-4f25-8b36-69a585a8d5d1" x="809.95" y="257.92" width="5.94" height="23.02" rx="2.97" transform="translate(-473.81 -421.68) rotate(16.83)"/><rect class="b217f195-5417-4556-837f-eadc5e294155" x="809.24" y="257.71" width="5.94" height="23.02" rx="2.97" transform="translate(-473.9 -421.48) rotate(16.83)"/><path class="f3ed61c2-a232-413e-b7e6-a0fff8e4ae49" d="M828.9,265.34l-26.8-8.1c-2-.62-2.71-4.25-2-6.25l13.12-41.58c.67-1.85,3.42-3.62,6.78-2.6l25.17,7.61a3.71,3.71,0,0,1,2.5,4.53l-10.25,43.44C836.33,266,830.9,266,828.9,265.34Z" transform="translate(-586.64 -197.84)"/><path class="a649f053-ba1c-4ebf-b033-32690e6924e3" d="M828.79,265.31,800,256.59a3.7,3.7,0,0,1-2.41-4.83l15.33-41.9a3.71,3.71,0,0,1,4.56-2.28l25.17,7.62a3.7,3.7,0,0,1,2.51,4.52l-11.68,43A3.71,3.71,0,0,1,828.79,265.31Z" transform="translate(-586.64 -197.84)"/><rect class="a822f1b2-ed3d-452d-a243-e81db4e63635" x="816.14" y="217.76" width="2.97" height="36.38" rx="1.48" transform="translate(-483.3 -424.48) rotate(16.83)"/><rect class="a822f1b2-ed3d-452d-a243-e81db4e63635" x="824.67" y="220.34" width="2.97" height="36.38" rx="1.48" transform="translate(-482.19 -426.83) rotate(16.83)"/></svg>