<svg id="e4546d74-b9f2-4f5c-bb54-f6c996d95a53" data-name="圖層 1" xmlns="http://www.w3.org/2000/svg" viewBox="0 0 153.86 255.62"><defs><style>.f3af68ab-4f18-4e6e-afdd-fe02bd30354c{fill:#fff;}</style></defs><title>bk_ct_snows</title><path class="f3af68ab-4f18-4e6e-afdd-fe02bd30354c" d="M719.45,558.05c-1.15-1.17-2.2-2.22-3.22-3.29a2.62,2.62,0,0,1,.71-4.35,2.7,2.7,0,0,1,3,.66c2.19,2.19,4.36,4.38,6.55,6.55a1.26,1.26,0,0,0,.75.41c5.21,0,10.41,0,15.73,0a4.66,4.66,0,0,0-.36-.47Q737.36,552.28,732,547a1.54,1.54,0,0,0-1-.37c-3.13,0-6.26,0-9.4,0a2.6,2.6,0,0,1-2.54-3.27,2.64,2.64,0,0,1,2.63-2c1.28,0,2.55,0,3.82,0l.87,0L725,540c-1.1-1.1-2.21-2.19-3.29-3.31a2.61,2.61,0,0,1,0-3.84,2.69,2.69,0,0,1,3.8.18l4.65,4.68v-1c0-1.25,0-2.5,0-3.75a2.66,2.66,0,0,1,2.61-2.7,2.6,2.6,0,0,1,2.63,2.72c0,3.11,0,6.22,0,9.33a1.43,1.43,0,0,0,.34.92q5.34,5.41,10.72,10.77l.29.25a4.48,4.48,0,0,0,.06-.56c0-5,0-10,0-15a1.62,1.62,0,0,0-.43-1c-2.17-2.19-4.37-4.35-6.54-6.55a2.61,2.61,0,0,1,.29-4.15,2.68,2.68,0,0,1,3.37.37l3.28,3.21c0-.24,0-.44,0-.64,0-2,0-3.91,0-5.86a2.62,2.62,0,1,1,5.24,0v6.62l2.25-2.21c.38-.38.75-.78,1.14-1.15a2.67,2.67,0,0,1,3.65-.07,2.55,2.55,0,0,1,.1,3.73c-1.08,1.15-2.22,2.24-3.34,3.35s-2.31,2.29-3.44,3.45a1.17,1.17,0,0,0-.35.72c0,5.13,0,10.27,0,15.4a1.36,1.36,0,0,0,.07.28,5.52,5.52,0,0,0,.48-.42c3.5-3.5,7-7,10.47-10.51a1.55,1.55,0,0,0,.39-1c0-3.09,0-6.17,0-9.26a2.63,2.63,0,1,1,5.24,0v4.55c.28-.26.47-.42.63-.58,1.41-1.4,2.79-2.82,4.21-4.2a2.66,2.66,0,0,1,3.38-.23,2.55,2.55,0,0,1,.88,3.08,4.5,4.5,0,0,1-.87,1.18c-1.43,1.46-2.89,2.9-4.49,4.51h1c1.25,0,2.49,0,3.74,0a2.61,2.61,0,0,1,.69,5.14,4.67,4.67,0,0,1-1.12.09c-3,0-6,0-9,0a1.42,1.42,0,0,0-.94.33q-5.4,5.34-10.76,10.72c-.08.07-.14.17-.28.33l.7,0c4.93,0,9.85,0,14.77,0a1.71,1.71,0,0,0,1.09-.46c2.2-2.16,4.36-4.36,6.55-6.54a2.67,2.67,0,0,1,3-.62,2.5,2.5,0,0,1,1.55,2.53,4.16,4.16,0,0,1-.9,1.85c-1,1.1-2,2.09-3.15,3.21.26,0,.45,0,.64,0h5.94a2.58,2.58,0,0,1,2.51,1.62,2.46,2.46,0,0,1-.47,2.76,2.5,2.5,0,0,1-2,.86h-6.66c.26.29.41.47.58.64.87.86,1.75,1.72,2.61,2.59a2.61,2.61,0,0,1,.1,3.94,2.67,2.67,0,0,1-3.84-.23c-2.17-2.17-4.32-4.35-6.5-6.5a1.43,1.43,0,0,0-.89-.42c-5.09,0-10.18,0-15.27,0l-.28,0a2.31,2.31,0,0,0,.27.4q5.34,5.34,10.71,10.67a1.33,1.33,0,0,0,.87.32c3.11,0,6.21,0,9.32,0a2.65,2.65,0,0,1,2.79,2.37,2.61,2.61,0,0,1-2.57,2.85c-1.54,0-3.09,0-4.78,0,.22.25.34.41.48.55,1.37,1.38,2.77,2.75,4.14,4.15a2.61,2.61,0,0,1-.53,4.3,2.67,2.67,0,0,1-3.17-.55c-1.38-1.36-2.74-2.73-4.1-4.1-.16-.16-.33-.31-.62-.57v4.63a2.62,2.62,0,1,1-5.24.06c0-3.13,0-6.27,0-9.4a1.33,1.33,0,0,0-.3-.87q-5.35-5.43-10.77-10.82c-.06-.06-.14-.11-.28-.22a4.62,4.62,0,0,0-.06.57c0,5,0,9.94,0,14.91a1.58,1.58,0,0,0,.41,1c2.18,2.22,4.4,4.39,6.59,6.61a2.6,2.6,0,0,1-.55,4.29,2.67,2.67,0,0,1-3.12-.52c-1.08-1-2.15-2.1-3.3-3.22,0,.23,0,.42,0,.61v5.94a2.62,2.62,0,1,1-5.24,0c0-2.17,0-4.33,0-6.62-.23.2-.39.32-.53.46-.91.91-1.82,1.84-2.74,2.75a2.67,2.67,0,0,1-3.74.18,2.58,2.58,0,0,1,0-3.84c1.46-1.51,3-3,4.44-4.45.87-.86,2-1.61,2.48-2.66s.11-2.36.11-3.56c0-3.86,0-7.73,0-11.59v-.89l-.49.42c-3.51,3.52-7,7-10.52,10.57a1.56,1.56,0,0,0-.4,1c0,3.09,0,6.17,0,9.26a2.63,2.63,0,0,1-2.62,2.81,2.67,2.67,0,0,1-2.63-2.82v-4.51c-.23.2-.39.32-.53.46l-4.1,4.09a2.65,2.65,0,0,1-3.84.19,2.61,2.61,0,0,1,.11-3.89c1.33-1.36,2.69-2.7,4-4,.16-.16.3-.33.56-.62h-4.64a2.53,2.53,0,0,1-2-.84,2.47,2.47,0,0,1-.51-2.75,2.57,2.57,0,0,1,2.5-1.64c2.31,0,4.61,0,6.92,0a8.35,8.35,0,0,0,3-.11c.86-.36,1.48-1.33,2.2-2,2.87-2.86,5.73-5.73,8.61-8.58a3.66,3.66,0,0,1,.66-.41l-.17-.24c-.18,0-.35-.05-.53-.05-5,0-9.94,0-14.91,0a1.52,1.52,0,0,0-1,.41c-2.23,2.2-4.43,4.43-6.65,6.64a2.63,2.63,0,0,1-3.12.51,2.52,2.52,0,0,1-1.34-2.84,4.08,4.08,0,0,1,.93-1.54c1-1.06,2-2,3.07-3.14-.23,0-.4-.06-.56-.06H713a2.63,2.63,0,1,1,0-5.24h6.47Z" transform="translate(-673 -434.96)"/><path class="f3af68ab-4f18-4e6e-afdd-fe02bd30354c" d="M676.66,597.65l-1.27-1.29a1,1,0,0,1,.29-1.71,1,1,0,0,1,1.19.26c.86.86,1.71,1.72,2.58,2.57a.45.45,0,0,0,.29.16h6.19a1.94,1.94,0,0,0-.14-.18q-2.09-2.09-4.18-4.16a.58.58,0,0,0-.38-.15h-3.7a1,1,0,1,1,0-2h1.85l-.56-.54-1.3-1.3a1,1,0,0,1,0-1.51,1.05,1.05,0,0,1,1.49.07l1.83,1.84v-1.86a1,1,0,0,1,1-1.06,1,1,0,0,1,1,1.07c0,1.22,0,2.44,0,3.67a.57.57,0,0,0,.13.36q2.1,2.13,4.22,4.24l.11.09c0-.09,0-.15,0-.22,0-2,0-3.92,0-5.89a.53.53,0,0,0-.17-.37c-.85-.87-1.72-1.72-2.57-2.58a1,1,0,0,1,.12-1.63,1,1,0,0,1,1.32.14l1.29,1.26a2.29,2.29,0,0,0,0-.25v-2.3a1,1,0,1,1,2.06,0v2.61l.89-.87c.15-.15.29-.31.45-.46a1,1,0,0,1,1.43,0,1,1,0,0,1,0,1.46c-.42.46-.87.88-1.31,1.32s-.91.9-1.36,1.36a.45.45,0,0,0-.13.28q0,3,0,6.06a.36.36,0,0,0,0,.11l.19-.16,4.12-4.14a.61.61,0,0,0,.15-.39c0-1.21,0-2.42,0-3.64a1,1,0,1,1,2.06,0v1.78l.25-.22c.55-.55,1.09-1.11,1.65-1.65a1.06,1.06,0,0,1,1.33-.1,1,1,0,0,1,.35,1.22,1.89,1.89,0,0,1-.34.46l-1.77,1.77h.4c.49,0,1,0,1.48,0a1,1,0,0,1,1,.91,1,1,0,0,1-.76,1.11,1.64,1.64,0,0,1-.44,0H695.7a.57.57,0,0,0-.37.13c-1.42,1.4-2.82,2.81-4.23,4.22l-.11.13h.27c1.94,0,3.88,0,5.81,0a.62.62,0,0,0,.43-.18c.87-.85,1.72-1.71,2.58-2.57a1,1,0,0,1,1.17-.24,1,1,0,0,1,.61,1,1.55,1.55,0,0,1-.35.73c-.38.43-.8.82-1.24,1.26l.25,0h2.34a1,1,0,0,1,1,.64,1,1,0,0,1-1,1.42h-2.62a2,2,0,0,0,.23.25l1,1a1,1,0,0,1,0,1.55,1,1,0,0,1-1.51-.09l-2.55-2.55a.58.58,0,0,0-.35-.17h-6l-.11,0a1,1,0,0,0,.11.15l4.21,4.2a.5.5,0,0,0,.34.12h3.67a1,1,0,0,1,1.09.94,1,1,0,0,1-1,1.12h-1.88l.19.22,1.63,1.63a1,1,0,0,1-.21,1.69,1.05,1.05,0,0,1-1.25-.22L696.29,608l-.24-.22v1.82a1,1,0,1,1-2.06,0c0-1.23,0-2.46,0-3.7a.52.52,0,0,0-.12-.34c-1.4-1.42-2.82-2.84-4.23-4.25l-.12-.09a2.15,2.15,0,0,0,0,.23c0,1.95,0,3.91,0,5.86a.59.59,0,0,0,.16.38c.85.87,1.73,1.73,2.59,2.6a1,1,0,1,1-1.44,1.48l-1.3-1.26a2.12,2.12,0,0,0,0,.24v2.33a1,1,0,0,1-1,1.07,1,1,0,0,1-1-1.06v-2.6a2.32,2.32,0,0,0-.21.18l-1.08,1.08a1,1,0,0,1-1.47.07,1,1,0,0,1,0-1.51c.57-.59,1.17-1.17,1.75-1.75.34-.34.8-.63,1-1a3.81,3.81,0,0,0,0-1.4V601.2a1.92,1.92,0,0,0-.19.17q-2.09,2.07-4.14,4.16a.59.59,0,0,0-.16.38c0,1.21,0,2.43,0,3.64a1,1,0,0,1-1,1.11,1.06,1.06,0,0,1-1-1.11v-1.78l-.21.18c-.54.54-1.07,1.08-1.61,1.61a1,1,0,0,1-1.51.08,1,1,0,0,1,0-1.53l1.59-1.6.22-.24h-1.82a1,1,0,0,1-.8-.33,1,1,0,0,1-.2-1.08,1,1,0,0,1,1-.65h2.73a3.3,3.3,0,0,0,1.18,0c.34-.15.58-.53.86-.81l3.39-3.37a1.4,1.4,0,0,1,.26-.16l-.07-.1-.2,0h-5.87a.62.62,0,0,0-.38.16l-2.61,2.61a1,1,0,0,1-1.23.21,1,1,0,0,1-.52-1.12,1.52,1.52,0,0,1,.36-.61c.38-.41.79-.8,1.21-1.23l-.22,0h-2.31a1,1,0,0,1-1.13-1,1,1,0,0,1,1.12-1h2.54Z" transform="translate(-673 -434.96)"/><path class="f3af68ab-4f18-4e6e-afdd-fe02bd30354c" d="M776,620.24c.14-.63.27-1.19.4-1.76a1,1,0,0,1,1.59-.68,1.06,1.06,0,0,1,.42,1.14l-.78,3.54a.49.49,0,0,0,0,.34c1.09,1.72,2.19,3.43,3.31,5.19,0-.1.06-.16.08-.22.41-1.91.83-3.82,1.24-5.73a.57.57,0,0,0-.08-.4c-.65-1-1.33-2.07-2-3.11a1,1,0,0,1,.55-1.53,1,1,0,0,1,1.2.46c.27.41.53.84.8,1.26l.2.28c.06-.3.1-.53.15-.76.13-.59.25-1.19.4-1.78a1,1,0,0,1,1.26-.82,1.06,1.06,0,0,1,.74,1.29l-.56,2.52.32-.21,1.24-.78a1,1,0,1,1,1.1,1.73c-1,.65-2,1.3-3.07,2a.56.56,0,0,0-.24.31q-.65,2.89-1.28,5.8a1,1,0,0,0,0,.15,1.23,1.23,0,0,0,.2-.1l4.94-3.16a.64.64,0,0,0,.22-.35c.27-1.17.52-2.36.78-3.53a1,1,0,0,1,1.43-.78,1.05,1.05,0,0,1,.59,1.19c-.12.57-.24,1.15-.37,1.75l.22-.12,1.94-1.23a1,1,0,1,1,1.11,1.72l-1.91,1.22-.28.18,1.21.27.62.14a1,1,0,0,1,.79,1.19,1,1,0,0,1-1.21.82c-.61-.12-1.21-.26-1.81-.4l-1.86-.41a.47.47,0,0,0-.31,0l-5.08,3.25-.08.08.24.07c1.89.41,3.78.83,5.68,1.23a.57.57,0,0,0,.4-.08l3-1.94a1,1,0,1,1,1.11,1.73l-1.5,1,.32.08c.76.17,1.52.33,2.27.51a1,1,0,0,1,.79,1.06,1,1,0,0,1-.83.94,1.85,1.85,0,0,1-.57,0c-.78-.16-1.57-.34-2.43-.53l.21.34c.27.41.54.82.79,1.24a1,1,0,0,1-1.55,1.31,1.77,1.77,0,0,1-.26-.35c-.64-1-1.26-2-1.9-3a.55.55,0,0,0-.31-.23c-1.93-.44-3.87-.86-5.8-1.29l-.17,0,.14.24c1,1.62,2.07,3.24,3.12,4.86a.67.67,0,0,0,.38.26l3.54.78a1.05,1.05,0,0,1,.83.85,1,1,0,0,1-.51,1,1.55,1.55,0,0,1-.8.09c-.56-.08-1.11-.23-1.72-.36.05.09.08.16.12.22.42.66.84,1.3,1.25,2a1,1,0,0,1,0,1.17,1,1,0,0,1-1,.43,1,1,0,0,1-.71-.48c-.4-.64-.81-1.28-1.22-1.91l-.18-.29c0,.15-.07.24-.09.33l-.3,1.4a1,1,0,0,1-1.28.87,1,1,0,0,1-.73-1.32c.25-1.17.52-2.34.77-3.51a.61.61,0,0,0,0-.38q-1.61-2.52-3.22-5l-.07-.08a.61.61,0,0,0-.07.17l-1.26,5.78a.55.55,0,0,0,.08.35l2,3.08a1,1,0,0,1-.2,1.42,1,1,0,0,1-1.48-.25c-.33-.5-.65-1-1-1.57,0,.12-.06.2-.08.27-.16.75-.32,1.5-.49,2.24a1,1,0,0,1-1.53.73,1,1,0,0,1-.49-1.16c.16-.74.33-1.47.49-2.21,0-.09,0-.18.06-.33l-1.53,1a1,1,0,1,1-1.12-1.71l3.09-2a.5.5,0,0,0,.22-.28c.44-1.95.87-3.89,1.3-5.84a.88.88,0,0,1,0-.14l-.2.1-4.91,3.15a.63.63,0,0,0-.24.34c-.27,1.19-.51,2.38-.78,3.57a1,1,0,0,1-1.53.72,1,1,0,0,1-.49-1.13c.12-.58.24-1.16.37-1.77l-.21.11-2,1.25a1,1,0,1,1-1.11-1.72l2.18-1.4a2.75,2.75,0,0,0-.27-.07l-1.48-.33a1,1,0,0,1-.85-1.2,1,1,0,0,1,1.26-.81c.8.16,1.6.35,2.4.53a4,4,0,0,0,1.4.25,3.73,3.73,0,0,0,1.2-.71l3.82-2.45.3-.18-.25-.08-5.7-1.24a.63.63,0,0,0-.4.08c-1,.64-2,1.29-3.06,1.94a1,1,0,0,1-1.48-.26,1,1,0,0,1,.38-1.46l1.48-1a2.08,2.08,0,0,0-.26-.07l-2.21-.49a1,1,0,0,1-.88-1.23,1,1,0,0,1,1.31-.78l2.19.47.32.06-1-1.53a1,1,0,0,1-.15-.84,1,1,0,0,1,.8-.75,1,1,0,0,1,1.07.47l1.46,2.29a3.42,3.42,0,0,0,.67,1,3.36,3.36,0,0,0,1.14.3l4.64,1a1,1,0,0,1,.28.13l0-.11-.09-.18L776,624a.57.57,0,0,0-.34-.23c-1.2-.28-2.4-.53-3.6-.8a1,1,0,0,1-.82-.91,1,1,0,0,1,.65-1.05,1.7,1.7,0,0,1,.71,0c.55.1,1.09.23,1.68.36a1.83,1.83,0,0,0-.1-.2l-1.24-1.94a1,1,0,1,1,1.72-1.11c.41.62.8,1.24,1.2,1.86Z" transform="translate(-673 -434.96)"/><path class="f3af68ab-4f18-4e6e-afdd-fe02bd30354c" d="M706.82,659.57c.18-.76.33-1.45.5-2.13a1.24,1.24,0,0,1,1.92-.83,1.29,1.29,0,0,1,.52,1.39c-.32,1.43-.64,2.86-1,4.3a.6.6,0,0,0,0,.4c1.33,2.1,2.66,4.18,4,6.31,0-.11.07-.18.09-.26.51-2.32,1-4.64,1.51-7a.67.67,0,0,0-.1-.49c-.79-1.26-1.61-2.51-2.4-3.77a1.24,1.24,0,0,1,.66-1.86,1.25,1.25,0,0,1,1.46.56c.34.5.66,1,1,1.52l.24.34c.07-.36.13-.64.19-.92.15-.72.3-1.44.48-2.16a1.24,1.24,0,0,1,1.53-1,1.28,1.28,0,0,1,.9,1.57c-.21,1-.44,2-.68,3.07l.39-.26c.5-.32,1-.64,1.51-1a1.24,1.24,0,0,1,1.74.35,1.23,1.23,0,0,1-.41,1.75c-1.24.8-2.49,1.59-3.73,2.4a.64.64,0,0,0-.28.37c-.54,2.35-1.05,4.7-1.57,7.06,0,0,0,.09,0,.18l.24-.12c2-1.28,4-2.56,6-3.85a.74.74,0,0,0,.28-.41c.32-1.44.62-2.87,1-4.31a1.23,1.23,0,0,1,1.73-.94,1.28,1.28,0,0,1,.72,1.44c-.14.7-.29,1.4-.45,2.14l.27-.15,2.35-1.5a1.25,1.25,0,0,1,1.77.35,1.24,1.24,0,0,1-.42,1.75l-2.32,1.48-.34.22,1.47.33.75.16a1.29,1.29,0,0,1,1,1.45,1.23,1.23,0,0,1-1.47,1c-.74-.14-1.47-.32-2.2-.48l-2.27-.5a.52.52,0,0,0-.37,0l-6.18,3.94s0,0-.09.1l.29.09,6.9,1.5a.78.78,0,0,0,.49-.1c1.24-.78,2.47-1.58,3.71-2.37a1.26,1.26,0,0,1,1.8.34,1.25,1.25,0,0,1-.46,1.77l-1.82,1.16.4.11c.92.2,1.84.39,2.75.61a1.25,1.25,0,0,1,1,1.29,1.22,1.22,0,0,1-1,1.15,2.07,2.07,0,0,1-.7,0l-3-.65.27.42c.32.5.65,1,1,1.5a1.26,1.26,0,0,1-.25,1.65,1.25,1.25,0,0,1-1.63-.06,1.87,1.87,0,0,1-.32-.42L723.81,676a.69.69,0,0,0-.37-.29l-7.06-1.57-.2,0c.07.12.11.21.16.29,1.27,2,2.52,3.95,3.8,5.91a.8.8,0,0,0,.46.32c1.43.33,2.87.63,4.3.94a1.26,1.26,0,0,1,1,1,1.17,1.17,0,0,1-.61,1.27,2,2,0,0,1-1,.12c-.69-.11-1.36-.28-2.1-.44l.15.27c.5.79,1,1.58,1.52,2.38a1.23,1.23,0,0,1,0,1.42,1.17,1.17,0,0,1-1.22.52,1.19,1.19,0,0,1-.86-.58l-1.49-2.33-.22-.35-.11.4c-.12.57-.24,1.14-.37,1.71a1.23,1.23,0,0,1-1.55,1.05,1.27,1.27,0,0,1-.89-1.6c.31-1.42.63-2.84.94-4.27a.72.72,0,0,0-.06-.46c-1.3-2-2.61-4.08-3.91-6.12l-.09-.11a1.11,1.11,0,0,0-.08.21q-.78,3.51-1.53,7a.66.66,0,0,0,.09.43l2.38,3.74a1.26,1.26,0,0,1-.23,1.72,1.24,1.24,0,0,1-1.8-.29c-.41-.62-.8-1.24-1.23-1.92a3.43,3.43,0,0,0-.1.33c-.2.91-.39,1.82-.6,2.73a1.24,1.24,0,0,1-1.86.89,1.26,1.26,0,0,1-.59-1.41c.19-.9.39-1.8.59-2.7,0-.1,0-.21.07-.39l-1.86,1.19a1.25,1.25,0,1,1-1.37-2.09q1.89-1.2,3.77-2.41a.66.66,0,0,0,.27-.35q.79-3.54,1.57-7.09a1.59,1.59,0,0,0,0-.17l-.25.12-6,3.83a.73.73,0,0,0-.28.41c-.33,1.45-.63,2.89-1,4.34a1.24,1.24,0,0,1-1.86.88,1.25,1.25,0,0,1-.59-1.38c.14-.7.29-1.4.44-2.15a2.8,2.8,0,0,0-.25.14c-.8.5-1.59,1-2.38,1.52a1.25,1.25,0,0,1-1.77-.36,1.27,1.27,0,0,1,.42-1.74l2.65-1.69-.32-.1-1.81-.39a1.27,1.27,0,0,1-1-1.46,1.23,1.23,0,0,1,1.53-1c1,.2,2,.43,2.93.64a4.71,4.71,0,0,0,1.7.31,4.59,4.59,0,0,0,1.45-.87l4.65-3,.35-.23a1.9,1.9,0,0,0-.29-.08c-2.31-.51-4.62-1-6.93-1.51a.76.76,0,0,0-.49.09c-1.25.78-2.48,1.58-3.72,2.37a1.24,1.24,0,0,1-1.79-.33,1.26,1.26,0,0,1,.45-1.78l1.81-1.15-.32-.1-2.69-.59a1.27,1.27,0,0,1-1.07-1.49,1.25,1.25,0,0,1,1.59-1l2.66.58c.11,0,.21,0,.39.07l-1.19-1.86a1.24,1.24,0,0,1-.18-1,1.15,1.15,0,0,1,1-.91,1.21,1.21,0,0,1,1.3.58c.6.92,1.19,1.85,1.78,2.77a4.05,4.05,0,0,0,.81,1.17,3.85,3.85,0,0,0,1.39.36l5.64,1.25a2.11,2.11,0,0,1,.34.16l.05-.13a2.39,2.39,0,0,0-.12-.22c-1.27-2-2.54-4-3.83-6a.7.7,0,0,0-.41-.28c-1.45-.33-2.91-.64-4.36-1a1.26,1.26,0,0,1-1-1.12,1.21,1.21,0,0,1,.8-1.27,1.87,1.87,0,0,1,.85,0c.67.11,1.34.28,2.05.43-.05-.1-.08-.18-.12-.25-.5-.78-1-1.56-1.51-2.35a1.25,1.25,0,1,1,2.09-1.35l1.46,2.26Z" transform="translate(-673 -434.96)"/><path class="f3af68ab-4f18-4e6e-afdd-fe02bd30354c" d="M740.69,444.06c.28-1.23.53-2.35.8-3.46a2,2,0,0,1,3.13-1.35,2.09,2.09,0,0,1,.83,2.25c-.51,2.33-1,4.66-1.53,7a1,1,0,0,0,0,.66l6.54,10.24a2.23,2.23,0,0,0,.15-.43c.83-3.77,1.66-7.53,2.46-11.31a1.23,1.23,0,0,0-.16-.79c-1.29-2.05-2.61-4.08-3.9-6.13a2,2,0,0,1,1.07-3,2,2,0,0,1,2.37.91c.55.81,1.06,1.65,1.59,2.47l.39.56c.12-.59.2-1,.3-1.5.26-1.17.5-2.35.78-3.51A2,2,0,0,1,758,435a2.08,2.08,0,0,1,1.47,2.55c-.35,1.6-.72,3.2-1.11,5l.64-.4c.81-.52,1.62-1.05,2.43-1.56a2,2,0,0,1,2.84.57,2,2,0,0,1-.66,2.84c-2,1.3-4,2.59-6.06,3.9a1.15,1.15,0,0,0-.47.6q-1.29,5.73-2.54,11.46a2.51,2.51,0,0,0,0,.29,2.85,2.85,0,0,0,.39-.19c3.25-2.08,6.5-4.15,9.74-6.25a1.11,1.11,0,0,0,.44-.67c.53-2.33,1-4.66,1.54-7a2,2,0,0,1,2.83-1.54,2.08,2.08,0,0,1,1.16,2.35l-.73,3.46c.17-.09.31-.15.44-.23l3.81-2.44a2,2,0,0,1,2.88.56,2,2,0,0,1-.69,2.84q-1.87,1.22-3.77,2.41l-.54.35,2.38.54c.41.09.82.17,1.22.27a2.07,2.07,0,0,1,1.57,2.35,2,2,0,0,1-2.39,1.61c-1.19-.22-2.38-.51-3.57-.78s-2.45-.55-3.68-.8a.91.91,0,0,0-.61.07c-3.35,2.13-6.68,4.27-10,6.41-.05,0-.07.07-.16.16.19.05.33.11.48.14,3.73.82,7.46,1.64,11.2,2.43a1.16,1.16,0,0,0,.79-.15c2-1.27,4-2.56,6-3.84a2,2,0,1,1,2.18,3.41l-3,1.89.65.17c1.49.33,3,.65,4.47,1a2,2,0,0,1,1.56,2.09,2,2,0,0,1-1.63,1.86,3.3,3.3,0,0,1-1.13-.07c-1.55-.32-3.1-.67-4.81-1.05l.43.67c.52.81,1.06,1.61,1.55,2.44a2,2,0,0,1-3.05,2.59,4,4,0,0,1-.53-.69c-1.25-1.95-2.49-3.9-3.75-5.83a1.07,1.07,0,0,0-.6-.47c-3.82-.87-7.64-1.7-11.46-2.54l-.32-.05c.11.2.18.34.27.47,2.05,3.21,4.09,6.41,6.16,9.61a1.32,1.32,0,0,0,.75.51c2.32.53,4.65,1,7,1.54a2.05,2.05,0,0,1,1.64,1.69,1.92,1.92,0,0,1-1,2.06,3.22,3.22,0,0,1-1.57.18c-1.11-.17-2.21-.46-3.4-.71.1.18.16.31.23.44.83,1.28,1.66,2.57,2.47,3.86a2,2,0,0,1,0,2.31,1.88,1.88,0,0,1-2,.84,1.91,1.91,0,0,1-1.4-1l-2.41-3.77-.37-.56c-.07.28-.13.46-.17.64-.2.93-.39,1.85-.6,2.78a2,2,0,0,1-2.52,1.7,2.06,2.06,0,0,1-1.45-2.59c.51-2.31,1-4.62,1.52-6.93a1.1,1.1,0,0,0-.09-.76c-2.1-3.32-4.23-6.63-6.35-9.94l-.14-.17c-.05.13-.11.23-.14.34-.83,3.8-1.67,7.61-2.48,11.41a1,1,0,0,0,.15.7c1.28,2,2.59,4.05,3.87,6.07a2,2,0,0,1-.39,2.8,2,2,0,0,1-2.92-.48c-.66-1-1.29-2-2-3.11a5.3,5.3,0,0,0-.16.54c-.33,1.47-.64,2.95-1,4.42a2,2,0,0,1-3,1.45,2.07,2.07,0,0,1-1-2.29l1-4.38c0-.17.06-.34.11-.64l-3,1.93a2,2,0,1,1-2.22-3.38c2-1.31,4.08-2.61,6.11-3.93a1,1,0,0,0,.44-.55c.87-3.84,1.71-7.68,2.56-11.51,0-.07,0-.15,0-.28-.16.08-.28.13-.39.2-3.24,2.07-6.48,4.13-9.7,6.22a1.16,1.16,0,0,0-.46.66c-.54,2.34-1,4.69-1.55,7a2,2,0,0,1-3,1.43,2.06,2.06,0,0,1-1-2.24c.23-1.14.47-2.28.73-3.49a4,4,0,0,0-.42.22l-3.86,2.47a2,2,0,0,1-2.87-.58,2.06,2.06,0,0,1,.67-2.82l4.31-2.76c-.23-.06-.38-.12-.52-.15l-2.94-.64a2.06,2.06,0,0,1-1.67-2.36,2,2,0,0,1,2.49-1.61c1.59.32,3.16.7,4.75,1a7.87,7.87,0,0,0,2.76.5,7.47,7.47,0,0,0,2.36-1.41q3.78-2.4,7.54-4.82l.58-.37-.48-.14c-3.75-.82-7.5-1.65-11.25-2.45a1.18,1.18,0,0,0-.8.15c-2,1.26-4,2.56-6,3.84a2,2,0,0,1-2.92-.53,2.07,2.07,0,0,1,.74-2.89l2.93-1.87c-.23-.07-.37-.13-.51-.16l-4.37-1a2.06,2.06,0,0,1-1.73-2.42,2,2,0,0,1,2.58-1.55c1.44.3,2.88.63,4.32.94.17,0,.34.06.63.11-.68-1.07-1.3-2.05-1.93-3a2,2,0,0,1-.29-1.66,1.9,1.9,0,0,1,1.58-1.48,2,2,0,0,1,2.1.94c1,1.49,1.93,3,2.89,4.5a6.55,6.55,0,0,0,1.32,1.91,6.65,6.65,0,0,0,2.25.58l9.17,2a3.82,3.82,0,0,1,.54.26l.08-.21a2.47,2.47,0,0,0-.19-.36c-2.06-3.23-4.13-6.47-6.21-9.69A1.2,1.2,0,0,0,740,451c-2.36-.54-4.73-1-7.09-1.56a2,2,0,0,1-1.63-1.82,1.93,1.93,0,0,1,1.29-2.05,3.1,3.1,0,0,1,1.39,0c1.09.18,2.16.45,3.32.69-.08-.16-.13-.28-.2-.39-.81-1.27-1.63-2.54-2.44-3.82a2,2,0,1,1,3.4-2.2q1.18,1.83,2.35,3.68Z" transform="translate(-673 -434.96)"/><path class="f3af68ab-4f18-4e6e-afdd-fe02bd30354c" d="M799.72,523.66c-.45-.46-.86-.87-1.26-1.29a1,1,0,0,1,.28-1.7,1,1,0,0,1,1.19.26l2.56,2.56a.5.5,0,0,0,.3.16h6.15a1.89,1.89,0,0,0-.14-.19q-2.07-2.07-4.15-4.13a.61.61,0,0,0-.39-.15h-3.67a1,1,0,1,1,0-2h1.83l-.55-.54c-.43-.43-.87-.85-1.29-1.29a1,1,0,0,1,0-1.51,1.05,1.05,0,0,1,1.49.08c.59.58,1.17,1.17,1.82,1.83v-1.85a1,1,0,0,1,1-1.06,1,1,0,0,1,1,1.06c0,1.22,0,2.44,0,3.65a.59.59,0,0,0,.13.37c1.39,1.41,2.8,2.81,4.2,4.21l.11.1c0-.09,0-.16,0-.22,0-2,0-3.91,0-5.86a.6.6,0,0,0-.17-.38c-.85-.86-1.71-1.7-2.56-2.56a1,1,0,0,1,.12-1.63,1,1,0,0,1,1.31.15l1.29,1.25c0-.09,0-.17,0-.25v-2.29a1,1,0,1,1,2.06,0V513l.88-.87.44-.45a1.06,1.06,0,0,1,1.43,0,1,1,0,0,1,0,1.46c-.42.45-.87.88-1.31,1.32s-.9.89-1.34,1.35a.44.44,0,0,0-.14.28c0,2,0,4,0,6a.89.89,0,0,0,0,.11l.19-.16q2.06-2.06,4.1-4.12a.58.58,0,0,0,.15-.38c0-1.21,0-2.41,0-3.62a1,1,0,0,1,1-1.1,1,1,0,0,1,1,1.1v1.78l.25-.23,1.64-1.64a1.07,1.07,0,0,1,1.33-.09,1,1,0,0,1,.34,1.21,1.89,1.89,0,0,1-.34.46l-1.76,1.76h.4c.49,0,1,0,1.47,0a1,1,0,0,1,1,.9,1,1,0,0,1-.76,1.11,2.12,2.12,0,0,1-.44,0h-3.51a.62.62,0,0,0-.37.13l-4.21,4.2-.11.12.28,0H820a.67.67,0,0,0,.42-.18l2.57-2.56a1,1,0,0,1,1.16-.24,1,1,0,0,1,.61,1,1.57,1.57,0,0,1-.35.72c-.38.43-.8.82-1.23,1.26l.25,0h2.32a1,1,0,0,1,1,.63,1,1,0,0,1-.19,1.08,1,1,0,0,1-.78.34h-2.61l.23.25c.33.34.68.67,1,1a1,1,0,0,1,0,1.54,1.05,1.05,0,0,1-1.51-.09l-2.54-2.54a.54.54,0,0,0-.35-.16H814a.65.65,0,0,0,.1.15l4.19,4.18a.53.53,0,0,0,.34.13h3.65a1,1,0,0,1,1.09.93,1,1,0,0,1-1,1.12H820.5l.18.22c.54.54,1.09,1.07,1.62,1.62a1,1,0,0,1-.2,1.68,1,1,0,0,1-1.24-.21l-1.61-1.61-.24-.22v1.81a1,1,0,1,1-2,0c0-1.22,0-2.45,0-3.67a.53.53,0,0,0-.11-.34q-2.1-2.13-4.22-4.24l-.11-.08a2,2,0,0,0,0,.22c0,2,0,3.89,0,5.84a.59.59,0,0,0,.16.37c.85.87,1.72,1.72,2.58,2.59a1,1,0,0,1-.21,1.68,1,1,0,0,1-1.22-.2c-.43-.41-.85-.83-1.3-1.27,0,.1,0,.17,0,.24V539a1,1,0,0,1-1,1.06,1,1,0,0,1-1-1.06v-2.58l-.2.17c-.36.36-.72.73-1.08,1.08a1,1,0,0,1-1.46.07,1,1,0,0,1,0-1.5c.57-.59,1.16-1.16,1.74-1.74.34-.34.8-.63,1-1a3.83,3.83,0,0,0,0-1.4v-4.88l-.19.17c-1.37,1.37-2.75,2.75-4.11,4.13a.59.59,0,0,0-.16.38c0,1.21,0,2.42,0,3.62a1,1,0,0,1-1,1.1,1,1,0,0,1-1-1.1v-1.76l-.21.17-1.6,1.61a1,1,0,0,1-1.51.07,1,1,0,0,1,0-1.52l1.58-1.59.22-.24h-1.82a1,1,0,0,1-.79-.33,1,1,0,0,1-.2-1.07,1,1,0,0,1,1-.65h2.71a3.23,3.23,0,0,0,1.17,0c.34-.14.59-.52.87-.8l3.37-3.36a1.13,1.13,0,0,1,.26-.16l-.07-.09-.21,0h-5.83a.59.59,0,0,0-.38.16l-2.6,2.6a1.06,1.06,0,0,1-1.22.2,1,1,0,0,1-.53-1.12,1.63,1.63,0,0,1,.37-.6c.37-.41.78-.8,1.2-1.23l-.22,0h-2.3a1,1,0,0,1-1.12-1,1,1,0,0,1,1.11-1h2.53Z" transform="translate(-673 -434.96)"/><path class="f3af68ab-4f18-4e6e-afdd-fe02bd30354c" d="M698.72,501.66c-.45-.46-.86-.87-1.26-1.29a1,1,0,0,1,.28-1.7,1,1,0,0,1,1.19.26c.86.85,1.7,1.71,2.56,2.56a.5.5,0,0,0,.3.16h6.15a1.89,1.89,0,0,0-.14-.19q-2.07-2.07-4.15-4.13a.61.61,0,0,0-.39-.15h-3.67a1,1,0,1,1,0-2h1.83l-.55-.54c-.43-.43-.87-.85-1.29-1.29a1,1,0,0,1,0-1.51,1.05,1.05,0,0,1,1.49.08c.59.58,1.17,1.17,1.82,1.83v-1.85a1,1,0,0,1,1-1.06,1,1,0,0,1,1,1.06c0,1.22,0,2.44,0,3.65a.59.59,0,0,0,.13.37c1.39,1.41,2.8,2.81,4.2,4.21l.11.1c0-.09,0-.16,0-.22,0-2,0-3.91,0-5.86a.6.6,0,0,0-.17-.38c-.85-.86-1.71-1.7-2.56-2.56a1,1,0,0,1,.12-1.63,1,1,0,0,1,1.31.15l1.29,1.25c0-.09,0-.17,0-.25v-2.29a1,1,0,1,1,2.06,0V491l.88-.87.44-.45a1.06,1.06,0,0,1,1.43,0,1,1,0,0,1,0,1.46c-.42.45-.87.88-1.31,1.32s-.9.89-1.34,1.35a.44.44,0,0,0-.14.28c0,2,0,4,0,6a.89.89,0,0,0,0,.11l.19-.16q2.06-2.06,4.1-4.12a.58.58,0,0,0,.15-.38c0-1.21,0-2.41,0-3.62a1,1,0,0,1,1-1.1,1,1,0,0,1,1,1.1v1.78l.25-.23,1.64-1.64a1.07,1.07,0,0,1,1.33-.09,1,1,0,0,1,.34,1.21,1.89,1.89,0,0,1-.34.46l-1.76,1.76h.4c.49,0,1,0,1.47,0a1,1,0,0,1,1,.9,1,1,0,0,1-.76,1.11,2.12,2.12,0,0,1-.44,0h-3.51a.62.62,0,0,0-.37.13l-4.21,4.2-.11.12.28,0H719a.67.67,0,0,0,.42-.18l2.57-2.56a1,1,0,0,1,1.16-.24,1,1,0,0,1,.61,1,1.57,1.57,0,0,1-.35.72c-.38.43-.8.82-1.23,1.26l.25,0c.77,0,1.55,0,2.32,0a1,1,0,0,1,1,.63,1,1,0,0,1-.19,1.08,1,1,0,0,1-.78.34h-2.61l.23.25c.33.34.68.67,1,1a1,1,0,0,1,0,1.54,1.05,1.05,0,0,1-1.51-.09l-2.54-2.54a.54.54,0,0,0-.35-.16H713a.65.65,0,0,0,.1.15l4.19,4.18a.53.53,0,0,0,.34.13h3.65a1,1,0,0,1,1.09.93,1,1,0,0,1-1,1.12H719.5l.18.22c.54.54,1.09,1.07,1.62,1.62a1,1,0,0,1-.2,1.68,1,1,0,0,1-1.24-.21l-1.61-1.61-.24-.22v1.81a1,1,0,1,1-2,0c0-1.22,0-2.45,0-3.67a.53.53,0,0,0-.11-.34q-2.1-2.13-4.22-4.24l-.11-.08a2,2,0,0,0,0,.22c0,1.95,0,3.89,0,5.84a.59.59,0,0,0,.16.37c.85.87,1.72,1.72,2.58,2.59a1,1,0,0,1-.21,1.68,1,1,0,0,1-1.22-.2c-.43-.41-.85-.83-1.3-1.27,0,.1,0,.17,0,.24V517a1,1,0,0,1-1,1.06,1,1,0,0,1-1-1.06v-2.58l-.2.17c-.36.36-.72.73-1.08,1.08a1,1,0,0,1-1.46.07,1,1,0,0,1,0-1.5c.57-.59,1.16-1.16,1.74-1.74.34-.34.8-.63,1-1a3.83,3.83,0,0,0,0-1.4v-4.88l-.19.17c-1.37,1.37-2.75,2.75-4.11,4.13a.59.59,0,0,0-.16.38c0,1.21,0,2.42,0,3.62a1,1,0,0,1-1,1.1,1,1,0,0,1-1-1.1v-1.76l-.21.17-1.6,1.61a1,1,0,0,1-1.51.07,1,1,0,0,1,0-1.52l1.58-1.59.22-.24h-1.82a1,1,0,0,1-.79-.33,1,1,0,0,1-.2-1.07,1,1,0,0,1,1-.65h2.71a3.23,3.23,0,0,0,1.17,0c.34-.14.59-.52.87-.8l3.37-3.36a1.13,1.13,0,0,1,.26-.16l-.07-.09-.21,0h-5.83a.59.59,0,0,0-.38.16l-2.6,2.6a1.06,1.06,0,0,1-1.22.2,1,1,0,0,1-.53-1.12,1.63,1.63,0,0,1,.37-.6c.37-.41.78-.8,1.2-1.23l-.22,0h-2.3a1,1,0,0,1-1.12-1,1,1,0,0,1,1.11-1c.74,0,1.48,0,2.21,0Z" transform="translate(-673 -434.96)"/></svg>