<svg id="eb181937-07cc-42b9-ad70-7a2adb67036b" data-name="圖層 1" xmlns="http://www.w3.org/2000/svg" viewBox="0 0 208.62 335.4"><defs><style>.aa95ce2f-fd5e-4419-8d26-2037e7a20ab1{fill:#f57b71;}.e1866084-2800-4453-a3fb-ca9a403619e0{fill:#ffd9d5;}.be665f2b-b5c5-4f9b-8f5d-041bb3a196ae{fill:none;stroke:#ffd9d5;stroke-linecap:round;stroke-linejoin:round;}</style></defs><title>bk_ct_flowers</title><path class="aa95ce2f-fd5e-4419-8d26-2037e7a20ab1" d="M555.53,421.65l-8.86-5.73-6.41,8.39a7.85,7.85,0,0,1-14-4l-1-10.5-10.56.21A7.85,7.85,0,0,1,509,396.57l7.56-7.37-6.74-8.11a7.85,7.85,0,0,1,7-12.81l10.47,1.32,2.14-10.34a7.85,7.85,0,0,1,14.38-2.5l5.5,9,9.42-4.77a7.85,7.85,0,0,1,10.92,9.68L566,380.6l9.6,4.38a7.85,7.85,0,0,1-.76,14.58l-10,3.36,2.56,10.24A7.84,7.84,0,0,1,555.53,421.65Z" transform="translate(-490.59 -92)"/><path class="e1866084-2800-4453-a3fb-ca9a403619e0" d="M547,399.64l-2.66-1.72-1.93,2.51a2.35,2.35,0,0,1-4.21-1.19l-.31-3.15-3.17.06a2.36,2.36,0,0,1-1.69-4l2.27-2.21-2-2.43a2.36,2.36,0,0,1,2.11-3.85l3.14.4.64-3.1a2.35,2.35,0,0,1,4.31-.75l1.65,2.7,2.83-1.43a2.35,2.35,0,0,1,3.27,2.9l-1.08,3,2.88,1.32a2.35,2.35,0,0,1-.23,4.37l-3,1,.77,3.07A2.35,2.35,0,0,1,547,399.64Z" transform="translate(-490.59 -92)"/><line class="be665f2b-b5c5-4f9b-8f5d-041bb3a196ae" x1="48.3" y1="312.64" x2="44.79" y2="323.16"/><line class="be665f2b-b5c5-4f9b-8f5d-041bb3a196ae" x1="59.62" y1="310.8" x2="65.35" y2="320.28"/><line class="be665f2b-b5c5-4f9b-8f5d-041bb3a196ae" x1="65.56" y1="300.98" x2="76.49" y2="302.77"/><line class="be665f2b-b5c5-4f9b-8f5d-041bb3a196ae" x1="39.09" y1="304.48" x2="28.8" y2="308.6"/><line class="be665f2b-b5c5-4f9b-8f5d-041bb3a196ae" x1="39.36" y1="292.17" x2="29.56" y2="286.99"/><line class="be665f2b-b5c5-4f9b-8f5d-041bb3a196ae" x1="48.93" y1="284.43" x2="46.55" y2="273.6"/><line class="be665f2b-b5c5-4f9b-8f5d-041bb3a196ae" x1="61.02" y1="286.72" x2="67.74" y2="277.9"/><path class="aa95ce2f-fd5e-4419-8d26-2037e7a20ab1" d="M674.53,268.65l-8.86-5.73-6.41,8.39a7.85,7.85,0,0,1-14-4l-1-10.5-10.56.21A7.85,7.85,0,0,1,628,243.57l7.56-7.37-6.74-8.11a7.85,7.85,0,0,1,7-12.81l10.47,1.32,2.14-10.34a7.85,7.85,0,0,1,14.38-2.5l5.5,9,9.42-4.77a7.85,7.85,0,0,1,10.92,9.68L685,227.6l9.6,4.38a7.85,7.85,0,0,1-.76,14.58l-10,3.36,2.56,10.24A7.84,7.84,0,0,1,674.53,268.65Z" transform="translate(-490.59 -92)"/><path class="e1866084-2800-4453-a3fb-ca9a403619e0" d="M666,246.64l-2.66-1.72-1.93,2.51a2.35,2.35,0,0,1-4.21-1.19l-.31-3.15-3.17.06a2.36,2.36,0,0,1-1.69-4l2.27-2.21-2-2.43a2.36,2.36,0,0,1,2.11-3.85l3.14.4.64-3.1a2.35,2.35,0,0,1,4.31-.75l1.65,2.7,2.83-1.43a2.35,2.35,0,0,1,3.27,2.9l-1.08,3,2.88,1.32a2.35,2.35,0,0,1-.23,4.37l-3,1,.77,3.07A2.35,2.35,0,0,1,666,246.64Z" transform="translate(-490.59 -92)"/><line class="be665f2b-b5c5-4f9b-8f5d-041bb3a196ae" x1="167.3" y1="159.64" x2="163.79" y2="170.16"/><line class="be665f2b-b5c5-4f9b-8f5d-041bb3a196ae" x1="178.62" y1="157.8" x2="184.35" y2="167.28"/><line class="be665f2b-b5c5-4f9b-8f5d-041bb3a196ae" x1="184.56" y1="147.98" x2="195.49" y2="149.77"/><line class="be665f2b-b5c5-4f9b-8f5d-041bb3a196ae" x1="158.09" y1="151.48" x2="147.8" y2="155.6"/><line class="be665f2b-b5c5-4f9b-8f5d-041bb3a196ae" x1="158.36" y1="139.17" x2="148.56" y2="133.99"/><line class="be665f2b-b5c5-4f9b-8f5d-041bb3a196ae" x1="167.93" y1="131.43" x2="165.55" y2="120.6"/><line class="be665f2b-b5c5-4f9b-8f5d-041bb3a196ae" x1="180.02" y1="133.72" x2="186.74" y2="124.9"/><path class="aa95ce2f-fd5e-4419-8d26-2037e7a20ab1" d="M609.76,307.46,602.92,303,598,309.51a6,6,0,0,1-10.83-3.07l-.81-8.11-8.14.17a6.06,6.06,0,0,1-4.35-10.39l5.83-5.68-5.2-6.26a6.06,6.06,0,0,1,5.41-9.88l8.08,1,1.64-8a6.06,6.06,0,0,1,11.1-1.93l4.24,7,7.27-3.68a6.05,6.05,0,0,1,8.42,7.47l-2.79,7.65,7.41,3.39a6,6,0,0,1-.59,11.24L616.94,293l2,7.9A6.05,6.05,0,0,1,609.76,307.46Z" transform="translate(-490.59 -92)"/><path class="e1866084-2800-4453-a3fb-ca9a403619e0" d="M603.2,290.48l-2.05-1.33-1.48,1.94a1.81,1.81,0,0,1-3.25-.92l-.24-2.43-2.45.05a1.82,1.82,0,0,1-1.3-3.12l1.75-1.7-1.56-1.88a1.81,1.81,0,0,1,1.62-3l2.42.3.5-2.39a1.82,1.82,0,0,1,3.33-.58l1.27,2.09,2.18-1.11a1.82,1.82,0,0,1,2.53,2.24l-.84,2.3,2.22,1a1.82,1.82,0,0,1-.17,3.38l-2.32.77.59,2.37A1.82,1.82,0,0,1,603.2,290.48Z" transform="translate(-490.59 -92)"/><line class="be665f2b-b5c5-4f9b-8f5d-041bb3a196ae" x1="106.33" y1="202.34" x2="103.62" y2="210.45"/><line class="be665f2b-b5c5-4f9b-8f5d-041bb3a196ae" x1="115.06" y1="200.92" x2="119.49" y2="208.24"/><line class="be665f2b-b5c5-4f9b-8f5d-041bb3a196ae" x1="119.64" y1="193.34" x2="128.08" y2="194.72"/><line class="be665f2b-b5c5-4f9b-8f5d-041bb3a196ae" x1="99.22" y1="196.04" x2="91.29" y2="199.22"/><line class="be665f2b-b5c5-4f9b-8f5d-041bb3a196ae" x1="99.44" y1="186.55" x2="91.88" y2="182.55"/><line class="be665f2b-b5c5-4f9b-8f5d-041bb3a196ae" x1="106.82" y1="180.57" x2="104.98" y2="172.22"/><line class="be665f2b-b5c5-4f9b-8f5d-041bb3a196ae" x1="116.14" y1="182.34" x2="121.33" y2="175.54"/><path class="aa95ce2f-fd5e-4419-8d26-2037e7a20ab1" d="M652.44,147.05l-5.88-3.8-4.25,5.56a5.2,5.2,0,0,1-9.3-2.65l-.7-7-7,.15a5.21,5.21,0,0,1-3.74-8.93l5-4.88-4.47-5.38a5.2,5.2,0,0,1,4.65-8.49l6.94.88,1.41-6.85a5.21,5.21,0,0,1,9.54-1.66l3.64,6,6.24-3.16a5.2,5.2,0,0,1,7.24,6.41l-2.39,6.58,6.36,2.9a5.21,5.21,0,0,1-.51,9.67l-6.63,2.22,1.7,6.79A5.2,5.2,0,0,1,652.44,147.05Z" transform="translate(-490.59 -92)"/><path class="e1866084-2800-4453-a3fb-ca9a403619e0" d="M646.81,132.45l-1.76-1.14L643.77,133a1.56,1.56,0,0,1-2.79-.79l-.21-2.09-2.1,0a1.56,1.56,0,0,1-1.12-2.67l1.5-1.47-1.34-1.61a1.57,1.57,0,0,1,1.4-2.55l2.08.26.42-2a1.56,1.56,0,0,1,2.86-.5l1.1,1.79,1.87-1a1.56,1.56,0,0,1,2.17,1.93l-.72,2,1.91.87a1.56,1.56,0,0,1-.15,2.9l-2,.67.51,2A1.56,1.56,0,0,1,646.81,132.45Z" transform="translate(-490.59 -92)"/><line class="be665f2b-b5c5-4f9b-8f5d-041bb3a196ae" x1="150.82" y1="43.77" x2="148.49" y2="50.74"/><line class="be665f2b-b5c5-4f9b-8f5d-041bb3a196ae" x1="158.32" y1="42.55" x2="162.12" y2="48.84"/><line class="be665f2b-b5c5-4f9b-8f5d-041bb3a196ae" x1="162.26" y1="36.04" x2="169.51" y2="37.23"/><line class="be665f2b-b5c5-4f9b-8f5d-041bb3a196ae" x1="144.71" y1="38.36" x2="137.89" y2="41.09"/><line class="be665f2b-b5c5-4f9b-8f5d-041bb3a196ae" x1="144.9" y1="30.2" x2="138.4" y2="26.77"/><line class="be665f2b-b5c5-4f9b-8f5d-041bb3a196ae" x1="151.24" y1="25.07" x2="149.66" y2="17.9"/><line class="be665f2b-b5c5-4f9b-8f5d-041bb3a196ae" x1="159.25" y1="26.59" x2="163.71" y2="20.75"/><path class="aa95ce2f-fd5e-4419-8d26-2037e7a20ab1" d="M539.53,160.65l-8.86-5.73-6.41,8.39a7.85,7.85,0,0,1-14.05-4l-1-10.5-10.56.21A7.85,7.85,0,0,1,493,135.57l7.56-7.37-6.74-8.11a7.85,7.85,0,0,1,7-12.81l10.47,1.32,2.14-10.34a7.85,7.85,0,0,1,14.38-2.5l5.5,9,9.42-4.77a7.85,7.85,0,0,1,10.92,9.68L550,119.6l9.6,4.38a7.85,7.85,0,0,1-.76,14.58l-10,3.36,2.56,10.24A7.84,7.84,0,0,1,539.53,160.65Z" transform="translate(-490.59 -92)"/><path class="e1866084-2800-4453-a3fb-ca9a403619e0" d="M531,138.64l-2.66-1.72-1.93,2.51a2.35,2.35,0,0,1-4.21-1.19l-.31-3.15-3.17.06a2.36,2.36,0,0,1-1.69-4l2.27-2.21-2-2.43a2.36,2.36,0,0,1,2.11-3.85l3.14.4.64-3.1a2.35,2.35,0,0,1,4.31-.75l1.65,2.7,2.83-1.43a2.35,2.35,0,0,1,3.27,2.9l-1.08,3,2.88,1.32a2.35,2.35,0,0,1-.23,4.37l-3,1,.77,3.07A2.35,2.35,0,0,1,531,138.64Z" transform="translate(-490.59 -92)"/><line class="be665f2b-b5c5-4f9b-8f5d-041bb3a196ae" x1="32.3" y1="51.64" x2="28.79" y2="62.16"/><line class="be665f2b-b5c5-4f9b-8f5d-041bb3a196ae" x1="43.62" y1="49.8" x2="49.35" y2="59.28"/><line class="be665f2b-b5c5-4f9b-8f5d-041bb3a196ae" x1="49.56" y1="39.98" x2="60.49" y2="41.77"/><line class="be665f2b-b5c5-4f9b-8f5d-041bb3a196ae" x1="23.09" y1="43.48" x2="12.8" y2="47.6"/><line class="be665f2b-b5c5-4f9b-8f5d-041bb3a196ae" x1="23.36" y1="31.17" x2="13.56" y2="25.99"/><line class="be665f2b-b5c5-4f9b-8f5d-041bb3a196ae" x1="32.93" y1="23.43" x2="30.55" y2="12.6"/><line class="be665f2b-b5c5-4f9b-8f5d-041bb3a196ae" x1="45.02" y1="25.72" x2="51.74" y2="16.9"/><path class="aa95ce2f-fd5e-4419-8d26-2037e7a20ab1" d="M580.14,230.5l-3.47-2.24-2.5,3.28a3.07,3.07,0,0,1-5.49-1.56l-.41-4.11-4.13.09a3.08,3.08,0,0,1-2.21-5.27l3-2.88-2.64-3.17a3.07,3.07,0,0,1,2.74-5l4.1.51.84-4a3.07,3.07,0,0,1,5.62-1l2.15,3.53,3.68-1.87a3.07,3.07,0,0,1,4.27,3.79l-1.41,3.88,3.76,1.71a3.07,3.07,0,0,1-.3,5.7l-3.92,1.31,1,4A3.07,3.07,0,0,1,580.14,230.5Z" transform="translate(-490.59 -92)"/><path class="e1866084-2800-4453-a3fb-ca9a403619e0" d="M576.82,221.89l-1-.67-.75,1a.92.92,0,0,1-1.65-.47l-.12-1.23-1.24,0a.92.92,0,0,1-.66-1.58l.88-.87-.79-1a.92.92,0,0,1,.82-1.5l1.23.15.25-1.21a.92.92,0,0,1,1.69-.29l.65,1.05,1.1-.56a.92.92,0,0,1,1.28,1.14l-.42,1.16,1.13.52a.92.92,0,0,1-.09,1.71l-1.18.39.3,1.2A.92.92,0,0,1,576.82,221.89Z" transform="translate(-490.59 -92)"/><line class="be665f2b-b5c5-4f9b-8f5d-041bb3a196ae" x1="83.04" y1="131.85" x2="81.67" y2="135.96"/><line class="be665f2b-b5c5-4f9b-8f5d-041bb3a196ae" x1="87.47" y1="131.13" x2="89.71" y2="134.84"/><line class="be665f2b-b5c5-4f9b-8f5d-041bb3a196ae" x1="89.79" y1="127.29" x2="94.07" y2="127.99"/><line class="be665f2b-b5c5-4f9b-8f5d-041bb3a196ae" x1="79.44" y1="128.65" x2="75.42" y2="130.27"/><line class="be665f2b-b5c5-4f9b-8f5d-041bb3a196ae" x1="79.55" y1="123.84" x2="75.72" y2="121.81"/><line class="be665f2b-b5c5-4f9b-8f5d-041bb3a196ae" x1="83.29" y1="120.81" x2="82.36" y2="116.58"/><line class="be665f2b-b5c5-4f9b-8f5d-041bb3a196ae" x1="88.02" y1="121.71" x2="90.65" y2="118.26"/><path class="aa95ce2f-fd5e-4419-8d26-2037e7a20ab1" d="M635.14,356.5l-3.47-2.24-2.5,3.28a3.07,3.07,0,0,1-5.49-1.56l-.41-4.11-4.13.09a3.08,3.08,0,0,1-2.21-5.27l3-2.88-2.64-3.17a3.07,3.07,0,0,1,2.74-5l4.1.51.84-4a3.07,3.07,0,0,1,5.62-1l2.15,3.53,3.68-1.87a3.07,3.07,0,0,1,4.27,3.79l-1.41,3.88,3.76,1.71a3.07,3.07,0,0,1-.3,5.7l-3.92,1.31,1,4A3.07,3.07,0,0,1,635.14,356.5Z" transform="translate(-490.59 -92)"/><path class="e1866084-2800-4453-a3fb-ca9a403619e0" d="M631.82,347.89l-1-.67-.75,1a.92.92,0,0,1-1.65-.47l-.12-1.23-1.24,0a.92.92,0,0,1-.66-1.58l.88-.87-.79-.95a.92.92,0,0,1,.82-1.5l1.23.15.25-1.21a.92.92,0,0,1,1.69-.29l.65,1.05,1.1-.56a.92.92,0,0,1,1.28,1.14l-.42,1.16,1.13.52a.92.92,0,0,1-.09,1.71l-1.18.39.3,1.2A.92.92,0,0,1,631.82,347.89Z" transform="translate(-490.59 -92)"/><line class="be665f2b-b5c5-4f9b-8f5d-041bb3a196ae" x1="138.04" y1="257.85" x2="136.67" y2="261.96"/><line class="be665f2b-b5c5-4f9b-8f5d-041bb3a196ae" x1="142.47" y1="257.13" x2="144.71" y2="260.84"/><line class="be665f2b-b5c5-4f9b-8f5d-041bb3a196ae" x1="144.79" y1="253.29" x2="149.07" y2="253.99"/><line class="be665f2b-b5c5-4f9b-8f5d-041bb3a196ae" x1="134.44" y1="254.65" x2="130.42" y2="256.27"/><line class="be665f2b-b5c5-4f9b-8f5d-041bb3a196ae" x1="134.55" y1="249.84" x2="130.72" y2="247.81"/><line class="be665f2b-b5c5-4f9b-8f5d-041bb3a196ae" x1="138.29" y1="246.81" x2="137.36" y2="242.58"/><line class="be665f2b-b5c5-4f9b-8f5d-041bb3a196ae" x1="143.02" y1="247.71" x2="145.65" y2="244.26"/></svg>