<svg id="b0d249ab-00c0-4446-9d0a-eabd4606c927" data-name="圖層 1" xmlns="http://www.w3.org/2000/svg" viewBox="0 0 190.7 284.8"><defs><style>.ba5dcddf-3479-4c46-a35c-1db520da7006{fill:#b93500;}.ac531c05-5b93-48ca-98be-661b50190dbf{fill:#ffa578;stroke:#c0703e;stroke-linecap:round;stroke-linejoin:round;stroke-width:2px;}</style></defs><title>bk_ct_leafs</title><path class="ba5dcddf-3479-4c46-a35c-1db520da7006" d="M614.49,432.3s20.9,15.88,41.83-4.29c0,0-10.92-8.11-28.28-10,0,0,15.83-17.74,6.14-41.32,0,0-22.64,10-21.22,36a51.77,51.77,0,0,0-27.61-11.9S586.64,433,614.49,432.3Z" transform="translate(-572.13 -376.68)"/><line class="ac531c05-5b93-48ca-98be-661b50190dbf" x1="56.54" y1="15.55" x2="36.68" y2="71.64"/><line class="ac531c05-5b93-48ca-98be-661b50190dbf" x1="22.55" y1="32.16" x2="37.18" y2="44.77"/><line class="ac531c05-5b93-48ca-98be-661b50190dbf" x1="72.79" y1="52.07" x2="52.27" y2="50.11"/><path class="ba5dcddf-3479-4c46-a35c-1db520da7006" d="M697.14,520.06s26.2-1.65,28.84-30.6c0,0-13.56,1-27.94,10.92,0,0,.38-23.76-22.37-35.27,0,0-10.58,22.38,7.47,41.1a51.71,51.71,0,0,0-28.67,9.05S676.57,538.84,697.14,520.06Z" transform="translate(-572.13 -376.68)"/><line class="ac531c05-5b93-48ca-98be-661b50190dbf" x1="109.54" y1="103.8" x2="131.2" y2="159.21"/><line class="ac531c05-5b93-48ca-98be-661b50190dbf" x1="94.69" y1="138.59" x2="114" y2="138.56"/><line class="ac531c05-5b93-48ca-98be-661b50190dbf" x1="145.71" y1="120.8" x2="128.9" y2="132.73"/><path class="ba5dcddf-3479-4c46-a35c-1db520da7006" d="M685.85,627s22.62,13.33,41-9.15c0,0-11.79-6.77-29.25-6.63,0,0,13.64-19.47,1.27-41.76,0,0-21.32,12.6-16.88,38.22a51.72,51.72,0,0,0-28.81-8.59S658.29,631,685.85,627Z" transform="translate(-572.13 -376.68)"/><line class="ac531c05-5b93-48ca-98be-661b50190dbf" x1="123.12" y1="208.85" x2="109.96" y2="266.88"/><line class="ac531c05-5b93-48ca-98be-661b50190dbf" x1="91.31" y1="229.32" x2="107.31" y2="240.13"/><line class="ac531c05-5b93-48ca-98be-661b50190dbf" x1="143.53" y1="243.22" x2="122.92" y2="243.67"/><path class="ba5dcddf-3479-4c46-a35c-1db520da7006" d="M731,557.34s-18.27,8.31-12.28,29.72a47.82,47.82,0,0,0,17-15.41s6.2,17.09,25.6,19.12c0,0,1.46-18.88-16.54-27.34a39.61,39.61,0,0,0,18-14.29S740.62,538.31,731,557.34Z" transform="translate(-572.13 -376.68)"/><line class="ac531c05-5b93-48ca-98be-661b50190dbf" x1="180.73" y1="204.74" x2="150.16" y2="171.02"/><line class="ac531c05-5b93-48ca-98be-661b50190dbf" x1="181.87" y1="175.82" x2="168.07" y2="181.11"/><line class="ac531c05-5b93-48ca-98be-661b50190dbf" x1="150.24" y1="202.44" x2="159.01" y2="189.33"/><path class="ba5dcddf-3479-4c46-a35c-1db520da7006" d="M626.11,633.15s-12.66-1.8-16.78,11.73a30.4,30.4,0,0,0,14.4-2.43,20,20,0,0,0,7.17,19s7.26-9.63.51-20.33A25.2,25.2,0,0,0,646,639.67S637.77,626.24,626.11,633.15Z" transform="translate(-572.13 -376.68)"/><line class="ac531c05-5b93-48ca-98be-661b50190dbf" x1="57.43" y1="276.88" x2="52.59" y2="248.31"/><line class="ac531c05-5b93-48ca-98be-661b50190dbf" x1="67.96" y1="261.76" x2="58.75" y2="259.86"/><line class="ac531c05-5b93-48ca-98be-661b50190dbf" x1="41.87" y1="265.19" x2="51.06" y2="261.16"/><path class="ba5dcddf-3479-4c46-a35c-1db520da7006" d="M612.39,588.83s19.29,8.74,32.13-10.89a50.4,50.4,0,0,0-24-2.79s9.26-16.8-2.6-33.61c0,0-16,12-10.22,32.12a41.79,41.79,0,0,0-23.87-4.39S590.61,594.43,612.39,588.83Z" transform="translate(-572.13 -376.68)"/><line class="ac531c05-5b93-48ca-98be-661b50190dbf" x1="44.21" y1="178.09" x2="38.67" y2="225.78"/><line class="ac531c05-5b93-48ca-98be-661b50190dbf" x1="20.45" y1="197.27" x2="34.23" y2="204.55"/><line class="ac531c05-5b93-48ca-98be-661b50190dbf" x1="63.55" y1="203.89" x2="47.06" y2="206.04"/><path class="ba5dcddf-3479-4c46-a35c-1db520da7006" d="M595.76,507.31s15.19,3,21.06-13.12a36.84,36.84,0,0,0-17.59,2s3.79-13.51-7.46-23.49c0,0-9.4,11.18-1.92,24.57a30.52,30.52,0,0,0-17.72.86S581.19,514.93,595.76,507.31Z" transform="translate(-572.13 -376.68)"/><line class="ac531c05-5b93-48ca-98be-661b50190dbf" x1="20.75" y1="105.72" x2="24.78" y2="140.6"/><line class="ac531c05-5b93-48ca-98be-661b50190dbf" x1="7.05" y1="123.34" x2="18.07" y2="126.22"/><line class="ac531c05-5b93-48ca-98be-661b50190dbf" x1="38.83" y1="120.86" x2="27.45" y2="125.14"/></svg>