<svg id="a1599cbb-54c1-42e9-80aa-882c32f3ae25" data-name="圖層 1" xmlns="http://www.w3.org/2000/svg" viewBox="0 0 165.69 289.95"><defs><style>.fb35e4ab-3e2a-4a3d-b399-2de5305b47b6{fill:#78c400;}.ef5f9ca6-390d-45f3-bbea-b2ef4a3c6561{fill:none;stroke:#007552;stroke-linecap:round;stroke-linejoin:round;stroke-width:2px;opacity:0.8;}</style></defs><title>bk_ct_leafs_years</title><path class="fb35e4ab-3e2a-4a3d-b399-2de5305b47b6" d="M779.08,378.36s25.76,5,35.64-22.31c0,0-13.38-2.46-29.8,3.5,0,0,6.38-22.9-12.72-39.79,0,0-15.9,19-3.17,41.65a51.75,51.75,0,0,0-30,1.52S754.42,391.32,779.08,378.36Z" transform="translate(-727.09 -319.76)"/><line class="ef5f9ca6-390d-45f3-bbea-b2ef4a3c6561" x1="47.03" y1="16.39" x2="53.97" y2="75.48"/><line class="ef5f9ca6-390d-45f3-bbea-b2ef4a3c6561" x1="23.86" y1="46.29" x2="42.56" y2="51.15"/><line class="ef5f9ca6-390d-45f3-bbea-b2ef4a3c6561" x1="77.73" y1="41.98" x2="58.45" y2="49.28"/><path class="fb35e4ab-3e2a-4a3d-b399-2de5305b47b6" d="M878.62,415.11s22.3-13.85,10.92-40.6c0,0-11.47,7.3-19.44,22.84,0,0-10.92-21.11-36.41-20.48,0,0,1.28,24.73,26,32.67a51.76,51.76,0,0,0-21,21.55S869.39,441.39,878.62,415.11Z" transform="translate(-727.09 -319.76)"/><line class="ef5f9ca6-390d-45f3-bbea-b2ef4a3c6561" x1="119.17" y1="67.81" x2="164.48" y2="106.37"/><line class="ef5f9ca6-390d-45f3-bbea-b2ef4a3c6561" x1="122.56" y1="105.49" x2="139.55" y2="96.32"/><line class="ef5f9ca6-390d-45f3-bbea-b2ef4a3c6561" x1="159.08" y1="65.66" x2="149.92" y2="84.13"/><path class="fb35e4ab-3e2a-4a3d-b399-2de5305b47b6" d="M816.16,508s-18.57,24.6,5.2,49.09c0,0,9.48-12.85,11.64-33.24,0,0,20.89,18.51,48.54,7,0,0-11.86-26.54-42.33-24.77,0,0,12.08-13.19,13.85-32.47C853.06,473.66,815.16,475.32,816.16,508Z" transform="translate(-727.09 -319.76)"/><line class="ef5f9ca6-390d-45f3-bbea-b2ef4a3c6561" x1="136.17" y1="204.74" x2="70.23" y2="181.65"/><line class="ef5f9ca6-390d-45f3-bbea-b2ef4a3c6561" x1="116.53" y1="164.9" x2="101.79" y2="182.13"/><line class="ef5f9ca6-390d-45f3-bbea-b2ef4a3c6561" x1="93.36" y1="223.96" x2="95.58" y2="199.86"/><path class="fb35e4ab-3e2a-4a3d-b399-2de5305b47b6" d="M804.12,463.5s16,14.69,34.76-.29a51.69,51.69,0,0,0-22.5-10.43s14.4-13.37,8.25-33.53c0,0-19.41,6.5-20.25,28a42.87,42.87,0,0,0-21.81-11.93S781.15,462,804.12,463.5Z" transform="translate(-727.09 -319.76)"/><line class="ef5f9ca6-390d-45f3-bbea-b2ef4a3c6561" x1="91.81" y1="111.87" x2="71.13" y2="156.49"/><line class="ef5f9ca6-390d-45f3-bbea-b2ef4a3c6561" x1="62.55" y1="122.91" x2="73.62" y2="134.41"/><line class="ef5f9ca6-390d-45f3-bbea-b2ef4a3c6561" x1="102.35" y1="143.18" x2="85.61" y2="139.97"/><path class="fb35e4ab-3e2a-4a3d-b399-2de5305b47b6" d="M772.56,557.55s9.53-14.2-4.39-27a40.73,40.73,0,0,0-5.42,18.77s-12.14-9.61-27.11-2.41c0,0,7.39,14.34,24.21,12.42a33.74,33.74,0,0,0-6.67,18.41S774.12,575.63,772.56,557.55Z" transform="translate(-727.09 -319.76)"/><line class="ef5f9ca6-390d-45f3-bbea-b2ef4a3c6561" x1="18.88" y1="230.11" x2="56.11" y2="240.86"/><line class="ef5f9ca6-390d-45f3-bbea-b2ef4a3c6561" x1="30.98" y1="251.57" x2="38.62" y2="241.57"/><line class="ef5f9ca6-390d-45f3-bbea-b2ef4a3c6561" x1="42" y1="218.14" x2="41.51" y2="231.56"/><path class="fb35e4ab-3e2a-4a3d-b399-2de5305b47b6" d="M821.16,599.93s13,3.84,19.42-9.75a32.24,32.24,0,0,0-15.5.35s4.39-11.47-4.62-21.09c0,0-9.1,9-3.65,21.28a26.78,26.78,0,0,0-15.52-.68S807.84,605.4,821.16,599.93Z" transform="translate(-727.09 -319.76)"/><line class="ef5f9ca6-390d-45f3-bbea-b2ef4a3c6561" x1="93.57" y1="258.21" x2="94.27" y2="288.95"/><line class="ef5f9ca6-390d-45f3-bbea-b2ef4a3c6561" x1="80.19" y1="272.47" x2="89.58" y2="275.88"/><line class="ef5f9ca6-390d-45f3-bbea-b2ef4a3c6561" x1="108.12" y1="272.87" x2="97.85" y2="275.69"/><path class="fb35e4ab-3e2a-4a3d-b399-2de5305b47b6" d="M761.3,485.41s19.6-9.33,12.72-32.35a51.62,51.62,0,0,0-18.08,17s-7-18.35-28-20.18c0,0-1.23,20.43,18.38,29.24a42.76,42.76,0,0,0-19.21,15.76S751.29,506.14,761.3,485.41Z" transform="translate(-727.09 -319.76)"/><line class="ef5f9ca6-390d-45f3-bbea-b2ef4a3c6561" x1="10.17" y1="140.04" x2="43.83" y2="175.89"/><line class="ef5f9ca6-390d-45f3-bbea-b2ef4a3c6561" x1="9.48" y1="171.3" x2="24.28" y2="165.33"/><line class="ef5f9ca6-390d-45f3-bbea-b2ef4a3c6561" x1="43.15" y1="141.95" x2="33.93" y2="156.28"/></svg>