<svg id="a458f80e-1889-4386-86c5-683f006ee3c2" data-name="圖層 1" xmlns="http://www.w3.org/2000/svg" viewBox="0 0 932.41 374.25"><defs><style>.b2b8c9fe-f473-4f87-9041-e024d6abcf84{fill:#007552;}.e240f770-4acd-465f-a96b-008b993752d7{fill:#f5dec7;}.b8979d19-3e0a-4178-8f37-c9921f42a9b3,.e240f770-4acd-465f-a96b-008b993752d7{opacity:0.9;}.fc229d1a-007b-42d9-80bf-a3d5c692e488{fill:#ffa9a2;}.b0ad7b09-3fc6-4806-920e-2eefd2c4241c,.fc229d1a-007b-42d9-80bf-a3d5c692e488,.fefc5777-e8f7-41dd-812f-83599b899c98{opacity:0.8;}.b0ad7b09-3fc6-4806-920e-2eefd2c4241c{fill:#ffe8d1;}.b8979d19-3e0a-4178-8f37-c9921f42a9b3{fill:#ffa978;}.b0b40a47-db81-4e66-9e13-74a2fcfada90,.fefc5777-e8f7-41dd-812f-83599b899c98{fill:none;stroke-miterlimit:10;}.b0b40a47-db81-4e66-9e13-74a2fcfada90{stroke:#f5dec7;}.fefc5777-e8f7-41dd-812f-83599b899c98{stroke:#ffa9a2;}</style></defs><title>cloud</title><path class="b2b8c9fe-f473-4f87-9041-e024d6abcf84" d="M446.31,222.48a43.18,43.18,0,0,0-66.13-20,73.39,73.39,0,0,0-34.67-8.38c-28.41,0-52.23,15-58.57,35.24-12.79,3.61-22.07,14.4-22.07,27.15,0,15.71,14.1,28.45,31.49,28.45a34.13,34.13,0,0,0,14.34-3.12c2.72,9.58,15.95,16.85,31.86,16.85,9.57,0,18.16-2.62,24.09-6.8a124.75,124.75,0,0,0,18.19,1.31c18.66,0,35.37-4,46.61-10.24a31.49,31.49,0,1,0,14.86-60.46Z" transform="translate(-139.59 -108)"/><path class="e240f770-4acd-465f-a96b-008b993752d7" d="M321,280.27a43.18,43.18,0,0,0-66.13-20,73.33,73.33,0,0,0-34.67-8.38c-28.41,0-52.22,15-58.57,35.24-12.79,3.62-22.07,14.4-22.07,27.15,0,15.71,14.1,28.45,31.49,28.45a34,34,0,0,0,14.35-3.12c2.72,9.58,15.95,16.85,31.86,16.85,9.56,0,18.15-2.62,24.08-6.8a124.79,124.79,0,0,0,18.2,1.31c18.65,0,35.36-4,46.61-10.24A31.49,31.49,0,1,0,321,280.27Z" transform="translate(-139.59 -108)"/><path class="fc229d1a-007b-42d9-80bf-a3d5c692e488" d="M908.41,144a54.69,54.69,0,0,0-83.76-25.33A92.88,92.88,0,0,0,780.73,108c-36,0-66.14,19-74.18,44.64-16.2,4.58-28,18.24-28,34.39,0,19.9,17.86,36,39.89,36a43.27,43.27,0,0,0,18.17-3.95c3.45,12.14,20.2,21.34,40.36,21.34,12.11,0,23-3.32,30.5-8.61a159.13,159.13,0,0,0,23,1.66c23.63,0,44.8-5,59-13A39.89,39.89,0,1,0,908.41,144Z" transform="translate(-139.59 -108)"/><path class="b0ad7b09-3fc6-4806-920e-2eefd2c4241c" d="M526.68,314.31A15.61,15.61,0,0,0,512,304a15.39,15.39,0,0,0-9.23,3.05A26.35,26.35,0,0,0,490.28,304c-10.26,0-18.86,5.46-21.16,12.8a10.53,10.53,0,0,0-8,9.87c0,5.71,5.1,10.34,11.38,10.34a12.35,12.35,0,0,0,5.18-1.13c1,3.48,5.76,6.12,11.5,6.12a15.23,15.23,0,0,0,8.7-2.47,44.65,44.65,0,0,0,6.57.47c6.74,0,12.77-1.44,16.83-3.72a11.27,11.27,0,0,0,4.36.87,11.45,11.45,0,0,0,1-22.84Z" transform="translate(-139.59 -108)"/><path class="b8979d19-3e0a-4178-8f37-c9921f42a9b3" d="M1048.24,259.51a35.66,35.66,0,0,0-54.76-16.66,60.43,60.43,0,0,0-28.71-7c-23.52,0-43.24,12.52-48.5,29.36-10.59,3-18.27,12-18.27,22.62,0,13.09,11.67,23.71,26.08,23.71A28.07,28.07,0,0,0,936,309c2.26,8,13.21,14,26.39,14,7.92,0,15-2.19,19.94-5.67a102.44,102.44,0,0,0,15.07,1.09c15.44,0,29.28-3.31,38.59-8.53a26.21,26.21,0,1,0,12.3-50.38Z" transform="translate(-139.59 -108)"/><line class="b0b40a47-db81-4e66-9e13-74a2fcfada90" x1="77.41" y1="248" x2="151.41" y2="374"/><line class="b0b40a47-db81-4e66-9e13-74a2fcfada90" x1="57.41" y1="242" x2="131.41" y2="368"/><line class="b0b40a47-db81-4e66-9e13-74a2fcfada90" x1="109.41" y1="242" x2="183.41" y2="368"/><line class="b0b40a47-db81-4e66-9e13-74a2fcfada90" x1="131.41" y1="235" x2="205.41" y2="361"/><line class="b0b40a47-db81-4e66-9e13-74a2fcfada90" x1="94.41" y1="242" x2="168.41" y2="368"/><line class="fefc5777-e8f7-41dd-812f-83599b899c98" x1="605.53" y1="122.81" x2="522.41" y2="248"/><line class="fefc5777-e8f7-41dd-812f-83599b899c98" x1="612.53" y1="124.81" x2="529.41" y2="250"/><line class="fefc5777-e8f7-41dd-812f-83599b899c98" x1="622.53" y1="124.81" x2="539.41" y2="250"/><line class="fefc5777-e8f7-41dd-812f-83599b899c98" x1="633.53" y1="124.81" x2="550.41" y2="250"/><line class="fefc5777-e8f7-41dd-812f-83599b899c98" x1="664.53" y1="124.81" x2="581.41" y2="250"/><line class="fefc5777-e8f7-41dd-812f-83599b899c98" x1="695.53" y1="124.81" x2="612.41" y2="250"/></svg>