<svg id="a92b4100-9e6b-4c27-9c72-af98ff13ead8" data-name="圖層 1" xmlns="http://www.w3.org/2000/svg" viewBox="0 0 629.8 503.32"><defs><style>.a2dfb9ff-f3db-4064-bc47-e46a388e92d3,.a781970f-12d6-4cc1-ae07-29cf16706503,.ab50bec0-9026-424f-b8a4-6a7a3855d9d3,.ba9f9389-6d8d-451e-8b35-40b552f1d683,.e7b6cafe-a254-4d2c-b205-cc8e501fbca4{fill:none;}.a2dfb9ff-f3db-4064-bc47-e46a388e92d3,.a47ae736-754f-483c-8d97-89b812f60f40,.a781970f-12d6-4cc1-ae07-29cf16706503,.ab50bec0-9026-424f-b8a4-6a7a3855d9d3,.bc8438a4-01c7-4926-a7e8-b0eb99563345,.e12a4a5a-5ae4-445f-98ea-c2ac6cb6e9af,.e7b6cafe-a254-4d2c-b205-cc8e501fbca4{stroke:#007552;}.a2dfb9ff-f3db-4064-bc47-e46a388e92d3,.a47ae736-754f-483c-8d97-89b812f60f40,.a781970f-12d6-4cc1-ae07-29cf16706503,.ab50bec0-9026-424f-b8a4-6a7a3855d9d3,.ba9f9389-6d8d-451e-8b35-40b552f1d683,.bc8438a4-01c7-4926-a7e8-b0eb99563345,.e12a4a5a-5ae4-445f-98ea-c2ac6cb6e9af{stroke-miterlimit:10;}.ab7a070d-0052-471e-a4ac-6229788ecdb6,.bc8438a4-01c7-4926-a7e8-b0eb99563345{fill:#007552;}.a47ae736-754f-483c-8d97-89b812f60f40,.e12a4a5a-5ae4-445f-98ea-c2ac6cb6e9af{fill:#fbf8ef;}.a47ae736-754f-483c-8d97-89b812f60f40{stroke-width:3px;}.a781970f-12d6-4cc1-ae07-29cf16706503,.ab50bec0-9026-424f-b8a4-6a7a3855d9d3{font-size:35.39px;font-family:NotoSansCJKtc-Bold-B5pc-H, Noto Sans CJK TC;}.ab50bec0-9026-424f-b8a4-6a7a3855d9d3{letter-spacing:0.03em;}.a781970f-12d6-4cc1-ae07-29cf16706503{letter-spacing:0.03em;}.ba9f9389-6d8d-451e-8b35-40b552f1d683{stroke:#f6c745;}.e7b6cafe-a254-4d2c-b205-cc8e501fbca4{stroke-linecap:round;stroke-linejoin:round;}</style></defs><title>bookRighPage_img1t</title><polygon class="a2dfb9ff-f3db-4064-bc47-e46a388e92d3" points="17.14 27.94 30.27 27.94 51.3 99.9 51.3 465.65 39.16 478.01 10.96 478.01 0.52 465.65 0.52 98.45 17.14 27.94"/><polyline class="a2dfb9ff-f3db-4064-bc47-e46a388e92d3" points="51.49 99.85 39.16 107.72 10.96 107.72 0.33 98.42"/><line class="a2dfb9ff-f3db-4064-bc47-e46a388e92d3" x1="38.58" y1="110.94" x2="39.13" y2="364.24"/><line class="a2dfb9ff-f3db-4064-bc47-e46a388e92d3" x1="10.38" y1="126.68" x2="11.15" y2="467.99"/><rect class="a2dfb9ff-f3db-4064-bc47-e46a388e92d3" x="57.93" y="25.43" width="545.95" height="62.25"/><path class="a2dfb9ff-f3db-4064-bc47-e46a388e92d3" d="M353.43,582.41h150.3v89.44H324.85V611A28.58,28.58,0,0,1,353.43,582.41Z" transform="translate(-263.7 -195.06)"/><rect class="ab7a070d-0052-471e-a4ac-6229788ecdb6" x="115.41" y="409.71" width="124.62" height="44.72"/><polyline class="a2dfb9ff-f3db-4064-bc47-e46a388e92d3" points="115.41 476.79 115.41 387.35 122.23 381.39"/><polyline class="a2dfb9ff-f3db-4064-bc47-e46a388e92d3" points="240.03 387.35 226.91 381.39 102.89 381.39 78.78 389.53"/><circle class="a47ae736-754f-483c-8d97-89b812f60f40" cx="174.14" cy="432.07" r="11.93"/><circle class="a47ae736-754f-483c-8d97-89b812f60f40" cx="139.86" cy="432.07" r="11.93"/><circle class="a47ae736-754f-483c-8d97-89b812f60f40" cx="208.43" cy="432.07" r="11.93"/><polygon class="ab7a070d-0052-471e-a4ac-6229788ecdb6" points="30.02 25.04 22.87 0 17.14 25.04 30.02 25.04"/><line class="a2dfb9ff-f3db-4064-bc47-e46a388e92d3" x1="65.09" y1="25.43" x2="65.09" y2="32.59"/><line class="a2dfb9ff-f3db-4064-bc47-e46a388e92d3" x1="71.55" y1="25.43" x2="71.55" y2="32.59"/><line class="a2dfb9ff-f3db-4064-bc47-e46a388e92d3" x1="78.02" y1="25.43" x2="78.02" y2="32.59"/><line class="a2dfb9ff-f3db-4064-bc47-e46a388e92d3" x1="84.49" y1="25.43" x2="84.49" y2="32.59"/><line class="a2dfb9ff-f3db-4064-bc47-e46a388e92d3" x1="90.96" y1="25.43" x2="90.96" y2="32.59"/><line class="a2dfb9ff-f3db-4064-bc47-e46a388e92d3" x1="97.43" y1="25.43" x2="97.43" y2="32.59"/><line class="a2dfb9ff-f3db-4064-bc47-e46a388e92d3" x1="103.9" y1="25.43" x2="103.9" y2="32.59"/><line class="a2dfb9ff-f3db-4064-bc47-e46a388e92d3" x1="110.36" y1="25.43" x2="110.36" y2="32.59"/><line class="a2dfb9ff-f3db-4064-bc47-e46a388e92d3" x1="116.83" y1="25.43" x2="116.83" y2="32.59"/><line class="a2dfb9ff-f3db-4064-bc47-e46a388e92d3" x1="123.3" y1="25.43" x2="123.3" y2="32.59"/><line class="a2dfb9ff-f3db-4064-bc47-e46a388e92d3" x1="129.77" y1="25.43" x2="129.77" y2="32.59"/><line class="a2dfb9ff-f3db-4064-bc47-e46a388e92d3" x1="136.24" y1="25.43" x2="136.24" y2="32.59"/><line class="a2dfb9ff-f3db-4064-bc47-e46a388e92d3" x1="142.71" y1="25.43" x2="142.71" y2="32.59"/><line class="a2dfb9ff-f3db-4064-bc47-e46a388e92d3" x1="149.17" y1="25.43" x2="149.17" y2="32.59"/><line class="a2dfb9ff-f3db-4064-bc47-e46a388e92d3" x1="155.64" y1="25.43" x2="155.64" y2="32.59"/><line class="a2dfb9ff-f3db-4064-bc47-e46a388e92d3" x1="162.11" y1="25.43" x2="162.11" y2="32.59"/><line class="a2dfb9ff-f3db-4064-bc47-e46a388e92d3" x1="168.58" y1="25.43" x2="168.58" y2="32.59"/><line class="a2dfb9ff-f3db-4064-bc47-e46a388e92d3" x1="175.05" y1="25.43" x2="175.05" y2="32.59"/><line class="a2dfb9ff-f3db-4064-bc47-e46a388e92d3" x1="181.52" y1="25.43" x2="181.52" y2="32.59"/><line class="a2dfb9ff-f3db-4064-bc47-e46a388e92d3" x1="187.99" y1="25.43" x2="187.99" y2="32.59"/><line class="a2dfb9ff-f3db-4064-bc47-e46a388e92d3" x1="194.45" y1="25.43" x2="194.45" y2="32.59"/><line class="a2dfb9ff-f3db-4064-bc47-e46a388e92d3" x1="200.92" y1="25.43" x2="200.92" y2="32.59"/><line class="a2dfb9ff-f3db-4064-bc47-e46a388e92d3" x1="207.39" y1="25.43" x2="207.39" y2="32.59"/><line class="a2dfb9ff-f3db-4064-bc47-e46a388e92d3" x1="213.86" y1="25.43" x2="213.86" y2="32.59"/><line class="a2dfb9ff-f3db-4064-bc47-e46a388e92d3" x1="220.33" y1="25.43" x2="220.33" y2="32.59"/><line class="a2dfb9ff-f3db-4064-bc47-e46a388e92d3" x1="226.8" y1="25.43" x2="226.8" y2="32.59"/><line class="a2dfb9ff-f3db-4064-bc47-e46a388e92d3" x1="351.3" y1="25.43" x2="351.3" y2="32.59"/><line class="a2dfb9ff-f3db-4064-bc47-e46a388e92d3" x1="357.77" y1="25.43" x2="357.77" y2="32.59"/><line class="a2dfb9ff-f3db-4064-bc47-e46a388e92d3" x1="364.24" y1="25.43" x2="364.24" y2="32.59"/><line class="a2dfb9ff-f3db-4064-bc47-e46a388e92d3" x1="370.7" y1="25.43" x2="370.7" y2="32.59"/><line class="a2dfb9ff-f3db-4064-bc47-e46a388e92d3" x1="377.17" y1="25.43" x2="377.17" y2="32.59"/><line class="a2dfb9ff-f3db-4064-bc47-e46a388e92d3" x1="383.64" y1="25.43" x2="383.64" y2="32.59"/><line class="a2dfb9ff-f3db-4064-bc47-e46a388e92d3" x1="390.11" y1="25.43" x2="390.11" y2="32.59"/><line class="a2dfb9ff-f3db-4064-bc47-e46a388e92d3" x1="396.58" y1="25.43" x2="396.58" y2="32.59"/><line class="a2dfb9ff-f3db-4064-bc47-e46a388e92d3" x1="403.05" y1="25.43" x2="403.05" y2="32.59"/><line class="a2dfb9ff-f3db-4064-bc47-e46a388e92d3" x1="409.51" y1="25.43" x2="409.51" y2="32.59"/><line class="a2dfb9ff-f3db-4064-bc47-e46a388e92d3" x1="415.98" y1="25.43" x2="415.98" y2="32.59"/><line class="a2dfb9ff-f3db-4064-bc47-e46a388e92d3" x1="422.45" y1="25.43" x2="422.45" y2="32.59"/><line class="a2dfb9ff-f3db-4064-bc47-e46a388e92d3" x1="428.92" y1="25.43" x2="428.92" y2="32.59"/><line class="a2dfb9ff-f3db-4064-bc47-e46a388e92d3" x1="435.39" y1="25.43" x2="435.39" y2="32.59"/><line class="a2dfb9ff-f3db-4064-bc47-e46a388e92d3" x1="441.86" y1="25.43" x2="441.86" y2="32.59"/><line class="a2dfb9ff-f3db-4064-bc47-e46a388e92d3" x1="448.32" y1="25.43" x2="448.32" y2="32.59"/><line class="a2dfb9ff-f3db-4064-bc47-e46a388e92d3" x1="454.79" y1="25.43" x2="454.79" y2="32.59"/><line class="a2dfb9ff-f3db-4064-bc47-e46a388e92d3" x1="461.26" y1="25.43" x2="461.26" y2="32.59"/><line class="a2dfb9ff-f3db-4064-bc47-e46a388e92d3" x1="467.73" y1="25.43" x2="467.73" y2="32.59"/><line class="a2dfb9ff-f3db-4064-bc47-e46a388e92d3" x1="474.2" y1="25.43" x2="474.2" y2="32.59"/><line class="a2dfb9ff-f3db-4064-bc47-e46a388e92d3" x1="480.67" y1="25.43" x2="480.67" y2="32.59"/><line class="a2dfb9ff-f3db-4064-bc47-e46a388e92d3" x1="487.14" y1="25.43" x2="487.14" y2="32.59"/><line class="a2dfb9ff-f3db-4064-bc47-e46a388e92d3" x1="493.6" y1="25.43" x2="493.6" y2="32.59"/><line class="a2dfb9ff-f3db-4064-bc47-e46a388e92d3" x1="500.07" y1="25.43" x2="500.07" y2="32.59"/><line class="a2dfb9ff-f3db-4064-bc47-e46a388e92d3" x1="506.54" y1="25.43" x2="506.54" y2="32.59"/><line class="a2dfb9ff-f3db-4064-bc47-e46a388e92d3" x1="513.01" y1="25.43" x2="513.01" y2="32.59"/><path class="a2dfb9ff-f3db-4064-bc47-e46a388e92d3" d="M413.57,561.8H326.28V514.13l1.59-9.7a143.11,143.11,0,0,0-.72-50.3l-.87-4.53V414.4h87.29v35.2l-.87,4.53a143.11,143.11,0,0,0-.72,50.3l1.59,9.7Z" transform="translate(-263.7 -195.06)"/><rect class="bc8438a4-01c7-4926-a7e8-b0eb99563345" x="113.03" y="232.94" width="25.04" height="120.21"/><text class="ab50bec0-9026-424f-b8a4-6a7a3855d9d3" transform="translate(145.42 65.33)">5</text><text class="a781970f-12d6-4cc1-ae07-29cf16706503" transform="translate(380.11 65.33)">10</text><text class="a781970f-12d6-4cc1-ae07-29cf16706503" transform="translate(538.24 65.33)">15</text><path class="a2dfb9ff-f3db-4064-bc47-e46a388e92d3" d="M867.58,282.74s-24.67-16.85-85.15-19.31c-19.07-.78-36.61.18-55.34,4.24s-37.29,9.22-56.52,9c-33.24-.35-63.05-17.29-95.54-22.19s-65.63-2.16-97.42,6.06c-102.32,26.48-108.76-17.17-156,22.18l7.87,4.3H874.73V228.36l-7.15-7.87" transform="translate(-263.7 -195.06)"/><rect class="e12a4a5a-5ae4-445f-98ea-c2ac6cb6e9af" x="113.03" y="232.94" width="10.63" height="120.21"/><circle class="e12a4a5a-5ae4-445f-98ea-c2ac6cb6e9af" cx="130.91" cy="289.47" r="5.01"/><line class="a2dfb9ff-f3db-4064-bc47-e46a388e92d3" x1="65.57" y1="274.5" x2="77.96" y2="274.5"/><line class="a2dfb9ff-f3db-4064-bc47-e46a388e92d3" x1="65.57" y1="281.99" x2="77.96" y2="281.99"/><line class="a2dfb9ff-f3db-4064-bc47-e46a388e92d3" x1="66.01" y1="289.47" x2="77.96" y2="289.47"/><line class="a2dfb9ff-f3db-4064-bc47-e46a388e92d3" x1="65.62" y1="297.34" x2="77.96" y2="297.34"/><path class="a2dfb9ff-f3db-4064-bc47-e46a388e92d3" d="M862.68,547.9c.25,13.31.48,26,.72,38.64.16,8.53.47,48.55.45,57.09,0,10.59-4.1,18.84-14.26,23.41a4.1,4.1,0,0,0-1.72,3.18c.12,6.72.49,6.32.8,13.54,0,0,0,.06,0,.1-.06.64-5.44,7.34-6,7.39-.74.06-5.67-4.22-6.89-5.2a.83.83,0,0,1-.29-.57c-.32-6.45-.72-7.4-.88-13.86-.07-2.57-.6-4.07-3.24-5.41-7.94-4-12.14-10.8-12.22-19.8-.23-26.32-.4-84.13-.49-110.46,0-3.12-1.1-4.24-5.37-5.14a180.32,180.32,0,0,1-42.85-14.91c-4-2-5.51-2.1-7.49.38-16.32,20.36-38.48,49.2-54.83,69.53-6.19,7.71-14,10.48-23.68,8.57a4.79,4.79,0,0,0-3.77,1.35c-4.72,5.14-9.22,10.47-14,16l-10-8.66c4.66-5.34,9.23-10.45,13.6-15.73a4,4,0,0,0,.6-3.53c-5-9.88-3.39-18.9,3.38-27.18,12.54-15.33,30.94-39.14,43.54-54.42.9-1.08,1.74-2.22,2.86-3.66-1.38-.55-2.52-1-3.67-1.47-10.48-3.94-15.89-14.83-12.43-25s14.23-15.66,25-12.39c5.22,1.58,10.37,3.45,15.49,5.36,1.94.72,3.16.49,4.54-1.2,15.13-18.42,33.22-36.75,48.33-55.19a6,6,0,0,0,1.09-4.1c-2.56-21.13,6-38.44,26.47-44.5a5.72,5.72,0,0,0,3.25-3.08c2.62-6.89,12.09-33.92,14.53-40.87,3.78-10.75,15-16.2,25.53-12.4s15.58,14.81,11.86,25.48c-2.42,7-12.11,33.92-14.35,40.93a5.69,5.69,0,0,0,.65,4.38c12.33,17.33,7.68,37.95-7.47,53a6.88,6.88,0,0,0-1.78,4.32c.34,23.6,3.72,47.19,4.08,70.79,0,2.41.76,3.54,3.09,4.28,5.43,1.72,10.84,3.58,16.11,5.74A19.48,19.48,0,0,1,891.7,537.7a19.69,19.69,0,0,1-24.4,11.81C865.94,549.09,864.62,548.58,862.68,547.9ZM802.11,421.05c-.69.81-1.54,1.76-2.35,2.74L720,520.3c-10,12.16-25.87,32.85-35.82,45.08-5.37,6.6-3,14.7,4.5,16.17,4.14.8,7-1.28,9.43-4.34,31.55-39.14,68.84-86.85,100.4-126l15.22-18.91Zm29,17.36c0,1,0,2,0,3.08q.45,63.47.89,126.93c.1,15.29.17,62.06.31,77.35,0,5.42,3.08,8.94,8.11,9.59,4.35.57,8.57-2.56,9.75-7.52a23.11,23.11,0,0,0,.4-5.65c-1-54.74-2-141-3.08-195.72-.06-3.29-.18-6.59-.27-9.68Zm12.77-64.87a26.39,26.39,0,1,0,16.27,33.67A26.44,26.44,0,0,0,843.93,373.54ZM818.41,518.36c0-4.4.06-8.5-.14-12.58,0-.7-1.16-1.67-2-2q-15.74-5.61-31.54-11c-.85-.29-2.37-.3-2.83.22-2.69,3.06-5.17,6.32-8,9.82ZM791.6,480.91l26.66,9.31c-.11-14-.21-27.51-.32-42ZM842.08,359l12.43,4.34c2.28-6.53,11.91-33.08,14-39.74a6.3,6.3,0,0,0-4.3-7.62,6.49,6.49,0,0,0-8.19,3.83C853.61,326.16,844.33,352.6,842.08,359ZM738.55,477c-5.13-1.8-9.74-3.64-14.49-5-2.81-.79-5.11.77-6.44,3.32s-1.36,5.62,1,7.16c3.18,2.11,7,3.28,10.56,4.79a1.46,1.46,0,0,0,1.21-.48C733.09,483.6,735.78,480.34,738.55,477ZM862.2,519.82c.06,4.48,0,8.59.26,12.7a2.86,2.86,0,0,0,1.6,1.93,48,48,0,0,0,7.05,2.41c3.89.94,7.27-.83,8.35-4.11s-.5-6.81-4.2-8.31C871.12,522.75,866.83,521.44,862.2,519.82Z" transform="translate(-263.7 -195.06)"/><line class="ba9f9389-6d8d-451e-8b35-40b552f1d683" x1="17.14" y1="196.45" x2="17.14" y2="385.35"/><path class="ba9f9389-6d8d-451e-8b35-40b552f1d683" d="M846.5,692.23c-30.67,8-73.43,7.78-118.83-2.67-82.41-19-142.33-64.31-133.82-101.28,3.73-16.18,19.93-28.07,43.88-34.74" transform="translate(-263.7 -195.06)"/><path class="ba9f9389-6d8d-451e-8b35-40b552f1d683" d="M816.78,682.73c-29.34,2.86-67.65.91-101.86-7-62.1-14.3-107.24-48.47-100.83-76.32" transform="translate(-263.7 -195.06)"/><path class="a2dfb9ff-f3db-4064-bc47-e46a388e92d3" d="M695.49,566.45" transform="translate(-263.7 -195.06)"/><line class="a2dfb9ff-f3db-4064-bc47-e46a388e92d3" x1="397.66" y1="402.65" x2="407.86" y2="410.99"/><circle class="ab7a070d-0052-471e-a4ac-6229788ecdb6" cx="571.68" cy="205.03" r="8.59"/><path class="a2dfb9ff-f3db-4064-bc47-e46a388e92d3" d="M754.29,382.83a16.11,16.11,0,0,1-6-4.45c-4.17-5.1-11.23-14.26-15.74-23-5.23-10.18-3.83-17.06-17.43-15.2-10.71,1.46-17.49,37.44-30,43.49-11.7,5.67-12.59,17.87,7.66,23.43a12.82,12.82,0,0,1,5,2.7c1.48,1.28,5.78,2.89,17.87,3.22,6.15.17,9.72-.68,11.78-1.85a20.16,20.16,0,0,1,9.86-2.56c2.89,0,6.84-.7,12.18-2.75C759.25,402.08,760.83,385.7,754.29,382.83Z" transform="translate(-263.7 -195.06)"/><path class="ab7a070d-0052-471e-a4ac-6229788ecdb6" d="M741.41,393.09s-14.7,2.42-21.06-1.23c0,0-11.39,7.46-20.23,5.3,0,0,13.74,2.35,17.62,8.49,0,0,5-5,13.41-2.89C731.15,402.76,733.12,396,741.41,393.09Z" transform="translate(-263.7 -195.06)"/><path class="a2dfb9ff-f3db-4064-bc47-e46a388e92d3" d="M716.71,342.25a.49.49,0,0,1,0-.91c1-.42,2.67-.9,3.83-.1C722,342.27,718.63,343,716.71,342.25Z" transform="translate(-263.7 -195.06)"/><path class="a2dfb9ff-f3db-4064-bc47-e46a388e92d3" d="M687.59,375.4a12.36,12.36,0,0,1,1.16-5.65c2.19-4.56,6.26-12.45,10.89-18.45,5.36-6.95,10.53-8.21,5-17.08-4.39-7-31.32,0-39.43-6.74-7.61-6.3-16.29-3-13.72,13a10.05,10.05,0,0,1-.28,4.36c-.41,1.45-.16,5,3.44,13.49,1.82,4.34,3.54,6.55,5,7.61a15.23,15.23,0,0,1,4.89,6,26.6,26.6,0,0,0,5.74,7.59C675.9,385.12,687.68,380.89,687.59,375.4Z" transform="translate(-263.7 -195.06)"/><path class="ab7a070d-0052-471e-a4ac-6229788ecdb6" d="M676.45,369.76s-6.32-9.45-5.81-15.06c0,0-8.74-5.51-10-12.37,0,0,2.73,10.33-.27,15,0,0,5,1.84,6.22,8.4A12.09,12.09,0,0,1,676.45,369.76Z" transform="translate(-263.7 -195.06)"/><path class="a2dfb9ff-f3db-4064-bc47-e46a388e92d3" d="M703.65,336a.37.37,0,0,1,.62-.3,3.24,3.24,0,0,1,1.29,2.64C705.32,339.74,703.78,337.6,703.65,336Z" transform="translate(-263.7 -195.06)"/><path class="a2dfb9ff-f3db-4064-bc47-e46a388e92d3" d="M720.26,336a1.32,1.32,0,0,1,.19-2.45c7.12-2.18,24.79-5.73,37,7.63,15.66,17.08,19.36,13.09,23.31,16.79s-13.89,4.9-24,3.24C741.5,358.68,737.13,344.21,720.26,336Z" transform="translate(-263.7 -195.06)"/><path class="e7b6cafe-a254-4d2c-b205-cc8e501fbca4" d="M721.84,336.48a76.52,76.52,0,0,1,39.72,18.36c6.52,6.29,19.16,3.77,19.16,3.77" transform="translate(-263.7 -195.06)"/><path class="e7b6cafe-a254-4d2c-b205-cc8e501fbca4" d="M769.16,352.63s-6.16,1.59-11.08-.72" transform="translate(-263.7 -195.06)"/><path class="e7b6cafe-a254-4d2c-b205-cc8e501fbca4" d="M759.8,344.81s-6.1,3.25-11.89.43" transform="translate(-263.7 -195.06)"/><path class="e7b6cafe-a254-4d2c-b205-cc8e501fbca4" d="M752.3,337.6s-5.95,3.94-15.29,2.74" transform="translate(-263.7 -195.06)"/><path class="e7b6cafe-a254-4d2c-b205-cc8e501fbca4" d="M741.43,332.64a77.8,77.8,0,0,0-11.23,5.53" transform="translate(-263.7 -195.06)"/><path class="e7b6cafe-a254-4d2c-b205-cc8e501fbca4" d="M733.22,339.06s3,3.76,2.34,7.47" transform="translate(-263.7 -195.06)"/><path class="e7b6cafe-a254-4d2c-b205-cc8e501fbca4" d="M743.15,342.93a28.26,28.26,0,0,0,3.65,13.93" transform="translate(-263.7 -195.06)"/><path class="e7b6cafe-a254-4d2c-b205-cc8e501fbca4" d="M753.94,348.89s1.92,9.8,4.66,11.93" transform="translate(-263.7 -195.06)"/><path class="e7b6cafe-a254-4d2c-b205-cc8e501fbca4" d="M764.5,356.9s1.6,3.56,4.07,4.69" transform="translate(-263.7 -195.06)"/><path class="a2dfb9ff-f3db-4064-bc47-e46a388e92d3" d="M712.38,332.74a1.3,1.3,0,0,1-1.75-1.69c2.91-6.91,11.55-22.83,29.66-23.86,23.15-1.32,22.47-6.71,27.84-7.43s-5.18,13.86-13,20.65C743.43,330.67,729.54,324.89,712.38,332.74Z" transform="translate(-263.7 -195.06)"/><path class="e7b6cafe-a254-4d2c-b205-cc8e501fbca4" d="M713.79,331.84s15.64-15.53,39.6-19.14c9-1.07,15.21-12.45,15.21-12.45" transform="translate(-263.7 -195.06)"/><path class="e7b6cafe-a254-4d2c-b205-cc8e501fbca4" d="M756.58,305.41s-2.74,5.78-7.67,8.12" transform="translate(-263.7 -195.06)"/><path class="e7b6cafe-a254-4d2c-b205-cc8e501fbca4" d="M744.58,307.71s-1.43,6.79-7.32,9.48" transform="translate(-263.7 -195.06)"/><path class="e7b6cafe-a254-4d2c-b205-cc8e501fbca4" d="M734.23,309s-.8,7.11-7.73,13.58" transform="translate(-263.7 -195.06)"/><path class="e7b6cafe-a254-4d2c-b205-cc8e501fbca4" d="M723.44,314.24a78.19,78.19,0,0,0-3,12.2" transform="translate(-263.7 -195.06)"/><path class="e7b6cafe-a254-4d2c-b205-cc8e501fbca4" d="M723.08,324.65s4.8.08,7.22,2.92" transform="translate(-263.7 -195.06)"/><path class="e7b6cafe-a254-4d2c-b205-cc8e501fbca4" d="M732.43,319.41a27.8,27.8,0,0,0,13,6" transform="translate(-263.7 -195.06)"/><path class="e7b6cafe-a254-4d2c-b205-cc8e501fbca4" d="M743.93,314.84s8.74,4.72,12.14,3.94" transform="translate(-263.7 -195.06)"/><path class="e7b6cafe-a254-4d2c-b205-cc8e501fbca4" d="M756.86,311.72s3.75,1,6.21-.18" transform="translate(-263.7 -195.06)"/></svg>