<svg id="b3c6418b-6aaf-41a0-8d80-122216826d74" data-name="圖層 1" xmlns="http://www.w3.org/2000/svg" viewBox="0 0 366 439.31"><defs><style>.b0bf7bcd-0a7b-4bcd-bff5-6df4beed2aae,.ff39007a-b91e-40c5-aed7-6a6970e553a1{fill:#ffd9d5;}.b0bf7bcd-0a7b-4bcd-bff5-6df4beed2aae{opacity:0.32;}.ad81a60e-6f2f-49bf-8e2d-57a669878cb1{fill:none;stroke:#ffd9d5;stroke-linecap:round;stroke-linejoin:round;}</style></defs><title>flower_middle</title><path class="b0bf7bcd-0a7b-4bcd-bff5-6df4beed2aae" d="M618.38,497.56l-13.63-8.81-9.86,12.9a12.06,12.06,0,0,1-21.59-6.13l-1.61-16.16-16.23.34A12.07,12.07,0,0,1,546.79,459l11.63-11.32L548,435.19a12.07,12.07,0,0,1,10.78-19.69l16.1,2,3.29-15.89a12.06,12.06,0,0,1,22.11-3.85l8.46,13.86,14.48-7.34a12.06,12.06,0,0,1,16.79,14.89l-5.56,15.25,14.77,6.74a12.07,12.07,0,0,1-1.17,22.42l-15.39,5.16,3.93,15.75A12.06,12.06,0,0,1,618.38,497.56Z" transform="translate(-300 -159)"/><path class="ff39007a-b91e-40c5-aed7-6a6970e553a1" d="M605.32,463.71l-4.09-2.64-3,3.86a3.62,3.62,0,0,1-6.48-1.84l-.48-4.84-4.87.1a3.62,3.62,0,0,1-2.6-6.21l3.49-3.4L584.21,445a3.62,3.62,0,0,1,3.24-5.91l4.83.61,1-4.77a3.61,3.61,0,0,1,6.63-1.15l2.54,4.15,4.34-2.2a3.62,3.62,0,0,1,5,4.47l-1.67,4.57,4.43,2a3.62,3.62,0,0,1-.35,6.73l-4.62,1.55,1.18,4.72A3.62,3.62,0,0,1,605.32,463.71Z" transform="translate(-300 -159)"/><line class="ad81a60e-6f2f-49bf-8e2d-57a669878cb1" x1="292.78" y1="312.41" x2="287.39" y2="328.57"/><line class="ad81a60e-6f2f-49bf-8e2d-57a669878cb1" x1="310.19" y1="309.57" x2="319.01" y2="324.16"/><line class="ad81a60e-6f2f-49bf-8e2d-57a669878cb1" x1="319.32" y1="294.47" x2="336.14" y2="297.22"/><line class="ad81a60e-6f2f-49bf-8e2d-57a669878cb1" x1="278.62" y1="299.85" x2="262.8" y2="306.19"/><line class="ad81a60e-6f2f-49bf-8e2d-57a669878cb1" x1="279.04" y1="280.93" x2="263.98" y2="272.96"/><line class="ad81a60e-6f2f-49bf-8e2d-57a669878cb1" x1="293.75" y1="269.02" x2="290.09" y2="252.37"/><line class="ad81a60e-6f2f-49bf-8e2d-57a669878cb1" x1="312.35" y1="272.54" x2="322.68" y2="258.99"/><path class="b0bf7bcd-0a7b-4bcd-bff5-6df4beed2aae" d="M376.38,264.56l-13.63-8.81-9.86,12.9a12.06,12.06,0,0,1-21.59-6.13l-1.61-16.16-16.23.34A12.07,12.07,0,0,1,304.79,226l11.63-11.32L306,202.19a12.07,12.07,0,0,1,10.78-19.69l16.1,2,3.29-15.89a12.06,12.06,0,0,1,22.11-3.85l8.46,13.86,14.48-7.34a12.06,12.06,0,0,1,16.79,14.89l-5.56,15.25,14.77,6.74a12.07,12.07,0,0,1-1.17,22.42l-15.39,5.16,3.93,15.75A12.06,12.06,0,0,1,376.38,264.56Z" transform="translate(-300 -159)"/><path class="ff39007a-b91e-40c5-aed7-6a6970e553a1" d="M363.32,230.71l-4.09-2.64-3,3.86a3.62,3.62,0,0,1-6.48-1.84l-.48-4.84-4.87.1a3.62,3.62,0,0,1-2.6-6.21l3.49-3.4L342.21,212a3.62,3.62,0,0,1,3.24-5.91l4.83.61,1-4.77a3.61,3.61,0,0,1,6.63-1.15l2.54,4.15,4.34-2.2a3.62,3.62,0,0,1,5,4.47l-1.67,4.57,4.43,2a3.62,3.62,0,0,1-.35,6.73l-4.62,1.55,1.18,4.72A3.62,3.62,0,0,1,363.32,230.71Z" transform="translate(-300 -159)"/><line class="ad81a60e-6f2f-49bf-8e2d-57a669878cb1" x1="50.78" y1="79.41" x2="45.39" y2="95.57"/><line class="ad81a60e-6f2f-49bf-8e2d-57a669878cb1" x1="68.19" y1="76.57" x2="77.01" y2="91.16"/><line class="ad81a60e-6f2f-49bf-8e2d-57a669878cb1" x1="77.32" y1="61.47" x2="94.14" y2="64.22"/><line class="ad81a60e-6f2f-49bf-8e2d-57a669878cb1" x1="36.62" y1="66.85" x2="20.8" y2="73.19"/><line class="ad81a60e-6f2f-49bf-8e2d-57a669878cb1" x1="37.04" y1="47.93" x2="21.98" y2="39.96"/><line class="ad81a60e-6f2f-49bf-8e2d-57a669878cb1" x1="51.75" y1="36.02" x2="48.09" y2="19.37"/><line class="ad81a60e-6f2f-49bf-8e2d-57a669878cb1" x1="70.35" y1="39.54" x2="80.68" y2="25.99"/><path class="b0bf7bcd-0a7b-4bcd-bff5-6df4beed2aae" d="M583.82,253.58,575,247.86l-6.4,8.37a7.82,7.82,0,0,1-14-4l-1.05-10.48L543,242a7.84,7.84,0,0,1-5.63-13.44l7.54-7.35-6.73-8.09a7.83,7.83,0,0,1,7-12.77l10.45,1.31,2.13-10.31a7.83,7.83,0,0,1,14.35-2.5l5.49,9,9.39-4.76a7.82,7.82,0,0,1,10.89,9.66l-3.6,9.89,9.58,4.38a7.83,7.83,0,0,1-.76,14.54l-10,3.35,2.56,10.21A7.83,7.83,0,0,1,583.82,253.58Z" transform="translate(-300 -159)"/><path class="ff39007a-b91e-40c5-aed7-6a6970e553a1" d="M575.35,231.61l-2.65-1.71-1.92,2.51a2.35,2.35,0,0,1-4.2-1.2l-.32-3.14-3.16.07a2.35,2.35,0,0,1-1.68-4l2.26-2.21-2-2.43a2.35,2.35,0,0,1,2.1-3.83l3.13.4.64-3.1a2.36,2.36,0,0,1,4.31-.75l1.64,2.7,2.82-1.43a2.35,2.35,0,0,1,3.27,2.9l-1.08,3,2.87,1.31a2.35,2.35,0,0,1-.23,4.36l-3,1,.76,3.06A2.34,2.34,0,0,1,575.35,231.61Z" transform="translate(-300 -159)"/><line class="ad81a60e-6f2f-49bf-8e2d-57a669878cb1" x1="267.22" y1="77.61" x2="263.72" y2="88.1"/><line class="ad81a60e-6f2f-49bf-8e2d-57a669878cb1" x1="278.51" y1="75.77" x2="284.23" y2="85.23"/><line class="ad81a60e-6f2f-49bf-8e2d-57a669878cb1" x1="284.43" y1="65.97" x2="295.35" y2="67.75"/><line class="ad81a60e-6f2f-49bf-8e2d-57a669878cb1" x1="258.03" y1="69.46" x2="247.77" y2="73.57"/><line class="ad81a60e-6f2f-49bf-8e2d-57a669878cb1" x1="258.31" y1="57.19" x2="248.53" y2="52.01"/><line class="ad81a60e-6f2f-49bf-8e2d-57a669878cb1" x1="267.85" y1="49.46" x2="265.47" y2="38.66"/><line class="ad81a60e-6f2f-49bf-8e2d-57a669878cb1" x1="279.91" y1="51.74" x2="286.62" y2="42.95"/><path class="b0bf7bcd-0a7b-4bcd-bff5-6df4beed2aae" d="M348.82,592.58,340,586.86l-6.4,8.37a7.82,7.82,0,0,1-14-4l-1.05-10.48L308,581a7.84,7.84,0,0,1-5.63-13.44l7.54-7.35-6.73-8.09a7.83,7.83,0,0,1,7-12.77l10.45,1.31,2.13-10.31a7.83,7.83,0,0,1,14.35-2.5l5.49,9,9.39-4.76a7.82,7.82,0,0,1,10.89,9.66l-3.6,9.89,9.58,4.38a7.83,7.83,0,0,1-.76,14.54l-10,3.35,2.56,10.21A7.83,7.83,0,0,1,348.82,592.58Z" transform="translate(-300 -159)"/><path class="ff39007a-b91e-40c5-aed7-6a6970e553a1" d="M340.35,570.61l-2.65-1.71-1.92,2.51a2.35,2.35,0,0,1-4.2-1.2l-.32-3.14-3.16.07a2.35,2.35,0,0,1-1.68-4l2.26-2.21-2-2.43a2.35,2.35,0,0,1,2.1-3.83l3.13.4.64-3.1a2.36,2.36,0,0,1,4.31-.75l1.64,2.7,2.82-1.43a2.35,2.35,0,0,1,3.27,2.9l-1.08,3,2.87,1.31a2.35,2.35,0,0,1-.23,4.36l-3,1,.76,3.06A2.34,2.34,0,0,1,340.35,570.61Z" transform="translate(-300 -159)"/><line class="ad81a60e-6f2f-49bf-8e2d-57a669878cb1" x1="32.22" y1="416.61" x2="28.72" y2="427.1"/><line class="ad81a60e-6f2f-49bf-8e2d-57a669878cb1" x1="43.51" y1="414.77" x2="49.23" y2="424.23"/><line class="ad81a60e-6f2f-49bf-8e2d-57a669878cb1" x1="49.43" y1="404.97" x2="60.35" y2="406.75"/><line class="ad81a60e-6f2f-49bf-8e2d-57a669878cb1" x1="23.03" y1="408.46" x2="12.77" y2="412.57"/><line class="ad81a60e-6f2f-49bf-8e2d-57a669878cb1" x1="23.31" y1="396.19" x2="13.53" y2="391.01"/><line class="ad81a60e-6f2f-49bf-8e2d-57a669878cb1" x1="32.85" y1="388.46" x2="30.47" y2="377.66"/><line class="ad81a60e-6f2f-49bf-8e2d-57a669878cb1" x1="44.91" y1="390.74" x2="51.62" y2="381.95"/><path class="b0bf7bcd-0a7b-4bcd-bff5-6df4beed2aae" d="M434.82,423.58,426,417.86l-6.4,8.37a7.82,7.82,0,0,1-14-4l-1.05-10.48L394,412a7.84,7.84,0,0,1-5.63-13.44l7.54-7.35-6.73-8.09a7.83,7.83,0,0,1,7-12.77l10.45,1.31,2.13-10.31a7.83,7.83,0,0,1,14.35-2.5l5.49,9,9.39-4.76a7.82,7.82,0,0,1,10.89,9.66l-3.6,9.89,9.58,4.38a7.83,7.83,0,0,1-.76,14.54l-10,3.35,2.56,10.21A7.83,7.83,0,0,1,434.82,423.58Z" transform="translate(-300 -159)"/><path class="ff39007a-b91e-40c5-aed7-6a6970e553a1" d="M426.35,401.61l-2.65-1.71-1.92,2.51a2.35,2.35,0,0,1-4.2-1.2l-.32-3.14-3.16.07a2.35,2.35,0,0,1-1.68-4l2.26-2.21-2-2.43a2.35,2.35,0,0,1,2.1-3.83l3.13.4.64-3.1a2.36,2.36,0,0,1,4.31-.75l1.64,2.7,2.82-1.43a2.35,2.35,0,0,1,3.27,2.9l-1.08,3,2.87,1.31a2.35,2.35,0,0,1-.23,4.36l-3,1,.76,3.06A2.34,2.34,0,0,1,426.35,401.61Z" transform="translate(-300 -159)"/><line class="ad81a60e-6f2f-49bf-8e2d-57a669878cb1" x1="118.22" y1="247.61" x2="114.72" y2="258.1"/><line class="ad81a60e-6f2f-49bf-8e2d-57a669878cb1" x1="129.51" y1="245.77" x2="135.23" y2="255.23"/><line class="ad81a60e-6f2f-49bf-8e2d-57a669878cb1" x1="135.43" y1="235.97" x2="146.35" y2="237.75"/><line class="ad81a60e-6f2f-49bf-8e2d-57a669878cb1" x1="109.03" y1="239.46" x2="98.77" y2="243.57"/><line class="ad81a60e-6f2f-49bf-8e2d-57a669878cb1" x1="109.31" y1="227.19" x2="99.53" y2="222.01"/><line class="ad81a60e-6f2f-49bf-8e2d-57a669878cb1" x1="118.85" y1="219.46" x2="116.47" y2="208.66"/><line class="ad81a60e-6f2f-49bf-8e2d-57a669878cb1" x1="130.91" y1="221.74" x2="137.62" y2="212.95"/><path class="b0bf7bcd-0a7b-4bcd-bff5-6df4beed2aae" d="M652.26,373.39l-4.94-3.19-3.57,4.67a4.37,4.37,0,0,1-7.82-2.22l-.58-5.85-5.88.12a4.37,4.37,0,0,1-3.14-7.5l4.21-4.1-3.76-4.52a4.37,4.37,0,0,1,3.91-7.13l5.83.73,1.19-5.76a4.37,4.37,0,0,1,8-1.39l3.06,5,5.25-2.66a4.37,4.37,0,0,1,6.08,5.39l-2,5.53,5.34,2.44a4.37,4.37,0,0,1-.42,8.12L657.45,363l1.42,5.7A4.37,4.37,0,0,1,652.26,373.39Z" transform="translate(-300 -159)"/><path class="ff39007a-b91e-40c5-aed7-6a6970e553a1" d="M647.53,361.13l-1.48-1-1.07,1.4a1.31,1.31,0,0,1-2.35-.66l-.18-1.76-1.76,0a1.31,1.31,0,0,1-.94-2.25l1.26-1.23-1.13-1.36a1.31,1.31,0,0,1,1.18-2.14l1.75.22.35-1.73a1.32,1.32,0,0,1,2.41-.41l.91,1.5,1.58-.8a1.31,1.31,0,0,1,1.82,1.62l-.6,1.66,1.6.73a1.31,1.31,0,0,1-.12,2.44l-1.68.56.43,1.71A1.31,1.31,0,0,1,647.53,361.13Z" transform="translate(-300 -159)"/><line class="ad81a60e-6f2f-49bf-8e2d-57a669878cb1" x1="342.99" y1="204.92" x2="341.04" y2="210.77"/><line class="ad81a60e-6f2f-49bf-8e2d-57a669878cb1" x1="349.29" y1="203.89" x2="352.49" y2="209.17"/><line class="ad81a60e-6f2f-49bf-8e2d-57a669878cb1" x1="352.6" y1="198.42" x2="358.69" y2="199.42"/><line class="ad81a60e-6f2f-49bf-8e2d-57a669878cb1" x1="337.86" y1="200.37" x2="332.13" y2="202.67"/><line class="ad81a60e-6f2f-49bf-8e2d-57a669878cb1" x1="338.01" y1="193.52" x2="332.55" y2="190.63"/><line class="ad81a60e-6f2f-49bf-8e2d-57a669878cb1" x1="343.34" y1="189.2" x2="342.01" y2="183.17"/><line class="ad81a60e-6f2f-49bf-8e2d-57a669878cb1" x1="350.07" y1="190.48" x2="353.82" y2="185.57"/></svg>