<svg id="a83ab1c8-df03-4190-9260-2edfea317783" data-name="圖層 1" xmlns="http://www.w3.org/2000/svg" viewBox="0 0 113.19 114.4"><defs><style>.e03331b9-9d1c-4ef4-82e7-1fa7a945ef3f,.e3c93987-f310-49fe-9610-63f6eaeaf7e9{fill:#ffd9d5;}.e03331b9-9d1c-4ef4-82e7-1fa7a945ef3f{opacity:0.32;}.f36951d9-b14f-490e-9756-43ca965fc129{fill:none;stroke:#ffd9d5;stroke-linecap:round;stroke-linejoin:round;}</style></defs><title>flower</title><path class="e03331b9-9d1c-4ef4-82e7-1fa7a945ef3f" d="M618.38,497.56l-13.63-8.81-9.86,12.9a12.06,12.06,0,0,1-21.59-6.13l-1.61-16.16-16.23.34A12.07,12.07,0,0,1,546.79,459l11.63-11.32L548,435.19a12.07,12.07,0,0,1,10.78-19.69l16.1,2,3.29-15.89a12.06,12.06,0,0,1,22.11-3.85l8.46,13.86,14.48-7.34a12.06,12.06,0,0,1,16.79,14.89l-5.56,15.25,14.77,6.74a12.07,12.07,0,0,1-1.17,22.42l-15.39,5.16,3.93,15.75A12.06,12.06,0,0,1,618.38,497.56Z" transform="translate(-543.12 -392)"/><path class="e3c93987-f310-49fe-9610-63f6eaeaf7e9" d="M605.32,463.71l-4.09-2.64-3,3.86a3.62,3.62,0,0,1-6.48-1.84l-.48-4.84-4.87.1a3.62,3.62,0,0,1-2.6-6.21l3.49-3.4L584.21,445a3.62,3.62,0,0,1,3.24-5.91l4.83.61,1-4.77a3.61,3.61,0,0,1,6.63-1.15l2.54,4.15,4.34-2.2a3.62,3.62,0,0,1,5,4.47l-1.67,4.57,4.43,2a3.62,3.62,0,0,1-.35,6.73l-4.62,1.55,1.18,4.72A3.62,3.62,0,0,1,605.32,463.71Z" transform="translate(-543.12 -392)"/><line class="f36951d9-b14f-490e-9756-43ca965fc129" x1="49.66" y1="79.41" x2="44.27" y2="95.57"/><line class="f36951d9-b14f-490e-9756-43ca965fc129" x1="67.07" y1="76.57" x2="75.89" y2="91.16"/><line class="f36951d9-b14f-490e-9756-43ca965fc129" x1="76.2" y1="61.47" x2="93.02" y2="64.22"/><line class="f36951d9-b14f-490e-9756-43ca965fc129" x1="35.5" y1="66.85" x2="19.68" y2="73.19"/><line class="f36951d9-b14f-490e-9756-43ca965fc129" x1="35.92" y1="47.93" x2="20.86" y2="39.96"/><line class="f36951d9-b14f-490e-9756-43ca965fc129" x1="50.63" y1="36.02" x2="46.97" y2="19.37"/><line class="f36951d9-b14f-490e-9756-43ca965fc129" x1="69.23" y1="39.54" x2="79.56" y2="25.99"/></svg>