<svg id="f7e4a60b-1430-41de-8483-b0208caf16c7" data-name="圖層 1" xmlns="http://www.w3.org/2000/svg" viewBox="0 0 73.62 74.4"><defs><style>.a8c1942d-f2b5-4931-a3c3-20d85be0d082{fill:#f57b71;}.b37ebbf5-afbc-4f36-a4ea-2cbeda8e0ca9{fill:#ffd9d5;}.ad03ee61-f2cf-410d-903a-2bb373e86a70{fill:none;stroke:#ffd9d5;stroke-linecap:round;stroke-linejoin:round;}</style></defs><title>flower_ct</title><path class="a8c1942d-f2b5-4931-a3c3-20d85be0d082" d="M600.53,388.65l-8.86-5.73-6.41,8.39a7.85,7.85,0,0,1-14-4l-1-10.5-10.56.21A7.85,7.85,0,0,1,554,363.57l7.56-7.37-6.74-8.11a7.85,7.85,0,0,1,7-12.81l10.47,1.32,2.14-10.34a7.85,7.85,0,0,1,14.38-2.5l5.5,9,9.42-4.77a7.85,7.85,0,0,1,10.92,9.68L611,347.6l9.6,4.38a7.85,7.85,0,0,1-.76,14.58l-10,3.36,2.56,10.24A7.84,7.84,0,0,1,600.53,388.65Z" transform="translate(-551.59 -320)"/><path class="b37ebbf5-afbc-4f36-a4ea-2cbeda8e0ca9" d="M592,366.64l-2.66-1.72-1.93,2.51a2.35,2.35,0,0,1-4.21-1.19l-.31-3.15-3.17.06a2.36,2.36,0,0,1-1.69-4l2.27-2.21-2-2.43a2.36,2.36,0,0,1,2.11-3.85l3.14.4.64-3.1a2.35,2.35,0,0,1,4.31-.75l1.65,2.7,2.83-1.43a2.35,2.35,0,0,1,3.27,2.9l-1.08,3,2.88,1.32a2.35,2.35,0,0,1-.23,4.37l-3,1,.77,3.07A2.35,2.35,0,0,1,592,366.64Z" transform="translate(-551.59 -320)"/><line class="ad03ee61-f2cf-410d-903a-2bb373e86a70" x1="32.3" y1="51.64" x2="28.79" y2="62.16"/><line class="ad03ee61-f2cf-410d-903a-2bb373e86a70" x1="43.62" y1="49.8" x2="49.35" y2="59.28"/><line class="ad03ee61-f2cf-410d-903a-2bb373e86a70" x1="49.56" y1="39.98" x2="60.49" y2="41.77"/><line class="ad03ee61-f2cf-410d-903a-2bb373e86a70" x1="23.09" y1="43.48" x2="12.8" y2="47.6"/><line class="ad03ee61-f2cf-410d-903a-2bb373e86a70" x1="23.36" y1="31.17" x2="13.56" y2="25.99"/><line class="ad03ee61-f2cf-410d-903a-2bb373e86a70" x1="32.93" y1="23.43" x2="30.55" y2="12.6"/><line class="ad03ee61-f2cf-410d-903a-2bb373e86a70" x1="45.02" y1="25.72" x2="51.74" y2="16.9"/></svg>