<svg id="圖層_1" data-name="圖層 1" xmlns="http://www.w3.org/2000/svg" viewBox="0 0 92 33"><defs><style>.cls-1{fill:#007552;}</style></defs><title>frontpage</title><path class="cls-1" d="M85.5,24.5H9.28l9.94-9.94a1.5,1.5,0,1,0-2.13-2.12L4.59,24.94A1.5,1.5,0,0,0,5.65,27.5H85.5a1.5,1.5,0,0,0,0-3Z"/><path class="cls-1" d="M37.72,18.83H50.37a1.63,1.63,0,1,0,0-3.26H45.12V11.24H49A1.64,1.64,0,1,0,49,8H45.12V5.35a1.66,1.66,0,1,0-3.31,0V15.57H37.72a1.63,1.63,0,1,0,0,3.26Z"/><path class="cls-1" d="M54.37,13.19H66.73a1.67,1.67,0,0,0,1.87-1.7,1.7,1.7,0,0,0-1.87-1.74H54.37a1.73,1.73,0,1,0,0,3.44Z"/><path class="cls-1" d="M69.35,16.94a1.63,1.63,0,0,0,1.17,2.78,14.54,14.54,0,0,0,3.68-.94c1.07-.34,2.07-.78,2.22-1.64h1c.16.87,1.19,1.35,2.86,1.85a11.68,11.68,0,0,0,3.19.7A1.59,1.59,0,0,0,85.16,18a1.53,1.53,0,0,0-1.36-1.56l-.65-.11a2.69,2.69,0,0,0,.48-1.67V9.31A2.36,2.36,0,0,0,83,7.4h.4a1.57,1.57,0,0,0,1.72-1.58,1.57,1.57,0,0,0-1.72-1.6H70.61a1.56,1.56,0,0,0-1.7,1.58,1.57,1.57,0,0,0,1.7,1.6H71a2.29,2.29,0,0,0-.6,1.85v5.34a2.35,2.35,0,0,0,.48,1.79l-.56.1A1.83,1.83,0,0,0,69.35,16.94Z"/></svg>