<svg id="圖層_1" data-name="圖層 1" xmlns="http://www.w3.org/2000/svg" viewBox="0 0 92 33"><defs><style>.cls-1{fill:#007552;}</style></defs><title>nextpage</title><path class="cls-1" d="M86.91,25.44l-12.5-12.5a1.5,1.5,0,1,0-2.13,2.12L82.22,25H6a1.5,1.5,0,0,0,0,3H85.84a1.5,1.5,0,0,0,1.51-1.49A1.52,1.52,0,0,0,86.91,25.44Z"/><path class="cls-1" d="M6.5,7.91a1.94,1.94,0,0,0,1.21.36h4.06V18.5a1.83,1.83,0,0,0,.41,1.25,1.59,1.59,0,0,0,1.26.53,1.65,1.65,0,0,0,1.71-1.6,1.08,1.08,0,0,0,0-.18V12.86c.72.58,1.44,1.17,2.16,1.79a1.81,1.81,0,0,0,1.16.44,1.58,1.58,0,0,0,1.23-.57,1.65,1.65,0,0,0,.43-1.1,1.75,1.75,0,0,0-.61-1.3,20.6,20.6,0,0,0-1.68-1.37h0c-.65-.5-1.28-.93-1.86-1.3a1.64,1.64,0,0,0-.83-.25V8.31h5.12a1.63,1.63,0,0,0,.26-3.25H7.72A1.62,1.62,0,0,0,6,6.51a1.09,1.09,0,0,0,0,.18A1.55,1.55,0,0,0,6.5,7.91Z"/><path class="cls-1" d="M24.31,13.69H36.67a1.67,1.67,0,0,0,1.86-1.46,1.93,1.93,0,0,0,0-.24,1.7,1.7,0,0,0-1.65-1.75H24.31a1.73,1.73,0,1,0-.37,3.44Z"/><path class="cls-1" d="M39.29,17.44a1.64,1.64,0,0,0,0,2.31,1.68,1.68,0,0,0,1.17.47,14.64,14.64,0,0,0,3.68-.94c1.07-.34,2-.78,2.21-1.64h1c.16.87,1.18,1.35,2.85,1.85a11.68,11.68,0,0,0,3.19.7,1.59,1.59,0,0,0,1.71-1.46V18.5a1.53,1.53,0,0,0-1.34-1.56l-.68-.11a2.69,2.69,0,0,0,.49-1.67V9.79A2.35,2.35,0,0,0,53,7.88h.4a1.59,1.59,0,0,0,0-3.18H40.55a1.59,1.59,0,0,0,0,3.18H41a2.33,2.33,0,0,0-.6,1.85v5.34a2.33,2.33,0,0,0,.49,1.78l-.57.11A1.82,1.82,0,0,0,39.29,17.44Z"/></svg>