<svg id="bf807921-0184-4b52-9629-0d7a0ffefd78" data-name="圖層 1" xmlns="http://www.w3.org/2000/svg" viewBox="0 0 50 48"><defs><style>.a36ce85a-f698-49f6-8ff5-41813b021129{fill:#fff;}.b4dd3769-1866-4000-beaf-ce7a142bcdea{fill:none;stroke:#84aee8;stroke-miterlimit:10;stroke-width:2px;}.a2b17168-8cb7-40f5-9880-fedb94cfa0d3{fill:#84aee8;}</style></defs><title>snow</title><path class="a36ce85a-f698-49f6-8ff5-41813b021129" d="M614.47,509.69c0,2.47-2.62,4.49-3.34,6.71s.15,5.48-1.24,7.4-4.72,2.05-6.66,3.46-3,4.51-5.34,5.26-5-1.11-7.42-1.11-5.19,1.84-7.42,1.11-3.43-3.86-5.35-5.26-5.24-1.52-6.65-3.46-.49-5.09-1.24-7.4-3.34-4.24-3.34-6.71,2.62-4.49,3.34-6.71-.16-5.48,1.24-7.4,4.72-2.05,6.66-3.46,3-4.51,5.34-5.26,5,1.12,7.42,1.12,5.19-1.84,7.42-1.12,3.42,3.86,5.34,5.26,5.25,1.52,6.66,3.46.49,5.09,1.24,7.4S614.47,507.22,614.47,509.69Z" transform="translate(-565.47 -485.69)"/><path class="b4dd3769-1866-4000-beaf-ce7a142bcdea" d="M614.47,509.69c0,2.47-2.62,4.49-3.34,6.71s.15,5.48-1.24,7.4-4.72,2.05-6.66,3.46-3,4.51-5.34,5.26-5-1.11-7.42-1.11-5.19,1.84-7.42,1.11-3.43-3.86-5.35-5.26-5.24-1.52-6.65-3.46-.49-5.09-1.24-7.4-3.34-4.24-3.34-6.71,2.62-4.49,3.34-6.71-.16-5.48,1.24-7.4,4.72-2.05,6.66-3.46,3-4.51,5.34-5.26,5,1.12,7.42,1.12,5.19-1.84,7.42-1.12,3.42,3.86,5.34,5.26,5.25,1.52,6.66,3.46.49,5.09,1.24,7.4S614.47,507.22,614.47,509.69Z" transform="translate(-565.47 -485.69)"/><path class="a2b17168-8cb7-40f5-9880-fedb94cfa0d3" d="M578.72,508.66c-.45-.46-.86-.87-1.26-1.29a1,1,0,0,1,.28-1.7,1,1,0,0,1,1.19.26c.86.85,1.7,1.71,2.56,2.56a.5.5,0,0,0,.3.16h6.15a1.89,1.89,0,0,0-.14-.19q-2.07-2.07-4.15-4.13a.61.61,0,0,0-.39-.15h-3.67a1,1,0,1,1,0-2h1.83l-.55-.54c-.43-.43-.87-.85-1.29-1.29a1,1,0,0,1,0-1.51,1.05,1.05,0,0,1,1.49.08c.59.58,1.17,1.17,1.82,1.83v-1.85a1,1,0,0,1,1-1.06,1,1,0,0,1,1,1.06c0,1.22,0,2.44,0,3.65a.59.59,0,0,0,.13.37c1.39,1.41,2.8,2.81,4.2,4.21l.11.1c0-.09,0-.16,0-.22,0-2,0-3.91,0-5.86a.6.6,0,0,0-.17-.38c-.85-.86-1.71-1.7-2.56-2.56a1,1,0,0,1,.12-1.63,1,1,0,0,1,1.31.15l1.29,1.25c0-.09,0-.17,0-.25v-2.29a1,1,0,1,1,2.06,0V498l.88-.87.44-.45a1.06,1.06,0,0,1,1.43,0,1,1,0,0,1,0,1.46c-.42.45-.87.88-1.31,1.32s-.9.89-1.34,1.35a.44.44,0,0,0-.14.28c0,2,0,4,0,6a.89.89,0,0,0,0,.11l.19-.16q2.06-2.06,4.1-4.12a.58.58,0,0,0,.15-.38c0-1.21,0-2.41,0-3.62a1,1,0,0,1,1-1.1,1,1,0,0,1,1,1.1v1.78l.25-.23,1.64-1.64a1.07,1.07,0,0,1,1.33-.09,1,1,0,0,1,.34,1.21,1.89,1.89,0,0,1-.34.46l-1.76,1.76h.4c.49,0,1,0,1.47,0a1,1,0,0,1,1,.9,1,1,0,0,1-.76,1.11,2.12,2.12,0,0,1-.44,0h-3.51a.62.62,0,0,0-.37.13l-4.21,4.2-.11.12.28,0H599a.67.67,0,0,0,.42-.18l2.57-2.56a1,1,0,0,1,1.16-.24,1,1,0,0,1,.61,1,1.57,1.57,0,0,1-.35.72c-.38.43-.8.82-1.23,1.26l.25,0c.77,0,1.55,0,2.32,0a1,1,0,0,1,1,.63,1,1,0,0,1-.19,1.08,1,1,0,0,1-.78.34h-2.61l.23.25c.33.34.68.67,1,1a1,1,0,0,1,0,1.54,1.05,1.05,0,0,1-1.51-.09l-2.54-2.54a.54.54,0,0,0-.35-.16H593a.65.65,0,0,0,.1.15l4.19,4.18a.53.53,0,0,0,.34.13h3.65a1,1,0,0,1,1.09.93,1,1,0,0,1-1,1.12H599.5l.18.22c.54.54,1.09,1.07,1.62,1.62a1,1,0,0,1-.2,1.68,1,1,0,0,1-1.24-.21l-1.61-1.61-.24-.22v1.81a1,1,0,1,1-2,0c0-1.22,0-2.45,0-3.67a.53.53,0,0,0-.11-.34q-2.1-2.13-4.22-4.24l-.11-.08a2,2,0,0,0,0,.22c0,2,0,3.89,0,5.84a.59.59,0,0,0,.16.37c.85.87,1.72,1.72,2.58,2.59a1,1,0,0,1-.21,1.68,1,1,0,0,1-1.22-.2c-.43-.41-.85-.83-1.3-1.27,0,.1,0,.17,0,.24V524a1,1,0,0,1-1,1.06,1,1,0,0,1-1-1.06v-2.58l-.2.17c-.36.36-.72.73-1.08,1.08a1,1,0,0,1-1.46.07,1,1,0,0,1,0-1.5c.57-.59,1.16-1.16,1.74-1.74.34-.34.8-.63,1-1a3.83,3.83,0,0,0,0-1.4v-4.88l-.19.17c-1.37,1.37-2.75,2.75-4.11,4.13a.59.59,0,0,0-.16.38c0,1.21,0,2.42,0,3.62a1,1,0,0,1-1,1.1,1,1,0,0,1-1-1.1v-1.76l-.21.17-1.6,1.61a1,1,0,0,1-1.51.07,1,1,0,0,1,0-1.52l1.58-1.59.22-.24h-1.82a1,1,0,0,1-.79-.33,1,1,0,0,1-.2-1.07,1,1,0,0,1,1-.65h2.71a3.23,3.23,0,0,0,1.17,0c.34-.14.59-.52.87-.8l3.37-3.36a1.13,1.13,0,0,1,.26-.16l-.07-.09-.21,0h-5.83a.59.59,0,0,0-.38.16l-2.6,2.6a1.06,1.06,0,0,1-1.22.2,1,1,0,0,1-.53-1.12,1.63,1.63,0,0,1,.37-.6c.37-.41.78-.8,1.2-1.23l-.22,0h-2.3a1,1,0,0,1-1.12-1,1,1,0,0,1,1.11-1c.74,0,1.48,0,2.21,0Z" transform="translate(-565.47 -485.69)"/></svg>