<svg id="fed0e123-7396-4011-b8e9-7b7d72693233" data-name="圖層 1" xmlns="http://www.w3.org/2000/svg" viewBox="0 0 539.53 305.12"><defs><style>.e11fc445-d696-48c8-bc9f-e024becbfbb7{fill:#fff;}.f27a8939-e9ec-4ffb-9c2e-7898b36c0dee{fill:#7f9966;}.b54b1079-3ac6-4063-8c7e-e6c20300c22a{fill:#ccc;}.a59a226f-2800-4837-aadb-20fea641074a{fill:#007552;}</style></defs><title>market_showImg_behind</title><path class="e11fc445-d696-48c8-bc9f-e024becbfbb7" d="M938.7,325.69,819.36,253.83c-.18-.11,0,204,0,204l116.77,99.45Z" transform="translate(-399.67 -253.26)"/><path class="f27a8939-e9ec-4ffb-9c2e-7898b36c0dee" d="M936.62,558.38l-.81-.69-116.95-99.6v-.23s0-51-.07-102c0-25.5,0-51,0-70.13,0-32.18,0-32.18.34-32.36l.25-.14.25.15,119.58,72v.29ZM819.86,457.63l115.79,98.61L938.2,326,819.84,254.71C819.69,268.53,819.86,450,819.86,457.63Z" transform="translate(-399.67 -253.26)"/><polygon class="e11fc445-d696-48c8-bc9f-e024becbfbb7" points="419.69 0.9 51.09 32.66 51.09 239.57 419.69 204.28 419.69 0.9"/><path class="f27a8939-e9ec-4ffb-9c2e-7898b36c0dee" d="M450.27,493.38V285.46l.45,0,369.14-31.81V458l-.45,0Zm1-207V492.28l367.59-35.19V254.7Z" transform="translate(-399.67 -253.26)"/><path class="b54b1079-3ac6-4063-8c7e-e6c20300c22a" d="M450.71,286.4,400.4,350.72l1.93,1.28,48.12-4.49.63-61A.21.21,0,0,0,450.71,286.4Z" transform="translate(-399.67 -253.26)"/><path class="f27a8939-e9ec-4ffb-9c2e-7898b36c0dee" d="M402.2,352.51l-2.53-1.68,50.65-64.74a.7.7,0,0,1,.79-.23.71.71,0,0,1,.47.67L450.94,348Zm-1.07-1.91,1.33.88L450,347.05l.62-59.67Zm50-63.89Z" transform="translate(-399.67 -253.26)"/><polygon class="a59a226f-2800-4837-aadb-20fea641074a" points="51.09 32.98 51.38 35.96 2.33 99.06 0.41 97.78 51.09 32.98"/></svg>