<svg id="bd7b5816-0fe6-44f2-950d-ad1162e5c2fb" data-name="圖層 1" xmlns="http://www.w3.org/2000/svg" viewBox="0 0 763.68 771.02"><defs><style>.f3e27355-7251-4483-b623-388b35107d88{fill:#007552;}</style></defs><title>market_showImg_line</title><rect class="f3e27355-7251-4483-b623-388b35107d88" x="390.33" y="-9.79" width="1" height="311.02" transform="matrix(0.77, -0.64, 0.64, 0.77, -295.27, 281.7)"/><rect class="f3e27355-7251-4483-b623-388b35107d88" x="412.93" y="-31.55" width="1" height="311.02" transform="translate(-282.64 275.11) rotate(-37.15)"/><rect class="f3e27355-7251-4483-b623-388b35107d88" x="291.92" y="614.42" width="256.66" height="1" transform="translate(-579.5 384.2) rotate(-37.58)"/><rect class="f3e27355-7251-4483-b623-388b35107d88" x="398.25" y="607.31" width="183.79" height="1" transform="translate(-571.77 480.03) rotate(-41.68)"/><rect class="f3e27355-7251-4483-b623-388b35107d88" x="738.14" y="98.76" width="152.47" height="1" transform="translate(233.79 867.42) rotate(-76.33)"/><rect class="f3e27355-7251-4483-b623-388b35107d88" x="780.17" y="94.16" width="175.57" height="1" transform="translate(106.66 831) rotate(-63.69)"/><rect class="f3e27355-7251-4483-b623-388b35107d88" x="760.7" y="113.53" width="139.81" height="1" transform="translate(148.72 856.38) rotate(-70.08)"/><rect class="f3e27355-7251-4483-b623-388b35107d88" x="910.6" y="562.82" width="1" height="94.26" transform="matrix(0.94, -0.34, 0.34, 0.94, -444.06, 343.54)"/><rect class="f3e27355-7251-4483-b623-388b35107d88" x="657.75" y="-1.25" width="1" height="162.11" transform="translate(-293.95 138.08) rotate(-11.93)"/><rect class="f3e27355-7251-4483-b623-388b35107d88" x="496.64" y="51.76" width="1" height="133.51" transform="translate(-270.44 305.1) rotate(-34.79)"/><rect class="f3e27355-7251-4483-b623-388b35107d88" x="1004.7" y="526.92" width="1" height="138.52" transform="translate(-413.71 905.01) rotate(-45.98)"/><rect class="f3e27355-7251-4483-b623-388b35107d88" x="986.7" y="530.92" width="1" height="138.52" transform="translate(-434.44 841.21) rotate(-43.32)"/><rect class="f3e27355-7251-4483-b623-388b35107d88" x="302.91" y="542.36" width="225.38" height="1" transform="translate(-418.4 126.88) rotate(-15.05)"/><rect class="f3e27355-7251-4483-b623-388b35107d88" x="942.06" y="565.55" width="1" height="55.4" transform="translate(-458.18 491.95) rotate(-26.95)"/><rect class="f3e27355-7251-4483-b623-388b35107d88" x="763.14" y="582" width="1" height="112.31" transform="translate(-293.26 2.21) rotate(-0.14)"/><rect class="f3e27355-7251-4483-b623-388b35107d88" x="540.08" y="677.17" width="205.94" height="1" transform="translate(-537.81 964.48) rotate(-64.36)"/><rect class="f3e27355-7251-4483-b623-388b35107d88" x="550.08" y="635.81" width="116.86" height="1" transform="translate(-543.66 822.96) rotate(-58.5)"/><rect class="f3e27355-7251-4483-b623-388b35107d88" x="854.55" y="148.5" width="95.9" height="1" transform="translate(-180.42 608.26) rotate(-39.49)"/><rect class="f3e27355-7251-4483-b623-388b35107d88" x="611" y="46.56" width="1" height="88.89" transform="translate(-291.55 183.15) rotate(-17.01)"/></svg>