<svg id="ea2d3059-dabf-4838-b011-3dbb50e89b44" data-name="圖層 1" xmlns="http://www.w3.org/2000/svg" viewBox="0 0 790 771"><defs><style>.b3f9e11d-edc3-40dc-aa4b-0fc00b1a5f5c{fill:#fff;}.a4e5ca5b-947d-464d-86a0-1dee6ef87eaf,.b3f9e11d-edc3-40dc-aa4b-0fc00b1a5f5c{stroke:#7f9966;}.a4e5ca5b-947d-464d-86a0-1dee6ef87eaf,.b3f9e11d-edc3-40dc-aa4b-0fc00b1a5f5c,.b5bf1ac1-4060-4993-bb66-034e8ec5fc61{stroke-miterlimit:10;}.a4e5ca5b-947d-464d-86a0-1dee6ef87eaf{fill:#ccc;}.f283d9fb-3ccd-4aec-988b-1b0617cdd262{fill:#007552;}.b5bf1ac1-4060-4993-bb66-034e8ec5fc61{fill:none;stroke:#007552;}</style></defs><title>market_box_behind</title><path class="b3f9e11d-edc3-40dc-aa4b-0fc00b1a5f5c" d="M693.7,302.69,574.36,230.83c-.18-.11,0,204,0,204l116.77,99.45Z"/><polygon class="b3f9e11d-edc3-40dc-aa4b-0fc00b1a5f5c" points="574.36 231.16 205.77 262.92 205.77 469.83 574.36 434.54 574.36 231.16"/><path class="a4e5ca5b-947d-464d-86a0-1dee6ef87eaf" d="M205.71,263.4,155.4,327.72l1.93,1.28,48.12-4.49.63-61A.21.21,0,0,0,205.71,263.4Z"/><polygon class="f283d9fb-3ccd-4aec-988b-1b0617cdd262" points="205.77 263.24 206.05 266.22 157 329.32 155.08 328.04 205.77 263.24"/><line class="b5bf1ac1-4060-4993-bb66-034e8ec5fc61" x1="0.06" y1="25.6" x2="197.6" y2="265.84"/><line class="b5bf1ac1-4060-4993-bb66-034e8ec5fc61" x1="27.52" x2="215.34" y2="247.91"/><line class="b5bf1ac1-4060-4993-bb66-034e8ec5fc61" x1="229.95" y1="536.66" x2="26.55" y2="693.19"/><line class="b5bf1ac1-4060-4993-bb66-034e8ec5fc61" x1="266.78" y1="546.7" x2="129.51" y2="668.91"/><line class="b5bf1ac1-4060-4993-bb66-034e8ec5fc61" x1="504.38" y1="173.34" x2="540.37" y2="25.18"/><line class="b5bf1ac1-4060-4993-bb66-034e8ec5fc61" x1="614.87" y1="15.98" x2="537.03" y2="173.34"/><line class="b5bf1ac1-4060-4993-bb66-034e8ec5fc61" x1="562.46" y1="48.32" x2="514.75" y2="179.74"/><line class="b5bf1ac1-4060-4993-bb66-034e8ec5fc61" x1="603.2" y1="565.58" x2="635.01" y2="654.31"/><line class="b5bf1ac1-4060-4993-bb66-034e8ec5fc61" x1="383.01" y1="159.11" x2="349.5" y2="0.5"/><line class="b5bf1ac1-4060-4993-bb66-034e8ec5fc61" x1="243.22" y1="173.34" x2="167.05" y2="63.69"/><line class="b5bf1ac1-4060-4993-bb66-034e8ec5fc61" x1="663.39" y1="548.05" x2="763" y2="644.31"/><line class="b5bf1ac1-4060-4993-bb66-034e8ec5fc61" x1="647.67" y1="549.79" x2="742.72" y2="650.56"/><line class="b5bf1ac1-4060-4993-bb66-034e8ec5fc61" x1="232.42" y1="513.56" x2="14.79" y2="572.16"/><line class="b5bf1ac1-4060-4993-bb66-034e8ec5fc61" x1="638.01" y1="568.56" x2="663.12" y2="617.94"/><line class="b5bf1ac1-4060-4993-bb66-034e8ec5fc61" x1="471.5" y1="582" x2="471.78" y2="694.31"/><line class="b5bf1ac1-4060-4993-bb66-034e8ec5fc61" x1="395.61" y1="584.83" x2="306.5" y2="770.5"/><line class="b5bf1ac1-4060-4993-bb66-034e8ec5fc61" x1="347.06" y1="586.51" x2="285.96" y2="686.11"/><line class="b5bf1ac1-4060-4993-bb66-034e8ec5fc61" x1="647.5" y1="118.5" x2="573.5" y2="179.5"/><line class="b5bf1ac1-4060-4993-bb66-034e8ec5fc61" x1="332.5" y1="133.5" x2="306.5" y2="48.5"/></svg>