<svg id="be46a4df-a8cd-4376-b9f1-fa592f145417" data-name="圖層 2" xmlns="http://www.w3.org/2000/svg" viewBox="0 0 790 771"><defs><style>.afb73349-e970-4f9e-b519-a8ff72fc505e{fill:#c7b299;}.be7af354-41a2-4a75-b341-8a76cafe2923{fill:#007552;}.e8c30b2b-7287-4ddc-9e4c-e9b5205bc5d9{fill:#fff;stroke:#7f9966;}.a68f3b29-f70a-4db0-aa9a-5c395da71f1d,.e10786b2-62d2-4355-bbc1-b3209300042e,.e8c30b2b-7287-4ddc-9e4c-e9b5205bc5d9,.f2ba9fb9-2ffa-4383-aad6-664c78c0684d{stroke-miterlimit:10;}.f338c729-8f31-4e9f-afd8-1746d2e3d864{fill:#ffa978;}.ad691e58-61a0-442f-aeac-0abff9cbd313{fill:#fdae20;opacity:0.41;}.e10786b2-62d2-4355-bbc1-b3209300042e,.f2ba9fb9-2ffa-4383-aad6-664c78c0684d{fill:none;}.f2ba9fb9-2ffa-4383-aad6-664c78c0684d{stroke:#fbf8ef;}.a68f3b29-f70a-4db0-aa9a-5c395da71f1d{fill:#f7c845;stroke:#f7c845;stroke-width:2px;}.e10786b2-62d2-4355-bbc1-b3209300042e{stroke:#007552;stroke-width:5px;}.b2ecc951-b84f-4de1-bda1-853fc260cd21{opacity:0.8;}.b3a06a09-e2f4-496c-994b-4156fbf16f5e{fill:#f8d773;}</style></defs><title>market_box_front</title><polygon class="afb73349-e970-4f9e-b519-a8ff72fc505e" points="324.39 343.38 330.16 335.68 696.51 302.31 693.3 311.94 324.39 343.38"/><polygon class="be7af354-41a2-4a75-b341-8a76cafe2923" points="205.05 268.95 209.54 268.31 324.71 340.22 322.46 342.74 205.05 268.95"/><polygon class="e8c30b2b-7287-4ddc-9e4c-e9b5205bc5d9" points="692.98 311.94 324.39 343.7 324.39 579.48 690.42 540.35 692.98 311.94"/><path class="e8c30b2b-7287-4ddc-9e4c-e9b5205bc5d9" d="M324.71,343.7,205.8,268.9a.28.28,0,0,0-.43.24V475.87L324.71,579.16Z"/><polygon class="f338c729-8f31-4e9f-afd8-1746d2e3d864" points="330.16 335.68 412.29 424.86 781.2 385.08 696.51 302.31 330.16 335.68"/><polygon class="be7af354-41a2-4a75-b341-8a76cafe2923" points="781.2 385.08 776.07 394.06 408.44 436.41 412.29 424.86 781.2 385.08"/><polygon class="be7af354-41a2-4a75-b341-8a76cafe2923" points="322.46 342.09 330.16 335.68 412.29 424.86 408.44 436.41 328.24 340.81 324.39 343.38 322.46 342.09"/><polygon class="ad691e58-61a0-442f-aeac-0abff9cbd313" points="243.91 292.88 277.78 314.18 257.66 376.74 226.22 333.75 243.91 292.88"/><path class="f2ba9fb9-2ffa-4383-aad6-664c78c0684d" d="M412.14,428.63c3-.33,3.25,2.22,6.21,1.9s2.69-2.88,5.65-3.21,3.25,2.23,6.21,1.91,2.69-2.88,5.65-3.21,3.25,2.23,6.21,1.9,2.69-2.87,5.65-3.2,3.25,2.23,6.21,1.9,2.69-2.87,5.65-3.2,3.25,2.23,6.21,1.9,2.69-2.87,5.66-3.2,3.24,2.23,6.21,1.9,2.68-2.87,5.65-3.2,3.24,2.23,6.21,1.9,2.68-2.88,5.65-3.2,3.24,2.23,6.21,1.9,2.68-2.88,5.65-3.2,3.25,2.22,6.21,1.9,2.69-2.88,5.65-3.2,3.25,2.22,6.21,1.9,2.69-2.88,5.65-3.2,3.25,2.22,6.22,1.9,2.68-2.88,5.65-3.2,3.24,2.22,6.21,1.9,2.69-2.88,5.65-3.21,3.25,2.23,6.21,1.9,2.69-2.87,5.65-3.2,3.25,2.23,6.22,1.9,2.68-2.87,5.65-3.2,3.24,2.23,6.21,1.9,2.69-2.87,5.65-3.2,3.25,2.23,6.21,1.9,2.69-2.88,5.66-3.2,3.24,2.23,6.21,1.9,2.69-2.88,5.65-3.2,3.25,2.22,6.21,1.9,2.69-2.88,5.66-3.2,3.24,2.22,6.21,1.9,2.69-2.88,5.65-3.2,3.25,2.22,6.21,1.9,2.69-2.88,5.65-3.21,3.25,2.23,6.22,1.91,2.68-2.88,5.65-3.21,3.24,2.23,6.21,1.9,2.68-2.87,5.65-3.2,3.25,2.23,6.21,1.9S682,399,685,398.7s3.25,2.23,6.22,1.9,2.68-2.87,5.65-3.2,3.25,2.23,6.21,1.9,2.69-2.88,5.66-3.2,3.24,2.22,6.21,1.9,2.69-2.88,5.66-3.2,3.24,2.22,6.21,1.9,2.69-2.88,5.65-3.2,3.25,2.22,6.22,1.9,2.68-2.88,5.65-3.21,3.25,2.23,6.21,1.9,2.69-2.87,5.66-3.2,3.25,2.23,6.22,1.9,2.69-2.87,5.66-3.2,3.25,2.22,6.21,1.9"/><line class="a68f3b29-f70a-4db0-aa9a-5c395da71f1d" x1="684.62" y1="312.3" x2="748.18" y2="373.18"/><line class="a68f3b29-f70a-4db0-aa9a-5c395da71f1d" x1="669.22" y1="313.58" x2="732.79" y2="374.46"/><line class="a68f3b29-f70a-4db0-aa9a-5c395da71f1d" x1="653.82" y1="314.86" x2="717.39" y2="375.74"/><line class="a68f3b29-f70a-4db0-aa9a-5c395da71f1d" x1="362.54" y1="346.3" x2="421.91" y2="409.46"/><path class="be7af354-41a2-4a75-b341-8a76cafe2923" d="M279.76,436.88c-2.86.29-11-8.32-14.36-12l12.51,4.78c.34.13.63,0,.65-.27l.22-3a.87.87,0,0,0-.58-.74l-17.73-6.76.14-2,5.64,2.15c5.16,2,9.65-.5,10-5.51l.25-3.44c.36-5-3.55-10.69-8.71-12.66l-14.65-5.59c-5.16-2-9.65.5-10,5.51l-.25,3.45c-.36,5,3.55,10.68,8.71,12.65l4.86,1.86-.14,2-17.81-6.8c-.34-.13-.63,0-.65.27l-.22,3a.85.85,0,0,0,.58.74l13,5c-3.23,1.22-11.33,3.92-15.42,2,0,0,.2,3.49,2.75,5.16s12.48-1.06,17.36-4.15l-.77,10.67a.77.77,0,0,0,.49.7l3.11,1.18a.37.37,0,0,0,.55-.3l.79-10.89c4.08,6.52,12.87,15.41,15.53,16.45C280.56,442.28,279.76,436.88,279.76,436.88ZM251.89,409.4c-2.84-1.09-5-4.21-4.79-7l.24-3.44c.2-2.76,2.68-4.12,5.52-3l14.65,5.59c2.84,1.09,5,4.21,4.79,7l-.24,3.45c-.2,2.75-2.68,4.12-5.52,3l-5.64-2.15,0-.56c.27-3.72,5.22-2.31,6.58-1.85h0l.06,0a.37.37,0,0,0,.55-.31l.14-2a.74.74,0,0,0-.32-.62l0,0-.13-.06-1.49-.57c-4.29-2-4.59-5-4.57-6l0-.31v0a.76.76,0,0,0-.48-.7l-3.11-1.19a.38.38,0,0,0-.56.31l0,.3c-.11.93-.82,3.58-5.17,2.25l-1.73-.66a.37.37,0,0,0-.55.3l-.15,2a.77.77,0,0,0,.48.7h0c.45.17,6.57,2.6,6.27,6.75l0,.56Z"/><ellipse class="e10786b2-62d2-4355-bbc1-b3209300042e" cx="260.61" cy="416.02" rx="33.04" ry="37.44" transform="translate(-216.74 301.45) rotate(-44.44)"/><path class="be7af354-41a2-4a75-b341-8a76cafe2923" d="M459.14,522.63a72.83,72.83,0,0,1-5.44,10,27,27,0,0,0-4.17-2.57,42.5,42.5,0,0,0,4.58-8.47Zm7.19-3.11-1.11,14.94-6.59.63,1.11-14.94-8.37.81.41-5.56,8.37-.81.21-2.8-8.7.83.41-5.42,4-.38a34.89,34.89,0,0,0-.79-3.76l3.71-1.22-5.79.55.4-5.38,7.38-.71c-.24-1.11-.52-2.27-.82-3.25l6.94-2.26c.5,1.45,1.11,3.27,1.5,4.78l6.27-.6-.4,5.38-5.24.5,3.51.3c-.81,1.59-1.52,3-2.17,4.27l4.3-.41-.4,5.43-7.49.71-.2,2.81,6.54-.63-.41,5.56Zm-5.45-17.87a26.09,26.09,0,0,1,.89,3.7l-3.44,1.25,6.17-.6a49.64,49.64,0,0,0,2-4.89Zm34.65,8-3.93.38L490,532.27l-6.6.63L485,510.65l-3.18.31c-.5,6.85-1.84,16.65-6.15,22.82a19.88,19.88,0,0,0-4.94-3.41,20.91,20.91,0,0,0,2.12-4.26l-3.32,2.28a47,47,0,0,0-3.07-6.23L471,519.3a46.6,46.6,0,0,1,2.64,4.49,61.47,61.47,0,0,0,1.89-12.27l1.24-16.78a74.38,74.38,0,0,0,14.34-5.53l4.78,4.42a84.27,84.27,0,0,1-13.12,4.78l-.48,6.39,13.7-1.32Z"/><path class="be7af354-41a2-4a75-b341-8a76cafe2923" d="M498.93,529.31c1.94-2.47,3.1-6.19,3.74-9.86l4.55.71c-.77,4.09-1.82,8.3-4.12,11.12Zm4.75-25.88a11.12,11.12,0,0,0-2.69-1.94,36.66,36.66,0,0,0,7.41-14.17l6,.25c-.36,1.17-.77,2.31-1.18,3.49l3.36-.33,1.15-.43,3.51,2.18c-.93,1.77-2.05,3.75-3.21,5.6l4.91-.47-1.42,19.12-18.93,1.82Zm7.92,15.21a55.26,55.26,0,0,1-.14,9.42l-4.53.93a54.25,54.25,0,0,0,.38-9.43Zm-3.28-5.85,1.64-.15.14-1.93-1.63.15Zm.5-6.75,1.64-.16.14-1.89-1.64.16ZM511,496.2c-.44.91-.93,1.82-1.46,2.7l2.58-.25c.43-.82.91-1.73,1.36-2.69Zm5.15,21.92a34.36,34.36,0,0,1,1.35,8.72l-4.37,1.33a35.15,35.15,0,0,0-1.11-8.88Zm.27-8-1.69.17-.14,1.93,1.68-.17Zm.5-6.71-1.69.16-.14,1.89,1.69-.16ZM520.73,517a30.07,30.07,0,0,1,2.54,8.29l-4.37,2a29.77,29.77,0,0,0-2.25-8.5Zm23.67-.58-8.27.79-.81,10.81-6.59.63.8-10.8-7.48.71.43-5.79,7.48-.72.24-3.12-6.36.61.42-5.7,6.36-.61.21-2.85-7.29.7.43-5.79,3.13-.31a26.7,26.7,0,0,0-2.39-7.25l5.71-2.47a25.6,25.6,0,0,1,2.89,8l-3,1.39,9-.87-3.53-.57a57.15,57.15,0,0,0,3.5-8.92l6.81.81c-1.58,3.16-3.16,6.23-4.49,8.46l3.46-.33-.43,5.79-7.2.69-.21,2.85,6.45-.62-.42,5.7-6.45.62-.23,3.13,8.27-.8Z"/><path class="be7af354-41a2-4a75-b341-8a76cafe2923" d="M593,515.48l-.45,6-43.16,4.15.45-6,5.75-.55L557.48,493l11-1,.35-1.68-15.94,1.53.44-5.88,16.55-1.59c.17-1.07.29-2.08.41-3.05l7.53,0-.6,2.38,17.16-1.65-.44,5.89-18.28,1.75-.5,1.7,14-1.35L587.2,516Zm-30.86,3,18.19-1.75.12-1.61-18.19,1.75Zm.47-6.39,18.19-1.75.12-1.61-18.19,1.75Zm18.78-9.7-18.19,1.74-.11,1.57,18.19-1.75Zm-17.72-4.6-.11,1.56,18.19-1.75.11-1.56Z"/><path class="be7af354-41a2-4a75-b341-8a76cafe2923" d="M637.14,511.14c2.36-.45,4.52-.89,6.32-1.33a31.69,31.69,0,0,0-2.47,7c-4.13.67-12.11,1.75-17.58,2.28-6.26.6-10.06.47-13.29-1.05-1.88-.91-3.41-2.23-4.3-2.14s-2.86,3.51-4,6.09l-4-6.11a23,23,0,0,1,6.28-5.16,44.55,44.55,0,0,0,3-7.09l-6.22.6c1.18-2.67,2.6-6.23,3.88-9.73l-4.35.41.44-5.93L613,487.81c-1.11,3.17-2.44,6.72-3.71,9.94l2.06-.2,1-.36,1.54.49.23-3.08,10.47-1,.31-4.09-9.4.9.45-6,5.37-.51c-.67-1.58-1.56-3.41-2.33-4.89l5.87-2.8c1.12,1.9,2.69,4.53,3.4,6.15l-2.07,1.07,5.47-.53a58.75,58.75,0,0,0,4-7.78l6.73,1.32c-1.27,2-2.62,4-3.92,5.81l4.45-.43-.45,6-10.52,1-.31,4.09,12.16-1.16-.45,6.06-10.05,1c3.25,2.52,6.89,5.27,8.93,7.22ZM606,487.89c-.46-2-1.47-5.2-2.13-7.6l6.35-2.39c.76,2.35,1.74,5.31,2.34,7.22Zm8.29,12.72a64.8,64.8,0,0,1-4.5,10.65,16.43,16.43,0,0,0,1.47.82c3,1.63,7.51,1.42,12.93.9,3.32-.32,8.39-1,12.95-1.84a99.33,99.33,0,0,0-8.7-7.88c-2.26,3.5-6,7-11.79,10a21.65,21.65,0,0,0-4.35-4.56c6.47-2.72,9.49-5.93,10.92-8.94Z"/><polygon class="e10786b2-62d2-4355-bbc1-b3209300042e" points="436.35 537.46 404.26 541.31 406.19 509.23 438.27 505.38 436.35 537.46"/><path class="be7af354-41a2-4a75-b341-8a76cafe2923" d="M412,521c2.49,3.25,7.79,9.06,12.35,6.62,2.95-1.58,5.16-5.23,7.08-7.81,6.37-8.57,12-17.68,17.64-26.75,1.5-2.44,3-4.88,4.48-7.35,1.92-3.19-3.07-6.1-5-2.91q-6.89,11.47-14.24,22.67a164.16,164.16,0,0,1-9.78,13.88c-.61.75-1.22,1.49-1.89,2.17a13.87,13.87,0,0,1-1.07,1c-.05.69.22-.77.71-.1-.36-.5-1.9-1-2.44-1.47a19,19,0,0,1-2.19-2.11c-.11-.13-1.38-1.68-.69-.77-2.22-2.91-7.24,0-5,2.91Z"/><g class="b2ecc951-b84f-4de1-bda1-853fc260cd21"><path class="b3a06a09-e2f4-496c-994b-4156fbf16f5e" d="M554.51,551.64l-3.89.42c5.58-.06,11.19-.81,16.83-1.41l4.24-.5c1.42-.16,2.81-.44,4.22-.66l8.42-1.4c1.39-.24,2.8-.45,4.19-.71l4.14-.85c2.77-.56,5.51-1.1,8.25-1.61s5.41-1.17,8.1-1.68,5.35-1,8-1.55l5.49-.36A111.29,111.29,0,0,0,639.09,536c2.8-1.18,5.58-2.42,8.26-3.66s5.22-2.68,7.61-4a16,16,0,0,0,6.62-8c.87-1.26,1.38-3.09-.13-3-2.49,1-8.41,4-9,2.74-.14-.31,1-.89,2.2-1.48-.6-1.22,1.62-5.39,2.72-6,.4-.62,2.07-2.25,3.64-4a27.61,27.61,0,0,0,3.36-4.07c.65-.76.36-1.18-.52-1.36a12.11,12.11,0,0,0-1.6-.18c-.66,0-1.41,0-2.21,0-1.66.07-3.48.28-5.24.51a33.75,33.75,0,0,0-4.59.87c-2.48.48-.78-1.52-1.26-2.43-2,1.38-3.52,1-5.51,2.38a15.85,15.85,0,0,0-3.9,1.27c-1.06.41-2.2.88-3.3,1.34s-2.17.84-3,1.19a21.22,21.22,0,0,1-4.35,2.17c-1.11.48-1,.76-.88,1.09l-.24-.64c-.9,1.06-3.43,1.28-4.46,2-.12-.32-.12-.32-.23-.64-2,1.49-4.55,1.74-6.77,2.78l-.22-.65c-1.16.39-2.32.77-2.42.44l-.22-.65c-1.26.06-3.36,1.47-3.57.82l.21.65a52.08,52.08,0,0,1-6.33,1.69c-1.94.42-3.74.76-5.54,1.1-2.42.38-5,.74-7.64,1.26s-5.34,1.15-8.06,1.85-5.55,1.25-8.31,1.94l-4.12,1.05-2,.52-2,.44c-1.21.19-2.31,1.05-1,1.54l-3.65.55c-2.44.37-1.07,1.2-3.5,1.57a115.5,115.5,0,0,1-14.64,2.54c-2.46.31-4.91.61-7.38.86l-7.43.42-7.43.4c-1.24.05-2.47.17-3.71.18l-3.73,0c-5,.1-9.93.27-14.9.61,5,.25,8.72.87,13.69.45,0,.34,0,1,1.27,1,1.88,0,3.83.11,5.75,0l5.62-.34c3.58-.18,6.7-.2,8.63.37,1.27.25,2.61,1.25,6.34.81-1.25.13-2.49.28-3.74.39l.09,1,16.37-.72.12,1c.84-.08,1.68-.19,2.51-.33,2.85,2.17-11.08,3.32-17.36,4.34l.12,1.36,2.54-.28.06.68c-3.8.49-7.32.6-10.82.84l-10.83.68,5.1-.32c0,.34,0,.68,1.31.6l-4,.21c-1.4.06-2.83.17-4.27.16a63.79,63.79,0,0,0-8.3.57c-1.28.36,0,1.37,3.88,1.64l5.14-.08c1.6,0,3.21-.19,5.13-.29l0,.68c-1.29.08-2.9.1-4.51.15a30.15,30.15,0,0,0-4.5.2c-1.27.37,2.61,1,1.34,1.35a14.48,14.48,0,0,0-3.87.41c1.94,0,4.2-.16,6.46-.24s4.51-.31,6.45-.24c1.31.26,2.62.52,2.67,1.2a41.16,41.16,0,0,1,8.76-.12c.66.06,1.3.15,1.92.25s1.21.16,1.8.26a26.35,26.35,0,0,1,3.26.8C544.15,553.1,550.62,552.06,554.51,551.64Z"/></g></svg>