<svg id="bd9f3c1f-f315-44be-9fee-6c09141fd4f9" data-name="圖層 1" xmlns="http://www.w3.org/2000/svg" viewBox="0 0 576.33 311.95"><defs><style>.e89ddc1c-3235-4622-8ca3-0cdb276f7c61{fill:#c7b299;}.b04581c3-fea1-40b0-aa93-7d808030717f{fill:#007552;}.a7af1339-0cdb-496e-8621-35642e418b21{fill:#fff;}.fa3a6c99-8b36-4728-b81c-9cab7e031611{fill:#7f9966;}.a22e6521-6eec-4976-bb5e-c7b445e52787{fill:#ffa978;}.a2d6091a-f29d-4bb8-8045-11492dfda238{opacity:0.41;}.f4ec67e1-8266-43b5-84bb-f4ee2ead243f{fill:#fdae20;}.e7b0a4fc-43dd-4a1c-af39-0e90a6fc8715{fill:#fbf8ef;}.bd05a10c-80f8-4ee7-93d4-3961e3cdaee8{fill:#f7c845;}.a29e9fd8-8ed8-4998-9b36-ea4dc2293eca{opacity:0.8;}.a6ce39d3-69a2-45e2-8d6e-8dcc2dab9929{fill:#f8d773;}</style></defs><title>market_showImg_front</title><polygon class="e89ddc1c-3235-4622-8ca3-0cdb276f7c61" points="119.52 75.07 125.29 67.37 491.64 34.01 488.43 43.63 119.52 75.07"/><polygon class="b04581c3-fea1-40b0-aa93-7d808030717f" points="0.18 0.64 4.67 0 119.84 71.91 117.59 74.42 0.18 0.64"/><polygon class="a7af1339-0cdb-496e-8621-35642e418b21" points="488.11 43.63 119.52 75.39 119.52 311.17 485.55 272.04 488.11 43.63"/><path class="fa3a6c99-8b36-4728-b81c-9cab7e031611" d="M513.89,566V329.24l.45,0,369.15-31.81v.55L880.91,526.8l-.44,0Zm1-235.88V564.93l365-39,2.56-227.42Z" transform="translate(-394.87 -254.31)"/><path class="a7af1339-0cdb-496e-8621-35642e418b21" d="M514.71,329.7,395.8,254.9a.28.28,0,0,0-.43.24V461.87L514.71,565.16Z" transform="translate(-394.87 -254.31)"/><path class="fa3a6c99-8b36-4728-b81c-9cab7e031611" d="M515.21,566.26,394.87,462.1v-207a.77.77,0,0,1,.4-.68.79.79,0,0,1,.8,0l119.14,74.94ZM395.87,461.64,514.21,564.07V330L395.87,255.54Z" transform="translate(-394.87 -254.31)"/><polygon class="a22e6521-6eec-4976-bb5e-c7b445e52787" points="125.29 67.37 207.41 156.55 576.33 116.77 491.64 34.01 125.29 67.37"/><polygon class="b04581c3-fea1-40b0-aa93-7d808030717f" points="576.33 116.77 571.2 125.75 203.56 168.1 207.41 156.55 576.33 116.77"/><polygon class="b04581c3-fea1-40b0-aa93-7d808030717f" points="117.59 73.78 125.29 67.37 207.41 156.55 203.56 168.1 123.37 72.5 119.52 75.07 117.59 73.78"/><g class="a2d6091a-f29d-4bb8-8045-11492dfda238"><polygon class="f4ec67e1-8266-43b5-84bb-f4ee2ead243f" points="39.04 24.57 72.91 45.87 52.79 108.43 21.35 65.44 39.04 24.57"/></g><path class="e7b0a4fc-43dd-4a1c-af39-0e90a6fc8715" d="M607.85,417.05A4.73,4.73,0,0,1,605,416a3.64,3.64,0,0,0-2.77-.87l-.11-1a4.6,4.6,0,0,1,3.44,1,3.64,3.64,0,0,0,2.77.87,3.59,3.59,0,0,0,2.51-1.45,4.62,4.62,0,0,1,6.58-.72,3.64,3.64,0,0,0,2.77.87,3.59,3.59,0,0,0,2.51-1.45,4.62,4.62,0,0,1,3.14-1.75,4.56,4.56,0,0,1,3.44,1,3.64,3.64,0,0,0,2.77.87,3.59,3.59,0,0,0,2.51-1.45,4.62,4.62,0,0,1,6.58-.72,3.61,3.61,0,0,0,5.28-.58A4.62,4.62,0,0,1,653,410a3.61,3.61,0,0,0,5.28-.58,4.59,4.59,0,0,1,6.58-.72,3.64,3.64,0,0,0,5.29-.58,4.58,4.58,0,0,1,6.57-.72,3.64,3.64,0,0,0,5.29-.58,4.59,4.59,0,0,1,6.58-.72,3.63,3.63,0,0,0,5.28-.58,4.59,4.59,0,0,1,6.58-.72,3.63,3.63,0,0,0,5.28-.58,4.59,4.59,0,0,1,6.58-.72,3.63,3.63,0,0,0,5.28-.58,4.61,4.61,0,0,1,6.58-.73,3.6,3.6,0,0,0,2.77.87,3.66,3.66,0,0,0,2.52-1.44,4.6,4.6,0,0,1,6.58-.73,3.61,3.61,0,0,0,5.28-.58,4.62,4.62,0,0,1,6.58-.72,3.64,3.64,0,0,0,2.77.87,3.59,3.59,0,0,0,2.51-1.45,4.62,4.62,0,0,1,3.14-1.75,4.56,4.56,0,0,1,3.44,1,3.62,3.62,0,0,0,5.29-.58,4.61,4.61,0,0,1,6.58-.72,3.61,3.61,0,0,0,5.28-.58,4.59,4.59,0,0,1,6.58-.72,3.64,3.64,0,0,0,5.29-.58,4.59,4.59,0,0,1,6.58-.72,3.63,3.63,0,0,0,5.28-.58,4.59,4.59,0,0,1,6.58-.72,3.64,3.64,0,0,0,5.29-.58,4.54,4.54,0,0,1,3.13-1.76,4.6,4.6,0,0,1,3.45,1,3.63,3.63,0,0,0,5.28-.58,4.61,4.61,0,0,1,6.58-.73,3.64,3.64,0,0,0,2.77.87,3.59,3.59,0,0,0,2.51-1.45,4.62,4.62,0,0,1,3.14-1.75,4.56,4.56,0,0,1,3.44,1,3.62,3.62,0,0,0,5.29-.58,4.57,4.57,0,0,1,3.13-1.75,4.64,4.64,0,0,1,3.45,1,3.61,3.61,0,0,0,2.76.87,3.67,3.67,0,0,0,2.52-1.45,4.61,4.61,0,0,1,6.58-.72,3.61,3.61,0,0,0,5.28-.58,4.59,4.59,0,0,1,6.58-.72,3.64,3.64,0,0,0,5.29-.58,4.59,4.59,0,0,1,6.58-.72,3.64,3.64,0,0,0,5.29-.58,4.56,4.56,0,0,1,3.13-1.76,4.62,4.62,0,0,1,3.45,1,3.64,3.64,0,0,0,2.77.86,3.58,3.58,0,0,0,2.51-1.44,4.58,4.58,0,0,1,3.14-1.76,4.64,4.64,0,0,1,3.45,1,3.61,3.61,0,0,0,5.28-.58,4.62,4.62,0,0,1,6.58-.72,3.65,3.65,0,0,0,2.77.87,3.62,3.62,0,0,0,2.52-1.45,4.62,4.62,0,0,1,6.58-.72,3.62,3.62,0,0,0,5.29-.58,4.59,4.59,0,0,1,6.58-.72,3.64,3.64,0,0,0,5.29-.58,4.6,4.6,0,0,1,6.59-.72,3.6,3.6,0,0,0,2.77.86l.11,1a4.64,4.64,0,0,1-3.45-1,3.64,3.64,0,0,0-5.29.58,4.59,4.59,0,0,1-6.58.72,3.64,3.64,0,0,0-5.29.58,4.61,4.61,0,0,1-6.58.73,3.65,3.65,0,0,0-2.77-.87,3.62,3.62,0,0,0-2.52,1.45,4.62,4.62,0,0,1-3.14,1.75,4.56,4.56,0,0,1-3.44-1,3.62,3.62,0,0,0-5.29.58,4.62,4.62,0,0,1-6.58.72,3.62,3.62,0,0,0-5.29.58,4.59,4.59,0,0,1-6.58.72,3.64,3.64,0,0,0-2.77-.86,3.58,3.58,0,0,0-2.51,1.44,4.6,4.6,0,0,1-6.59.72,3.63,3.63,0,0,0-5.28.58,4.59,4.59,0,0,1-6.58.72,3.64,3.64,0,0,0-5.29.58,4.58,4.58,0,0,1-3.13,1.76,4.64,4.64,0,0,1-3.45-1,3.6,3.6,0,0,0-2.77-.87,3.64,3.64,0,0,0-2.51,1.44,4.61,4.61,0,0,1-6.58.73,3.64,3.64,0,0,0-2.77-.87,3.59,3.59,0,0,0-2.51,1.45,4.62,4.62,0,0,1-3.14,1.75,4.56,4.56,0,0,1-3.44-1,3.62,3.62,0,0,0-5.29.58,4.61,4.61,0,0,1-6.58.72,3.61,3.61,0,0,0-5.28.58,4.62,4.62,0,0,1-6.58.72,3.61,3.61,0,0,0-5.28.58,4.59,4.59,0,0,1-6.58.72,3.64,3.64,0,0,0-5.29.58,4.59,4.59,0,0,1-6.58.72,3.63,3.63,0,0,0-5.28.58,4.59,4.59,0,0,1-6.58.72,3.64,3.64,0,0,0-5.29.58,4.59,4.59,0,0,1-6.58.72,3.63,3.63,0,0,0-5.28.58,4.61,4.61,0,0,1-6.58.73,3.62,3.62,0,0,0-5.29.58,4.59,4.59,0,0,1-3.13,1.75,4.64,4.64,0,0,1-3.45-1A3.61,3.61,0,0,0,742,401a4.62,4.62,0,0,1-6.58.72,3.61,3.61,0,0,0-5.28.58,4.62,4.62,0,0,1-6.58.72,3.62,3.62,0,0,0-5.29.58,4.6,4.6,0,0,1-6.57.72,3.62,3.62,0,0,0-5.29.58,4.59,4.59,0,0,1-6.58.72,3.63,3.63,0,0,0-5.28.58,4.59,4.59,0,0,1-6.58.72,3.63,3.63,0,0,0-5.28.58,4.59,4.59,0,0,1-6.58.72,3.64,3.64,0,0,0-2.77-.86,3.58,3.58,0,0,0-2.51,1.44,4.59,4.59,0,0,1-6.58.72,3.63,3.63,0,0,0-5.28.58,4.59,4.59,0,0,1-6.58.72,3.64,3.64,0,0,0-5.29.58,4.59,4.59,0,0,1-6.57.73,3.61,3.61,0,0,0-5.28.57,4.61,4.61,0,0,1-6.58.73,3.62,3.62,0,0,0-5.29.58,4.61,4.61,0,0,1-6.58.72,3.61,3.61,0,0,0-5.28.58,4.61,4.61,0,0,1-3.13,1.75Z" transform="translate(-394.87 -254.31)"/><line class="bd05a10c-80f8-4ee7-93d4-3961e3cdaee8" x1="479.75" y1="43.98" x2="543.31" y2="104.87"/><rect class="bd05a10c-80f8-4ee7-93d4-3961e3cdaee8" x="905.4" y="284.73" width="2" height="88.02" transform="translate(-352.82 501.65) rotate(-46.24)"/><line class="bd05a10c-80f8-4ee7-93d4-3961e3cdaee8" x1="464.35" y1="45.27" x2="527.92" y2="106.15"/><rect class="bd05a10c-80f8-4ee7-93d4-3961e3cdaee8" x="890" y="286.01" width="2" height="88.02" transform="translate(-358.5 490.93) rotate(-46.24)"/><line class="bd05a10c-80f8-4ee7-93d4-3961e3cdaee8" x1="448.95" y1="46.55" x2="512.52" y2="107.43"/><rect class="bd05a10c-80f8-4ee7-93d4-3961e3cdaee8" x="874.6" y="287.29" width="2" height="88.02" transform="translate(-364.17 480.2) rotate(-46.24)"/><line class="bd05a10c-80f8-4ee7-93d4-3961e3cdaee8" x1="157.67" y1="77.99" x2="217.04" y2="141.15"/><rect class="bd05a10c-80f8-4ee7-93d4-3961e3cdaee8" x="581.22" y="320.54" width="2" height="86.69" transform="translate(-486.1 243.21) rotate(-43.23)"/><path class="b04581c3-fea1-40b0-aa93-7d808030717f" d="M469.76,422.88c-2.86.29-11-8.32-14.36-12l12.51,4.78c.34.13.63,0,.65-.27l.22-3a.87.87,0,0,0-.58-.74l-17.73-6.76.14-2,5.64,2.15c5.16,2,9.65-.5,10-5.51l.25-3.44c.36-5-3.55-10.69-8.71-12.66l-14.65-5.59c-5.16-2-9.65.5-10,5.51l-.25,3.45c-.36,5,3.55,10.68,8.71,12.65l4.86,1.86-.14,2-17.81-6.8c-.34-.13-.63,0-.65.27l-.22,3a.85.85,0,0,0,.58.74l13,5c-3.23,1.22-11.33,3.92-15.42,2,0,0,.2,3.49,2.75,5.16s12.48-1.06,17.36-4.15l-.77,10.67a.77.77,0,0,0,.49.7l3.11,1.18a.37.37,0,0,0,.55-.3l.79-10.89c4.08,6.52,12.87,15.41,15.53,16.45C470.56,428.28,469.76,422.88,469.76,422.88ZM441.89,395.4c-2.84-1.09-5-4.21-4.79-7l.24-3.44c.2-2.76,2.68-4.12,5.52-3l14.65,5.59c2.84,1.09,5,4.21,4.79,7l-.24,3.45c-.2,2.75-2.68,4.12-5.52,3l-5.64-2.15,0-.56c.27-3.72,5.22-2.31,6.58-1.85h0l.06,0a.37.37,0,0,0,.55-.31l.14-2a.74.74,0,0,0-.32-.62l0,0-.13-.06-1.49-.57c-4.29-2-4.59-5-4.57-6l0-.31v0a.76.76,0,0,0-.48-.7l-3.11-1.19a.38.38,0,0,0-.56.31l0,.3c-.11.93-.82,3.58-5.17,2.25l-1.73-.66a.37.37,0,0,0-.55.3l-.15,2a.77.77,0,0,0,.48.7h0c.45.17,6.57,2.6,6.27,6.75l0,.56Z" transform="translate(-394.87 -254.31)"/><path class="b04581c3-fea1-40b0-aa93-7d808030717f" d="M455.1,439.88a38.73,38.73,0,0,1-6.72-.59c-20.62-3.62-36.54-23.17-35.49-43.58h0a32.78,32.78,0,0,1,12.19-24.37c7.61-6.06,17.46-8.4,27.76-6.59,20.62,3.62,36.54,23.17,35.49,43.58a32.76,32.76,0,0,1-12.19,24.36A33.37,33.37,0,0,1,455.1,439.88Zm-9-70.72a28.49,28.49,0,0,0-17.94,6.09A27.82,27.82,0,0,0,417.89,396h0c-.93,18,13.14,35.21,31.36,38.4,8.86,1.56,17.3-.42,23.77-5.58a27.78,27.78,0,0,0,10.31-20.71c.93-18-13.14-35.2-31.36-38.4A34.29,34.29,0,0,0,446.14,369.16Z" transform="translate(-394.87 -254.31)"/><path class="b04581c3-fea1-40b0-aa93-7d808030717f" d="M649.14,508.63a72.83,72.83,0,0,1-5.44,10,27,27,0,0,0-4.17-2.57,42.5,42.5,0,0,0,4.58-8.47Zm7.19-3.11-1.11,14.94-6.59.63,1.11-14.94-8.37.81.41-5.56,8.37-.81.21-2.8-8.7.83.41-5.42,4-.38a34.89,34.89,0,0,0-.79-3.76l3.71-1.22-5.79.55.4-5.38,7.38-.71c-.24-1.11-.52-2.27-.82-3.25l6.94-2.26c.5,1.45,1.11,3.27,1.5,4.78l6.27-.6-.4,5.38-5.24.5,3.51.3c-.81,1.59-1.52,3-2.17,4.27l4.3-.41-.4,5.43-7.49.71-.2,2.81,6.54-.63-.41,5.56Zm-5.45-17.87a26.09,26.09,0,0,1,.89,3.7l-3.44,1.25,6.17-.6a49.64,49.64,0,0,0,2-4.89Zm34.65,8-3.93.38L680,518.27l-6.6.63L675,496.65l-3.18.31c-.5,6.85-1.84,16.65-6.15,22.82a19.88,19.88,0,0,0-4.94-3.41,20.91,20.91,0,0,0,2.12-4.26l-3.32,2.28a47,47,0,0,0-3.07-6.23L661,505.3a46.6,46.6,0,0,1,2.64,4.49,61.47,61.47,0,0,0,1.89-12.27l1.24-16.78a74.38,74.38,0,0,0,14.34-5.53l4.78,4.42a84.27,84.27,0,0,1-13.12,4.78l-.48,6.39,13.7-1.32Z" transform="translate(-394.87 -254.31)"/><path class="b04581c3-fea1-40b0-aa93-7d808030717f" d="M688.93,515.31c1.94-2.47,3.1-6.19,3.74-9.86l4.55.71c-.77,4.09-1.82,8.3-4.12,11.12Zm4.75-25.88a11.12,11.12,0,0,0-2.69-1.94,36.66,36.66,0,0,0,7.41-14.17l6,.25c-.36,1.17-.77,2.31-1.18,3.49l3.36-.33,1.15-.43,3.51,2.18c-.93,1.77-2.05,3.75-3.21,5.6l4.91-.47-1.42,19.12-18.93,1.82Zm7.92,15.21a55.26,55.26,0,0,1-.14,9.42l-4.53.93a54.25,54.25,0,0,0,.38-9.43Zm-3.28-5.85,1.64-.15.14-1.93-1.63.15Zm.5-6.75,1.64-.16.14-1.89-1.64.16ZM701,482.2c-.44.91-.93,1.82-1.46,2.7l2.58-.25c.43-.82.91-1.73,1.36-2.69Zm5.15,21.92a34.36,34.36,0,0,1,1.35,8.72l-4.37,1.33a35.15,35.15,0,0,0-1.11-8.88Zm.27-8-1.69.17-.14,1.93,1.68-.17Zm.5-6.71-1.69.16-.14,1.89,1.69-.16ZM710.73,503a30.07,30.07,0,0,1,2.54,8.29l-4.37,2a29.77,29.77,0,0,0-2.25-8.5Zm23.67-.58-8.27.79-.81,10.81-6.59.63.8-10.8-7.48.71.43-5.79,7.48-.72.24-3.12-6.36.61.42-5.7,6.36-.61.21-2.85-7.29.7.43-5.79,3.13-.31a26.7,26.7,0,0,0-2.39-7.25l5.71-2.47a25.6,25.6,0,0,1,2.89,8l-3,1.39,9-.87-3.53-.57a57.15,57.15,0,0,0,3.5-8.92l6.81.81c-1.58,3.16-3.16,6.23-4.49,8.46l3.46-.33-.43,5.79-7.2.69-.21,2.85,6.45-.62-.42,5.7-6.45.62-.23,3.13,8.27-.8Z" transform="translate(-394.87 -254.31)"/><path class="b04581c3-fea1-40b0-aa93-7d808030717f" d="M783,501.48l-.45,6-43.16,4.15.45-6,5.75-.55L747.48,479l11-1,.35-1.68-15.94,1.53.44-5.88,16.55-1.59c.17-1.07.29-2.08.41-3.05l7.53,0-.6,2.38,17.16-1.65-.44,5.89-18.28,1.75-.5,1.7,14-1.35L777.2,502Zm-30.86,3,18.19-1.75.12-1.61-18.19,1.75Zm.47-6.39,18.19-1.75.12-1.61-18.19,1.75Zm18.78-9.7-18.19,1.74-.11,1.57,18.19-1.75Zm-17.72-4.6-.11,1.56,18.19-1.75.11-1.56Z" transform="translate(-394.87 -254.31)"/><path class="b04581c3-fea1-40b0-aa93-7d808030717f" d="M827.14,497.14c2.36-.45,4.52-.89,6.32-1.33a31.69,31.69,0,0,0-2.47,7c-4.13.67-12.11,1.75-17.58,2.28-6.26.6-10.06.47-13.29-1.05-1.88-.91-3.41-2.23-4.3-2.14s-2.86,3.51-4,6.09l-4-6.11a23,23,0,0,1,6.28-5.16,44.55,44.55,0,0,0,3-7.09l-6.22.6c1.18-2.67,2.6-6.23,3.88-9.73l-4.35.41.44-5.93L803,473.81c-1.11,3.17-2.44,6.72-3.71,9.94l2.06-.2,1-.36,1.54.49.23-3.08,10.47-1,.31-4.09-9.4.9.45-6,5.37-.51c-.67-1.58-1.56-3.41-2.33-4.89l5.87-2.8c1.12,1.9,2.69,4.53,3.4,6.15l-2.07,1.07,5.47-.53a58.75,58.75,0,0,0,4-7.78l6.73,1.32c-1.27,2-2.62,4-3.92,5.81l4.45-.43-.45,6-10.52,1-.31,4.09,12.16-1.16-.45,6.06-10.05,1c3.25,2.52,6.89,5.27,8.93,7.22ZM796,473.89c-.46-2-1.47-5.2-2.13-7.6l6.35-2.39c.76,2.35,1.74,5.31,2.34,7.22Zm8.29,12.72a64.8,64.8,0,0,1-4.5,10.65,16.43,16.43,0,0,0,1.47.82c3,1.63,7.51,1.42,12.93.9,3.32-.32,8.39-1,12.95-1.84a99.33,99.33,0,0,0-8.7-7.88c-2.26,3.5-6,7-11.79,10a21.65,21.65,0,0,0-4.35-4.56c6.47-2.72,9.49-5.93,10.92-8.94Z" transform="translate(-394.87 -254.31)"/><path class="b04581c3-fea1-40b0-aa93-7d808030717f" d="M591.59,530.15,593.82,493l37.12-4.46-2.22,37.15Zm7-32.69-1.62,27,27-3.24,1.62-27Z" transform="translate(-394.87 -254.31)"/><path class="b04581c3-fea1-40b0-aa93-7d808030717f" d="M602,507c2.49,3.25,7.79,9.06,12.35,6.62,3-1.58,5.16-5.23,7.08-7.81,6.37-8.57,12-17.68,17.64-26.75,1.5-2.44,3-4.88,4.48-7.35,1.92-3.19-3.07-6.1-5-2.91q-6.89,11.47-14.24,22.67a164.16,164.16,0,0,1-9.78,13.88c-.61.75-1.22,1.49-1.89,2.17a13.87,13.87,0,0,1-1.07,1c0,.69.22-.77.71-.1-.36-.5-1.9-1.05-2.44-1.47a19,19,0,0,1-2.19-2.11c-.11-.13-1.38-1.68-.69-.77-2.22-2.91-7.24,0-5,2.91Z" transform="translate(-394.87 -254.31)"/><g class="a29e9fd8-8ed8-4998-9b36-ea4dc2293eca"><path class="a6ce39d3-69a2-45e2-8d6e-8dcc2dab9929" d="M744.51,537.64l-3.89.42c5.58-.06,11.19-.81,16.83-1.41l4.24-.5c1.42-.16,2.81-.44,4.22-.66l8.42-1.4c1.39-.24,2.8-.45,4.19-.71l4.14-.85c2.77-.56,5.51-1.1,8.25-1.61s5.41-1.17,8.1-1.68,5.35-1,8-1.55l5.49-.36A111.29,111.29,0,0,0,829.09,522c2.8-1.18,5.58-2.42,8.26-3.66s5.22-2.68,7.61-4a16,16,0,0,0,6.62-8c.87-1.26,1.38-3.09-.13-3.05-2.49,1.05-8.41,4-9,2.74-.14-.31,1-.89,2.2-1.48-.6-1.22,1.62-5.39,2.72-6,.4-.62,2.07-2.25,3.64-4a27.61,27.61,0,0,0,3.36-4.07c.65-.76.36-1.18-.52-1.36a12.11,12.11,0,0,0-1.6-.18c-.66,0-1.41,0-2.21,0-1.66.07-3.48.28-5.24.51a33.75,33.75,0,0,0-4.59.87c-2.48.48-.78-1.52-1.26-2.43-2,1.38-3.52,1-5.51,2.38a15.85,15.85,0,0,0-3.9,1.27c-1.06.41-2.2.88-3.3,1.34s-2.17.84-3,1.19a21.22,21.22,0,0,1-4.35,2.17c-1.11.48-1,.76-.88,1.09l-.24-.64c-.9,1.06-3.43,1.28-4.46,2-.12-.32-.12-.32-.23-.64-2,1.49-4.55,1.74-6.77,2.78l-.22-.65c-1.16.39-2.32.77-2.42.44l-.22-.65c-1.26.06-3.36,1.47-3.57.82l.21.65a52.08,52.08,0,0,1-6.33,1.69c-1.94.42-3.74.76-5.54,1.1-2.42.38-5,.74-7.64,1.26s-5.34,1.15-8.06,1.85-5.55,1.25-8.31,1.94l-4.12,1.05-2,.52-2,.44c-1.21.19-2.31,1.05-1,1.54l-3.65.55c-2.44.37-1.07,1.2-3.5,1.57a115.5,115.5,0,0,1-14.64,2.54c-2.46.31-4.91.61-7.38.86l-7.43.42-7.43.4c-1.24.05-2.47.17-3.71.18l-3.73,0c-5,.1-9.93.27-14.9.61,5,.25,8.72.87,13.69.45,0,.34,0,1,1.27,1,1.88,0,3.83.11,5.75,0l5.62-.34c3.58-.18,6.7-.2,8.63.37,1.27.25,2.61,1.25,6.34.81-1.25.13-2.49.28-3.74.39l.09,1,16.37-.72.12,1c.84-.08,1.68-.19,2.51-.33,2.85,2.17-11.08,3.32-17.36,4.34l.12,1.36,2.54-.28.06.68c-3.8.49-7.32.6-10.82.84l-10.83.68,5.1-.32c0,.34,0,.68,1.31.6l-4,.21c-1.4.06-2.83.17-4.27.16a63.79,63.79,0,0,0-8.3.57c-1.28.36,0,1.37,3.88,1.64l5.14-.08c1.6,0,3.21-.19,5.13-.29l0,.68c-1.29.08-2.9.1-4.51.15a30.15,30.15,0,0,0-4.5.2c-1.27.37,2.61,1,1.34,1.35a14.48,14.48,0,0,0-3.87.41c1.94,0,4.2-.16,6.46-.24s4.51-.31,6.45-.24c1.31.26,2.62.52,2.67,1.2a41.16,41.16,0,0,1,8.76-.12c.66.06,1.3.15,1.92.25s1.21.16,1.8.26a26.35,26.35,0,0,1,3.26.8C734.15,539.1,740.62,538.06,744.51,537.64Z" transform="translate(-394.87 -254.31)"/></g></svg>