<svg id="a19b3c7c-51a7-4752-8903-f947827b0b80" data-name="圖層 1" xmlns="http://www.w3.org/2000/svg" viewBox="0 0 1259.34 180"><defs><style>.b6c9fd62-a1a2-4dae-b7b1-458bba709d79{fill:#f7c845;}.f6d1f962-b884-40e2-9373-fe788953c159{fill:#ffa978;}</style></defs><title>market_header</title><path class="b6c9fd62-a1a2-4dae-b7b1-458bba709d79" d="M123.78,216V343.06c0,29.24,20.14,52.94,45,52.94s45-23.7,45-52.94V216Z" transform="translate(-33.83 -216)"/><path class="f6d1f962-b884-40e2-9373-fe788953c159" d="M33.83,216V343.06C33.83,372.3,54,396,78.8,396s45-23.7,45-52.94V216Z" transform="translate(-33.83 -216)"/><path class="f6d1f962-b884-40e2-9373-fe788953c159" d="M213.73,216V343.06c0,29.24,20.14,52.94,45,52.94s45-23.7,45-52.94V216Z" transform="translate(-33.83 -216)"/><path class="b6c9fd62-a1a2-4dae-b7b1-458bba709d79" d="M303.69,216V343.06c0,29.24,20.13,52.94,45,52.94s45-23.7,45-52.94V216Z" transform="translate(-33.83 -216)"/><path class="f6d1f962-b884-40e2-9373-fe788953c159" d="M393.64,216V343.06c0,29.24,20.14,52.94,45,52.94s45-23.7,45-52.94V216Z" transform="translate(-33.83 -216)"/><path class="b6c9fd62-a1a2-4dae-b7b1-458bba709d79" d="M483.59,216V343.06c0,29.24,20.14,52.94,45,52.94s45-23.7,45-52.94V216Z" transform="translate(-33.83 -216)"/><path class="f6d1f962-b884-40e2-9373-fe788953c159" d="M573.55,216V343.06c0,29.24,20.13,52.94,45,52.94s45-23.7,45-52.94V216Z" transform="translate(-33.83 -216)"/><path class="b6c9fd62-a1a2-4dae-b7b1-458bba709d79" d="M663.5,216V343.06c0,29.24,20.14,52.94,45,52.94s45-23.7,45-52.94V216Z" transform="translate(-33.83 -216)"/><path class="f6d1f962-b884-40e2-9373-fe788953c159" d="M753.45,216V343.06c0,29.24,20.14,52.94,45,52.94s45-23.7,45-52.94V216Z" transform="translate(-33.83 -216)"/><path class="b6c9fd62-a1a2-4dae-b7b1-458bba709d79" d="M843.41,216V343.06c0,29.24,20.13,52.94,45,52.94s45-23.7,45-52.94V216Z" transform="translate(-33.83 -216)"/><path class="f6d1f962-b884-40e2-9373-fe788953c159" d="M933.36,216V343.06c0,29.24,20.14,52.94,45,52.94s45-23.7,45-52.94V216Z" transform="translate(-33.83 -216)"/><path class="b6c9fd62-a1a2-4dae-b7b1-458bba709d79" d="M1023.31,216V343.06c0,29.24,20.14,52.94,45,52.94s45-23.7,45-52.94V216Z" transform="translate(-33.83 -216)"/><path class="f6d1f962-b884-40e2-9373-fe788953c159" d="M1113.27,216V343.06c0,29.24,20.13,52.94,45,52.94s45-23.7,45-52.94V216Z" transform="translate(-33.83 -216)"/><path class="b6c9fd62-a1a2-4dae-b7b1-458bba709d79" d="M1203.22,216V343.06c0,29.24,20.14,52.94,45,52.94s45-23.7,45-52.94V216Z" transform="translate(-33.83 -216)"/><line class="f6d1f962-b884-40e2-9373-fe788953c159" x1="1259.34" x2="1259.34" y2="127.06"/></svg>