<svg xmlns="http://www.w3.org/2000/svg" xmlns:xlink="http://www.w3.org/1999/xlink" viewBox="0 0 303.02 598.96"><defs><style>.cls-1{fill:none;}.cls-2{fill:#007453;}.cls-3{fill:#f7c852;}.cls-4{fill:gray;}.cls-5{fill:#b07c1a;}.cls-6{fill:#df8e80;}.cls-7{fill:#fdd9b1;}.cls-8{clip-path:url(#clip-path);}.cls-9{fill:#fa596c;}.cls-10{fill:#fa5a6d;}.cls-11{fill:#fa5b6d;}.cls-12{fill:#fa5c6e;}.cls-13{fill:#fa5d6f;}.cls-14{fill:#fa5e6f;}.cls-15{fill:#fa5f70;}.cls-16{fill:#fa6071;}.cls-17{fill:#fa6171;}.cls-18{fill:#fa6272;}.cls-19{fill:#fa6373;}.cls-20{fill:#fa6473;}.cls-21{fill:#fa6574;}.cls-22{fill:#fa6675;}.cls-23{fill:#fa6775;}.cls-24{fill:#fa6876;}.cls-25{fill:#fa6977;}.cls-26{fill:#fa6a77;}.cls-27{fill:#fa6b78;}.cls-28{fill:#fa6c79;}.cls-29{fill:#fa6d79;}.cls-30{fill:#fa6e7a;}.cls-31{fill:#fa6f7b;}.cls-32{fill:#fa707b;}.cls-33{fill:#fa717c;}.cls-34{fill:#fa727d;}.cls-35{fill:#fb737d;}.cls-36{fill:#fb747e;}.cls-37{fill:#fb757f;}.cls-38{fill:#fb767f;}.cls-39{fill:#fb7780;}.cls-40{fill:#fb7881;}.cls-41{fill:#fb7981;}.cls-42{fill:#fb7a82;}.cls-43{fill:#fb7b83;}.cls-44{fill:#fb7c83;}.cls-45{fill:#fb7d84;}.cls-46{fill:#fb7e85;}.cls-47{fill:#fb7f85;}.cls-48{fill:#fb8086;}.cls-49{fill:#fb8187;}.cls-50{fill:#fb8287;}.cls-51{fill:#fb8388;}.cls-52{fill:#fb8489;}.cls-53{fill:#fb8589;}.cls-54{fill:#fb868a;}.cls-55{fill:#fb878b;}.cls-56{fill:#fb888b;}.cls-57{fill:#fb898c;}.cls-58{fill:#fb8a8d;}.cls-59{fill:#fb8b8d;}.cls-60{fill:#fb8c8e;}.cls-61{fill:#fb8d8f;}.cls-62{fill:#fb8e8f;}.cls-63{fill:#fb8f90;}.cls-64{fill:#fb9091;}.cls-65{fill:#fb9191;}.cls-66{fill:#fb9292;}.cls-67{fill:#fb9393;}.cls-68{fill:#fb9493;}.cls-69{fill:#fb9594;}.cls-70{fill:#fb9695;}.cls-71{fill:#fb9795;}.cls-72{fill:#fb9896;}.cls-73{fill:#fb9997;}.cls-74{fill:#fb9a97;}.cls-75{fill:#fb9b98;}.cls-76{fill:#fb9c99;}.cls-77{fill:#fb9d99;}.cls-78{fill:#fb9e9a;}.cls-79{fill:#fb9f9b;}.cls-80{fill:#fba09b;}.cls-81{fill:#fba19c;}.cls-82{fill:#fba29d;}.cls-83{fill:#fba39d;}.cls-84{fill:#fba49e;}.cls-85{fill:#fba59f;}.cls-86{fill:#fba69f;}.cls-87{fill:#fca8a0;}.cls-88{fill:#fca9a1;}.cls-89{fill:#fcaaa1;}.cls-90{fill:#fcaba2;}.cls-91{fill:#fcaca3;}.cls-92{fill:#fcada3;}.cls-93{fill:#fcaea4;}.cls-94{fill:#fcafa5;}.cls-95{fill:#fcb0a5;}.cls-96{fill:#fcb1a6;}.cls-97{fill:#fcb2a7;}.cls-98{fill:#fcb3a7;}.cls-99{fill:#fcb4a8;}.cls-100{fill:#fcb5a9;}.cls-101{fill:#fcb6a9;}.cls-102{fill:#fcb7aa;}.cls-103{fill:#fcb8ab;}.cls-104{fill:#fcb9ab;}.cls-105{fill:#fcbaac;}.cls-106{fill:#fcbbad;}.cls-107{fill:#fcbcad;}.cls-108{fill:#fcbdae;}.cls-109{fill:#fcbeaf;}.cls-110{fill:#fcbfaf;}.cls-111{fill:#fcc0b0;}.cls-112{fill:#fcc1b1;}.cls-113{fill:#fcc2b1;}.cls-114{fill:#fcc3b2;}.cls-115{fill:#fcc4b3;}.cls-116{fill:#fcc5b3;}.cls-117{fill:#fcc6b4;}.cls-118{fill:#fcc7b5;}.cls-119{fill:#fcc8b5;}.cls-120{fill:#fcc9b6;}.cls-121{fill:#fccab7;}.cls-122{fill:#fccbb7;}.cls-123{fill:#fcccb8;}.cls-124{fill:#fccdb9;}.cls-125{fill:#fcceb9;}.cls-126{fill:#fccfba;}.cls-127{fill:#fcd0bb;}.cls-128{fill:#fcd1bb;}.cls-129{fill:#fcd2bc;}.cls-130{fill:#fcd3bd;}.cls-131{fill:#fcd4bd;}.cls-132{fill:#fcd5be;}.cls-133{fill:#fcd6bf;}.cls-134{fill:#fcd7bf;}.cls-135{fill:#fcd8c0;}.cls-136{fill:#fcd9c1;}.cls-137{fill:#fcdac1;}.cls-138{fill:#fcdbc2;}.cls-139{fill:#fddcc3;}.cls-140{fill:#fdddc3;}.cls-141{fill:#fbf8ef;}.cls-142{fill:#809868;}.cls-143{fill:#f5c652;}.cls-144{fill:#fff;}.cls-145{opacity:0.74;}.cls-146{fill:#fdcba8;}.cls-147{fill:#fffba9;}.cls-148{fill:#f3aa2a;}.cls-149{fill:#015b48;}.cls-150{fill:#999;}.cls-151{fill:#ffa994;}.cls-152{fill:#ff6d5c;}</style><clipPath id="clip-path"><path class="cls-1" d="M272.58,323a56.4,56.4,0,0,1-23.77-11c-17.85-14.5-48.43-40.87-70-67.69-25-31.11-25-55.45-70.32-39.9C72.8,216.67,74.68,343.71,36.13,372.79,0,400,5.47,442.17,78.72,447.32a45.17,45.17,0,0,1,19,5.77c6,3.37,21.8,5.91,63.47-1.19,21.17-3.61,32.84-8.93,39.09-14.29a70.38,70.38,0,0,1,32-15.43c9.92-2,23-7,39.84-17.61C303,385.19,297,328.36,272.58,323Z"/></clipPath></defs><title>front_right</title><g id="圖層_2" data-name="圖層 2"><g id="圖層_1-2" data-name="圖層 1"><path class="cls-2" d="M235.61,406.08s6.52,72-8.52,122.51L203.45,535s-26.48-61.25-29.9-99.94C173.55,435.09,209,401.78,235.61,406.08Z"/><path class="cls-2" d="M163,439.27s-29.48-5.94-50.5,2.46c0,0-.49,54.22,28.09,98.57l25.74-3.45S169.6,469.34,163,439.27Z"/><path class="cls-3" d="M124.86,514.46l43.39-8.26,3.42,78s-32,13.07-63.47,5.35S134.1,553,134.1,553Z"/><path class="cls-4" d="M129.28,592.5a89,89,0,0,1-21.2-2.43c-6.1-1.5-9.39-3.94-9.76-7.26-1.25-11.07,31.2-28,35.2-30l-9.27-38.71,44.47-8.47,3.46,79-.33.13A126.62,126.62,0,0,1,129.28,592.5Zm-3.82-77.65,9.21,38.46-.35.18a193.21,193.21,0,0,0-18.07,10.58c-11.58,7.75-17.43,14.19-16.93,18.63.32,2.86,3.35,5,9,6.4,29.25,7.18,59.38-3.86,62.83-5.2l-3.38-77.1Z"/><path class="cls-3" d="M191.11,516.66l44.9-4.46,1,78.5s-32,13.07-63.47,5.35,25.89-36.54,25.89-36.54Z"/><path class="cls-4" d="M194.63,599a89,89,0,0,1-21.2-2.43c-6.1-1.5-9.39-3.94-9.76-7.26-1.25-11.09,31.28-28,35.21-30l-8.37-43,46-4.57,1,79.38-.32.13A126.61,126.61,0,0,1,194.63,599Zm-2.93-81.86,8.3,42.68-.34.17a193.28,193.28,0,0,0-18.07,10.58c-11.58,7.75-17.43,14.19-16.93,18.63.32,2.85,3.35,5,9,6.4,29.26,7.19,59.44-3.89,62.84-5.2l-1-77.61Z"/><path class="cls-5" d="M56.71,77.94s87.72,52.47,209.06,16.4C265.77,94.34,178.87,28.75,56.71,77.94Z"/><path class="cls-6" d="M79,81.17a8.79,8.79,0,0,0-1,2.12c-8,23.07-11.42,47.47-12.81,71.78-1.28,22.39-3.89,48.59-.22,70.65,16.12-5.21,28.15-17.53,46.07-18,37.47-1,85.64-29.49,112.4-14.46s23.46,12.46,23.46,12.46,7.18-104.68-21-127.31C198.07,56,100.33,50.41,79,81.17Z"/><path class="cls-2" d="M184.16,190a132.44,132.44,0,0,1-48.34,0c-26.41-4.94-50.48,6.13-52.59,32s30.82,87,30.82,87l96.12-3.05s50.87-87,25.56-114.76C212.7,165.88,184.16,190,184.16,190Z"/><path class="cls-7" d="M143,179.47s-4.11,22.2,12.68,20.6,19.33-7.16,24.16-27.59C179.88,172.47,170,183.14,143,179.47Z"/><path class="cls-4" d="M154,200.65a10.67,10.67,0,0,1-8.25-3.29c-5.4-5.9-3.33-17.49-3.24-18l.09-.47.47.06c13.78,1.87,22.95-.09,28.21-2.07,5.69-2.14,8.17-4.75,8.19-4.78l1.29-1.38-.43,1.84c-4.71,19.92-7,26.3-24.59,28Q154.88,200.65,154,200.65ZM143.47,180c-.33,2.22-1.41,11.76,3.07,16.65,2.1,2.29,5.18,3.27,9.14,2.89,15.76-1.5,18.61-6,23.35-25.67C175.67,176.56,165.15,182.86,143.47,180Z"/><g class="cls-8"><polygon class="cls-9" points="4.58 459.01 0 418.06 0 311.78 293.51 278.98 303.02 364.1 303.02 459.01 4.58 459.01"/><polygon class="cls-9" points="0 310.85 293.41 278.06 293.51 278.98 0 311.78 0 310.85"/><polygon class="cls-10" points="0 309.92 293.3 277.13 293.41 278.06 0 310.85 0 309.92"/><polygon class="cls-11" points="0 308.98 293.2 276.21 293.3 277.13 0 309.92 0 308.98"/><polygon class="cls-12" points="0 308.05 293.1 275.29 293.2 276.21 0 308.98 0 308.05"/><polygon class="cls-13" points="0 307.12 292.99 274.37 293.1 275.29 0 308.05 0 307.12"/><polygon class="cls-14" points="0 306.18 292.89 273.45 292.99 274.37 0 307.12 0 306.18"/><polygon class="cls-15" points="0 305.25 292.79 272.52 292.89 273.45 0 306.18 0 305.25"/><polygon class="cls-16" points="0 304.31 292.68 271.6 292.79 272.52 0 305.25 0 304.31"/><polygon class="cls-17" points="0 303.38 292.58 270.68 292.68 271.6 0 304.31 0 303.38"/><polygon class="cls-18" points="0 302.45 292.48 269.76 292.58 270.68 0 303.38 0 302.45"/><polygon class="cls-19" points="0 301.51 292.38 268.84 292.48 269.76 0 302.45 0 301.51"/><polygon class="cls-20" points="0 300.58 292.27 267.92 292.38 268.84 0 301.51 0 300.58"/><polygon class="cls-21" points="0 299.65 292.17 266.99 292.27 267.92 0 300.58 0 299.65"/><polygon class="cls-22" points="0 298.71 292.07 266.07 292.17 266.99 0 299.65 0 298.71"/><polygon class="cls-23" points="0 297.78 291.96 265.15 292.07 266.07 0 298.71 0 297.78"/><polygon class="cls-24" points="0 296.85 291.86 264.23 291.96 265.15 0 297.78 0 296.85"/><polygon class="cls-25" points="0 295.91 291.76 263.31 291.86 264.23 0 296.85 0 295.91"/><polygon class="cls-26" points="0 294.98 291.65 262.38 291.76 263.31 0 295.91 0 294.98"/><polygon class="cls-27" points="0 294.05 291.55 261.46 291.65 262.38 0 294.98 0 294.05"/><polygon class="cls-28" points="0 293.11 291.45 260.54 291.55 261.46 0 294.05 0 293.11"/><polygon class="cls-29" points="0 292.18 291.35 259.62 291.45 260.54 0 293.11 0 292.18"/><polygon class="cls-30" points="0 291.25 291.24 258.7 291.35 259.62 0 292.18 0 291.25"/><polygon class="cls-31" points="0 290.31 291.14 257.77 291.24 258.7 0 291.25 0 290.31"/><polygon class="cls-32" points="0 289.38 291.04 256.85 291.14 257.77 0 290.31 0 289.38"/><polygon class="cls-33" points="0 288.45 290.93 255.93 291.04 256.85 0 289.38 0 288.45"/><polygon class="cls-34" points="0 287.51 290.83 255.01 290.93 255.93 0 288.45 0 287.51"/><polygon class="cls-35" points="0 286.58 290.73 254.09 290.83 255.01 0 287.51 0 286.58"/><polygon class="cls-36" points="0 285.64 290.62 253.16 290.73 254.09 0 286.58 0 285.64"/><polygon class="cls-37" points="0 284.71 290.52 252.24 290.62 253.16 0 285.64 0 284.71"/><polygon class="cls-38" points="0 283.78 290.42 251.32 290.52 252.24 0 284.71 0 283.78"/><polygon class="cls-39" points="0 282.85 290.31 250.4 290.42 251.32 0 283.78 0 282.85"/><polygon class="cls-40" points="0 281.91 290.21 249.48 290.31 250.4 0 282.85 0 281.91"/><polygon class="cls-41" points="0 280.98 290.11 248.55 290.21 249.48 0 281.91 0 280.98"/><polygon class="cls-42" points="0 280.04 290 247.63 290.11 248.55 0 280.98 0 280.04"/><polygon class="cls-43" points="0 279.11 289.9 246.71 290 247.63 0 280.04 0 279.11"/><polygon class="cls-44" points="0 278.18 289.8 245.79 289.9 246.71 0 279.11 0 278.18"/><polygon class="cls-45" points="0 277.24 289.7 244.87 289.8 245.79 0 278.18 0 277.24"/><polygon class="cls-46" points="0 276.31 289.59 243.94 289.7 244.87 0 277.24 0 276.31"/><polygon class="cls-47" points="0 275.38 289.49 243.02 289.59 243.94 0 276.31 0 275.38"/><polygon class="cls-48" points="0 274.44 289.39 242.1 289.49 243.02 0 275.38 0 274.44"/><polygon class="cls-49" points="0 273.51 289.28 241.18 289.39 242.1 0 274.44 0 273.51"/><polygon class="cls-50" points="0 272.58 289.18 240.26 289.28 241.18 0 273.51 0 272.58"/><polygon class="cls-51" points="0 271.64 289.08 239.33 289.18 240.26 0 272.58 0 271.64"/><polygon class="cls-52" points="0 270.71 288.98 238.41 289.08 239.33 0 271.64 0 270.71"/><polygon class="cls-53" points="0 269.77 288.87 237.49 288.98 238.41 0 270.71 0 269.77"/><polygon class="cls-54" points="0 268.84 288.77 236.57 288.87 237.49 0 269.77 0 268.84"/><polygon class="cls-55" points="0 267.91 288.67 235.65 288.77 236.57 0 268.84 0 267.91"/><polygon class="cls-56" points="0 266.98 288.56 234.72 288.67 235.65 0 267.91 0 266.98"/><polygon class="cls-57" points="0 266.04 288.46 233.8 288.56 234.72 0 266.98 0 266.04"/><polygon class="cls-58" points="0 265.11 288.36 232.88 288.46 233.8 0 266.04 0 265.11"/><polygon class="cls-59" points="0 264.17 288.25 231.96 288.36 232.88 0 265.11 0 264.17"/><polygon class="cls-60" points="0 263.24 288.15 231.04 288.25 231.96 0 264.17 0 263.24"/><polygon class="cls-61" points="0 262.31 288.05 230.11 288.15 231.04 0 263.24 0 262.31"/><polygon class="cls-62" points="0 261.37 287.94 229.19 288.05 230.11 0 262.31 0 261.37"/><polygon class="cls-63" points="0 260.44 287.84 228.27 287.94 229.19 0 261.37 0 260.44"/><polygon class="cls-64" points="0 259.51 287.74 227.35 287.84 228.27 0 260.44 0 259.51"/><polygon class="cls-65" points="0 258.57 287.63 226.43 287.74 227.35 0 259.51 0 258.57"/><polygon class="cls-66" points="0 257.64 287.53 225.5 287.63 226.43 0 258.57 0 257.64"/><polygon class="cls-67" points="0 256.71 287.43 224.58 287.53 225.5 0 257.64 0 256.71"/><polygon class="cls-68" points="0 255.77 287.33 223.66 287.43 224.58 0 256.71 0 255.77"/><polygon class="cls-69" points="0 254.84 287.22 222.74 287.33 223.66 0 255.77 0 254.84"/><polygon class="cls-70" points="0 253.91 287.12 221.82 287.22 222.74 0 254.84 0 253.91"/><polygon class="cls-71" points="0 252.97 287.02 220.89 287.12 221.82 0 253.91 0 252.97"/><polygon class="cls-72" points="0 252.04 286.91 219.97 287.02 220.89 0 252.97 0 252.04"/><polygon class="cls-73" points="0 251.1 286.81 219.05 286.91 219.97 0 252.04 0 251.1"/><polygon class="cls-74" points="0 250.17 286.71 218.13 286.81 219.05 0 251.1 0 250.17"/><polygon class="cls-75" points="0 249.24 286.61 217.21 286.71 218.13 0 250.17 0 249.24"/><polygon class="cls-76" points="0 248.31 286.5 216.28 286.61 217.21 0 249.24 0 248.31"/><polygon class="cls-77" points="0 247.37 286.4 215.36 286.5 216.28 0 248.31 0 247.37"/><polygon class="cls-78" points="0 246.44 286.3 214.44 286.4 215.36 0 247.37 0 246.44"/><polygon class="cls-79" points="0 245.5 286.19 213.52 286.3 214.44 0 246.44 0 245.5"/><polygon class="cls-80" points="0 244.57 286.09 212.6 286.19 213.52 0 245.5 0 244.57"/><polygon class="cls-81" points="0 243.64 285.99 211.67 286.09 212.6 0 244.57 0 243.64"/><polygon class="cls-82" points="0 242.7 285.88 210.75 285.99 211.67 0 243.64 0 242.7"/><polygon class="cls-83" points="0 241.77 285.78 209.83 285.88 210.75 0 242.7 0 241.77"/><polygon class="cls-84" points="0 240.84 285.68 208.91 285.78 209.83 0 241.77 0 240.84"/><polygon class="cls-85" points="0 239.9 285.57 207.99 285.68 208.91 0 240.84 0 239.9"/><polygon class="cls-86" points="0 238.97 285.47 207.06 285.57 207.99 0 239.9 0 238.97"/><polygon class="cls-87" points="0 238.04 285.37 206.14 285.47 207.06 0 238.97 0 238.04"/><polygon class="cls-88" points="0 237.1 285.26 205.22 285.37 206.14 0 238.04 0 237.1"/><polygon class="cls-89" points="0 236.17 285.16 204.3 285.26 205.22 0 237.1 0 236.17"/><polygon class="cls-90" points="0 235.24 285.06 203.38 285.16 204.3 0 236.17 0 235.24"/><polygon class="cls-91" points="0 234.3 284.96 202.45 285.06 203.38 0 235.24 0 234.3"/><polygon class="cls-92" points="0 233.37 284.85 201.53 284.96 202.45 0 234.3 0 233.37"/><polygon class="cls-93" points="0 232.44 284.75 200.61 284.85 201.53 0 233.37 0 232.44"/><polygon class="cls-94" points="0 231.5 284.65 199.69 284.75 200.61 0 232.44 0 231.5"/><polygon class="cls-95" points="0 230.57 284.54 198.77 284.65 199.69 0 231.5 0 230.57"/><polygon class="cls-96" points="0 229.63 284.44 197.84 284.54 198.77 0 230.57 0 229.63"/><polygon class="cls-97" points="0 228.7 284.34 196.92 284.44 197.84 0 229.63 0 228.7"/><polygon class="cls-98" points="0 227.77 284.24 196 284.34 196.92 0 228.7 0 227.77"/><polygon class="cls-99" points="0 226.83 284.13 195.08 284.24 196 0 227.77 0 226.83"/><polygon class="cls-100" points="0 225.9 284.03 194.16 284.13 195.08 0 226.83 0 225.9"/><polygon class="cls-101" points="0 224.97 283.93 193.23 284.03 194.16 0 225.9 0 224.97"/><polygon class="cls-102" points="0 224.03 283.82 192.31 283.93 193.23 0 224.97 0 224.03"/><polygon class="cls-103" points="0 223.1 283.72 191.39 283.82 192.31 0 224.03 0 223.1"/><polygon class="cls-104" points="0 222.17 283.62 190.47 283.72 191.39 0 223.1 0 222.17"/><polygon class="cls-105" points="0 221.23 283.51 189.55 283.62 190.47 0 222.17 0 221.23"/><polygon class="cls-106" points="0 220.3 281.27 188.86 283.44 188.86 283.51 189.55 0 221.23 0 220.3"/><polygon class="cls-107" points="0 219.37 272.92 188.86 281.27 188.86 0 220.3 0 219.37"/><polygon class="cls-108" points="0 218.43 264.57 188.86 272.92 188.86 0 219.37 0 218.43"/><polygon class="cls-109" points="0 217.5 256.22 188.86 264.57 188.86 0 218.43 0 217.5"/><polygon class="cls-110" points="0 216.57 247.87 188.86 256.22 188.86 0 217.5 0 216.57"/><polygon class="cls-111" points="0 215.63 239.51 188.86 247.87 188.86 0 216.57 0 215.63"/><polygon class="cls-112" points="0 214.7 231.16 188.86 239.51 188.86 0 215.63 0 214.7"/><polygon class="cls-113" points="0 213.76 222.81 188.86 231.16 188.86 0 214.7 0 213.76"/><polygon class="cls-114" points="0 212.83 214.46 188.86 222.81 188.86 0 213.76 0 212.83"/><polygon class="cls-115" points="0 211.9 206.1 188.86 214.46 188.86 0 212.83 0 211.9"/><polygon class="cls-116" points="0 210.97 197.75 188.86 206.1 188.86 0 211.9 0 210.97"/><polygon class="cls-117" points="0 210.03 189.4 188.86 197.75 188.86 0 210.97 0 210.03"/><polygon class="cls-118" points="0 209.1 181.04 188.86 189.4 188.86 0 210.03 0 209.1"/><polygon class="cls-119" points="0 208.16 172.69 188.86 181.04 188.86 0 209.1 0 208.16"/><polygon class="cls-120" points="0 207.23 164.34 188.86 172.69 188.86 0 208.16 0 207.23"/><polygon class="cls-121" points="0 206.3 155.99 188.86 164.34 188.86 0 207.23 0 206.3"/><polygon class="cls-122" points="0 205.36 147.64 188.86 155.99 188.86 0 206.3 0 205.36"/><polygon class="cls-123" points="0 204.43 139.28 188.86 147.64 188.86 0 205.36 0 204.43"/><polygon class="cls-124" points="0 203.5 130.93 188.86 139.28 188.86 0 204.43 0 203.5"/><polygon class="cls-125" points="0 202.56 122.58 188.86 130.93 188.86 0 203.5 0 202.56"/><polygon class="cls-126" points="0 201.63 114.23 188.86 122.58 188.86 0 202.56 0 201.63"/><polygon class="cls-127" points="0 200.7 105.87 188.86 114.23 188.86 0 201.63 0 200.7"/><polygon class="cls-128" points="0 199.76 97.52 188.86 105.87 188.86 0 200.7 0 199.76"/><polygon class="cls-129" points="0 198.83 89.17 188.86 97.52 188.86 0 199.76 0 198.83"/><polygon class="cls-130" points="0 197.9 80.82 188.86 89.17 188.86 0 198.83 0 197.9"/><polygon class="cls-131" points="0 196.96 72.46 188.86 80.82 188.86 0 197.9 0 196.96"/><polygon class="cls-132" points="0 196.03 64.11 188.86 72.46 188.86 0 196.96 0 196.03"/><polygon class="cls-133" points="0 195.09 55.76 188.86 64.11 188.86 0 196.03 0 195.09"/><polygon class="cls-134" points="0 194.16 47.41 188.86 55.76 188.86 0 195.09 0 194.16"/><polygon class="cls-135" points="0 193.23 39.05 188.86 47.41 188.86 0 194.16 0 193.23"/><polygon class="cls-136" points="0 192.29 30.7 188.86 39.05 188.86 0 193.23 0 192.29"/><polygon class="cls-137" points="0 191.36 22.35 188.86 30.7 188.86 0 192.29 0 191.36"/><polygon class="cls-138" points="0 190.43 14 188.86 22.35 188.86 0 191.36 0 190.43"/><polygon class="cls-139" points="0 189.49 5.64 188.86 14 188.86 0 190.43 0 189.49"/><polygon class="cls-140" points="5.64 188.86 0 189.49 0 188.86 5.64 188.86"/></g><path class="cls-141" d="M235.61,366.7s-48.69,18.26-73,10.14c0,0-33.81,33.13-65.59,31.78,0,0,48.69-1.35,66.27,16.91,0,0,13.52-20.29,44-18.93C207.21,406.6,209.24,382.26,235.61,366.7Z"/><path class="cls-142" d="M115.49,210.51a1.69,1.69,0,0,1-.68-3.08c3.12-2.1,8.53-4.9,13.08-2.95C133.72,207,122.57,211.59,115.49,210.51Z"/><g id="_群組_" data-name="&lt;群組&gt;"><path class="cls-7" d="M104.81,161.38a24.08,24.08,0,0,1-3-13.4c.39-5.05,3.33-8.93,4.55-13.71,1.58-6.2-10.67-37.29,6.5-55.82l0,0c8.71-6.52,19.78-10.4,30.9-12,17.9-2.63,36.28,2.06,50.1,13.74,26.73,22.58,18.73,54.61,18.73,54.61s20-19.16,22.91,2.78-17.77,30.15-22.77,32.12-6-3.56-6-3.56a108.65,108.65,0,0,1-27.3,12.1s-35.5,4.21-54.7-1.91C116.71,173.7,109,168.91,104.81,161.38Z"/><path class="cls-143" d="M142.5,182.84v.09c-5.38,1.15-15.06-1.72-21.56-3.14-6.29-1.39-14.11-3.36-18.32-8.54a25.51,25.51,0,0,1-5.89-17.44,53.31,53.31,0,0,1,2.46-12.43c.92-3,2.63-5.68,1.6-8.55-.95-2.62-2.48-5-3.3-7.72a45,45,0,0,1-1.26-19.81c1.85-11.7,8.09-20.54,16.6-26.88l0,0c-17.17,18.53-4.92,49.62-6.5,55.82-1.22,4.78-4.16,8.65-4.55,13.71a24.08,24.08,0,0,0,3,13.4c4.2,7.53,11.9,12.33,19.93,14.88,19.2,6.12,54.7,1.91,54.7,1.91C168.88,184.83,143.4,182.92,142.5,182.84Z"/><path class="cls-4" d="M139.57,183.58c-4.29,0-9.81-1.32-14.8-2.51-1.38-.33-2.71-.65-3.92-.91-6.78-1.5-14.36-3.53-18.53-8.67a25.8,25.8,0,0,1-6-17.7,53,53,0,0,1,2.48-12.52c.23-.75.51-1.48.78-2.18.8-2.11,1.56-4.1.83-6.13A36,36,0,0,0,99,129.62a29.62,29.62,0,0,1-1.83-4.4,45.39,45.39,0,0,1-1.28-20c1.74-11,7.38-20.15,16.75-27.12C120.79,72,131.54,67.8,143.67,66c18.43-2.71,36.79,2.33,50.39,13.82,23.77,20.07,20.18,47.91,19.09,53.84,2.64-2.31,10.72-8.75,16.65-6.67,3.24,1.14,5.27,4.66,6,10.45,1.33,10.17-1.58,24.06-23,32.52a4.55,4.55,0,0,1-4,0,5.52,5.52,0,0,1-2.33-3.28,110,110,0,0,1-27,11.86.37.37,0,0,1-.47-.25.37.37,0,0,1,.25-.47,108,108,0,0,0,27.2-12.05.37.37,0,0,1,.57.25,5.24,5.24,0,0,0,2.09,3.29,3.85,3.85,0,0,0,3.37,0c21-8.28,23.83-21.82,22.53-31.72-.72-5.49-2.58-8.79-5.54-9.84-6.6-2.32-16.64,7.18-16.74,7.28a.38.38,0,0,1-.62-.36c.08-.32,7.63-32.07-18.61-54.23C180.14,69.05,162,64.08,143.78,66.75c-12,1.77-22.64,5.91-30.73,12-9.21,6.85-14.74,15.81-16.46,26.63A44.64,44.64,0,0,0,97.84,125a29.11,29.11,0,0,0,1.79,4.29,36.25,36.25,0,0,1,1.5,3.41c.82,2.29,0,4.41-.84,6.65-.26.69-.54,1.41-.76,2.14a52.3,52.3,0,0,0-2.45,12.34A25,25,0,0,0,102.9,171c4,5,11.46,6.94,18.11,8.41,1.21.27,2.54.58,3.93.91,5.87,1.4,13.17,3.14,17.47,2.23a.38.38,0,1,1,.16.73A14.5,14.5,0,0,1,139.57,183.58Z"/></g><path class="cls-144" d="M143,130.49c-.05,10.31-2.52,10.29-5.57,10.27s-5.51,0-5.46-10.33c0-5.69,2.52-10.29,5.57-10.27S143,124.8,143,130.49Z"/><path class="cls-4" d="M137.41,141.34h0c-1.58,0-3.19,0-4.35-1.54s-1.71-4.45-1.68-9.38c0-6.1,2.74-10.87,6.15-10.85s6.07,4.81,6,10.92c0,4.93-.58,7.82-1.78,9.36S139,141.35,137.41,141.34Zm0-1.16h0c1.47,0,2.62,0,3.44-1,1-1.29,1.51-4.12,1.54-8.65,0-5.27-2.21-9.73-4.88-9.75s-5,4.43-5,9.69c0,4.53.45,7.36,1.44,8.66.81,1.06,2,1.07,3.41,1.08Z"/><path class="cls-2" d="M139.73,131.22c0,5.28-.05,9.56-4,9.54-2.16,0-3.89-2.9-3.85-9.58,0-5.28,1.12-9.55,4-9.54C138,121.65,139.75,125.94,139.73,131.22Z"/><path class="cls-144" d="M168.37,130.62c-.05,10.31-2.52,10.29-5.57,10.27s-5.51,0-5.46-10.33c0-5.69,2.52-10.29,5.57-10.27S168.4,124.93,168.37,130.62Z"/><path class="cls-4" d="M162.83,141.47h0c-1.58,0-3.19,0-4.35-1.54s-1.71-4.45-1.68-9.38c0-6.1,2.74-10.87,6.15-10.85s6.07,4.81,6,10.92c0,4.93-.58,7.82-1.78,9.36S164.39,141.48,162.83,141.47Zm0-1.16h0c1.47,0,2.62,0,3.44-1,1-1.29,1.51-4.12,1.54-8.65,0-5.27-2.21-9.73-4.88-9.75s-5,4.43-5,9.69c0,4.53.45,7.36,1.44,8.66.81,1.06,2,1.07,3.41,1.08Z"/><path class="cls-2" d="M165.15,131.35c0,5.28-.05,9.56-4,9.54-2.16,0-3.89-2.9-3.85-9.58,0-5.28,1.12-9.55,4-9.54C163.45,121.78,165.17,126.07,165.15,131.35Z"/><path class="cls-4" d="M151.67,148.61a.77.77,0,0,1-.57-.26c-2.37-2.65-5.19-4.74-5.92-4.38-.22.11-.53.94-.1,3.31a.78.78,0,1,1-1.53.28c-.32-1.78-.58-4.23.94-5,2.27-1.11,6.51,3.35,7.76,4.74a.78.78,0,0,1-.58,1.29Z"/><g class="cls-145"><ellipse class="cls-146" cx="178.78" cy="148.64" rx="9.67" ry="14" transform="translate(29.2 326.63) rotate(-89.7)"/></g><g class="cls-145"><ellipse class="cls-146" cx="121.84" cy="148.36" rx="9.67" ry="14" transform="translate(-27.16 269.42) rotate(-89.7)"/></g><polygon class="cls-147" points="135.94 135.26 136.4 136.21 137.44 136.36 136.68 137.09 136.85 138.13 135.93 137.64 135 138.12 135.18 137.09 134.43 136.35 135.47 136.2 135.94 135.26"/><polygon class="cls-147" points="161.73 134.48 162.19 135.43 163.23 135.58 162.47 136.31 162.64 137.35 161.72 136.85 160.78 137.34 160.97 136.3 160.22 135.57 161.26 135.42 161.73 134.48"/><path class="cls-143" d="M221.34,139a1,1,0,0,0,.85,1.64c1.45-.31,2.81-.21,2.81,1.25,0,6.21-10.43,14.88-13.8,14a.16.16,0,0,0-.21.16c.16,1.21,1.63,5.85,14.93-7.13,6.06-6.2,3.34-11.91.06-12.18C224.4,136.58,222.7,137.74,221.34,139Z"/><path class="cls-4" d="M212.49,159.22l-.43,0a2.08,2.08,0,0,1-1.84-1.53.77.77,0,0,1,.54-1,.77.77,0,0,1,1,.54c0,.17.13.36.56.42,2.59.38,10.26-4.57,13.83-10.44,1.47-2.42,2.79-5.93.7-8.91a2.19,2.19,0,0,0-1.83-1c-1.68.1-3.49,2.46-4,3.36a.78.78,0,1,1-1.32-.82c.25-.4,2.5-3.93,5.27-4.09a3.68,3.68,0,0,1,3.16,1.62c2.07,2.93,1.85,6.6-.61,10.64C223.73,154.08,216.14,159.24,212.49,159.22Z"/><path class="cls-2" d="M230.14,101.51a20,20,0,0,0-24.6-29.36A20,20,0,0,0,177.61,56.9a20,20,0,0,0-38.51-.17,20.05,20.05,0,0,0-24,6.71l-.74,0A20,20,0,0,0,95,78.44l-.64,0a20,20,0,1,0,19.41,25.07l.64,0a20,20,0,0,0,16.21-8.27l.74,0a20,20,0,0,0,9.58-2.43A19.23,19.23,0,0,0,170.33,88a20.06,20.06,0,0,0,23.18,5.66,20,20,0,0,0,5.94,11.4,20,20,0,1,0,30.69-3.58Z"/><path class="cls-148" d="M205.89,47,166.38,0,119.92,39.92c-4.51,1.42-36.51,12.16-63.2,38.22,0,0,140.51-14.39,209.06,15.77C265.77,93.9,235,57.77,205.89,47Z"/><path class="cls-4" d="M225.93,75.33a1,1,0,0,1-.84-.45c-5.57-8.45-27.45-22.31-27.67-22.45a1,1,0,1,1,1.07-1.69c.92.58,22.47,14.24,28.27,23a1,1,0,0,1-.83,1.55Z"/><path class="cls-4" d="M168.36,70.2a1,1,0,0,1-.92-.62c-3.87-9.29,1.29-20.56,1.52-21a1,1,0,0,1,1.81.84c-.05.11-5,11-1.48,19.42a1,1,0,0,1-.92,1.38Z"/><path class="cls-4" d="M129.77,69.82a1,1,0,0,1-1-1.24c3.06-12.24,18.52-21.93,19.18-22.34a1,1,0,0,1,1.05,1.7c-.15.09-15.43,9.67-18.29,21.12A1,1,0,0,1,129.77,69.82Z"/><path class="cls-4" d="M93.06,70.57a1,1,0,0,1-.94-1.34c3.86-10.8,35.23-22.58,36.56-23.08a1,1,0,0,1,.7,1.88c-.08,0-8.11,3-16.49,7.27C102,60.81,95.44,65.87,94,69.91A1,1,0,0,1,93.06,70.57Z"/><path class="cls-149" d="M164.59,114.17s-6.1-4.53-10.25-.05C151,117.71,163.43,120.12,164.59,114.17Z"/><path class="cls-149" d="M145.25,114.17s-6.1-4.53-10.25-.05C131.66,117.71,144.09,120.12,145.25,114.17Z"/><path class="cls-2" d="M170.58,217.89c-7.5-16.76,2.95-36.08,20.94-39.77,15.25-3.13,35.61-3.27,51,11.44,28.1,26.83,46,72,2.55,126-26.89,29-71.54,47.35-71.54,47.35l-12.31-12s63.83-86.44,46.37-103C195.73,236.6,177.59,233.56,170.58,217.89Z"/><path class="cls-2" d="M69,300.44s-34.3,10.64-21.29,39c0,0,2,6.93,7.61,10.82,0,0,13.94-14.84,13.68-30.74S69,300.44,69,300.44Z"/><path class="cls-7" d="M69,319.53s1.4.31,9.36,0S95.59,328.19,77,328c0,0,8.62,4.14,16.91,4.47s5.93,19.23-10.79,19.23-22.88-7.79-22.88-7.79S69.11,331.82,69,319.53Z"/><path class="cls-150" d="M83.14,352.22c-16.78,0-23-7.65-23.27-8l-.23-.3.22-.31c.09-.12,8.74-12.12,8.63-24.1v-.63l.61.13c.08,0,1.63.28,9.24,0,3.74-.13,8.12,1.74,9.55,4.1a2.48,2.48,0,0,1,.16,2.62c-.92,1.61-3.9,2.55-8.67,2.73A47.06,47.06,0,0,0,94,332c3.14.13,5.2,2.82,5.12,6.7C99,343.91,94.55,352.22,83.14,352.22ZM60.9,343.89c1.29,1.36,7.77,7.32,22.24,7.32,10.7,0,14.84-7.7,14.93-12.55.05-2.54-1-5.55-4.16-5.68-8.3-.33-17-4.48-17.11-4.52l-2-1,2.25,0c8,.07,9.75-1.55,10.15-2.26a1.52,1.52,0,0,0-.15-1.61c-1.11-1.83-4.94-3.8-8.66-3.62a88.66,88.66,0,0,1-8.88.06C69.35,331.08,62.29,341.88,60.9,343.89Z"/><path class="cls-7" d="M161.24,350.95s-17,2.79-18.88,5.94,11.41,3.78,11.41,3.78-9.83,4.71-17.4,4.72-1.6,10.72,12.43,7.25A104.74,104.74,0,0,0,173.55,363Z"/><path class="cls-150" d="M143.47,373.82c-4.67,0-8.16-1.64-9.85-3.72a3.38,3.38,0,0,1-.82-3.56c.29-.62,1.15-1.65,3.58-1.66,5.43,0,12.15-2.52,15.33-3.86-3.25-.27-8.86-1-9.86-2.87a1.48,1.48,0,0,1,.08-1.53c2-3.26,17.46-5.88,19.23-6.17l.25,0,13,12.65-.57.33a106.27,106.27,0,0,1-24.87,9.73A22.77,22.77,0,0,1,143.47,373.82Zm17.6-22.34c-4.84.81-16.85,3.28-18.28,5.66a.5.5,0,0,0-.06.55c.78,1.46,7.2,2.3,11.06,2.48l2,.09-1.79.86c-.41.19-10,4.76-17.61,4.77-1.39,0-2.34.39-2.67,1.08a2.5,2.5,0,0,0,.69,2.5c2.1,2.57,7.34,4.4,14.3,2.68a106.44,106.44,0,0,0,24-9.31Z"/><path class="cls-143" d="M205.29,334.1a.5.5,0,0,1-.27-.92c34.62-21.66,46.57-47.29,50.5-65,4.25-19.14.3-33.32.26-33.46a.5.5,0,0,1,1-.28c0,.14,4.07,14.57-.24,34-4,17.87-16,43.76-50.94,65.61A.5.5,0,0,1,205.29,334.1Z"/><path class="cls-4" d="M150.87,164.45c-12.34,0-14.31-6.08-14.39-6.33a1,1,0,0,1,1.91-.59c0,.1,1.82,4.92,12.48,4.92,10.49,0,11-4.62,11-4.67a1,1,0,0,1,1-1,1,1,0,0,1,1,1C163.85,158.13,163.42,164.45,150.87,164.45Z"/><path class="cls-151" d="M223.93,82.16s-4.14,25.39,6.75,35.62-22,66-12.87,104.11c0,0,10.77-5.87,33.4,2.51s33.95,0,33.95,0S269.11,106.75,242.65,86.51C242.65,86.51,231.06,83.45,223.93,82.16Z"/><path class="cls-152" d="M261.29,186.07c0,1.43-2.48,2.22-3.15,3.37s-.15,3.73-1.35,4.42-3.07-1-4.5-1-3.34,1.72-4.5,1-.65-3.23-1.35-4.42-3.15-1.94-3.15-3.37,2.48-2.22,3.15-3.37.15-3.73,1.35-4.42,3.07,1,4.5,1,3.34-1.72,4.5-1,.65,3.23,1.35,4.42S261.29,184.63,261.29,186.07Z"/><path class="cls-152" d="M274.29,210.07c0,1.43-2.48,2.22-3.15,3.37s-.15,3.73-1.35,4.42-3.07-1-4.5-1-3.34,1.72-4.5,1-.65-3.23-1.35-4.42-3.15-1.94-3.15-3.37,2.48-2.22,3.15-3.37.15-3.73,1.35-4.42,3.07,1,4.5,1,3.34-1.72,4.5-1,.65,3.23,1.35,4.42S274.29,208.63,274.29,210.07Z"/><path class="cls-152" d="M244.29,209.07c0,1.43-2.48,2.22-3.15,3.37s-.15,3.73-1.35,4.42-3.07-1-4.5-1-3.34,1.72-4.5,1-.65-3.23-1.35-4.42-3.15-1.94-3.15-3.37,2.48-2.22,3.15-3.37.15-3.73,1.35-4.42,3.07,1,4.5,1,3.34-1.72,4.5-1,.65,3.23,1.35,4.42S244.29,207.63,244.29,209.07Z"/><path class="cls-152" d="M244.29,169.07c0,1.43-2.48,2.22-3.15,3.37s-.15,3.73-1.35,4.42-3.07-1-4.5-1-3.34,1.72-4.5,1-.65-3.23-1.35-4.42-3.15-1.94-3.15-3.37,2.48-2.22,3.15-3.37.15-3.73,1.35-4.42,3.07,1,4.5,1,3.34-1.72,4.5-1,.65,3.23,1.35,4.42S244.29,167.63,244.29,169.07Z"/><path class="cls-152" d="M265.29,161.07c0,1.43-2.48,2.22-3.15,3.37s-.15,3.73-1.35,4.42-3.07-1-4.5-1-3.34,1.72-4.5,1-.65-3.23-1.35-4.42-3.15-1.94-3.15-3.37,2.48-2.22,3.15-3.37.15-3.73,1.35-4.42,3.07,1,4.5,1,3.34-1.72,4.5-1,.65,3.23,1.35,4.42S265.29,159.63,265.29,161.07Z"/><path class="cls-152" d="M258.29,135.07c0,1.43-2.48,2.22-3.15,3.37s-.15,3.73-1.35,4.42-3.07-1-4.5-1-3.34,1.72-4.5,1-.65-3.23-1.35-4.42-3.15-1.94-3.15-3.37,2.48-2.22,3.15-3.37.15-3.73,1.35-4.42,3.07,1,4.5,1,3.34-1.72,4.5-1,.65,3.23,1.35,4.42S258.29,133.63,258.29,135.07Z"/><path class="cls-152" d="M246.29,107.07c0,1.43-2.48,2.22-3.15,3.37s-.15,3.73-1.35,4.42-3.07-1-4.5-1-3.34,1.72-4.5,1-.65-3.23-1.35-4.42-3.15-1.94-3.15-3.37,2.48-2.22,3.15-3.37.15-3.73,1.35-4.42,3.07,1,4.5,1,3.34-1.72,4.5-1,.65,3.23,1.35,4.42S246.29,105.63,246.29,107.07Z"/><path class="cls-152" d="M254.29,118.07c0,.64-1.1,1-1.4,1.5s-.07,1.66-.6,2-1.36-.46-2-.46-1.49.76-2,.46-.29-1.43-.6-2-1.4-.86-1.4-1.5,1.1-1,1.4-1.5.07-1.66.6-2,1.36.46,2,.46,1.49-.76,2-.46.29,1.43.6,2S254.29,117.43,254.29,118.07Z"/><path class="cls-152" d="M241.29,149.07c0,.64-1.1,1-1.4,1.5s-.07,1.66-.6,2-1.36-.46-2-.46-1.49.76-2,.46-.29-1.43-.6-2-1.4-.86-1.4-1.5,1.1-1,1.4-1.5.07-1.66.6-2,1.36.46,2,.46,1.49-.76,2-.46.29,1.43.6,2S241.29,148.43,241.29,149.07Z"/><path class="cls-152" d="M275.29,182.07c0,.64-1.1,1-1.4,1.5s-.07,1.66-.6,2-1.36-.46-2-.46-1.49.76-2,.46-.29-1.43-.6-2-1.4-.86-1.4-1.5,1.1-1,1.4-1.5.07-1.66.6-2,1.36.46,2,.46,1.49-.76,2-.46.29,1.43.6,2S275.29,181.43,275.29,182.07Z"/><path class="cls-152" d="M234.29,190.07c0,.64-1.1,1-1.4,1.5s-.07,1.66-.6,2-1.36-.46-2-.46-1.49.76-2,.46-.29-1.43-.6-2-1.4-.86-1.4-1.5,1.1-1,1.4-1.5.07-1.66.6-2,1.36.46,2,.46,1.49-.76,2-.46.29,1.43.6,2S234.29,189.43,234.29,190.07Z"/></g></g></svg>