<svg xmlns="http://www.w3.org/2000/svg" viewBox="0 0 3028 856.53"><defs><style>.cls-1,.cls-2,.cls-3{fill:#fbf8ef;}.cls-1{opacity:0.4;}.cls-2{opacity:0.33;}.cls-3{opacity:0.5;}</style></defs><title>front_page_cloud</title><g id="圖層_2" data-name="圖層 2"><g id="雲"><path class="cls-1" d="M1994.26,204.46C1950.76,85.17,1836.32,0,1702,0A309.58,309.58,0,0,0,1517.8,60.4C1447.17,22.36,1361,0,1268,0,1063.31,0,891.74,108.25,846,253.89,753.86,280,687,357.69,687,449.54c0,113.21,101.58,205,226.89,205a245.69,245.69,0,0,0,103.35-22.45c19.6,69,114.92,121.41,229.56,121.41,68.9,0,130.82-18.93,173.52-49a898.24,898.24,0,0,0,131.12,9.43c134.41,0,254.78-28.63,335.8-73.79a226.18,226.18,0,0,0,86.87,17.24c125.31,0,226.89-101.58,226.89-226.89C2201,311.93,2110.12,214.66,1994.26,204.46Z"/><path class="cls-2" d="M1346,484.71c-29.46-80.79-107-138.47-197.94-138.47a209.61,209.61,0,0,0-122.71,39.48c0-1.16,0-2.33,0-3.5a153.67,153.67,0,0,0-140-153.05c-29.46-80.79-107-138.47-197.94-138.47a209.67,209.67,0,0,0-124.74,40.91c-47.84-25.77-106.19-40.91-169.18-40.91-138.63,0-254.83,73.32-285.8,172C45.28,280.29,0,332.93,0,395.13,0,471.8,68.8,534,153.66,534a166.39,166.39,0,0,0,70-15.21C236.93,565.5,301.49,601,379.13,601c41,0,78.42-9.92,106.51-26.18-15.8,21.81-25,47.88-25,75.89,0,76.67,68.8,138.82,153.66,138.82a166.39,166.39,0,0,0,70-15.21c13.27,46.75,77.83,82.23,155.47,82.23,46.67,0,88.6-12.82,117.52-33.2a608.35,608.35,0,0,0,88.8,6.39c91,0,172.55-19.39,227.43-50a153.67,153.67,0,1,0,72.48-295Z"/><path class="cls-3" d="M2825.4,304.69c-42.62-116.9-154.76-200.36-286.4-200.36a303.37,303.37,0,0,0-180.49,59.19c-69.22-37.28-153.65-59.19-244.79-59.19-200.59,0-368.71,106.08-413.53,248.8-90.3,25.55-155.82,101.72-155.82,191.72,0,110.93,99.54,200.86,222.34,200.86a240.76,240.76,0,0,0,101.28-22c19.21,67.65,112.61,119,225,119,67.52,0,128.2-18.55,170-48a880.22,880.22,0,0,0,128.49,9.24c131.71,0,249.67-28.05,329.07-72.31a221.64,221.64,0,0,0,85.13,16.89c122.79,0,222.34-99.54,222.34-222.34C3028,410,2938.95,314.68,2825.4,304.69Z"/></g></g></svg>