<svg xmlns="http://www.w3.org/2000/svg" viewBox="0 0 322.21 614.9"><defs><style>.cls-1{fill:#007453;}.cls-2{fill:#f7c852;}.cls-3{fill:gray;}.cls-4{fill:#fdd9b1;}.cls-5{fill:#f5c652;}.cls-6{fill:#015b48;}.cls-7{fill:#fff;}.cls-8{opacity:0.74;}.cls-9{fill:#fdcba8;}.cls-10{fill:#fffba9;}.cls-11{fill:#df8e80;}.cls-12{fill:#ffaa2a;}.cls-13{fill:#999;}.cls-14{fill:#b7c794;}.cls-15{fill:#b66100;}.cls-16{fill:#ff7c74;}.cls-17{fill:#ff6d5c;}.cls-18{fill:#ffd371;}</style></defs><title>front_left</title><g id="圖層_2" data-name="圖層 2"><g id="圖層_1-2" data-name="圖層 1"><polygon class="cls-1" points="126.9 423.41 143.21 503.93 165.5 500.41 197.28 401.05 126.9 423.41"/><path class="cls-2" d="M143.21,503.93l33.89-5.06V549.8s27.77,7.41,42.81,22.46S143.21,589,143.21,589Z"/><path class="cls-3" d="M142.71,589.48v-86l34.89-5.21v51.13c3.36,1,28.64,8.46,42.66,22.48,1.66,1.66,2.18,3.27,1.56,4.81-4.55,11.28-75.59,12.71-78.61,12.76Zm1-85.12v84.1c3.1-.07,19.85-.5,36.86-2,31.12-2.83,39.11-7,40.34-10.08.46-1.14,0-2.36-1.34-3.73-14.78-14.78-42.31-22.25-42.59-22.33l-.37-.1V499.45Z"/><polygon class="cls-1" points="143.21 426.95 194.54 490.95 226.85 511.18 231.56 382.13 143.21 426.95"/><path class="cls-2" d="M188.79,485.2l41.65,26-43.2,41.7s13.69,42.8,16.52,57.82-52.29-18.75-65.5-48Z"/><path class="cls-3" d="M200.6,614.9c-12.6,0-52.32-28.81-62.8-52l-.11-.25.15-.23,50.8-77.87.42.26,42.2,26.32L187.81,553c1.22,3.83,13.76,43.36,16.44,57.58.51,2.7-.77,3.7-1.93,4.06A5.74,5.74,0,0,1,200.6,614.9Zm-61.77-52.19c11.69,25.49,54.29,53.81,63.19,51,.73-.23,1.65-.78,1.25-2.92C200.48,596,186.9,553.46,186.77,553l-.09-.3,43-41.47-40.69-25.38Z"/><path class="cls-4" d="M185.48,194s-3.94,21.28,12.15,19.74,18.53-6.86,23.16-26.45C220.79,187.32,211.34,197.55,185.48,194Z"/><path class="cls-3" d="M196,214.35a10.25,10.25,0,0,1-7.93-3.16c-5.18-5.66-3.2-16.78-3.11-17.25l.09-.47.47.06c13.2,1.79,22-.08,27-2,5.45-2,7.82-4.55,7.85-4.57l1.29-1.38-.43,1.84c-4.52,19.1-6.75,25.23-23.6,26.83Q196.83,214.35,196,214.35ZM185.9,194.59c-.31,2.16-1.33,11.26,2.94,15.92,2,2.19,4.95,3.12,8.75,2.76,15.08-1.44,17.82-5.7,22.35-24.53C216.67,191.31,206.57,197.28,185.9,194.59Z"/><g id="_群組_" data-name="&lt;群組&gt;"><path class="cls-4" d="M256.69,173.2a23.91,23.91,0,0,0,3-13.3c-.38-5-3.3-8.87-4.52-13.61-1.57-6.15,10.59-37-6.46-55.43l0,0c-8.65-6.47-19.65-10.33-30.69-12-17.78-2.62-36,2-49.75,13.64-26.55,22.42-18.6,54.23-18.6,54.23s-19.9-19-22.75,2.76,17.65,29.94,22.61,31.9,5.93-3.53,5.93-3.53a107.9,107.9,0,0,0,27.11,12S217.84,194,236.9,188C244.88,185.44,252.52,180.67,256.69,173.2Z"/><path class="cls-5" d="M219.26,194.51v.09c5.35,1.14,15-1.71,21.41-3.12,6.25-1.38,14-3.34,18.2-8.48a25.33,25.33,0,0,0,5.85-17.32,52.94,52.94,0,0,0-2.45-12.34c-.91-3-2.61-5.64-1.59-8.49.94-2.61,2.46-4.95,3.27-7.67a44.71,44.71,0,0,0,1.26-19.68c-1.84-11.62-8-20.4-16.49-26.69l0,0c17,18.4,4.88,49.28,6.46,55.43,1.22,4.75,4.13,8.59,4.52,13.61a23.91,23.91,0,0,1-3,13.3c-4.17,7.48-11.82,12.24-19.79,14.77-19.06,6.08-54.32,1.89-54.32,1.89C193.07,196.49,218.37,194.59,219.26,194.51Z"/><path class="cls-3" d="M222.17,195.25a14.39,14.39,0,0,1-3-.28.38.38,0,0,1,.16-.73c4.26.91,11.52-.82,17.35-2.21,1.38-.33,2.7-.64,3.9-.91,6.6-1.46,14-3.43,18-8.35a24.88,24.88,0,0,0,5.77-17.06,51.94,51.94,0,0,0-2.43-12.26c-.22-.72-.49-1.43-.75-2.12-.85-2.23-1.65-4.33-.83-6.6a36.06,36.06,0,0,1,1.49-3.39,28.92,28.92,0,0,0,1.78-4.26,44.34,44.34,0,0,0,1.25-19.51c-1.7-10.75-7.2-19.64-16.34-26.45-8-6-18.59-10.13-30.52-11.89-18.08-2.66-36.11,2.28-49.45,13.56-26.06,22-18.56,53.53-18.48,53.85a.38.38,0,0,1-.62.36c-.1-.1-10.08-9.54-16.62-7.23-2.93,1-4.78,4.32-5.5,9.77-1.29,9.83,1.55,23.28,22.37,31.5a3.82,3.82,0,0,0,3.34,0,5.18,5.18,0,0,0,2.07-3.27.37.37,0,0,1,.22-.28.38.38,0,0,1,.35,0,107.17,107.17,0,0,0,27,12,.37.37,0,1,1-.21.72,109.21,109.21,0,0,1-26.76-11.77,5.48,5.48,0,0,1-2.32,3.26,4.51,4.51,0,0,1-4,0c-21.27-8.39-24.16-22.2-22.84-32.29.75-5.75,2.77-9.24,6-10.38,5.89-2.07,13.91,4.32,16.54,6.62-1.09-5.91-4.64-33.54,19-53.46,13.51-11.42,31.75-16.42,50-13.73,12.05,1.78,22.73,5.94,30.86,12,9.31,6.92,14.9,16,16.63,26.93a45.09,45.09,0,0,1-1.27,19.84,29.43,29.43,0,0,1-1.82,4.37A35.6,35.6,0,0,0,261,145c-.72,2,0,4,.83,6.08.27.7.54,1.43.77,2.17a52.65,52.65,0,0,1,2.46,12.43,25.63,25.63,0,0,1-5.94,17.58c-4.15,5.11-11.68,7.12-18.41,8.61-1.2.26-2.52.58-3.89.91C231.92,193.94,226.43,195.24,222.17,195.25Z"/></g><path class="cls-1" d="M197.1,90.34S146.64,98,149.7,146.73c0,0-12.12-11.31-18.46-6.58,0,0-25-20.63-.28-53.27,8.5-11.22,16.53-19.34,24.24-24.92a37,37,0,1,1,63.4-16.33c11.73.82,28.25,8.61,49.54,34.19,33,39.69-3,63.69-3,63.69s1-37.44-28-52.22l1.29,8.17H231l-4.65-7.24-2.22,7.24H213.92V92.74l-4.54,6.73H201.2Z"/><path class="cls-1" d="M226.4,88.12"/><path class="cls-1" d="M206.79,86.34"/><path class="cls-6" d="M231,121.87s-6.11-4.43-10.18.05C217.6,125.54,230,127.8,231,121.87Z"/><path class="cls-6" d="M197.43,122s6.06-4.5,10.18-.05C210.92,125.57,198.58,128,197.43,122Z"/><path class="cls-7" d="M218.81,142.52c.05,10.24,2.51,10.22,5.53,10.2s5.48,0,5.42-10.26c0-5.65-2.51-10.22-5.53-10.2S218.78,136.87,218.81,142.52Z"/><path class="cls-3" d="M220,151.82c-1.2-1.53-1.75-4.4-1.77-9.29,0-6.06,2.6-10.82,6-10.84s6.08,4.72,6.11,10.78c0,4.89-.49,7.77-1.67,9.31s-2.75,1.52-4.32,1.53h0C222.77,153.3,221.17,153.31,220,151.82Zm4.36.32c1.44,0,2.58,0,3.39-1.07,1-1.29,1.46-4.11,1.43-8.6,0-5.23-2.29-9.64-4.95-9.63s-4.87,4.45-4.85,9.68c0,4.5.52,7.31,1.53,8.59.82,1,2,1,3.42,1h0Z"/><path class="cls-1" d="M222,143.25c0,5.24.05,9.49,3.93,9.47,2.14,0,3.86-2.88,3.83-9.51,0-5.24-1.11-9.49-3.93-9.47C223.7,133.74,222,138,222,143.25Z"/><path class="cls-7" d="M193.57,142.65c.05,10.24,2.51,10.22,5.53,10.2s5.48,0,5.42-10.26c0-5.65-2.51-10.22-5.53-10.2S193.54,137,193.57,142.65Z"/><path class="cls-3" d="M194.76,151.95c-1.2-1.53-1.75-4.4-1.77-9.29,0-6.06,2.6-10.82,6-10.84s6.08,4.72,6.11,10.78c0,4.89-.49,7.77-1.67,9.31s-2.75,1.52-4.32,1.53h0C197.53,153.44,195.93,153.44,194.76,151.95Zm4.36.32c1.44,0,2.58,0,3.39-1.07,1-1.29,1.46-4.11,1.43-8.6,0-5.23-2.29-9.64-4.95-9.63s-4.87,4.45-4.85,9.68c0,4.5.52,7.31,1.53,8.59.82,1,2,1,3.42,1h0Z"/><path class="cls-1" d="M196.77,143.38c0,5.24.05,9.49,3.93,9.47,2.14,0,3.86-2.88,3.83-9.51,0-5.24-1.11-9.49-3.93-9.47C198.46,133.88,196.74,138.14,196.77,143.38Z"/><path class="cls-3" d="M210.16,160.51a.77.77,0,0,0,.57-.26c2.36-2.63,5.16-4.71,5.88-4.35.22.11.53.93.1,3.28a.77.77,0,1,0,1.52.27c.32-1.77.58-4.2-.94-4.94-2.25-1.1-6.46,3.32-7.7,4.71a.77.77,0,0,0,.58,1.28Z"/><g class="cls-8"><ellipse class="cls-9" cx="183.23" cy="160.55" rx="13.91" ry="9.6" transform="matrix(1, -0.01, 0.01, 1, -0.84, 0.97)"/></g><g class="cls-8"><ellipse class="cls-9" cx="239.78" cy="160.27" rx="13.91" ry="9.6" transform="translate(-0.84 1.27) rotate(-0.3)"/></g><path class="cls-5" d="M133.48,139.09a.64.64,0,0,0,0-.12c0-.51-1.38-1.9-1.69-2.38a32.18,32.18,0,0,1-2.59-4.83,29.69,29.69,0,0,1-2.34-9.86c-.42-6.83,1.49-13.59,4.4-19.72A84.06,84.06,0,0,1,143.42,84a144.07,144.07,0,0,1,14.66-14.79,149.34,149.34,0,0,1,12-9.56c1-.69,1.94-1.37,2.94-2,9.1-5.72,22.51-1.38,22.51-1.38A11.69,11.69,0,0,1,197.07,54S177.72,43.72,152,64.45c-8.84,7.11-17.24,15.09-23.69,24.47-5.08,7.38-9.08,16-9.09,25.11A30.18,30.18,0,0,0,121.62,126,64.45,64.45,0,0,0,129.45,139c.53.72,1.36,1.27,1.79,1.1C131.91,139.9,133.49,139,133.48,139.09Z"/><path class="cls-5" d="M265.18,128.8a.77.77,0,0,0,.65-.36c10.17-15.93,7.28-26.06-9.62-57.89a.77.77,0,0,0-1.36.72c16.56,31.19,19.43,41.08,9.68,56.34a.77.77,0,0,0,.23,1.06A.76.76,0,0,0,265.18,128.8Z"/><path class="cls-5" d="M275.14,96.87a.77.77,0,0,0,.65-1.18c-4.84-7.7-15-16.72-15.45-17.1a.77.77,0,0,0-1,1.15c.1.09,10.44,9.26,15.16,16.77A.77.77,0,0,0,275.14,96.87Z"/><path class="cls-5" d="M278.86,108.76a.75.75,0,0,0,.39-.11.77.77,0,0,0,.27-1.05c-5-8.5-13.37-17.09-13.45-17.18A.77.77,0,0,0,265,91.5c.08.08,8.31,8.55,13.22,16.89A.77.77,0,0,0,278.86,108.76Z"/><path class="cls-5" d="M278,117.35a.76.76,0,0,0,.45-.15.77.77,0,0,0,.17-1.08,112.88,112.88,0,0,0-7.13-9.14.77.77,0,0,0-1.12,1.05s2.06,2.22,7,9A.77.77,0,0,0,278,117.35Z"/><path class="cls-5" d="M275.64,123.28a.77.77,0,0,0,.68-1.13,35.69,35.69,0,0,0-5.33-6.72.77.77,0,0,0-1.09,1.09,34.87,34.87,0,0,1,5.06,6.35A.77.77,0,0,0,275.64,123.28Z"/><polygon class="cls-10" points="227.27 139.41 226.81 140.34 225.78 140.5 226.53 141.22 226.36 142.25 227.28 141.76 228.21 142.24 228.02 141.22 228.77 140.48 227.73 140.34 227.27 139.41"/><polygon class="cls-10" points="202.69 139.76 202.23 140.7 201.2 140.86 201.95 141.58 201.78 142.61 202.7 142.12 203.63 142.6 203.44 141.57 204.19 140.84 203.16 140.7 202.69 139.76"/><path class="cls-5" d="M141,151a1,1,0,0,1-.84,1.62c-1.44-.3-2.79-.21-2.79,1.24,0,6.16,10.36,14.77,13.71,13.88a.16.16,0,0,1,.21.16c-.16,1.2-1.62,5.81-14.83-7.08-6-6.16-3.32-11.83-.06-12.1C137.92,148.57,139.62,149.72,141,151Z"/><path class="cls-3" d="M149.76,171.05l.43,0A2.07,2.07,0,0,0,152,169.5a.77.77,0,0,0-.53-.95.76.76,0,0,0-.95.53c0,.17-.13.35-.56.41-2.57.38-10.19-4.54-13.74-10.37-1.46-2.41-2.77-5.89-.69-8.84a2.17,2.17,0,0,1,1.81-1c1.67.1,3.46,2.44,4,3.33a.77.77,0,0,0,1.31-.81c-.25-.4-2.48-3.9-5.23-4.06a3.65,3.65,0,0,0-3.14,1.61c-2.05,2.91-1.83,6.55.61,10.57C138.59,166,146.13,171.07,149.76,171.05Z"/><path class="cls-11" d="M212,167.76a4.48,4.48,0,0,0-2.83,4.16c-.05,3,.5,7.83,4.7,7.37C219.2,178.71,217.69,165.68,212,167.76Z"/><path class="cls-1" d="M149,203.42h0s-22.48,7.58-29,24.31S67.74,344.9,67.74,344.9l153.68,79.26s14.69-136.43-4.24-191.54L165.59,208C159.83,205.15,155,204.19,149,203.42Z"/><path class="cls-12" d="M256.95,302.1c-2.22.11-9.13-5.39-11.34-6.37-13.09-5.81-27.67-8.44-41.82-9.95-26.07-2.78-53-1.49-78.92,2.37C75,295.58,20.54,308.72.5,362c0,0,1.36,25.51,19.1,36.6s8.87,41,78.74,51,145.29-27.73,180.78-65.43c8.33-7.49,33.88-4.8,37.24-41.78,0,0,5.67-.79,5.32-9.57s-8.77-6.67-8.77-6.67S311.88,299.46,256.95,302.1Z"/><path class="cls-13" d="M121.49,451.71a164,164,0,0,1-23.21-1.61c-49.53-7.08-59.58-24-67.66-37.54C27.32,407,24.47,402.21,19.34,399,10,393.2,5.29,383.45,2.93,376.28A61.7,61.7,0,0,1,0,362v-.1l0-.1c9.12-24.26,25.89-42,51.26-54.38,23-11.2,50.09-16.28,73.51-19.77,28-4.18,54.64-5,79-2.37,17.46,1.86,30.8,5,42,10a34.41,34.41,0,0,1,3.82,2.36c2.51,1.67,5.94,4,7.24,4h0c15.94-.77,37.42.6,49.26,11.44,5.81,5.32,7,10.76,7.19,12.51a8.43,8.43,0,0,1,6.17,1.21c1.65,1.24,2.55,3.27,2.66,6,.31,7.74-4,9.6-5.36,10-2.62,27.44-17.46,33.09-28.32,37.23-3.74,1.43-7,2.66-9.06,4.53C246.82,419.22,183.22,451.71,121.49,451.71ZM1,362.06c.12,1.77,2.11,25.63,18.86,36.1,5.33,3.33,8.24,8.22,11.61,13.88,8,13.39,17.89,30.05,66.94,37.06,68.07,9.72,143.73-26.38,180.34-65.28,2.25-2,5.56-3.29,9.4-4.75,10.65-4.06,25.24-9.61,27.71-36.74l0-.4.39-.05c.21,0,5.22-.87,4.89-9.05-.1-2.44-.86-4.22-2.26-5.27-2.37-1.78-5.86-.94-5.9-.94l-.59.15,0-.61c0-.06-.34-6.38-7-12.42-6.4-5.84-20-12.51-48.5-11.15h0c-1.45.07-4.2-1.67-7.89-4.12a35.35,35.35,0,0,0-3.67-2.28c-11.07-4.91-24.31-8.06-41.67-9.91-24.32-2.6-50.83-1.8-78.79,2.37-23.34,3.48-50.3,8.54-73.22,19.68C26.64,320.53,10,338.11,1,362.06Z"/><path class="cls-14" d="M254.64,372c-41.73,8.78-140.44,28.1-194.49,26.47a2.12,2.12,0,0,0-.6,4.18c29.67,7.75,97.4,16.06,196.36-26.61A2.13,2.13,0,0,0,254.64,372Z"/><path class="cls-1" d="M315.24,330.67s-1.57,3.26,0,5.26S321.1,329.84,315.24,330.67Z"/><path class="cls-15" d="M180.95,412.46s22.82-14.85,26.81-9.06S182,423.69,180.95,412.46Z"/><path class="cls-15" d="M177.14,426s18.31-6.6,20.14-1.92S176.06,434,177.14,426Z"/><path class="cls-15" d="M109.48,426.25s-32.11.07-41.74-3.87,12.19,7.66,20.87,7.74S122.11,429.7,109.48,426.25Z"/><g id="_群組_2" data-name="&lt;群組&gt;"><path class="cls-16" d="M285.13,266.83c.84,12.18-3.36,16.8-13.44,17.65s-2,20.57-11.93,21.42c0,0-77.52-100.38-110.7-102.48,0,0,5.81-3.7,10.56-12.16l1.5-2.65S201.36,200.81,285.13,266.83Z"/><path class="cls-17" d="M293.78,254.56s-9.49.1-8.66,12.27c-83.76-66-124-78.21-124-78.21l3.27-5.8S214.57,186.85,293.78,254.56Z"/><path class="cls-18" d="M284.82,267.23c-43.24-34.08-74.63-53.52-93.35-63.82-20.25-11.15-30.4-14.28-30.5-14.31l.29-1c.1,0,10.35,3.19,30.69,14.39,18.75,10.32,50.19,29.79,93.49,63.91Z"/></g><path class="cls-1" d="M162.43,306.48S187.37,254.4,183,230.92,150.1,182,122.63,219.64,90.29,308.3,95.15,321.4s88.36,55.42,88.36,55.42l16.53-22Z"/><path class="cls-4" d="M199.49,355.21s13.79,7.11,20,8.12-7.92,6.92-14.67,2.78c0,0,8.5,12.29,16.22,12s-3.84,23.08-33.82-6.48Z"/><path class="cls-13" d="M213.8,387.19C203.26,387.19,191,376,186.89,372l-.31-.31,12.76-17.12.38.19c.14.07,13.79,7.08,19.87,8.07,1.17.19,1.8.57,1.94,1.16s-.18,1.07-.92,1.6c-2.18,1.58-9.17,3.48-14.19,1.8,2.56,3.25,8.92,10.48,14.62,10.23a2.5,2.5,0,0,1,2.73,1.72c.49,1.65-.58,4.37-3.55,6.15A12.25,12.25,0,0,1,213.8,387.19Zm-25.9-15.6c5.19,5.06,21.3,19.34,31.8,13,2.44-1.46,3.49-3.69,3.1-5a1.54,1.54,0,0,0-1.73-1h-.29c-7.82,0-16-11.72-16.36-12.23l-1.35-1.95,2,1.23c4.19,2.56,11.43,1,14.31-.52,1.08-.59,1.14-.94,1.15-.95h0s-.15-.24-1.13-.4c-5.73-.93-17.49-6.81-19.79-8Z"/><path class="cls-5" d="M168.46,356.15l-.14,0c-.4-.11-40.49-11.55-57.3-32.16a25.3,25.3,0,0,1-5.16-20.64c3.45-18.71,13.14-44.42,13.24-44.68a.51.51,0,0,1,.64-.29.5.5,0,0,1,.29.64c-.1.26-9.75,25.89-13.19,44.51a24.3,24.3,0,0,0,5,19.82c16.61,20.37,56.4,31.72,56.8,31.83a.5.5,0,0,1-.13,1Z"/></g></g></svg>