<svg xmlns="http://www.w3.org/2000/svg" viewBox="0 0 206 99">
  <g id="圖層_2" data-name="圖層 2">
    <g id="頁面">
      <g>
        <polygon points="197.75 1.5 204.5 21.47 204.5 97.5 13.77 97.5 1.5 82.91 1.5 1.5 197.75 1.5" fill="#f6d16b" stroke="#485349" stroke-linecap="round" stroke-linejoin="round" stroke-width="3"/>
        <path d="M58.36-54H139a0,0,0,0,1,0,0V138.26a1.1,1.1,0,0,1-1.1,1.1H58.36a0,0,0,0,1,0,0V-54A0,0,0,0,1,58.36-54Z" transform="translate(141.36 -56.03) rotate(90)" fill="#fff" stroke="#485349" stroke-linecap="round" stroke-linejoin="round" stroke-width="3"/>
        <g>
          <path d="M38.64,56.45V47.9a29.31,29.31,0,0,1-7.5,5.9q-5,3-7,3c-1,0-1.52-.56-1.52-1.68q0-1.12,1.95-1.83a36.27,36.27,0,0,0,12.85-7.38H24.54a2.09,2.09,0,0,1-1.36-.36,1.36,1.36,0,0,1-.43-1.13c0-.94.6-1.4,1.79-1.4h14.1V40.05H29.43a3.72,3.72,0,0,1-2.78-.94,4,4,0,0,1-1-2.85V27.94a4,4,0,0,1,1-2.93,3.77,3.77,0,0,1,2.78-1H51.07a4.31,4.31,0,0,1,3,1A3.58,3.58,0,0,1,55,27.82V36.1a4.61,4.61,0,0,1-.93,3,3.62,3.62,0,0,1-2.82.94H41.77V43H56.26c1.25,0,1.88.48,1.88,1.44s-.63,1.45-1.88,1.45H42.94a30.44,30.44,0,0,0,12.7,7.07q2.61.62,2.61,2a1.54,1.54,0,0,1-1.71,1.76,8,8,0,0,1-2.5-.71A29.5,29.5,0,0,1,41.77,47.7v8.75c0,1.3-.52,2-1.56,2S38.64,57.75,38.64,56.45Zm0-29.57H30.56a2.09,2.09,0,0,0-1.41.35,1.87,1.87,0,0,0-.31,1.37v1.88h9.8Zm0,6.45h-9.8v2.15a2,2,0,0,0,.35,1.36,2,2,0,0,0,1.37.35h8.08ZM51.81,28.6a2.07,2.07,0,0,0-.33-1.37,1.9,1.9,0,0,0-1.35-.35H41.77v3.6h10Zm-.33,8.24a2,2,0,0,0,.33-1.36V33.33h-10v3.86h8.36A1.86,1.86,0,0,0,51.48,36.84Z"/>
          <path d="M98.29,56.88a1.33,1.33,0,0,1-1.48,1.53,19,19,0,0,1-9.38-2.58,12.41,12.41,0,0,1-6-7H76v5.62l6.17-1a1,1,0,0,1,1,.27,1.63,1.63,0,0,1,.33,1.09,1.34,1.34,0,0,1-.55,1.1,6.08,6.08,0,0,1-1.5.43c-.87.18-1.94.37-3.19.58A77.39,77.39,0,0,1,70,58.17a1.29,1.29,0,0,1-1.44-1.48,1.42,1.42,0,0,1,.31-.86c.23-.37,1-.63,2.42-.78L73,54.89V48.8H67.9a26.21,26.21,0,0,1-1.52,6.64c-.65,1.74-1.39,2.61-2.23,2.61-1.07,0-1.6-.56-1.6-1.68a3.66,3.66,0,0,1,.55-1.48q2-3.6,2-10.86V41.14q0-2.93,3.2-2.93H96q1.44,0,1.44,1.17a1,1,0,0,1-.35.9,1.78,1.78,0,0,1-1.09.27H69.5a1.32,1.32,0,0,0-1.29.71L68,46.45H96.46q1.44,0,1.44,1.17c0,.79-.48,1.18-1.44,1.18H84.31a10.59,10.59,0,0,0,3,3.67l5-3a1.83,1.83,0,0,1,.93-.35c1,0,1.57.45,1.57,1.37q0,1-5.28,3.2l-.12,0a26,26,0,0,0,7.27,1.64C97.77,55.49,98.29,56,98.29,56.88ZM65.75,33.52V28.13q0-2.93,3.09-2.93h5.9v-.94c0-1,.45-1.56,1.37-1.56s1.4.52,1.4,1.56v.94h6.17v-.94q0-1.56,1.41-1.56t1.41,1.56v.94h6c2,0,3,1,3,2.93v5.39q0,3-3,3H68.84Q65.75,36.49,65.75,33.52Zm2.89-3.86h6.1V27.47h-5a1,1,0,0,0-1.1,1.09Zm0,3.43a1,1,0,0,0,1.1,1.1h5V31.84h-6.1ZM93.8,42.31c.94,0,1.41.38,1.41,1.13s-.47,1.14-1.41,1.14H71.38c-.91,0-1.37-.38-1.37-1.14s.46-1.13,1.37-1.13ZM77.51,27.47v2.19h6.17V27.47Zm0,4.37v2.35h6.17V31.84Zm9-2.18h6.25v-1.1a1,1,0,0,0-1.1-1.09H86.5Zm0,4.53h5.15a1,1,0,0,0,1.1-1.1V31.84H86.5Z"/>
          <path d="M107.63,52.19V29.5A4.66,4.66,0,0,1,108.8,26a4.31,4.31,0,0,1,3-.9h17.61a4.68,4.68,0,0,1,3.48,1.18,4.2,4.2,0,0,1,.9,3V52.19a4.32,4.32,0,0,1-.92,3.44,4.28,4.28,0,0,1-3.46.94H112.12C108.94,56.78,107.45,55.32,107.63,52.19ZM130.4,30.71a2.63,2.63,0,0,0-.47-1.84,2.71,2.71,0,0,0-1.87-.46H113.37a2.64,2.64,0,0,0-1.83.46,2.79,2.79,0,0,0-.47,1.92v8.12H130.4Zm-.47,22.11a2.68,2.68,0,0,0,.47-1.88V42.19H111.07v8.75a2.67,2.67,0,0,0,.48,1.88,2.83,2.83,0,0,0,1.9.47h14.61A2.7,2.7,0,0,0,129.93,52.82Z"/>
          <path d="M142.51,31.1c0-1,.56-1.48,1.68-1.48h9.34c1.12,0,1.68.49,1.68,1.48s-.56,1.48-1.68,1.48h-9.34C143.07,32.58,142.51,32.09,142.51,31.1Zm1.1-5.27c0-1,.56-1.49,1.68-1.49h7.77c1.12,0,1.68.5,1.68,1.49s-.56,1.48-1.68,1.48h-7.77C144.17,27.31,143.61,26.82,143.61,25.83Zm.19,10.43c0-.94.51-1.41,1.52-1.41h7.62c1,0,1.49.47,1.49,1.41a1.3,1.3,0,0,1-1.49,1.44h-7.62C144.31,37.7,143.8,37.22,143.8,36.26Zm0,5.23c0-1,.51-1.44,1.52-1.44h7.62a1.3,1.3,0,0,1,1.49,1.44c0,.94-.5,1.41-1.49,1.41h-7.5C144.35,42.9,143.8,42.43,143.8,41.49Zm.27,12.34V48.21c0-2,1-2.93,3-2.93h4.3c2,0,3,1,3,2.93v5.62a2.63,2.63,0,0,1-3,3H147Q143.92,56.8,144.07,53.83Zm7.47-.7V48.91a.94.94,0,0,0-1.06-1h-2.54a1,1,0,0,0-1.09,1v4.22a1,1,0,0,0,1.09,1.1h2.54C151.16,54.23,151.51,53.86,151.54,53.13Zm4,2.25a1.32,1.32,0,0,1-.37-1l.12-.9A45.1,45.1,0,0,0,156.46,47a6.19,6.19,0,0,1,.52-2.13,1.25,1.25,0,0,1,2.37.61,47.3,47.3,0,0,1-1.17,7.89c-.32,1.56-.81,2.34-1.49,2.34A1.7,1.7,0,0,1,155.54,55.38Zm1.23-16.74c0-1,.59-1.45,1.76-1.45H165v-6h-7.65c-1.2,0-1.8-.49-1.8-1.48s.6-1.45,1.8-1.45H165V24.5a1.43,1.43,0,0,1,1.6-1.64c1,0,1.57.55,1.57,1.64v3.71h8.12c1.17,0,1.76.5,1.76,1.48s-.59,1.45-1.76,1.45h-8.12v6h6.32c1.18,0,1.76.5,1.76,1.49s-.58,1.44-1.76,1.44h-16C157.36,40.12,156.77,39.63,156.77,38.64ZM162,56.49c-.67-.31-1-1.08-1-2.3V44.5c0-1.2.49-1.8,1.48-1.8s1.53.6,1.53,1.8v8.32q0,.82.54,1a6.48,6.48,0,0,0,2.15.24,7.87,7.87,0,0,0,2.93-.31c.44-.26.68-.93.7-2,.06-1.4.54-2.11,1.45-2.11s1.44.54,1.44,1.61a9,9,0,0,1-.86,4.29q-.78,1.48-5.46,1.49A13.54,13.54,0,0,1,162,56.49Zm4.89-9.76L166.22,45q-.12-.24-.39-.9a3,3,0,0,1-.27-.9c0-.81.45-1.21,1.37-1.21a1.44,1.44,0,0,1,1,.57A7.07,7.07,0,0,1,169,44.26,13.31,13.31,0,0,1,170.13,47c0,.91-.51,1.37-1.52,1.37Q167.55,48.41,166.93,46.73Zm8.71,7.52a4.15,4.15,0,0,1-.75-1.51,49.54,49.54,0,0,0-2.34-5.66,3.93,3.93,0,0,1-.51-1.45c0-.83.46-1.25,1.37-1.25q1.14,0,3,4.14a27.3,27.3,0,0,1,1.87,4.65,1.4,1.4,0,0,1-1.6,1.56A1.35,1.35,0,0,1,175.64,54.25Z"/>
        </g>
      </g>
    </g>
  </g>
</svg>
