<svg id="e125d693-9e16-40b9-98c3-999c6b21b6e1" data-name="圖層 1" xmlns="http://www.w3.org/2000/svg" viewBox="0 0 1300 14"><defs><style>.fe3acffa-7681-44e9-a26a-ac44058e403c{fill:none;stroke:#007552;stroke-miterlimit:10;stroke-width:4px;}</style></defs><title>blog_line</title><path class="fe3acffa-7681-44e9-a26a-ac44058e403c" d="M1342,381c-7,0-7-10-14-10s-7,10-14,10-7-10-14-10-7,10-14,10-7-10-14-10-7,10-14,10-7-10-14-10-7,10-14,10-7-10-14-10-7,10-14,10-7-10-14-10-7,10-14,10-7-10-14-10-7,10-14,10-7-10-14-10-7,10-14,10-7-10-14-10-7,10-14,10-7-10-14-10-7,10-14,10-7-10-14-10-7,10-14,10-7-10-14-10-7,10-14,10-7-10-14-10-7,10-14,10-7-10-14-10-7,10-14,10-7-10-14-10-7,10-14,10-7-10-14-10-7,10-14,10-7-10-14-10-7,10-14,10-7-10-14-10-7,10-14,10-7-10-14-10-7,10-14,10-7-10-14-10-7,10-14,10-7-10-14-10-7,10-14,10-7-10-14-10-7,10-14,10-7-10-14-10-7,10-14,10-7-10-14-10-7,10-14,10-7-10-14-10-7,10-14,10-7-10-14-10-7,10-14,10-7-10-14-10-7,10-14,10-7-10-14-10-7,10-14,10-7-10-14-10-7,10-14,10-7-10-14-10-7,10-14,10-7-10-14-10-7,10-14,10-7-10-14-10-7,10-14,10-7-10-14-10-7,10-14,10-7-10-14-10-7,10-14,10-7-10-14-10-7,10-14,10-7-10-14-10-7,10-14,10-7-10-14-10-7,10-14,10-7-10-14-10-7,10-14,10-7-10-14-10-7,10-14,10-7-10-14-10-7,10-14,10-7-10-14-10-7,10-14,10-7-10-14-10-7,10-14,10-7-10-14-10-7,10-14,10-7-10-14-10-7,10-14,10-7-10-14-10-7,10-14,10-7-10-14-10-7,10-14,10-7-10-14-10" transform="translate(-42 -369)"/></svg>