<svg id="bf4d00a8-984c-4e60-9139-0b02997dff4f" data-name="圖層 1" xmlns="http://www.w3.org/2000/svg" viewBox="0 0 126.85 86.31"><defs><style>.a7798f60-1b87-47e7-9a31-7b8b3f78e674{fill:#fb7b71;}</style></defs><title>footer_car</title><path class="a7798f60-1b87-47e7-9a31-7b8b3f78e674" d="M566,408.16a15.69,15.69,0,0,1-31.37.12H493.13a15.71,15.71,0,0,1-16.73,15.49,15.83,15.83,0,0,1-14.66-15.59c-1.67,0-3.36-.05-5.05,0-2.27.07-4.25-.51-5.4-2.59a6.4,6.4,0,0,1-.88-3q-.07-29.78,0-59.56a5.39,5.39,0,0,1,5.42-5.52c3.82-.05,67.89,0,71.37,0,3.69,0,5.91,2.27,5.91,6v8h1.38c2.91,0,5.82,0,8.73.1a13.94,13.94,0,0,1,12.67,9.71c1.67,5.06,3.35,10.11,5,15.18a1.81,1.81,0,0,0,1.6,1.42c3.37.66,6.73,1.38,10.09,2.08a5.45,5.45,0,0,1,4.71,5.76q0,8.44,0,16.9a5.33,5.33,0,0,1-5.29,5.5C570,408.21,568,408.16,566,408.16Zm-32.81-48.34v16.4h18.94c-.16-.54-.27-1-.41-1.38L548,363.9a5.39,5.39,0,0,0-4.83-4C539.88,359.66,536.56,359.82,533.17,359.82Zm-55.8,55.61a7.4,7.4,0,0,0,7.48-7.11,7.39,7.39,0,1,0-14.78-.4A7.39,7.39,0,0,0,477.37,415.43Zm72.7,0a7.39,7.39,0,1,0,.19-14.77,7.58,7.58,0,0,0-7.52,7.25A7.47,7.47,0,0,0,550.07,415.43Z" transform="translate(-450.37 -337.51)"/></svg>