<svg id="f93c184b-3b0b-4531-9243-86a8f3cc18b2" data-name="圖層 1" xmlns="http://www.w3.org/2000/svg" viewBox="0 0 1273.61 254.22"><defs><style>.af3b228b-8a71-4f2c-8956-a8af27c5594b{fill:#017552;}.a405389d-7411-47c9-972f-1854b3221e8f{fill:#fbe4cd;opacity:0.9;}</style></defs><title>footer_mountain</title><polygon class="af3b228b-8a71-4f2c-8956-a8af27c5594b" points="477.69 124.72 464.44 139.16 421.09 95.81 402.57 115.99 363.73 77.15 329.25 114.74 310.32 95.81 256.74 154.21 293.03 154.21 365.02 154.21 357.76 162.11 515.38 162.41 477.69 124.72"/><polygon class="af3b228b-8a71-4f2c-8956-a8af27c5594b" points="1067.28 124.72 1054.03 139.16 1010.67 95.81 992.16 115.99 953.32 77.15 918.83 114.74 899.9 95.81 846.33 154.21 882.61 154.21 954.6 154.21 947.35 162.11 1104.96 162.41 1067.28 124.72"/><polygon class="af3b228b-8a71-4f2c-8956-a8af27c5594b" points="1028.51 234.21 1015.26 248.65 971.91 205.3 953.4 225.48 914.55 186.63 880.07 224.22 861.14 205.3 817.12 253.28 1047.59 253.28 1028.51 234.21"/><polygon class="af3b228b-8a71-4f2c-8956-a8af27c5594b" points="359.37 216.53 346.12 230.97 302.77 187.62 284.25 207.8 245.41 168.96 210.92 206.54 192 187.62 138.42 246.01 174.71 246.01 246.69 246.01 239.44 253.92 397.06 254.22 359.37 216.53"/><polygon class="af3b228b-8a71-4f2c-8956-a8af27c5594b" points="180.69 139.86 169.86 151.67 134.41 116.21 119.26 132.72 87.5 100.95 59.29 131.69 43.82 116.21 0 163.97 29.68 163.97 88.55 163.97 76.8 176.77 99.74 176.77 146.82 176.77 147.59 176.77 193.15 176.77 217.61 176.77 180.69 139.86"/><path class="a405389d-7411-47c9-972f-1854b3221e8f" d="M736.94,342a25.79,25.79,0,0,0-39.49-11.94,43.86,43.86,0,0,0-20.7-5c-17,0-31.19,9-35,21-7.64,2.16-13.18,8.6-13.18,16.22,0,9.38,8.42,17,18.81,17a20.35,20.35,0,0,0,8.56-1.86c1.63,5.72,9.53,10.07,19,10.07a25.29,25.29,0,0,0,14.38-4.07,74.1,74.1,0,0,0,10.87.79c11.14,0,21.11-2.38,27.83-6.12A18.81,18.81,0,1,0,736.94,342Z" transform="translate(-46.49 -275.78)"/><path class="a405389d-7411-47c9-972f-1854b3221e8f" d="M1151.23,370.8a21.94,21.94,0,0,0-33.6-10.16,37.15,37.15,0,0,0-17.61-4.26c-14.44,0-26.53,7.63-29.76,17.9-6.5,1.84-11.21,7.32-11.21,13.8,0,8,7.16,14.45,16,14.45a17.4,17.4,0,0,0,7.29-1.58c1.38,4.87,8.1,8.56,16.18,8.56a21.5,21.5,0,0,0,12.24-3.46,62.31,62.31,0,0,0,9.25.67c9.47,0,18-2,23.68-5.2a16,16,0,1,0,7.54-30.72Z" transform="translate(-46.49 -275.78)"/><path class="a405389d-7411-47c9-972f-1854b3221e8f" d="M644.45,323A25.79,25.79,0,0,0,605,311.06a43.87,43.87,0,0,0-20.71-5c-17,0-31.18,9-35,21-7.64,2.16-13.18,8.6-13.18,16.21,0,9.39,8.42,17,18.8,17a20.36,20.36,0,0,0,8.57-1.86c1.62,5.72,9.52,10.06,19,10.06a25.3,25.3,0,0,0,14.39-4.06,74.1,74.1,0,0,0,10.86.78c11.14,0,21.12-2.37,27.84-6.11A18.81,18.81,0,1,0,644.45,323Z" transform="translate(-46.49 -275.78)"/><path class="a405389d-7411-47c9-972f-1854b3221e8f" d="M287.44,338.64A25.79,25.79,0,0,0,248,326.7a43.8,43.8,0,0,0-20.7-5c-17,0-31.19,9-35,21-7.63,2.16-13.18,8.6-13.18,16.22,0,9.38,8.42,17,18.81,17a20.32,20.32,0,0,0,8.56-1.86c1.63,5.72,9.53,10.07,19,10.07a25.29,25.29,0,0,0,14.38-4.07,74.34,74.34,0,0,0,10.87.78c11.14,0,21.12-2.37,27.83-6.11a18.81,18.81,0,1,0,8.87-36.11Z" transform="translate(-46.49 -275.78)"/><path class="a405389d-7411-47c9-972f-1854b3221e8f" d="M954.49,291.44a23.83,23.83,0,0,0-36.5-11,40.52,40.52,0,0,0-19.13-4.63c-15.68,0-28.82,8.3-32.32,19.45-7.06,2-12.18,7.95-12.18,15,0,8.67,7.78,15.7,17.38,15.7a18.92,18.92,0,0,0,7.91-1.72c1.51,5.28,8.81,9.29,17.59,9.29a23.46,23.46,0,0,0,13.29-3.75,68.65,68.65,0,0,0,10,.72c10.29,0,19.51-2.19,25.72-5.65a17.38,17.38,0,1,0,8.2-33.37Z" transform="translate(-46.49 -275.78)"/><polygon class="af3b228b-8a71-4f2c-8956-a8af27c5594b" points="1235.92 144.44 1222.67 158.88 1179.32 115.53 1160.8 135.71 1121.96 96.87 1087.47 134.46 1068.55 115.53 1014.97 173.93 1051.26 173.93 1123.25 173.93 1115.99 181.83 1273.61 182.13 1235.92 144.44"/></svg>