<svg id="Group_627" data-name="Group 627" xmlns="http://www.w3.org/2000/svg" xmlns:xlink="http://www.w3.org/1999/xlink" width="114.421" height="245.849" viewBox="0 0 114.421 245.849">
  <defs>
    <clipPath id="clip-path">
      <path id="Path_486" data-name="Path 486" d="M5154.544,4758.2a23.156,23.156,0,0,0,9.755-4.533c7.329-5.952,19.878-16.776,28.732-27.785,10.27-12.768,10.27-22.76,28.866-16.376,14.649,5.029,13.878,57.176,29.7,69.111,14.832,11.188,12.587,28.476-17.482,30.593a18.544,18.544,0,0,0-7.812,2.37c-2.447,1.382-8.949,2.426-26.053-.489-8.691-1.481-13.481-3.666-16.046-5.865a28.89,28.89,0,0,0-13.12-6.334c-4.071-.822-9.431-2.887-16.353-7.23C5142.049,4783.7,5144.515,4760.375,5154.544,4758.2Z" transform="translate(-5146.1 -4707.519)" fill="none"/>
    </clipPath>
  </defs>
  <g id="Group_554" data-name="Group 554" transform="translate(23.041 166.522)">
    <path id="Path_342" data-name="Path 342" d="M5305.835,4913.784s-2.677,29.554,3.5,50.286l9.7,2.646s10.869-25.142,12.272-41.021C5331.309,4925.694,5316.777,4912.02,5305.835,4913.784Z" transform="translate(-5305.258 -4913.626)" fill="#007552"/>
  </g>
  <g id="Group_555" data-name="Group 555" transform="translate(51.731 179.468)">
    <path id="Path_343" data-name="Path 343" d="M5245.88,4946s12.1-2.437,20.728,1.012c0,0,.2,22.254-11.531,40.461l-10.565-1.416S5243.157,4958.345,5245.88,4946Z" transform="translate(-5244.175 -4945.168)" fill="#007552"/>
  </g>
  <g id="Group_556" data-name="Group 556" transform="translate(49.653 207.528)">
    <path id="Path_344" data-name="Path 344" d="M5249.707,5017.521l-17.81-3.391-1.405,32.032s13.148,5.364,26.051,2.194-10.629-15-10.629-15Z" transform="translate(-5230.28 -5013.884)" fill="#f7c845"/>
    <path id="Path_345" data-name="Path 345" d="M5247.6,5049.2a36.5,36.5,0,0,0,8.7-1c2.505-.615,3.854-1.617,4.007-2.978.513-4.545-12.8-11.489-14.448-12.327l3.805-15.889-18.255-3.477-1.422,32.414.135.054A51.964,51.964,0,0,0,5247.6,5049.2Zm1.567-31.871-3.78,15.787.145.073a79.377,79.377,0,0,1,7.418,4.342c4.753,3.182,7.156,5.825,6.951,7.646-.132,1.172-1.376,2.056-3.7,2.625-12,2.949-24.372-1.586-25.791-2.132l1.389-31.648Z" transform="translate(-5229.991 -5013.529)" fill="gray"/>
  </g>
  <g id="Group_557" data-name="Group 557" transform="translate(22.834 210.009)">
    <path id="Path_346" data-name="Path 346" d="M5314.684,5021.958l-18.428-1.832-.417,32.22s13.149,5.365,26.052,2.194-10.629-15-10.629-15Z" transform="translate(-5295.632 -5019.9)" fill="#f7c845"/>
    <path id="Path_347" data-name="Path 347" d="M5312.944,5055.414a36.535,36.535,0,0,0,8.7-1c2.5-.615,3.854-1.617,4.007-2.979.514-4.551-12.838-11.507-14.454-12.331l3.436-17.654-18.875-1.876-.421,32.583.13.053A51.948,51.948,0,0,0,5312.944,5055.414Zm1.2-33.6-3.408,17.517.139.07a79.15,79.15,0,0,1,7.419,4.342c4.752,3.182,7.156,5.825,6.951,7.646-.133,1.172-1.377,2.055-3.7,2.625-12.012,2.951-24.4-1.6-25.8-2.134l.411-31.854Z" transform="translate(-5295.34 -5019.575)" fill="gray"/>
  </g>
  <g id="Group_558" data-name="Group 558" transform="translate(11.239 24.484)">
    <path id="Path_348" data-name="Path 348" d="M5274.231,4575.09s-36.007,21.537-85.811,6.729C5188.421,4581.819,5224.091,4554.9,5274.231,4575.09Z" transform="translate(-5188.421 -4567.581)" fill="#b07d00"/>
  </g>
  <g id="Group_559" data-name="Group 559" transform="translate(18.65 24.567)">
    <path id="Path_349" data-name="Path 349" d="M5264.027,4576.536a3.54,3.54,0,0,1,.43.871c3.3,9.47,4.689,19.487,5.259,29.462.525,9.189,1.6,19.945.089,29-6.618-2.139-11.552-7.2-18.91-7.386-15.381-.4-35.151-12.1-46.134-5.935s-9.63,5.115-9.63,5.115-2.947-42.967,8.608-52.254C5215.173,4566.217,5255.291,4563.91,5264.027,4576.536Z" transform="translate(-5194.794 -4567.785)" fill="#e08d7e"/>
  </g>
  <g id="Group_560" data-name="Group 560" transform="translate(20.67 73.72)">
    <path id="Path_350" data-name="Path 350" d="M5238.914,4691.8a54.383,54.383,0,0,0,19.842,0c10.84-2.029,20.72,2.515,21.584,13.123s-12.649,35.693-12.649,35.693l-39.454-1.253s-20.879-35.723-10.491-47.1C5227.2,4681.9,5238.914,4691.8,5238.914,4691.8Z" transform="translate(-5214.847 -4687.535)" fill="#007552"/>
  </g>
  <g id="Group_561" data-name="Group 561" transform="translate(46.116 70.087)">
    <path id="Path_351" data-name="Path 351" d="M5289.431,4683.277s1.686,9.111-5.2,8.454-7.933-2.939-9.915-11.325C5274.313,4680.406,5278.361,4684.783,5289.431,4683.277Z" transform="translate(-5273.935 -4679.699)" fill="#fdd8ad"/>
    <path id="Path_352" data-name="Path 352" d="M5284.78,4690.955a4.377,4.377,0,0,0,3.387-1.351c2.217-2.42,1.367-7.177,1.329-7.378l-.035-.192-.194.026c-5.656.768-9.418-.037-11.579-.848a9.4,9.4,0,0,1-3.361-1.96l-.528-.567.179.753c1.933,8.176,2.888,10.795,10.1,11.483C5284.316,4690.944,5284.552,4690.955,5284.78,4690.955Zm4.344-8.462c.133.912.578,4.829-1.26,6.834a4.253,4.253,0,0,1-3.752,1.185c-6.469-.617-7.641-2.449-9.584-10.535C5275.905,4681.066,5280.226,4683.654,5289.125,4682.493Z" transform="translate(-5273.799 -4678.684)" fill="gray"/>
  </g>
  <g id="Group_568" data-name="Group 568" transform="translate(0 81.923)">
    <g id="Group_566" data-name="Group 566">
      <g id="Group_564" data-name="Group 564">
        <g id="Group_563" data-name="Group 563">
          <g id="Group_562" data-name="Group 562" clip-path="url(#clip-path)">
            <path id="Path_353" data-name="Path 353" d="M5254.206,4860.806l1.879-16.81v-43.62l-120.475-13.465-3.9,34.938v38.956Z" transform="translate(-5135.756 -4754.324)" fill="#fc5769"/>
            <path id="Path_354" data-name="Path 354" d="M5252.181,4799.449l-120.432-13.46-.042.378,120.474,13.465Z" transform="translate(-5131.853 -4753.78)" fill="#fc5769"/>
            <path id="Path_355" data-name="Path 355" d="M5252.139,4798.522l-120.389-13.455-.043.378,120.432,13.46Z" transform="translate(-5131.81 -4753.237)" fill="#fc586a"/>
            <path id="Path_356" data-name="Path 356" d="M5252.1,4797.6l-120.347-13.45-.042.378,120.389,13.455Z" transform="translate(-5131.768 -4752.693)" fill="#fc596a"/>
            <path id="Path_357" data-name="Path 357" d="M5252.053,4796.669l-120.3-13.446-.042.379,120.347,13.45Z" transform="translate(-5131.725 -4752.149)" fill="#fc5a6b"/>
            <path id="Path_358" data-name="Path 358" d="M5252.011,4795.742,5131.75,4782.3l-.042.379,120.3,13.446Z" transform="translate(-5131.684 -4751.606)" fill="#fc5b6c"/>
            <path id="Path_359" data-name="Path 359" d="M5251.969,4794.815l-120.22-13.436-.042.378,120.262,13.441Z" transform="translate(-5131.641 -4751.063)" fill="#fc5c6c"/>
            <path id="Path_360" data-name="Path 360" d="M5251.927,4793.889l-120.177-13.432-.043.378,120.22,13.436Z" transform="translate(-5131.599 -4750.519)" fill="#fc5d6d"/>
            <path id="Path_361" data-name="Path 361" d="M5251.885,4792.962l-120.136-13.427-.042.378,120.178,13.432Z" transform="translate(-5131.556 -4749.976)" fill="#fc5e6e"/>
            <path id="Path_362" data-name="Path 362" d="M5251.841,4792.035l-120.093-13.422-.042.378,120.135,13.427Z" transform="translate(-5131.513 -4749.432)" fill="#fc5f6e"/>
            <path id="Path_363" data-name="Path 363" d="M5251.8,4791.109l-120.051-13.417-.042.378,120.093,13.422Z" transform="translate(-5131.472 -4748.889)" fill="#fc606f"/>
            <path id="Path_364" data-name="Path 364" d="M5251.758,4790.182,5131.75,4776.77l-.043.378,120.051,13.417Z" transform="translate(-5131.43 -4748.345)" fill="#fc6170"/>
            <path id="Path_365" data-name="Path 365" d="M5251.715,4789.255l-119.966-13.408-.042.379,120.008,13.413Z" transform="translate(-5131.387 -4747.801)" fill="#fb6270"/>
            <path id="Path_366" data-name="Path 366" d="M5251.672,4788.328l-119.924-13.4-.042.378,119.966,13.408Z" transform="translate(-5131.344 -4747.257)" fill="#fb6372"/>
            <path id="Path_367" data-name="Path 367" d="M5251.631,4787.4,5131.749,4774l-.042.378,119.924,13.4Z" transform="translate(-5131.303 -4746.714)" fill="#fb6473"/>
            <path id="Path_368" data-name="Path 368" d="M5251.589,4786.475l-119.839-13.394-.043.378,119.882,13.4Z" transform="translate(-5131.26 -4746.171)" fill="#fb6673"/>
            <path id="Path_369" data-name="Path 369" d="M5251.546,4785.549l-119.8-13.389-.042.378,119.839,13.394Z" transform="translate(-5131.218 -4745.627)" fill="#fb6774"/>
            <path id="Path_370" data-name="Path 370" d="M5251.5,4784.622l-119.755-13.384-.042.378L5251.5,4785Z" transform="translate(-5131.175 -4745.083)" fill="#fb6875"/>
            <path id="Path_371" data-name="Path 371" d="M5251.461,4783.695l-119.712-13.379-.042.378,119.754,13.384Z" transform="translate(-5131.134 -4744.54)" fill="#fb6975"/>
            <path id="Path_372" data-name="Path 372" d="M5251.42,4782.768l-119.67-13.375-.043.378,119.713,13.38Z" transform="translate(-5131.091 -4743.997)" fill="#fb6a76"/>
            <path id="Path_373" data-name="Path 373" d="M5251.377,4781.841l-119.628-13.37-.042.378,119.67,13.375Z" transform="translate(-5131.049 -4743.453)" fill="#fb6b77"/>
            <path id="Path_374" data-name="Path 374" d="M5251.334,4780.915l-119.586-13.365-.042.378,119.628,13.37Z" transform="translate(-5131.005 -4742.91)" fill="#fb6c77"/>
            <path id="Path_375" data-name="Path 375" d="M5251.292,4779.988l-119.543-13.361-.042.378,119.585,13.366Z" transform="translate(-5130.964 -4742.365)" fill="#fb6d78"/>
            <path id="Path_376" data-name="Path 376" d="M5251.251,4779.062l-119.5-13.356-.043.378,119.544,13.36Z" transform="translate(-5130.922 -4741.823)" fill="#fb6e79"/>
            <path id="Path_377" data-name="Path 377" d="M5251.208,4778.134l-119.459-13.351-.042.379,119.5,13.355Z" transform="translate(-5130.88 -4741.279)" fill="#fb6f79"/>
            <path id="Path_378" data-name="Path 378" d="M5251.165,4777.208l-119.417-13.346-.042.378,119.459,13.352Z" transform="translate(-5130.836 -4740.735)" fill="#fb707a"/>
            <path id="Path_379" data-name="Path 379" d="M5251.124,4776.281l-119.375-13.342-.042.378,119.417,13.347Z" transform="translate(-5130.795 -4740.192)" fill="#fb717b"/>
            <path id="Path_380" data-name="Path 380" d="M5251.082,4775.354l-119.332-13.337-.043.378,119.375,13.341Z" transform="translate(-5130.753 -4739.648)" fill="#fc727b"/>
            <path id="Path_381" data-name="Path 381" d="M5251.039,4774.428l-119.29-13.332-.042.378,119.332,13.337Z" transform="translate(-5130.711 -4739.104)" fill="#fc737c"/>
            <path id="Path_382" data-name="Path 382" d="M5251,4773.5l-119.247-13.327-.042.378L5251,4773.884Z" transform="translate(-5130.667 -4738.562)" fill="#fc747d"/>
            <path id="Path_383" data-name="Path 383" d="M5250.954,4772.574l-119.205-13.323-.042.378,119.247,13.328Z" transform="translate(-5130.626 -4738.018)" fill="#fc757d"/>
            <path id="Path_384" data-name="Path 384" d="M5250.912,4771.647l-119.162-13.318-.043.378,119.205,13.323Z" transform="translate(-5130.584 -4737.474)" fill="#fc767e"/>
            <path id="Path_385" data-name="Path 385" d="M5250.87,4770.721l-119.12-13.313-.042.378L5250.87,4771.1Z" transform="translate(-5130.542 -4736.931)" fill="#fc777f"/>
            <path id="Path_386" data-name="Path 386" d="M5250.828,4769.794l-119.079-13.309-.042.378,119.121,13.313Z" transform="translate(-5130.499 -4736.387)" fill="#fc787f"/>
            <path id="Path_387" data-name="Path 387" d="M5250.784,4768.867l-119.036-13.3-.042.379,119.078,13.309Z" transform="translate(-5130.456 -4735.843)" fill="#fc7980"/>
            <path id="Path_388" data-name="Path 388" d="M5250.743,4767.941l-118.994-13.3-.042.378,119.036,13.3Z" transform="translate(-5130.415 -4735.3)" fill="#fc7a80"/>
            <path id="Path_389" data-name="Path 389" d="M5250.7,4767.014,5131.75,4753.72l-.043.378,118.994,13.3Z" transform="translate(-5130.372 -4734.756)" fill="#fc7b80"/>
            <path id="Path_390" data-name="Path 390" d="M5250.658,4766.087l-118.909-13.29-.042.378,118.951,13.294Z" transform="translate(-5130.33 -4734.213)" fill="#fc7c81"/>
            <path id="Path_391" data-name="Path 391" d="M5250.614,4765.161l-118.866-13.285-.042.379,118.908,13.29Z" transform="translate(-5130.287 -4733.669)" fill="#fc7d82"/>
            <path id="Path_392" data-name="Path 392" d="M5250.573,4764.234l-118.824-13.281-.042.378,118.866,13.285Z" transform="translate(-5130.246 -4733.125)" fill="#fc7e82"/>
            <path id="Path_393" data-name="Path 393" d="M5250.532,4763.307l-118.782-13.275-.043.378,118.825,13.281Z" transform="translate(-5130.203 -4732.582)" fill="#fc7f83"/>
            <path id="Path_394" data-name="Path 394" d="M5250.489,4762.38l-118.74-13.271-.042.379,118.782,13.275Z" transform="translate(-5130.161 -4732.038)" fill="#fc8084"/>
            <path id="Path_395" data-name="Path 395" d="M5250.445,4761.454l-118.7-13.266-.042.378,118.739,13.271Z" transform="translate(-5130.117 -4731.495)" fill="#fc8084"/>
            <path id="Path_396" data-name="Path 396" d="M5250.4,4760.526l-118.655-13.261-.042.378,118.7,13.266Z" transform="translate(-5130.076 -4730.951)" fill="#fc8185"/>
            <path id="Path_397" data-name="Path 397" d="M5250.362,4759.6l-118.612-13.257-.043.378,118.655,13.262Z" transform="translate(-5130.034 -4730.408)" fill="#fc8286"/>
            <path id="Path_398" data-name="Path 398" d="M5250.319,4758.673l-118.57-13.251-.042.378,118.612,13.257Z" transform="translate(-5129.992 -4729.864)" fill="#fc8386"/>
            <path id="Path_399" data-name="Path 399" d="M5250.276,4757.747,5131.748,4744.5l-.042.378,118.57,13.252Z" transform="translate(-5129.948 -4729.321)" fill="#fc8487"/>
            <path id="Path_400" data-name="Path 400" d="M5250.235,4756.82l-118.486-13.243-.042.378,118.528,13.247Z" transform="translate(-5129.907 -4728.777)" fill="#fc8588"/>
            <path id="Path_401" data-name="Path 401" d="M5250.193,4755.894l-118.443-13.238-.043.378,118.486,13.242Z" transform="translate(-5129.865 -4728.234)" fill="#fc8688"/>
            <path id="Path_402" data-name="Path 402" d="M5250.15,4754.967l-118.4-13.233-.042.378,118.443,13.238Z" transform="translate(-5129.823 -4727.69)" fill="#fc8789"/>
            <path id="Path_403" data-name="Path 403" d="M5250.107,4754.04l-118.359-13.228-.042.378,118.4,13.233Z" transform="translate(-5129.779 -4727.146)" fill="#fc888a"/>
            <path id="Path_404" data-name="Path 404" d="M5250.066,4753.113l-118.317-13.224-.042.379,118.359,13.228Z" transform="translate(-5129.738 -4726.603)" fill="#fc898a"/>
            <path id="Path_405" data-name="Path 405" d="M5250.024,4752.187l-118.274-13.219-.043.378,118.317,13.224Z" transform="translate(-5129.696 -4726.06)" fill="#fc8a8b"/>
            <path id="Path_406" data-name="Path 406" d="M5249.981,4751.26l-118.232-13.214-.042.378,118.274,13.219Z" transform="translate(-5129.653 -4725.516)" fill="#fc8b8c"/>
            <path id="Path_407" data-name="Path 407" d="M5249.938,4750.333l-118.19-13.209-.042.378,118.232,13.214Z" transform="translate(-5129.61 -4724.973)" fill="#fc8c8c"/>
            <path id="Path_408" data-name="Path 408" d="M5249.9,4749.406l-118.148-13.2-.042.378,118.19,13.209Z" transform="translate(-5129.568 -4724.429)" fill="#fc8d8d"/>
            <path id="Path_409" data-name="Path 409" d="M5249.855,4748.479l-118.1-13.2-.043.378,118.148,13.205Z" transform="translate(-5129.526 -4723.885)" fill="#fc8e8e"/>
            <path id="Path_410" data-name="Path 410" d="M5249.813,4747.553l-118.063-13.2-.042.379,118.105,13.2Z" transform="translate(-5129.484 -4723.341)" fill="#fc8f8e"/>
            <path id="Path_411" data-name="Path 411" d="M5249.77,4746.626l-118.021-13.19-.042.378,118.063,13.195Z" transform="translate(-5129.441 -4722.798)" fill="#fc908f"/>
            <path id="Path_412" data-name="Path 412" d="M5249.727,4745.7l-117.979-13.186-.042.379,118.021,13.19Z" transform="translate(-5129.398 -4722.254)" fill="#fc9190"/>
            <path id="Path_413" data-name="Path 413" d="M5249.686,4744.773l-117.937-13.181-.042.378,117.979,13.186Z" transform="translate(-5129.357 -4721.711)" fill="#fc9290"/>
            <path id="Path_414" data-name="Path 414" d="M5249.644,4743.846,5131.75,4730.67l-.043.378,117.937,13.181Z" transform="translate(-5129.314 -4721.167)" fill="#fc9391"/>
            <path id="Path_415" data-name="Path 415" d="M5249.6,4742.919l-117.852-13.171-.042.378L5249.6,4743.3Z" transform="translate(-5129.272 -4720.624)" fill="#fc9492"/>
            <path id="Path_416" data-name="Path 416" d="M5249.558,4741.992l-117.81-13.166-.042.378,117.852,13.171Z" transform="translate(-5129.229 -4720.081)" fill="#fc9592"/>
            <path id="Path_417" data-name="Path 417" d="M5249.516,4741.066,5131.749,4727.9l-.042.378,117.809,13.167Z" transform="translate(-5129.188 -4719.537)" fill="#fc9693"/>
            <path id="Path_418" data-name="Path 418" d="M5249.475,4740.139l-117.725-13.157-.043.378,117.768,13.162Z" transform="translate(-5129.146 -4718.993)" fill="#fc9794"/>
            <path id="Path_419" data-name="Path 419" d="M5249.432,4739.213l-117.683-13.153-.042.378,117.725,13.157Z" transform="translate(-5129.104 -4718.45)" fill="#fc9894"/>
            <path id="Path_420" data-name="Path 420" d="M5249.388,4738.286l-117.64-13.147-.042.378,117.682,13.153Z" transform="translate(-5129.06 -4717.906)" fill="#fc9995"/>
            <path id="Path_421" data-name="Path 421" d="M5249.347,4737.359l-117.6-13.144-.042.379,117.64,13.147Z" transform="translate(-5129.019 -4717.363)" fill="#fc9a96"/>
            <path id="Path_422" data-name="Path 422" d="M5249.305,4736.433l-117.555-13.139-.043.378,117.6,13.144Z" transform="translate(-5128.976 -4716.819)" fill="#fc9c96"/>
            <path id="Path_423" data-name="Path 423" d="M5249.262,4735.505l-117.513-13.133-.042.378,117.555,13.139Z" transform="translate(-5128.934 -4716.276)" fill="#fc9d97"/>
            <path id="Path_424" data-name="Path 424" d="M5249.219,4734.579l-117.471-13.129-.042.378,117.513,13.134Z" transform="translate(-5128.891 -4715.732)" fill="#fc9e98"/>
            <path id="Path_425" data-name="Path 425" d="M5249.178,4733.652l-117.429-13.124-.042.378,117.471,13.129Z" transform="translate(-5128.85 -4715.189)" fill="#fc9f98"/>
            <path id="Path_426" data-name="Path 426" d="M5249.136,4732.725l-117.386-13.12-.043.378,117.429,13.125Z" transform="translate(-5128.807 -4714.645)" fill="#fca099"/>
            <path id="Path_427" data-name="Path 427" d="M5249.093,4731.8l-117.344-13.115-.042.378,117.386,13.119Z" transform="translate(-5128.765 -4714.102)" fill="#fca19a"/>
            <path id="Path_428" data-name="Path 428" d="M5249.05,4730.872l-117.3-13.11-.042.379,117.344,13.114Z" transform="translate(-5128.721 -4713.557)" fill="#fca29a"/>
            <path id="Path_429" data-name="Path 429" d="M5249.008,4729.945l-117.259-13.1-.042.378,117.3,13.11Z" transform="translate(-5128.68 -4713.015)" fill="#fca39b"/>
            <path id="Path_430" data-name="Path 430" d="M5248.966,4729.019l-117.216-13.1-.043.378,117.259,13.105Z" transform="translate(-5128.638 -4712.471)" fill="#fca49c"/>
            <path id="Path_431" data-name="Path 431" d="M5248.924,4728.092,5131.749,4715l-.042.378,117.217,13.1Z" transform="translate(-5128.596 -4711.927)" fill="#fca59c"/>
            <path id="Path_432" data-name="Path 432" d="M5248.881,4727.165l-117.133-13.091-.042.378,117.175,13.1Z" transform="translate(-5128.552 -4711.384)" fill="#fda79d"/>
            <path id="Path_433" data-name="Path 433" d="M5248.839,4726.238l-117.09-13.086-.042.378,117.132,13.091Z" transform="translate(-5128.511 -4710.84)" fill="#fda89e"/>
            <path id="Path_434" data-name="Path 434" d="M5248.8,4725.312l-117.047-13.082-.043.379,117.09,13.086Z" transform="translate(-5128.469 -4710.296)" fill="#fda99e"/>
            <path id="Path_435" data-name="Path 435" d="M5248.755,4724.385l-117.006-13.077-.042.378,117.048,13.082Z" transform="translate(-5128.426 -4709.753)" fill="#fdaa9f"/>
            <path id="Path_436" data-name="Path 436" d="M5248.712,4723.459l-116.964-13.073-.042.378,117.006,13.077Z" transform="translate(-5128.383 -4709.209)" fill="#fdaba0"/>
            <path id="Path_437" data-name="Path 437" d="M5248.67,4722.532l-116.921-13.067-.042.378,116.963,13.072Z" transform="translate(-5128.342 -4708.666)" fill="#fdaca0"/>
            <path id="Path_438" data-name="Path 438" d="M5248.628,4721.6l-116.878-13.062-.043.378,116.921,13.068Z" transform="translate(-5128.3 -4708.123)" fill="#fdada1"/>
            <path id="Path_439" data-name="Path 439" d="M5248.586,4720.678,5131.75,4707.62l-.043.378,116.879,13.063Z" transform="translate(-5128.257 -4707.579)" fill="#fdaea2"/>
            <path id="Path_440" data-name="Path 440" d="M5248.543,4719.751,5131.749,4706.7l-.042.378,116.836,13.058Z" transform="translate(-5128.215 -4707.035)" fill="#fdafa2"/>
            <path id="Path_441" data-name="Path 441" d="M5248.5,4718.825l-116.752-13.048-.042.378,116.794,13.054Z" transform="translate(-5128.171 -4706.492)" fill="#fdb0a3"/>
            <path id="Path_442" data-name="Path 442" d="M5248.458,4717.9l-116.709-13.044-.042.378,116.751,13.049Z" transform="translate(-5128.13 -4705.949)" fill="#fdb1a4"/>
            <path id="Path_443" data-name="Path 443" d="M5248.417,4716.972l-116.667-13.04-.043.379,116.71,13.044Z" transform="translate(-5128.088 -4705.404)" fill="#fdb2a4"/>
            <path id="Path_444" data-name="Path 444" d="M5248.374,4716.044l-116.625-13.034-.042.378,116.667,13.04Z" transform="translate(-5128.046 -4704.861)" fill="#fdb3a5"/>
            <path id="Path_445" data-name="Path 445" d="M5248.331,4715.118l-116.583-13.03-.042.378,116.625,13.035Z" transform="translate(-5128.002 -4704.317)" fill="#fdb4a6"/>
            <path id="Path_446" data-name="Path 446" d="M5248.29,4714.191l-116.541-13.025-.042.378,116.583,13.03Z" transform="translate(-5127.961 -4703.774)" fill="#fdb5a6"/>
            <path id="Path_447" data-name="Path 447" d="M5248.248,4713.265l-116.5-13.021-.043.378,116.541,13.025Z" transform="translate(-5127.918 -4703.23)" fill="#fdb6a7"/>
            <path id="Path_448" data-name="Path 448" d="M5248.205,4712.337l-116.456-13.015-.042.378,116.5,13.021Z" transform="translate(-5127.876 -4702.687)" fill="#fdb7a8"/>
            <path id="Path_449" data-name="Path 449" d="M5248.162,4711.411,5131.748,4698.4l-.042.378,116.456,13.015Z" transform="translate(-5127.833 -4702.144)" fill="#fcb8a8"/>
            <path id="Path_450" data-name="Path 450" d="M5248.121,4710.484l-116.372-13.005-.042.378,116.414,13.011Z" transform="translate(-5127.792 -4701.6)" fill="#fcb9a9"/>
            <path id="Path_451" data-name="Path 451" d="M5248.079,4709.7l-115.453-12.9h-.887l-.032.28,116.372,13.006Z" transform="translate(-5127.75 -4701.197)" fill="#fcbaaa"/>
            <path id="Path_452" data-name="Path 452" d="M5247.159,4709.315l-112.023-12.52h-3.429l115.452,12.9Z" transform="translate(-5126.831 -4701.197)" fill="#fcbbaa"/>
            <path id="Path_453" data-name="Path 453" d="M5243.73,4708.932l-108.595-12.137h-3.429l112.023,12.52Z" transform="translate(-5123.402 -4701.197)" fill="#fcbcab"/>
            <path id="Path_454" data-name="Path 454" d="M5240.3,4708.549l-105.167-11.754h-3.428l108.595,12.137Z" transform="translate(-5119.974 -4701.197)" fill="#fcbdac"/>
            <path id="Path_455" data-name="Path 455" d="M5236.873,4708.166l-101.739-11.371h-3.428l105.167,11.754Z" transform="translate(-5116.544 -4701.197)" fill="#fcbeac"/>
            <path id="Path_456" data-name="Path 456" d="M5233.446,4707.782l-98.311-10.987h-3.429l101.739,11.371Z" transform="translate(-5113.117 -4701.197)" fill="#fcbfad"/>
            <path id="Path_457" data-name="Path 457" d="M5230.017,4707.4l-94.882-10.6h-3.428l98.311,10.987Z" transform="translate(-5109.688 -4701.197)" fill="#fcc0ae"/>
            <path id="Path_458" data-name="Path 458" d="M5226.59,4707.017l-91.454-10.222h-3.429l94.883,10.6Z" transform="translate(-5106.261 -4701.197)" fill="#fcc1ae"/>
            <path id="Path_459" data-name="Path 459" d="M5223.161,4706.633l-88.025-9.838h-3.429l91.454,10.222Z" transform="translate(-5102.833 -4701.197)" fill="#fcc2af"/>
            <path id="Path_460" data-name="Path 460" d="M5219.732,4706.25l-84.6-9.455h-3.429l88.025,9.838Z" transform="translate(-5099.404 -4701.197)" fill="#fcc3b0"/>
            <path id="Path_461" data-name="Path 461" d="M5216.3,4705.867l-81.168-9.072h-3.429l84.6,9.455Z" transform="translate(-5095.976 -4701.197)" fill="#fcc4b0"/>
            <path id="Path_462" data-name="Path 462" d="M5212.875,4705.483l-77.74-8.688h-3.428l81.168,9.072Z" transform="translate(-5092.547 -4701.197)" fill="#fcc5b1"/>
            <path id="Path_463" data-name="Path 463" d="M5209.448,4705.1l-74.312-8.306h-3.429l77.741,8.688Z" transform="translate(-5089.119 -4701.197)" fill="#fcc6b2"/>
            <path id="Path_464" data-name="Path 464" d="M5206.018,4704.717l-70.883-7.922h-3.428l74.312,8.306Z" transform="translate(-5085.689 -4701.197)" fill="#fcc7b2"/>
            <path id="Path_465" data-name="Path 465" d="M5202.591,4704.334l-67.456-7.539h-3.429l70.884,7.922Z" transform="translate(-5082.262 -4701.197)" fill="#fcc8b3"/>
            <path id="Path_466" data-name="Path 466" d="M5199.161,4703.951l-64.027-7.156h-3.428l67.455,7.539Z" transform="translate(-5078.833 -4701.197)" fill="#fcc9b4"/>
            <path id="Path_467" data-name="Path 467" d="M5195.734,4703.567l-60.6-6.772h-3.429l64.027,7.156Z" transform="translate(-5075.405 -4701.197)" fill="#fccab4"/>
            <path id="Path_468" data-name="Path 468" d="M5192.306,4703.185l-57.17-6.39h-3.429l60.6,6.772Z" transform="translate(-5071.978 -4701.197)" fill="#fccbb5"/>
            <path id="Path_469" data-name="Path 469" d="M5188.877,4702.8l-53.742-6.006h-3.429l57.17,6.39Z" transform="translate(-5068.549 -4701.197)" fill="#fcccb6"/>
            <path id="Path_470" data-name="Path 470" d="M5185.449,4702.418l-50.314-5.623h-3.428l53.742,6.006Z" transform="translate(-5065.12 -4701.197)" fill="#fccdb6"/>
            <path id="Path_471" data-name="Path 471" d="M5182.02,4702.035l-46.885-5.24h-3.428l50.313,5.623Z" transform="translate(-5061.691 -4701.197)" fill="#fcceb7"/>
            <path id="Path_472" data-name="Path 472" d="M5178.593,4701.652l-43.457-4.857h-3.429l46.886,5.24Z" transform="translate(-5058.264 -4701.197)" fill="#fccfb8"/>
            <path id="Path_473" data-name="Path 473" d="M5175.163,4701.269l-40.029-4.474h-3.428l43.457,4.857Z" transform="translate(-5054.834 -4701.197)" fill="#fcd0b8"/>
            <path id="Path_474" data-name="Path 474" d="M5171.736,4700.886l-36.6-4.091h-3.429l40.029,4.474Z" transform="translate(-5051.407 -4701.197)" fill="#fcd1b9"/>
            <path id="Path_475" data-name="Path 475" d="M5168.307,4700.5l-33.171-3.708h-3.429l36.6,4.091Z" transform="translate(-5047.979 -4701.197)" fill="#fcd2ba"/>
            <path id="Path_476" data-name="Path 476" d="M5164.879,4700.119l-29.743-3.324h-3.429l33.172,3.708Z" transform="translate(-5044.55 -4701.197)" fill="#fcd3ba"/>
            <path id="Path_477" data-name="Path 477" d="M5161.451,4699.736l-26.315-2.941h-3.429l29.744,3.324Z" transform="translate(-5041.123 -4701.197)" fill="#fcd4bb"/>
            <path id="Path_478" data-name="Path 478" d="M5158.022,4699.353l-22.887-2.558h-3.428l26.315,2.941Z" transform="translate(-5037.694 -4701.197)" fill="#fcd5bc"/>
            <path id="Path_479" data-name="Path 479" d="M5154.595,4698.97l-19.459-2.175h-3.429l22.888,2.558Z" transform="translate(-5034.266 -4701.197)" fill="#fcd6bc"/>
            <path id="Path_480" data-name="Path 480" d="M5151.165,4698.586l-16.031-1.792h-3.428l19.459,2.175Z" transform="translate(-5030.836 -4701.197)" fill="#fcd7bd"/>
            <path id="Path_481" data-name="Path 481" d="M5147.737,4698.2l-12.6-1.408h-3.429l16.03,1.792Z" transform="translate(-5027.409 -4701.197)" fill="#fcd8be"/>
            <path id="Path_482" data-name="Path 482" d="M5144.308,4697.82l-9.173-1.025h-3.428l12.6,1.408Z" transform="translate(-5023.979 -4701.197)" fill="#fcd9be"/>
            <path id="Path_483" data-name="Path 483" d="M5140.88,4697.437l-5.745-.642h-3.429l9.173,1.025Z" transform="translate(-5020.553 -4701.197)" fill="#fcdabf"/>
            <path id="Path_484" data-name="Path 484" d="M5137.452,4697.054l-2.316-.259h-3.429l5.745.642Z" transform="translate(-5017.124 -4701.197)" fill="#fddbc0"/>
            <path id="Path_485" data-name="Path 485" d="M5131.707,4696.795l2.316.259v-.259Z" transform="translate(-5013.695 -4701.197)" fill="#fddcc0"/>
          </g>
        </g>
      </g>
      <g id="Group_565" data-name="Group 565" transform="translate(23.619 68.595)">
        <path id="Path_487" data-name="Path 487" d="M5228.7,4874.636s19.983,7.494,29.975,4.163c0,0,13.878,13.6,26.923,13.045,0,0-19.984-.555-27.2,6.939,0,0-5.551-8.327-18.041-7.771C5240.356,4891.012,5239.523,4881.019,5228.7,4874.636Z" transform="translate(-5228.7 -4874.636)" fill="#fbf8ef"/>
      </g>
    </g>
    <g id="Group_567" data-name="Group 567" transform="translate(67.164 1.737)">
      <path id="Path_488" data-name="Path 488" d="M5251.519,4714.5a.694.694,0,0,0,.28-1.266c-1.281-.862-3.5-2.011-5.37-1.21C5244.039,4713.047,5248.614,4714.941,5251.519,4714.5Z" transform="translate(-5245.761 -4711.752)" fill="#7f9966"/>
    </g>
  </g>
  <g id="Group_574" data-name="Group 574" transform="translate(23.415 26.801)">
    <g id="Group_571" data-name="Group 571" transform="translate(0.153 0.154)">
      <g id="Group_569" data-name="Group 569">
        <path id="Path_489" data-name="Path 489" d="M5287.177,4612.886a9.869,9.869,0,0,0,1.238-5.5c-.158-2.075-1.364-3.664-1.867-5.626-.649-2.544,4.378-15.308-2.668-22.913l.007-.012a28.168,28.168,0,0,0-12.685-4.942,25.958,25.958,0,0,0-20.562,5.639c-10.973,9.267-7.687,22.413-7.687,22.413s-8.226-7.865-9.4,1.142,7.293,12.375,9.345,13.184,2.449-1.461,2.449-1.461a44.614,44.614,0,0,0,11.2,4.966s14.572,1.728,22.451-.783A13.95,13.95,0,0,0,5287.177,4612.886Z" transform="translate(-5233.436 -4573.602)" fill="#fdd8ad"/>
      </g>
      <g id="Group_570" data-name="Group 570" transform="translate(23.11 5.234)">
        <path id="Path_490" data-name="Path 490" d="M5242.524,4629.215l0,.037c2.209.473,6.182-.705,8.85-1.29,2.581-.571,5.793-1.38,7.521-3.505a10.468,10.468,0,0,0,2.419-7.159,21.843,21.843,0,0,0-1.012-5.1c-.375-1.229-1.079-2.333-.658-3.508.388-1.077,1.019-2.044,1.354-3.17a18.473,18.473,0,0,0,.52-8.133,16.731,16.731,0,0,0-6.814-11.031l-.008.012c7.047,7.605,2.019,20.369,2.668,22.913.5,1.963,1.709,3.552,1.868,5.627a9.874,9.874,0,0,1-1.239,5.5,13.952,13.952,0,0,1-8.18,6.106c-7.879,2.511-22.451.783-22.451.783C5231.7,4630.031,5242.155,4629.246,5242.524,4629.215Z" transform="translate(-5227.364 -4586.354)" fill="#f5c646"/>
      </g>
    </g>
    <g id="Group_573" data-name="Group 573">
      <g id="Group_572" data-name="Group 572">
        <path id="Path_491" data-name="Path 491" d="M5266.614,4621.777a29.213,29.213,0,0,0,6.075-1.03c.568-.136,1.11-.265,1.607-.374,2.782-.615,5.893-1.449,7.607-3.56a10.583,10.583,0,0,0,2.454-7.264,21.758,21.758,0,0,0-1.018-5.138c-.094-.307-.208-.606-.318-.9a3.6,3.6,0,0,1-.343-2.515,14.822,14.822,0,0,1,.6-1.372,12.061,12.061,0,0,0,.752-1.806,18.631,18.631,0,0,0,.523-8.2,16.784,16.784,0,0,0-6.874-11.131,28.136,28.136,0,0,0-12.754-4.97,26.106,26.106,0,0,0-20.686,5.673c-9.756,8.238-8.283,19.664-7.834,22.1-1.083-.948-4.4-3.593-6.836-2.736-1.332.469-2.164,1.912-2.476,4.288-.546,4.173.648,9.876,9.44,13.347a1.864,1.864,0,0,0,1.647-.011,2.269,2.269,0,0,0,.957-1.346,45.164,45.164,0,0,0,11.063,4.867.151.151,0,0,0,.19-.1.154.154,0,0,0-.1-.191,44.326,44.326,0,0,1-11.164-4.947.154.154,0,0,0-.235.1,2.151,2.151,0,0,1-.859,1.352,1.581,1.581,0,0,1-1.383-.007c-8.606-3.4-9.779-8.956-9.247-13.021.295-2.251,1.06-3.61,2.272-4.037,2.71-.954,6.832,2.948,6.873,2.988a.154.154,0,0,0,.255-.149c-.032-.13-3.133-13.163,7.639-22.258a25.8,25.8,0,0,1,20.441-5.6,27.822,27.822,0,0,1,12.614,4.912,16.5,16.5,0,0,1,6.755,10.933,18.33,18.33,0,0,1-.515,8.065,11.953,11.953,0,0,1-.734,1.76,14.693,14.693,0,0,0-.616,1.4,3.808,3.808,0,0,0,.345,2.728c.108.285.22.58.312.877a21.462,21.462,0,0,1,1,5.065,10.284,10.284,0,0,1-2.386,7.053c-1.652,2.033-4.7,2.849-7.435,3.453-.5.109-1.043.239-1.613.375-2.41.575-5.407,1.29-7.171.914a.154.154,0,1,0-.063.3A5.925,5.925,0,0,0,5266.614,4621.777Z" transform="translate(-5226.989 -4573.227)" fill="gray"/>
      </g>
    </g>
  </g>
  <g id="Group_577" data-name="Group 577" transform="translate(61.412 49.081)">
    <g id="Group_575" data-name="Group 575" transform="translate(0.217 0.227)">
      <ellipse id="Ellipse_132" data-name="Ellipse 132" cx="4.228" cy="2.263" rx="4.228" ry="2.263" transform="translate(0.045 8.48) rotate(-90.302)" fill="#fff"/>
    </g>
    <g id="Group_576" data-name="Group 576">
      <path id="Path_492" data-name="Path 492" d="M5265.565,4636.44h.013a1.984,1.984,0,0,0,1.784-.631c.489-.638.7-1.826.691-3.849-.013-2.5-1.123-4.461-2.526-4.454s-2.491,1.975-2.479,4.48c.011,2.023.237,3.208.732,3.841A1.979,1.979,0,0,0,5265.565,4636.44Zm.011-.478h-.007c-.6,0-1.074,0-1.412-.429-.414-.53-.621-1.69-.63-3.55-.012-2.163.905-3.995,2-4s2.035,1.816,2.046,3.979c.01,1.859-.185,3.022-.592,3.556-.334.436-.805.44-1.4.444Z" transform="translate(-5263.049 -4627.507)" fill="gray"/>
    </g>
  </g>
  <g id="Group_579" data-name="Group 579" transform="translate(62.956 49.92)">
    <g id="Group_578" data-name="Group 578" transform="translate(0 0)">
      <ellipse id="Ellipse_133" data-name="Ellipse 133" cx="3.924" cy="1.602" rx="3.924" ry="1.602" transform="translate(0.041 7.865) rotate(-90.302)" fill="#007552"/>
    </g>
  </g>
  <g id="Group_582" data-name="Group 582" transform="translate(50.978 49.136)">
    <g id="Group_580" data-name="Group 580" transform="translate(0.217 0.227)">
      <ellipse id="Ellipse_134" data-name="Ellipse 134" cx="4.228" cy="2.263" rx="4.228" ry="2.263" transform="translate(0.045 8.48) rotate(-90.302)" fill="#fff"/>
    </g>
    <g id="Group_581" data-name="Group 581">
      <path id="Path_493" data-name="Path 493" d="M5290.985,4636.574H5291a1.983,1.983,0,0,0,1.785-.631c.489-.639.7-1.826.691-3.849-.013-2.505-1.123-4.461-2.526-4.454s-2.492,1.976-2.479,4.48c.01,2.023.236,3.208.732,3.842A1.978,1.978,0,0,0,5290.985,4636.574Zm.011-.478h-.007c-.6,0-1.074,0-1.412-.429-.414-.529-.621-1.69-.63-3.549-.012-2.162.906-3.994,2-4s2.035,1.816,2.046,3.979c.009,1.859-.184,3.022-.593,3.556-.334.436-.805.44-1.4.443Z" transform="translate(-5288.469 -4627.641)" fill="gray"/>
    </g>
  </g>
  <g id="Group_584" data-name="Group 584" transform="translate(52.522 49.975)">
    <g id="Group_583" data-name="Group 583" transform="translate(0 0)">
      <ellipse id="Ellipse_135" data-name="Ellipse 135" cx="3.924" cy="1.602" rx="3.924" ry="1.602" transform="translate(0.041 7.865) rotate(-90.302)" fill="#007552"/>
    </g>
  </g>
  <g id="Group_586" data-name="Group 586" transform="translate(57.755 58.448)">
    <g id="Group_585" data-name="Group 585">
      <path id="Path_494" data-name="Path 494" d="M5275.33,4652.877a.314.314,0,0,0,.235-.106c.974-1.088,2.132-1.946,2.429-1.8.091.045.217.386.041,1.357a.318.318,0,0,0,.626.113c.133-.73.238-1.736-.387-2.042-.931-.456-2.672,1.374-3.184,1.946a.318.318,0,0,0,.239.53Z" transform="translate(-5275.01 -4650.329)" fill="gray"/>
    </g>
  </g>
  <g id="Group_588" data-name="Group 588" transform="translate(41.178 57.013)" opacity="0.74">
    <g id="Group_587" data-name="Group 587" transform="translate(0 0)">
      <ellipse id="Ellipse_136" data-name="Ellipse 136" cx="3.969" cy="5.748" rx="3.969" ry="5.748" transform="translate(0.042 7.998) rotate(-90.302)" fill="#fdcaa4"/>
    </g>
  </g>
  <g id="Group_590" data-name="Group 590" transform="translate(64.549 56.897)" opacity="0.74">
    <g id="Group_589" data-name="Group 589" transform="translate(0 0)">
      <ellipse id="Ellipse_137" data-name="Ellipse 137" cx="3.969" cy="5.748" rx="3.969" ry="5.748" transform="translate(0.042 7.998) rotate(-90.302)" fill="#fdcaa4"/>
    </g>
  </g>
  <g id="Group_592" data-name="Group 592" transform="translate(63.915 55.521)">
    <g id="Group_591" data-name="Group 591">
      <path id="Path_495" data-name="Path 495" d="M5266.754,4643.2l-.189.387-.426.064.311.3-.07.425.38-.2.382.2-.075-.424.307-.3-.427-.06Z" transform="translate(-5266.139 -4643.196)" fill="#fffba3"/>
    </g>
  </g>
  <g id="Group_594" data-name="Group 594" transform="translate(53.33 55.199)">
    <g id="Group_593" data-name="Group 593">
      <path id="Path_496" data-name="Path 496" d="M5292.541,4642.413l-.188.388-.426.063.311.3-.07.425.38-.2.382.2-.075-.424.307-.3-.427-.06Z" transform="translate(-5291.926 -4642.413)" fill="#fffba3"/>
    </g>
  </g>
  <g id="Group_596" data-name="Group 596" transform="translate(26.124 56.108)">
    <g id="Group_595" data-name="Group 595">
      <path id="Path_497" data-name="Path 497" d="M5346.033,4645.572a.392.392,0,0,1-.348.671c-.6-.126-1.155-.085-1.152.512.014,2.547,4.281,6.106,5.666,5.737a.064.064,0,0,1,.088.067c-.066.5-.669,2.4-6.129-2.926-2.489-2.546-1.372-4.89-.026-5A2.836,2.836,0,0,1,5346.033,4645.572Z" transform="translate(-5342.679 -4644.628)" fill="#f5c646"/>
    </g>
  </g>
  <g id="Group_598" data-name="Group 598" transform="translate(26.151 55.723)">
    <g id="Group_597" data-name="Group 597">
      <path id="Path_498" data-name="Path 498" d="M5348.845,4653.319a1.226,1.226,0,0,0,.178-.012.853.853,0,0,0,.757-.628.318.318,0,0,0-.22-.393.315.315,0,0,0-.393.22c-.019.07-.055.147-.231.171-1.062.156-4.209-1.875-5.678-4.285-.605-.995-1.146-2.436-.286-3.656a.9.9,0,0,1,.75-.408c.688.039,1.431,1.008,1.659,1.377a.318.318,0,1,0,.542-.334c-.1-.165-1.026-1.612-2.163-1.679a1.508,1.508,0,0,0-1.3.664c-.849,1.2-.758,2.708.252,4.368C5344.229,4651.211,5347.344,4653.328,5348.845,4653.319Z" transform="translate(-5341.885 -4643.689)" fill="gray"/>
    </g>
  </g>
  <g id="Group_599" data-name="Group 599" transform="translate(23.329 17.372)">
    <path id="Path_499" data-name="Path 499" d="M5208.55,4574.551a31.492,31.492,0,0,1,47.208-15.628c.1,0,.2-.007.3-.007a8.229,8.229,0,0,1,7.965,6.163c.087,0,.174-.007.261-.007a8.226,8.226,0,1,1-7.965,10.289c-.086,0-.173.006-.261.006a8.213,8.213,0,0,1-6.655-3.393c-.1,0-.2.008-.3.008a8.189,8.189,0,0,1-3.932-1,7.892,7.892,0,0,1-12.071-1.968,9.218,9.218,0,0,0-11.955,7,8.226,8.226,0,1,1-12.6-1.468Z" transform="translate(-5206.015 -4550.256)" fill="#007552"/>
  </g>
  <g id="Group_600" data-name="Group 600" transform="translate(11.239)">
    <path id="Path_500" data-name="Path 500" d="M5213,4527.225l16.217-19.293,19.073,16.387A70.554,70.554,0,0,1,5274.231,4540s-57.676-5.908-85.811,6.471C5188.421,4546.476,5201.044,4531.645,5213,4527.225Z" transform="translate(-5188.421 -4507.932)" fill="#f4aa06"/>
  </g>
  <g id="Group_601" data-name="Group 601" transform="translate(27.184 20.765)">
    <path id="Path_501" data-name="Path 501" d="M5329.075,4568.677a.413.413,0,0,0,.344-.185c2.285-3.467,11.265-9.158,11.355-9.215a.411.411,0,1,0-.438-.695c-.375.237-9.222,5.844-11.6,9.458a.41.41,0,0,0,.343.637Z" transform="translate(-5328.665 -4558.52)" fill="gray"/>
  </g>
  <g id="Group_602" data-name="Group 602" transform="translate(50.197 19.688)">
    <path id="Path_502" data-name="Path 502" d="M5298.737,4565.022a.412.412,0,0,0,.378-.252c1.589-3.814-.531-8.441-.622-8.636a.41.41,0,1,0-.744.346c.021.045,2.057,4.5.609,7.974a.411.411,0,0,0,.379.568Z" transform="translate(-5297.711 -4555.897)" fill="gray"/>
  </g>
  <g id="Group_603" data-name="Group 603" transform="translate(58.962 18.919)">
    <path id="Path_503" data-name="Path 503" d="M5268.578,4563.763a.423.423,0,0,0,.1-.012.41.41,0,0,0,.3-.5c-1.256-5.024-7.6-9-7.871-9.169a.41.41,0,1,0-.432.7c.063.04,6.331,3.97,7.507,8.67A.41.41,0,0,0,5268.578,4563.763Z" transform="translate(-5260.479 -4554.023)" fill="gray"/>
  </g>
  <g id="Group_604" data-name="Group 604" transform="translate(66.959 18.919)">
    <path id="Path_504" data-name="Path 504" d="M5238.935,4564.071a.424.424,0,0,0,.14-.024.411.411,0,0,0,.248-.525c-1.585-4.435-14.459-9.27-15.007-9.474a.411.411,0,1,0-.286.77c.032.012,3.33,1.245,6.769,2.983,4.479,2.265,7.158,4.338,7.751,6A.41.41,0,0,0,5238.935,4564.071Z" transform="translate(-5223.761 -4554.023)" fill="gray"/>
  </g>
  <g id="Group_606" data-name="Group 606" transform="translate(52.771 46.028)">
    <g id="Group_605" data-name="Group 605">
      <path id="Path_505" data-name="Path 505" d="M5285.48,4620.9s2.5-1.859,4.206-.022C5291.056,4622.356,5285.957,4623.345,5285.48,4620.9Z" transform="translate(-5285.48 -4620.068)" fill="#005b48"/>
    </g>
  </g>
  <g id="Group_608" data-name="Group 608" transform="translate(60.71 46.028)">
    <g id="Group_607" data-name="Group 607">
      <path id="Path_506" data-name="Path 506" d="M5266.14,4620.9s2.5-1.859,4.206-.022C5271.715,4622.356,5266.616,4623.345,5266.14,4620.9Z" transform="translate(-5266.14 -4620.068)" fill="#005b48"/>
    </g>
  </g>
  <g id="Group_609" data-name="Group 609" transform="translate(9.025 72.417)">
    <path id="Path_507" data-name="Path 507" d="M5334.236,4701.378a11.852,11.852,0,0,0-8.594-16.322c-6.259-1.284-14.615-1.341-20.94,4.7-11.536,11.012-18.876,29.538-1.049,51.735,11.038,11.885,29.363,19.436,29.363,19.436l5.052-4.93s-26.2-35.48-19.035-42.3C5323.912,4709.057,5331.358,4707.812,5334.236,4701.378Z" transform="translate(-5292.95 -4684.36)" fill="#007552"/>
  </g>
  <g id="Group_610" data-name="Group 610" transform="translate(92.008 123.318)">
    <path id="Path_508" data-name="Path 508" d="M5176.464,4808.371s14.078,4.366,8.74,16.012a8.922,8.922,0,0,1-3.123,4.441s-5.723-6.092-5.617-12.618S5176.464,4808.371,5176.464,4808.371Z" transform="translate(-5176.463 -4808.371)" fill="#007552"/>
  </g>
  <g id="Group_611" data-name="Group 611" transform="translate(79.661 130.898)">
    <path id="Path_509" data-name="Path 509" d="M5204.115,4827.454a23.232,23.232,0,0,1-3.842,0c-3.266-.126-7.077,3.556.545,3.483a20.662,20.662,0,0,1-6.942,1.835c-3.4.136-2.435,7.894,4.431,7.894s9.39-3.2,9.39-3.2S5204.068,4832.5,5204.115,4827.454Z" transform="translate(-5191.767 -4827.199)" fill="#fdd8ad"/>
    <path id="Path_510" data-name="Path 510" d="M5197.885,4840.509c6.886,0,9.445-3.14,9.551-3.274l.1-.123-.092-.125c-.035-.05-3.588-4.976-3.543-9.894l0-.257-.25.054a24.579,24.579,0,0,1-3.792,0,4.829,4.829,0,0,0-3.921,1.684,1.017,1.017,0,0,0-.066,1.076c.377.663,1.6,1.045,3.558,1.121a19.324,19.324,0,0,1-5.983,1.437c-1.289.051-2.133,1.156-2.1,2.748C5191.388,4837.1,5193.2,4840.509,5197.885,4840.509Zm9.128-3.416c-.529.558-3.188,3.005-9.128,3.005-4.39,0-6.09-3.161-6.13-5.153-.021-1.043.414-2.279,1.708-2.33a21.043,21.043,0,0,0,7.021-1.855l.831-.4-.922.008c-3.268.029-4-.638-4.166-.927a.625.625,0,0,1,.061-.66,4.374,4.374,0,0,1,3.555-1.487,36.3,36.3,0,0,0,3.645.023C5203.544,4831.833,5206.445,4836.267,5207.014,4837.093Z" transform="translate(-5191.344 -4826.837)" fill="#989898"/>
  </g>
  <g id="Group_612" data-name="Group 612" transform="translate(48.756 143.831)">
    <path id="Path_511" data-name="Path 511" d="M5269.833,4858.879s6.973,1.144,7.75,2.438-4.683,1.552-4.683,1.552,4.036,1.935,7.14,1.937.658,4.4-5.1,2.978a42.981,42.981,0,0,1-10.155-3.975Z" transform="translate(-5264.444 -4858.66)" fill="#fdd8ad"/>
    <path id="Path_512" data-name="Path 512" d="M5276.961,4867.952a5.21,5.21,0,0,0,4.044-1.526,1.389,1.389,0,0,0,.336-1.461c-.12-.253-.47-.679-1.468-.68a18.6,18.6,0,0,1-6.294-1.583c1.336-.112,3.636-.414,4.045-1.178a.608.608,0,0,0-.033-.629c-.8-1.336-7.168-2.415-7.892-2.534l-.1-.017-5.319,5.191.233.136a43.676,43.676,0,0,0,10.208,4A9.36,9.36,0,0,0,5276.961,4867.952Zm-7.225-9.168c1.987.333,6.918,1.347,7.5,2.323a.206.206,0,0,1,.024.224c-.322.6-2.956.942-4.54,1.018l-.812.038.733.352c.167.079,4.114,1.955,7.229,1.957.572,0,.96.159,1.1.445a1.024,1.024,0,0,1-.283,1.026c-.864,1.057-3.013,1.807-5.867,1.1a43.667,43.667,0,0,1-9.864-3.82Z" transform="translate(-5264.279 -4858.345)" fill="#989898"/>
  </g>
  <g id="Group_613" data-name="Group 613" transform="translate(14.232 96.088)">
    <path id="Path_513" data-name="Path 513" d="M5358.327,4783.075a.205.205,0,0,0,.108-.379c-14.208-8.89-19.113-19.41-20.727-26.669a30.687,30.687,0,0,1-.105-13.734.2.2,0,1,0-.394-.113,31.127,31.127,0,0,0,.1,13.938c1.629,7.335,6.581,17.962,20.909,26.928A.2.2,0,0,0,5358.327,4783.075Z" transform="translate(-5336.492 -4742.029)" fill="#f5c646"/>
  </g>
  <g id="Group_614" data-name="Group 614" transform="translate(53.071 64.369)">
    <path id="Path_514" data-name="Path 514" d="M5273.474,4667.883c5.064,0,5.875-2.495,5.908-2.6a.411.411,0,0,0-.785-.242c-.014.04-.746,2.021-5.123,2.021-4.3,0-4.508-1.9-4.509-1.917a.421.421,0,0,0-.428-.392.409.409,0,0,0-.392.428C5268.149,4665.292,5268.324,4667.883,5273.474,4667.883Z" transform="translate(-5268.145 -4664.753)" fill="gray"/>
  </g>
  <g id="Group_615" data-name="Group 615" transform="translate(3.281 33.722)">
    <path id="Path_515" data-name="Path 515" d="M5373.038,4590.088s1.7,10.421-2.772,14.622,9.017,27.08,5.282,42.733c0,0-4.422-2.408-13.711,1.031s-13.933,0-13.933,0,6.588-48.291,17.45-56.6C5365.354,4591.876,5370.11,4590.617,5373.038,4590.088Z" transform="translate(-5347.904 -4590.088)" fill="#ffa890"/>
  </g>
  <g id="Group_616" data-name="Group 616" transform="translate(13.078 73.11)">
    <path id="Path_516" data-name="Path 516" d="M5375,4689.313c0,.589,1.018.909,1.294,1.385.284.491.062,1.53.552,1.814s1.258-.429,1.848-.429,1.372.7,1.848.429c.491-.284.269-1.323.553-1.814.275-.476,1.294-.8,1.294-1.385s-1.019-.91-1.294-1.386-.062-1.53-.553-1.814c-.476-.275-1.259.429-1.848.429s-1.372-.7-1.848-.429-.269,1.324-.552,1.814S5375,4688.724,5375,4689.313Z" transform="translate(-5375 -4686.05)" fill="#ff6c57"/>
  </g>
  <g id="Group_617" data-name="Group 617" transform="translate(7.742 82.961)">
    <path id="Path_517" data-name="Path 517" d="M5388,4713.313c0,.589,1.019.909,1.294,1.385s.062,1.53.553,1.814c.475.274,1.258-.429,1.847-.429s1.372.7,1.848.429c.491-.284.269-1.324.553-1.814s1.294-.8,1.294-1.385-1.019-.91-1.294-1.386-.062-1.53-.553-1.814c-.476-.275-1.259.429-1.848.429s-1.372-.7-1.847-.429c-.491.284-.27,1.324-.553,1.814S5388,4712.724,5388,4713.313Z" transform="translate(-5388 -4710.05)" fill="#ff6c57"/>
  </g>
  <g id="Group_618" data-name="Group 618" transform="translate(20.056 82.551)">
    <path id="Path_518" data-name="Path 518" d="M5358,4712.313c0,.589,1.019.91,1.293,1.385.284.491.062,1.531.553,1.814.475.274,1.258-.429,1.847-.429s1.372.7,1.848.429c.491-.284.269-1.324.552-1.814.275-.475,1.294-.8,1.294-1.385s-1.019-.909-1.294-1.385c-.284-.491-.062-1.531-.552-1.814-.476-.275-1.259.429-1.848.429s-1.372-.7-1.847-.429c-.491.284-.269,1.323-.553,1.814C5359.019,4711.4,5358,4711.724,5358,4712.313Z" transform="translate(-5358 -4709.049)" fill="#ff6c57"/>
  </g>
  <g id="Group_619" data-name="Group 619" transform="translate(20.056 66.132)">
    <path id="Path_519" data-name="Path 519" d="M5358,4672.313c0,.589,1.019.91,1.293,1.386s.062,1.53.553,1.814c.475.275,1.258-.429,1.847-.429s1.372.7,1.848.429c.491-.284.269-1.324.552-1.814s1.294-.8,1.294-1.386-1.019-.909-1.294-1.385-.062-1.53-.552-1.814c-.476-.275-1.259.429-1.848.429s-1.372-.7-1.847-.429c-.491.284-.269,1.324-.553,1.814S5358,4671.724,5358,4672.313Z" transform="translate(-5358 -4669.05)" fill="#ff6c57"/>
  </g>
  <g id="Group_620" data-name="Group 620" transform="translate(11.436 62.849)">
    <path id="Path_520" data-name="Path 520" d="M5379,4664.313c0,.589,1.019.91,1.294,1.385.284.491.062,1.53.552,1.814s1.259-.429,1.848-.429,1.372.7,1.847.429c.491-.284.269-1.323.553-1.814.275-.476,1.293-.8,1.293-1.385s-1.018-.909-1.293-1.385-.062-1.53-.553-1.814c-.476-.275-1.258.429-1.847.429s-1.372-.7-1.848-.429-.269,1.324-.552,1.814S5379,4663.724,5379,4664.313Z" transform="translate(-5379 -4661.049)" fill="#ff6c57"/>
  </g>
  <g id="Group_621" data-name="Group 621" transform="translate(14.309 52.177)">
    <path id="Path_521" data-name="Path 521" d="M5372,4638.313c0,.589,1.018.91,1.294,1.385.284.491.062,1.53.552,1.814.476.275,1.258-.429,1.848-.429s1.372.7,1.847.429c.491-.284.269-1.323.553-1.814.275-.476,1.294-.8,1.294-1.385s-1.019-.91-1.294-1.385c-.284-.491-.062-1.531-.553-1.814-.475-.275-1.258.429-1.847.429s-1.372-.7-1.848-.429c-.491.284-.269,1.323-.552,1.814C5373.018,4637.4,5372,4637.724,5372,4638.313Z" transform="translate(-5372 -4635.05)" fill="#ff6c57"/>
  </g>
  <g id="Group_622" data-name="Group 622" transform="translate(19.235 40.684)">
    <path id="Path_522" data-name="Path 522" d="M5360,4610.313c0,.589,1.019.91,1.294,1.385.284.491.062,1.53.553,1.814.476.275,1.258-.429,1.847-.429s1.373.7,1.848.429c.491-.284.269-1.324.552-1.814.275-.476,1.294-.8,1.294-1.385s-1.019-.909-1.294-1.385c-.284-.491-.062-1.53-.552-1.814-.475-.275-1.258.429-1.848.429s-1.372-.7-1.847-.429c-.491.284-.269,1.323-.553,1.814C5361.019,4609.4,5360,4609.724,5360,4610.313Z" transform="translate(-5360 -4607.05)" fill="#ff6c57"/>
  </g>
  <g id="Group_623" data-name="Group 623" transform="translate(15.951 47.012)">
    <path id="Path_523" data-name="Path 523" d="M5378,4623.917c0,.262.453.4.575.616s.028.68.246.807.56-.19.821-.19.61.313.821.19.119-.589.246-.807.575-.354.575-.616-.453-.4-.575-.615-.027-.68-.246-.806-.56.19-.821.19-.61-.313-.821-.19-.12.588-.246.806S5378,4623.655,5378,4623.917Z" transform="translate(-5378 -4622.467)" fill="#ff6c57"/>
  </g>
  <g id="Group_624" data-name="Group 624" transform="translate(21.287 59.736)">
    <path id="Path_524" data-name="Path 524" d="M5365,4654.917c0,.263.453.4.575.616s.026.68.245.806.56-.19.821-.19.61.313.821.19.119-.588.246-.806.574-.354.574-.616-.453-.4-.574-.616-.028-.68-.246-.806-.56.19-.821.19-.61-.313-.821-.19-.119.588-.245.806S5365,4654.655,5365,4654.917Z" transform="translate(-5365 -4653.467)" fill="#ff6c57"/>
  </g>
  <g id="Group_625" data-name="Group 625" transform="translate(7.331 73.281)">
    <path id="Path_525" data-name="Path 525" d="M5399,4687.917c0,.262.453.4.574.615s.028.68.246.806.56-.19.821-.19.61.313.821.19.12-.588.246-.806.576-.354.576-.615-.453-.4-.576-.616-.027-.68-.246-.806-.559.19-.821.19-.609-.313-.821-.19-.12.588-.246.806S5399,4687.655,5399,4687.917Z" transform="translate(-5399 -4686.467)" fill="#ff6c57"/>
  </g>
  <g id="Group_626" data-name="Group 626" transform="translate(24.16 76.565)">
    <path id="Path_526" data-name="Path 526" d="M5358,4695.917c0,.262.453.4.575.616s.027.68.246.806.56-.19.821-.19.61.312.821.19.119-.588.246-.806.575-.354.575-.616-.453-.4-.575-.616-.028-.68-.246-.806-.56.19-.821.19-.61-.312-.821-.19-.12.588-.246.806S5358,4695.655,5358,4695.917Z" transform="translate(-5358 -4694.467)" fill="#ff6c57"/>
  </g>
</svg>
