<svg xmlns="http://www.w3.org/2000/svg" width="21.203" height="20.289" viewBox="0 0 21.203 20.289">
  <g id="Group_720" data-name="Group 720" transform="translate(-124 -412)">
    <path id="Icon_metro-star-full" data-name="Icon metro-star-full" d="M23.571,10.312,16.315,9.257,13.071,2.683,9.826,9.257,2.571,10.312l5.25,5.117L6.581,22.655l6.489-3.412,6.489,3.412-1.239-7.226,5.25-5.117Z" transform="translate(121.429 409.317)" fill="#f7c845"/>
    <path id="Icon_metro-star-empty" data-name="Icon metro-star-empty" d="M23.571,10.312,16.315,9.257,13.071,2.683,9.826,9.257,2.571,10.312l5.25,5.117L6.581,22.655l6.489-3.412,6.489,3.412-1.239-7.226,5.25-5.117Zm-10.5,7.31L8.488,20.031l.875-5.1L5.656,11.314l5.124-.745,2.291-4.643,2.291,4.643,5.124.745-3.708,3.614.875,5.1-4.583-2.409Z" transform="translate(121.632 409.634)" fill="#007552"/>
  </g>
</svg>
