<svg xmlns="http://www.w3.org/2000/svg" viewBox="0 0 49 35.71">
  <g id="圖層_2" data-name="圖層 2">
    <g id="nav">
      <g>
        <path d="M16.8,9.65c0,1.34,0,2.67-.05,4a149.42,149.42,0,0,0,.66,16c.1,1.12.1,2.25.13,3.38a.82.82,0,0,1-.06.5c-.16.21-.4.52-.59.51a.78.78,0,0,1-.57-.54,12.37,12.37,0,0,1-.15-1.74c-.21-3.36-.46-6.72-.61-10.09-.1-2.35-.07-4.71-.1-7.06a4.9,4.9,0,0,0-.12-1.25,1.51,1.51,0,0,1-.07.54.79.79,0,0,1-.45.33c-.07,0-.21-.21-.37-.29a16,16,0,0,1,0,4.68,1.31,1.31,0,0,1-1,1.17,15.77,15.77,0,0,1-2.79.46c-2.34,0-4.69-.06-7-.12a8.44,8.44,0,0,1-1.57-.2,2.21,2.21,0,0,1-1.92-2.4c0-.81,0-1.62,0-2.43a2.75,2.75,0,0,1,.71-1.9,1.48,1.48,0,0,1,.86-.53C2.1,12.58,15.83,6,16,5.69A7.75,7.75,0,0,1,20.33.77a10.79,10.79,0,0,1,3.93-.7C25.72,0,27.19,0,28.65,0a4.39,4.39,0,0,1,2.74.87A10.65,10.65,0,0,1,33.08,2.6a19,19,0,0,1,1.56,2.3,9,9,0,0,1,1.07,4c.22,3.44.52,6.88.67,10.32.13,2.95.09,5.91.12,8.87,0,.26,0,.51,0,.87.14-.13.22-.17.26-.24a2.36,2.36,0,0,1,2.39-1.28l7.13.27a1.84,1.84,0,0,1,1.91,1.33,2.14,2.14,0,0,1-.88,2.68,32,32,0,0,1-4.17,2.47,15.94,15.94,0,0,1-3.39,1.08,2.5,2.5,0,0,1-2.95-2.77,4.36,4.36,0,0,0-.22-2.18v1.94c0,.36.05.71.05,1.07,0,.61-.26,1-.65.95s-.62-.47-.64-.9c-.06-1.3-.14-2.6-.15-3.9,0-3.25,0-6.52-.13-9.77s-.47-6.58-.88-9.84a36.22,36.22,0,0,0-1.17-4.64c-.09-.35-.18-.69-.28-1C32.38,2.9,31.18,2.6,30.14,2.1a9.74,9.74,0,0,0-1-.37,10,10,0,0,0-9,1,6.07,6.07,0,0,0-2.34,3.13A18.28,18.28,0,0,0,16.8,9.65Zm-3,3.41,0,0a5.43,5.43,0,0,0-1.15-.35c-1.34-.1-2.69-.17-4-.19-1.54,0-3.07,0-4.6,0v.07Z" fill="#149548"/>
        <path d="M29,20.46c-1-.07-2-.18-2.94-.19-2.33,0-4.65,0-7,0-1.21,0-1.77-.58-1.77-1.84,0-1.06,0-2.11,0-3.17A1.26,1.26,0,0,1,18.6,13.8c.71,0,1.43-.08,2.14-.1.33,0,1.14,0,1.6.05.72,0,1.43.06,2.14.07h8a2.06,2.06,0,0,1,2.08,1.36,2.18,2.18,0,0,1,.1.81c0,.76-.1,1.52-.07,2.28a1.39,1.39,0,0,1-.83,1.49l-.94.44c0,.09.07.14.09.14,1.57.28,2.06,1.05,1.78,2.67-.14.81-.14,1.64-.22,2.47s-.38,1.27-1.31,1.29c-3.77.11-7.54.19-11.31.29a10.45,10.45,0,0,0-1.25.18v.2h.93c2.51,0,5,0,7.52-.06,1.37,0,2.74-.17,4.11-.19.94,0,1.27.44,1.45,1.4a20,20,0,0,1-.17,4.89A1.28,1.28,0,0,1,33,34.8c-1.9.13-3.8.22-5.7.29s-3.8.06-5.7.09h-.77A2.68,2.68,0,0,1,18,32.39c-.06-.86-.15-1.71-.24-2.57A2.16,2.16,0,0,1,19,27.59c-.26-.22-.59-.37-.73-.64a4.42,4.42,0,0,1-.47-1.41c-.12-.89-.13-1.8-.21-2.7a1.77,1.77,0,0,1,1.47-2,5.15,5.15,0,0,1,1-.07h7c.61,0,1.23-.07,1.85-.11Z" fill="#fb3475" opacity="0.8"/>
        <path d="M13.65,27.42A2.44,2.44,0,0,1,15.38,30c0,1.13-.12,2.25-.27,3.37a2.54,2.54,0,0,1-2.43,2.35,18.92,18.92,0,0,1-7.2-.9A10,10,0,0,1,.59,30.3a2.12,2.12,0,0,1,.53-2.7l.24-.24C-.28,26.32,0,24.67,0,23.11c0-.22,0-.45.05-.68a1.86,1.86,0,0,1,2.15-1.91c2.15.12,4.3.25,6.46.28a24.9,24.9,0,0,0,3.21-.31c2.06-.27,3.41,1.07,3.22,3.23,0,.65-.08,1.31-.11,2C15,26.82,14.78,27.09,13.65,27.42Z" fill="#0f6eb0"/>
        <path d="M42.16,13.18h4.11c.33,0,.66,0,1,.05a1.6,1.6,0,0,1,1.49,1.35,8.11,8.11,0,0,1-.06,4.29c-.24.82-.53.94-1.37,1-2.33,0-4.66.15-7,.23-.73,0-1.46.06-2.19.06a.94.94,0,0,1-1-.75A30.2,30.2,0,0,1,36.73,15a1.79,1.79,0,0,1,2-1.76c1.16,0,2.31,0,3.46,0Z" fill="#fb3475" opacity="0.8"/>
        <path d="M44.39,20.4c.68,0,1.51,0,2.32.13a1.91,1.91,0,0,1,1.79,2.61c-.21.95-.39,1.9-.62,2.85a1.32,1.32,0,0,1-1.61,1.09c-1.63-.49-3.23,0-4.84,0-1,0-1.94.07-2.91,0s-1.29-.52-1.31-1.45-.09-1.77-.09-2.65a2.1,2.1,0,0,1,2.14-2.34Z" fill="#0f6eb0"/>
      </g>
    </g>
  </g>
</svg>
