<svg xmlns="http://www.w3.org/2000/svg" viewBox="0 0 40.9 38">
  <g id="圖層_2" data-name="圖層 2">
    <g id="nav">
      <g>
        <circle cx="19" cy="19" r="19" fill="#007453"/>
        <g>
          <path d="M26.13,21.25a12.39,12.39,0,0,1-1.74,6.06,12.21,12.21,0,0,1-4.57,4.22,11.71,11.71,0,0,1-5.93,1.3,11.22,11.22,0,0,1-5.78-1.57,11.63,11.63,0,0,1-4.49-4.08,11.88,11.88,0,0,1-.05-11.89,12.56,12.56,0,0,1,4.18-4.67,12.38,12.38,0,0,1,6.14-1.18,11.64,11.64,0,0,1,5.84,1.69c1.8,1,3.74,2.19,4.78,4A12.67,12.67,0,0,1,26.13,21.25Z" fill="#dc9924"/>
          <circle cx="3.97" cy="19.33" r="0.44" fill="#fddc6c"/>
          <circle cx="3.97" cy="21.69" r="0.44" fill="#fddc6c"/>
          <circle cx="5.16" cy="24.95" r="0.44" fill="#fddc6c"/>
          <circle cx="4.57" cy="26.13" r="0.44" fill="#fddc6c"/>
          <circle cx="5.45" cy="27.02" r="0.44" fill="#fddc6c"/>
          <circle cx="5.75" cy="23.47" r="0.44" fill="#fddc6c"/>
          <circle cx="23.51" cy="23.47" r="0.44" fill="#fddc6c"/>
          <circle cx="22.33" cy="18.44" r="0.44" fill="#fddc6c"/>
          <circle cx="6.05" cy="14.29" r="0.44" fill="#fddc6c"/>
          <circle cx="23.51" cy="25.54" r="0.44" fill="#fddc6c"/>
          <circle cx="22.03" cy="26.43" r="0.44" fill="#fddc6c"/>
          <circle cx="22.03" cy="27.91" r="0.44" fill="#fddc6c"/>
          <circle cx="20.55" cy="28.5" r="0.44" fill="#fddc6c"/>
          <circle cx="19.07" cy="27.32" r="0.44" fill="#fddc6c"/>
          <circle cx="19.07" cy="29.98" r="0.44" fill="#fddc6c"/>
          <circle cx="17.3" cy="29.98" r="0.44" fill="#fddc6c"/>
          <circle cx="13.15" cy="30.57" r="0.44" fill="#fddc6c"/>
          <circle cx="16.7" cy="28.8" r="0.44" fill="#fddc6c"/>
          <circle cx="16.11" cy="30.28" r="0.44" fill="#fddc6c"/>
          <circle cx="15.22" cy="30.87" r="0.44" fill="#fddc6c"/>
          <circle cx="16.7" cy="31.17" r="0.44" fill="#fddc6c"/>
          <circle cx="4.86" cy="20.21" r="0.44" fill="#fddc6c"/>
          <ellipse cx="13.74" cy="12.07" rx="1.04" ry="0.3" fill="#71370a"/>
          <path d="M15.08,5.56h1.18a47.65,47.65,0,0,1-2.07,6.51H13.3s1.18-3.84,1.48-4.44A6.57,6.57,0,0,0,15.08,5.56Z" fill="#71370a"/>
          <path d="M17.15,7.34s3-4.74,13.32-1.19S40.83,9.41,40.83,9.41,25.14,17.11,17.15,7.34Z" fill="#0e7453"/>
          <path d="M40.83,9.41A65.18,65.18,0,0,1,17.15,7.34" fill="none" stroke="#fbf8ef" stroke-miterlimit="10"/>
        </g>
      </g>
    </g>
  </g>
</svg>
