<svg xmlns="http://www.w3.org/2000/svg" xmlns:xlink="http://www.w3.org/1999/xlink" viewBox="0 0 407.95 413.27">
  <defs>
    <clipPath id="clip-path">
      <path d="M136,285.62c-4.85-8.87-8.89-11.12-19.3-10.24,0,0-1.35-.35-2.21-.69a1,1,0,0,0-1.1.22c-.76.76-2.28,2.07-3.73,2.11-2,.07-11.65,4.89-10,21.41s25.29,13.38,25.92,7.66c-2.08-10.24-7.9-21.46-7.9-21.46,6.6,7.95,7.9,21.46,7.9,21.46s1.91,1.11,4.86-.82S140.86,294.49,136,285.62Z" fill="none"/>
    </clipPath>
  </defs>
  <g id="圖層_2" data-name="圖層 2">
    <g id="圖層_1-2" data-name="圖層 1">
      <g>
        <g>
          <g>
            <path d="M5.09,122.55l185.72-9a6.45,6.45,0,0,1,6.77,6.44V367L5.09,377.82Z" fill="#007453"/>
            <path d="M4.59,378.35V122.07l.48,0,185.72-9a6.94,6.94,0,0,1,7.29,6.93V367.45l-.47,0ZM5.59,123V377.29L197.08,366.5V120a5.95,5.95,0,0,0-6.24-5.94Z" fill="#999"/>
          </g>
          <g>
            <polygon points="4.48 123.69 96.68 121.28 188.01 115.31 197.34 125.17 208.96 132.39 206.97 253.63 208.74 375.41 106.98 376.54 5.28 380.92 6.68 252.27 4.48 123.69" fill="#fffbe9"/>
            <path d="M4.77,381.44,6.18,252.26,4,123.2l92.7-2.42,91.54-6,9.45,10,11.81,7.34v.28l-2,121.23,1.78,122.28h-.5L107,377ZM5,124.17,7.18,252.26,5.78,380.4,107,376l101.27-1.12-1.76-121.29,2-121L197,125.51l-9.17-9.68-91.1,6Z" fill="#a0a0a0"/>
          </g>
          <g>
            <polygon points="19.15 143.28 16.5 141.71 16.61 139.21 14.46 137.94 14.58 135.45 12.43 134.18 12.54 131.69 10.4 130.42 10.51 127.93 8.36 126.66 7.24 124.37 9.79 124.32 10.35 125.59 12.5 126.86 12.38 129.35 14.53 130.62 14.41 133.11 16.56 134.38 16.45 136.87 18.59 138.14 18.48 140.63 22.95 143.28 19.15 143.28" fill="#d5b100"/>
            <path d="M24.77,143.78H19L16,142l.12-2.49L14,138.22l.11-2.49-2.15-1.27L12,132,9.88,130.7l.12-2.49L8,127l-1.54-3.14,3.68-.06.62,1.42L13,126.58l-.12,2.49L15,130.34l-.11,2.49,2.15,1.27L17,136.59l2.15,1.27-.12,2.5Zm-5.48-1h1.83L18,140.91l.11-2.49-2.15-1.27.12-2.5-2.15-1.26.12-2.5-2.15-1.26.11-2.5-2-1.19-.48-1.11-1.44,0,.72,1.46L11,127.65l-.12,2.49,2.15,1.27-.12,2.49,2.15,1.27L15,137.66l2.15,1.27-.11,2.5Z" fill="#a0a0a0"/>
          </g>
          <path d="M16.58,126.7l0-1c21.12-.9,31.89-.85,42.29-.8s21.15.1,42.25-.8,31.81-1.87,42.16-2.8,21.09-1.9,42.21-2.8l.05,1c-21.11.9-31.81,1.86-42.17,2.79s-21.08,1.91-42.21,2.81-31.88.85-42.29.8S37.68,125.8,16.58,126.7Z" fill="#a0a0a0"/>
          <path d="M20.11,131.74l-.05-1c21.66-1.08,32.71-1.12,43.38-1.16s21.7-.08,43.34-1.16,32.62-2.14,43.24-3.16,21.62-2.08,43.29-3.16l.05,1c-21.65,1.08-32.63,2.13-43.24,3.16s-21.62,2.08-43.29,3.16-32.71,1.12-43.38,1.16S41.75,130.66,20.11,131.74Z" fill="#a0a0a0"/>
          <path d="M45.61,134.89l0-1c16.85-.73,25.44-.6,33.74-.47s16.86.26,33.67-.48,25.35-1.62,33.59-2.47,16.8-1.74,33.65-2.47l0,1c-16.81.73-25.34,1.61-33.58,2.47s-16.81,1.73-33.65,2.47-25.43.61-33.73.48S62.43,134.15,45.61,134.89Z" fill="#a0a0a0"/>
          <g>
            <polygon points="16.6 144.42 213.27 132.24 213.27 388.83 16.6 404.73 16.6 144.42" fill="#fff"/>
            <path d="M16.1,405.27V144l.47,0,197.2-12.21V389.29Zm1-260.38V404.18l195.67-15.81V132.77Z" fill="#a0a0a0"/>
          </g>
          <g>
            <polygon points="5.09 123.19 190.81 113.59 186.81 112.46 4.26 122.3 5.09 123.19" fill="#7f8dff"/>
            <path d="M4.88,123.7l-1.71-1.84L186.86,112l7,2ZM186.75,113,35.67,121.11l152.1-7.86Z" fill="#a0a0a0"/>
          </g>
          <g>
            <path d="M214.47,409.09,16.6,404.73V144.66l198.13,3.75a6.44,6.44,0,0,1,6.32,6.44v247.8A6.44,6.44,0,0,1,214.47,409.09Z" fill="#007453"/>
            <path d="M214.62,409.59h-.16L16.1,405.22V144.15h.51l198.13,3.75a7,7,0,0,1,6.81,6.94v247.8a6.93,6.93,0,0,1-6.93,6.94Zm-.14-1a5.93,5.93,0,0,0,6.07-5.94V154.85a6,6,0,0,0-5.83-5.94L17.1,145.17V404.24Z" fill="#999"/>
          </g>
          <g>
            <polygon points="216.02 148.41 212.19 146.47 16.6 144.42 16.6 144.66 216.02 148.41" fill="#7f8dff"/>
            <path d="M218.2,149l-202.1-3.8v-1.24h.51L212.31,146Zm-110.74-3.08,106.39,2-1.78-.9Z" fill="#a0a0a0"/>
          </g>
          <g>
            <polygon points="169.89 139.17 169.89 92.54 146.37 93.05 146.37 140.09 169.89 139.17" fill="#ff7c2a"/>
            <path d="M145.87,140.6v-48L170.39,92v47.63Zm1-47.07v46l22.52-.88V93.05Z" fill="#a0a0a0"/>
          </g>
          <g>
            <path d="M122.7,125.72S120,93.6,122.7,81c.11-.5-25.52,1.79-25.52,1.79l2,45.11Z" fill="#c5ff00"/>
            <path d="M98.7,128.47l-2-46.11.47,0c25.38-2.26,25.73-1.87,25.94-1.64l.17.19,0,.26c-2.67,12.37,0,44.24,0,44.56l0,.49Zm-1-45.2,2,44.1,22.51-2.1c-.34-4.19-2.44-31.73-.06-43.83C119.47,81.47,106.6,82.47,97.7,83.27Z" fill="#a0a0a0"/>
          </g>
          <g>
            <polygon points="87.61 137.56 87.61 89 64.08 90.79 64.08 139.76 87.61 137.56" fill="#d0b6ff"/>
            <path d="M63.58,140.31v-50l24.53-1.88V138Zm1-49.06v48l22.53-2.1V89.53Z" fill="#a0a0a0"/>
          </g>
          <g>
            <path d="M57.39,123.6s-2-32.85,0-48.45L33.22,76.3v48.45Z" fill="#68b3ff"/>
            <path d="M32.72,125.27V75.82L58,74.62l-.07.59c-2,15.37,0,48,0,48.36l0,.5Zm1-48.5v47.45l23.14-1.1c-.24-4.16-1.79-32.84,0-47.45Z" fill="#a0a0a0"/>
          </g>
          <g>
            <polygon points="136.47 133.93 136.47 99.53 112.95 102.61 112.95 136.12 136.47 133.93" fill="#ff82ad"/>
            <path d="M112.45,136.67v-34.5L137,99v35.42Zm1-33.62v32.52l22.52-2.1V100.1Z" fill="#999"/>
          </g>
          <g clip-path="url(#clip-path)">
            <polygon points="99.33 314.95 99.33 314.92 140.86 305.23 140.86 314.95 99.33 314.95" fill="#fdcba6"/>
            <polygon points="99.33 314.92 99.24 314.56 140.86 304.85 140.86 305.23 99.33 314.92" fill="#fdcba6"/>
            <polygon points="99.24 314.56 99.16 314.2 140.86 304.47 140.86 304.85 99.24 314.56" fill="#fdcaa6"/>
            <polygon points="99.16 314.2 99.08 313.84 140.86 304.09 140.86 304.47 99.16 314.2" fill="#fdc9a5"/>
            <polygon points="99.08 313.84 98.99 313.48 140.86 303.71 140.86 304.09 99.08 313.84" fill="#fdc8a5"/>
            <polygon points="98.99 313.48 98.91 313.12 140.86 303.33 140.86 303.71 98.99 313.48" fill="#fdc7a5"/>
            <polygon points="98.91 313.12 98.82 312.76 140.86 302.95 140.86 303.33 98.91 313.12" fill="#fdc6a5"/>
            <polygon points="98.82 312.76 98.74 312.4 140.86 302.57 140.86 302.95 98.82 312.76" fill="#fdc5a4"/>
            <polygon points="98.74 312.4 98.66 312.04 140.86 302.19 140.86 302.57 98.74 312.4" fill="#fdc4a4"/>
            <polygon points="98.66 312.04 98.57 311.68 140.86 301.81 140.86 302.19 98.66 312.04" fill="#fdc3a4"/>
            <polygon points="98.57 311.68 98.49 311.32 140.86 301.43 140.86 301.81 98.57 311.68" fill="#fdc2a3"/>
            <polygon points="98.49 311.32 98.4 310.96 140.86 301.05 140.86 301.43 98.49 311.32" fill="#fdc1a3"/>
            <polygon points="98.4 310.96 98.32 310.6 140.86 300.67 140.86 301.05 98.4 310.96" fill="#fdc0a3"/>
            <polygon points="98.32 310.6 98.23 310.24 140.86 300.29 140.86 300.67 98.32 310.6" fill="#fdbfa3"/>
            <polygon points="98.23 310.24 98.15 309.88 140.86 299.91 140.86 300.29 98.23 310.24" fill="#fdbea2"/>
            <polygon points="98.15 309.88 98.07 309.51 140.86 299.53 140.86 299.91 98.15 309.88" fill="#fdbda2"/>
            <polygon points="98.07 309.51 98.01 309.27 98.01 309.15 140.86 299.15 140.86 299.53 98.07 309.51" fill="#fdbca2"/>
            <polygon points="98.01 308.77 140.86 298.77 140.86 299.15 98.01 309.15 98.01 308.77" fill="#fdbba2"/>
            <polygon points="98.01 308.39 140.86 298.39 140.86 298.77 98.01 308.77 98.01 308.39" fill="#fdbaa1"/>
            <polygon points="98.01 308.01 140.86 298.01 140.86 298.39 98.01 308.39 98.01 308.01" fill="#fdb9a1"/>
            <polygon points="98.01 307.63 140.86 297.63 140.86 298.01 98.01 308.01 98.01 307.63" fill="#fdb8a1"/>
            <polygon points="98.01 307.25 140.86 297.25 140.86 297.63 98.01 307.63 98.01 307.25" fill="#fdb7a0"/>
            <polygon points="98.01 306.87 140.86 296.87 140.86 297.25 98.01 307.25 98.01 306.87" fill="#fdb6a0"/>
            <polygon points="98.01 306.49 140.86 296.48 140.86 296.87 98.01 306.87 98.01 306.49" fill="#fdb5a0"/>
            <polygon points="98.01 306.11 140.86 296.1 140.86 296.48 98.01 306.49 98.01 306.11" fill="#fdb4a0"/>
            <polygon points="98.01 305.73 140.86 295.72 140.86 296.1 98.01 306.11 98.01 305.73" fill="#fdb39f"/>
            <polygon points="98.01 305.35 140.86 295.34 140.86 295.72 98.01 305.73 98.01 305.35" fill="#fdb29f"/>
            <polygon points="98.01 304.96 140.86 294.96 140.86 295.34 98.01 305.35 98.01 304.96" fill="#fdb19f"/>
            <polygon points="98.01 304.58 140.86 294.58 140.86 294.96 98.01 304.96 98.01 304.58" fill="#fdb09e"/>
            <polygon points="98.01 304.2 140.86 294.2 140.86 294.58 98.01 304.58 98.01 304.2" fill="#fdaf9e"/>
            <polygon points="98.01 303.82 140.86 293.82 140.86 294.2 98.01 304.2 98.01 303.82" fill="#fdae9e"/>
            <polygon points="98.01 303.44 140.86 293.44 140.86 293.82 98.01 303.82 98.01 303.44" fill="#fdad9e"/>
            <polygon points="98.01 303.06 140.86 293.06 140.86 293.44 98.01 303.44 98.01 303.06" fill="#fdac9d"/>
            <polygon points="98.01 302.68 140.86 292.68 140.86 293.06 98.01 303.06 98.01 302.68" fill="#fdab9d"/>
            <polygon points="98.01 302.3 140.86 292.3 140.86 292.68 98.01 302.68 98.01 302.3" fill="#fdaa9d"/>
            <polygon points="98.01 301.92 140.86 291.92 140.86 292.3 98.01 302.3 98.01 301.92" fill="#fda99c"/>
            <polygon points="98.01 301.54 140.86 291.54 140.86 291.92 98.01 301.92 98.01 301.54" fill="#fda89c"/>
            <polygon points="98.01 301.16 140.86 291.16 140.86 291.54 98.01 301.54 98.01 301.16" fill="#fda79c"/>
            <polygon points="98.01 300.78 140.86 290.78 140.86 291.16 98.01 301.16 98.01 300.78" fill="#fda69c"/>
            <polygon points="98.01 300.4 140.86 290.4 140.86 290.78 98.01 300.78 98.01 300.4" fill="#fda59b"/>
            <polygon points="98.01 300.02 140.86 290.02 140.86 290.4 98.01 300.4 98.01 300.02" fill="#fda49b"/>
            <polygon points="98.01 299.64 140.86 289.64 140.86 290.02 98.01 300.02 98.01 299.64" fill="#fda39b"/>
            <polygon points="98.01 299.26 140.86 289.26 140.86 289.64 98.01 299.64 98.01 299.26" fill="#fda29a"/>
            <polygon points="98.01 298.88 140.86 288.88 140.86 289.26 98.01 299.26 98.01 298.88" fill="#fda19a"/>
            <polygon points="98.01 298.5 140.86 288.5 140.86 288.88 98.01 298.88 98.01 298.5" fill="#fda09a"/>
            <polygon points="98.01 298.12 140.86 288.12 140.86 288.5 98.01 298.5 98.01 298.12" fill="#fd9f9a"/>
            <polygon points="98.01 297.74 140.86 287.74 140.86 288.12 98.01 298.12 98.01 297.74" fill="#fd9e99"/>
            <polygon points="98.01 297.36 140.86 287.36 140.86 287.74 98.01 297.74 98.01 297.36" fill="#fd9d99"/>
            <polygon points="98.01 296.98 140.86 286.98 140.86 287.36 98.01 297.36 98.01 296.98" fill="#fd9c99"/>
            <polygon points="98.01 296.6 140.86 286.6 140.86 286.98 98.01 296.98 98.01 296.6" fill="#fd9b99"/>
            <polygon points="98.01 296.22 140.86 286.22 140.86 286.6 98.01 296.6 98.01 296.22" fill="#fd9998"/>
            <polygon points="98.01 295.84 140.86 285.84 140.86 286.22 98.01 296.22 98.01 295.84" fill="#fd9898"/>
            <polygon points="98.01 295.46 140.81 285.47 140.86 285.69 140.86 285.84 98.01 295.84 98.01 295.46" fill="#fd9798"/>
            <polygon points="98.01 295.08 140.72 285.11 140.81 285.47 98.01 295.46 98.01 295.08" fill="#fd9697"/>
            <polygon points="98.01 294.7 140.64 284.75 140.72 285.11 98.01 295.08 98.01 294.7" fill="#fd9597"/>
            <polygon points="98.01 294.32 140.55 284.39 140.64 284.75 98.01 294.7 98.01 294.32" fill="#fd9497"/>
            <polygon points="98.01 293.94 140.47 284.03 140.55 284.39 98.01 294.32 98.01 293.94" fill="#fd9397"/>
            <polygon points="98.01 293.56 140.38 283.67 140.47 284.03 98.01 293.94 98.01 293.56" fill="#fd9296"/>
            <polygon points="98.01 293.18 140.3 283.31 140.38 283.67 98.01 293.56 98.01 293.18" fill="#fd9196"/>
            <polygon points="98.01 292.8 140.22 282.94 140.3 283.31 98.01 293.18 98.01 292.8" fill="#fd9096"/>
            <polygon points="98.01 292.42 140.13 282.58 140.22 282.94 98.01 292.8 98.01 292.42" fill="#fd8f95"/>
            <polygon points="98.01 292.04 140.05 282.22 140.13 282.58 98.01 292.42 98.01 292.04" fill="#fd8e95"/>
            <polygon points="98.01 291.65 139.96 281.86 140.05 282.22 98.01 292.04 98.01 291.65" fill="#fd8d95"/>
            <polygon points="98.01 291.27 139.88 281.5 139.96 281.86 98.01 291.65 98.01 291.27" fill="#fd8c95"/>
            <polygon points="98.01 290.89 139.8 281.14 139.88 281.5 98.01 291.27 98.01 290.89" fill="#fd8b94"/>
            <polygon points="98.01 290.51 139.71 280.78 139.8 281.14 98.01 290.89 98.01 290.51" fill="#fd8a94"/>
            <polygon points="98.01 290.13 139.63 280.42 139.71 280.78 98.01 290.51 98.01 290.13" fill="#fd8994"/>
            <polygon points="98.01 289.75 139.54 280.06 139.63 280.42 98.01 290.13 98.01 289.75" fill="#fd8893"/>
            <polygon points="98.01 289.37 139.46 279.7 139.54 280.06 98.01 289.75 98.01 289.37" fill="#fd8793"/>
            <polygon points="98.01 288.99 139.38 279.34 139.46 279.7 98.01 289.37 98.01 288.99" fill="#fd8693"/>
            <polygon points="98.01 288.61 139.29 278.98 139.38 279.34 98.01 288.99 98.01 288.61" fill="#fd8593"/>
            <polygon points="98.01 288.23 139.21 278.62 139.29 278.98 98.01 288.61 98.01 288.23" fill="#fd8492"/>
            <polygon points="98.01 287.85 139.12 278.26 139.21 278.62 98.01 288.23 98.01 287.85" fill="#fd8392"/>
            <polygon points="98.01 287.47 139.04 277.9 139.12 278.26 98.01 287.85 98.01 287.47" fill="#fd8292"/>
            <polygon points="98.01 287.09 138.95 277.54 139.04 277.9 98.01 287.47 98.01 287.09" fill="#fd8191"/>
            <polygon points="98.01 286.71 138.87 277.18 138.95 277.54 98.01 287.09 98.01 286.71" fill="#fd8091"/>
            <polygon points="98.01 286.33 138.79 276.81 138.87 277.18 98.01 286.71 98.01 286.33" fill="#fd7f91"/>
            <polygon points="98.01 285.95 138.7 276.45 138.79 276.81 98.01 286.33 98.01 285.95" fill="#fd7e91"/>
            <polygon points="98.01 285.57 138.62 276.09 138.7 276.45 98.01 285.95 98.01 285.57" fill="#fd7d90"/>
            <polygon points="98.01 285.19 138.53 275.73 138.62 276.09 98.01 285.57 98.01 285.19" fill="#fd7c90"/>
            <polygon points="98.01 284.81 138.45 275.37 138.53 275.73 98.01 285.19 98.01 284.81" fill="#fd7b90"/>
            <polygon points="98.01 284.43 138.37 275.01 138.45 275.37 98.01 284.81 98.01 284.43" fill="#fd7a90"/>
            <polygon points="98.01 284.05 138.28 274.65 138.37 275.01 98.01 284.43 98.01 284.05" fill="#fd798f"/>
            <polygon points="98.01 283.67 137.32 274.5 138.24 274.5 138.28 274.65 98.01 284.05 98.01 283.67" fill="#fd788f"/>
            <polygon points="98.01 283.29 135.69 274.5 137.32 274.5 98.01 283.67 98.01 283.29" fill="#fd778f"/>
            <polygon points="98.01 282.91 134.06 274.5 135.69 274.5 98.01 283.29 98.01 282.91" fill="#fd768e"/>
            <polygon points="98.01 282.53 132.43 274.5 134.06 274.5 98.01 282.91 98.01 282.53" fill="#fd758e"/>
            <polygon points="98.01 282.15 130.8 274.5 132.43 274.5 98.01 282.53 98.01 282.15" fill="#fd748e"/>
            <polygon points="98.01 281.77 129.17 274.5 130.8 274.5 98.01 282.15 98.01 281.77" fill="#fd738e"/>
            <polygon points="98.01 281.39 127.54 274.5 129.17 274.5 98.01 281.77 98.01 281.39" fill="#fd728d"/>
            <polygon points="98.01 281.01 125.91 274.5 127.54 274.5 98.01 281.39 98.01 281.01" fill="#fd718d"/>
            <polygon points="98.01 280.63 124.28 274.5 125.91 274.5 98.01 281.01 98.01 280.63" fill="#fd708d"/>
            <polygon points="98.01 280.25 122.65 274.5 124.28 274.5 98.01 280.63 98.01 280.25" fill="#fd6f8c"/>
            <polygon points="98.01 279.87 121.03 274.5 122.65 274.5 98.01 280.25 98.01 279.87" fill="#fd6e8c"/>
            <polygon points="98.01 279.49 119.39 274.5 121.03 274.5 98.01 279.87 98.01 279.49" fill="#fd6d8c"/>
            <polygon points="98.01 279.11 117.77 274.5 119.39 274.5 98.01 279.49 98.01 279.11" fill="#fd6c8c"/>
            <polygon points="98.01 278.73 116.14 274.5 117.77 274.5 98.01 279.11 98.01 278.73" fill="#fd6b8b"/>
            <polygon points="98.01 278.35 114.51 274.5 116.14 274.5 98.01 278.73 98.01 278.35" fill="#fd6a8b"/>
            <polygon points="114.51 274.5 98.01 278.35 98.01 274.5 114.51 274.5" fill="#fd6a8b"/>
          </g>
          <g>
            <path d="M165.77,217.76a23.07,23.07,0,0,0-4.82-3,8.92,8.92,0,0,1,5.17,1c.15-2-4.6-6-4.6-6,3.95-1.39,8.44,4.87,8.44,4.87-.4-6.75,4.67-7.17,4.67-7.17-2.56,1.29-1,6.85-1,6.85a8.57,8.57,0,0,1,4.08-1.69c-1.95,1-1.73,1.78-1.88,3.06,7.51-.93,12.14,3.34,15.21,10.77,3.85,9.35-2.76,22.83-7.65,24.85-4.69,1.93-19.42-3.72-23.27-13.07-2.89-7-2.28-12.69,2.79-17a7.1,7.1,0,0,1-2.16-1.17s2.37,0,2.94-1c-.3-1.31-4.25-2.79-4.25-2.79A13.57,13.57,0,0,1,165.77,217.76ZM186,236.64c1,.77,2.53-.8-.36-3.2C185.59,233.44,185.05,236,186,236.64Zm-.14-6.14c1,.77,2.53-.8-.37-3.2C185.44,227.3,184.91,229.83,185.81,230.5Zm-.62,8.69c.83.63,2.05-.65-.3-2.59C184.89,236.6,184.45,238.64,185.19,239.19Zm-.78,6.43c1,.77,2.53-.8-.36-3.19C184.05,242.43,183.51,245,184.41,245.62Zm-3.1-22.57c1,.77,2.53-.81-.36-3.19C181,219.86,180.4,222.38,181.31,223.05Zm-.85,13c1,.76,2.53-.81-.36-3.19C180.1,232.85,179.56,235.37,180.46,236Zm-1.11,7.14c1,.76,2.53-.81-.36-3.2C179,240,178.44,242.51,179.35,243.18ZM178.5,229c1,.77,2.53-.8-.36-3.18C178.14,225.79,177.6,228.3,178.5,229Zm-2,7.28c1,.76,2.53-.81-.36-3.2C176.13,233.05,175.59,235.57,176.49,236.25Zm-.43,11.47c.84.63,2.06-.65-.29-2.59C175.77,245.13,175.32,247.18,176.06,247.72Zm-2.69-4c1,.76,2.54-.81-.36-3.19C173,240.54,172.47,243.06,173.37,243.73Zm-1.08-13.62c1,.76,2.53-.81-.36-3.2C171.93,226.91,171.39,229.44,172.29,230.11Zm-3.1,5.8c1,.77,2.54-.8-.35-3.19C168.84,232.72,168.29,235.24,169.19,235.91Zm-.66,6.48c1,.77,2.53-.8-.36-3.2C168.17,239.19,167.62,241.72,168.53,242.39Zm-4.08-4.9c.84.62,2.06-.66-.3-2.6C164.15,234.89,163.71,236.94,164.45,237.49Zm-.2-5.5c1,.77,2.53-.8-.37-3.19C163.88,228.8,163.34,231.32,164.25,232Z" fill="#ed4800"/>
            <path d="M185.59,233.44c2.89,2.4,1.4,4,.36,3.2S185.59,233.44,185.59,233.44Z" fill="#fff"/>
            <path d="M185.44,227.3c2.9,2.4,1.4,4,.37,3.2S185.44,227.3,185.44,227.3Z" fill="#fff"/>
            <path d="M184.89,236.6c2.35,1.94,1.13,3.22.3,2.59S184.89,236.6,184.89,236.6Z" fill="#fff"/>
            <path d="M184.05,242.43c2.89,2.39,1.39,4,.36,3.19S184.05,242.43,184.05,242.43Z" fill="#fff"/>
            <path d="M181,219.86c2.89,2.38,1.39,4,.36,3.19S181,219.86,181,219.86Z" fill="#fff"/>
            <path d="M180.1,232.85c2.89,2.38,1.39,4,.36,3.19S180.1,232.85,180.1,232.85Z" fill="#fff"/>
            <path d="M179,240c2.89,2.39,1.39,4,.36,3.2S179,240,179,240Z" fill="#fff"/>
            <path d="M178.14,225.79c2.89,2.38,1.4,4,.36,3.18S178.14,225.79,178.14,225.79Z" fill="#fff"/>
            <path d="M176.13,233.05c2.89,2.39,1.39,4,.36,3.2S176.13,233.05,176.13,233.05Z" fill="#fff"/>
            <path d="M175.77,245.13c2.35,1.94,1.13,3.22.29,2.59S175.77,245.13,175.77,245.13Z" fill="#fff"/>
            <path d="M173,240.54c2.9,2.38,1.4,4,.36,3.19S173,240.54,173,240.54Z" fill="#fff"/>
            <path d="M171.93,226.91c2.89,2.39,1.39,4,.36,3.2S171.93,226.91,171.93,226.91Z" fill="#fff"/>
            <path d="M168.84,232.72c2.89,2.39,1.39,4,.35,3.19S168.84,232.72,168.84,232.72Z" fill="#fff"/>
            <path d="M168.17,239.19c2.89,2.4,1.39,4,.36,3.2S168.17,239.19,168.17,239.19Z" fill="#fff"/>
            <path d="M164.15,234.89c2.36,1.94,1.14,3.22.3,2.6S164.15,234.89,164.15,234.89Z" fill="#fff"/>
            <path d="M163.88,228.8c2.9,2.39,1.39,4,.37,3.19S163.88,228.8,163.88,228.8Z" fill="#fff"/>
          </g>
          <g>
            <g>
              <path d="M16.21,394.1v10.82a39.53,39.53,0,0,1-5.47-7.2v-9.11Z" fill="#034c35"/>
              <polygon points="16.21 387.1 16.21 394.1 10.74 388.61 10.74 381.61 16.21 387.1" fill="#176b4f"/>
              <polygon points="16.21 380.1 16.21 387.1 10.74 381.61 10.74 374.61 16.21 380.1" fill="#176b4f"/>
              <polygon points="16.21 373.1 16.21 380.1 10.74 374.61 10.74 367.61 16.21 373.1" fill="#176b4f"/>
              <polygon points="16.21 366.1 16.21 373.1 10.74 367.61 10.74 360.61 16.21 366.1" fill="#034c35"/>
              <polygon points="16.21 359.1 16.21 366.1 10.74 360.61 10.74 353.61 16.21 359.1" fill="#034c35"/>
              <polygon points="16.21 352.1 16.21 359.1 10.74 353.61 10.74 346.61 16.21 352.1" fill="#176b4f"/>
              <polygon points="16.21 345.1 16.21 352.1 10.74 346.61 10.74 339.61 16.21 345.1" fill="#176b4f"/>
              <polygon points="16.21 338.1 16.21 345.1 10.74 339.61 10.74 332.61 16.21 338.1" fill="#034c35"/>
              <polygon points="16.21 331.1 16.21 338.1 10.74 332.61 10.74 325.61 16.21 331.1" fill="#176b4f"/>
              <polygon points="16.21 324.1 16.21 331.1 10.74 325.61 10.74 318.61 16.21 324.1" fill="#176b4f"/>
              <polygon points="16.21 310.1 16.21 324.1 10.74 318.61 10.74 304.61 16.21 310.1" fill="#034c35"/>
              <polygon points="16.21 303.1 16.21 310.1 10.74 304.61 10.74 297.61 16.21 303.1" fill="#176b4f"/>
              <polygon points="16.21 289.1 16.21 303.1 10.74 297.61 10.74 283.61 16.21 289.1" fill="#034c35"/>
              <polygon points="16.21 282.1 16.21 289.1 10.74 283.61 10.74 276.61 16.21 282.1" fill="#034c35"/>
              <polygon points="16.21 275.1 16.21 282.1 10.74 276.61 10.74 269.61 16.21 275.1" fill="#034c35"/>
              <polygon points="16.21 268.1 16.21 275.1 10.74 269.61 10.74 262.61 16.21 268.1" fill="#034c35"/>
              <polygon points="16.21 261.1 16.21 268.1 10.74 262.61 10.74 255.61 16.21 261.1" fill="#034c35"/>
              <polygon points="16.21 254.1 16.21 261.1 10.74 255.61 10.74 248.61 16.21 254.1" fill="#176b4f"/>
              <polygon points="16.21 247.1 16.21 254.1 10.74 248.61 10.74 241.61 16.21 247.1" fill="#034c35"/>
              <polygon points="16.21 240.1 16.21 247.1 10.74 241.61 10.74 234.61 16.21 240.1" fill="#034c35"/>
              <polygon points="16.21 233.1 16.21 240.1 10.74 234.61 10.74 227.61 16.21 233.1" fill="#034c35"/>
              <polygon points="16.21 226.1 16.21 233.1 10.74 227.61 10.74 220.61 16.21 226.1" fill="#034c35"/>
              <polygon points="16.21 219.1 16.21 226.1 10.74 220.61 10.74 213.61 16.21 219.1" fill="#176b4f"/>
              <polygon points="16.21 212.1 16.21 219.1 10.74 213.61 10.74 206.61 16.21 212.1" fill="#034c35"/>
              <polygon points="16.21 205.1 16.21 212.1 10.74 206.61 10.74 199.61 16.21 205.1" fill="#176b4f"/>
              <polygon points="16.21 198.1 16.21 205.1 10.74 199.61 10.74 192.61 16.21 198.1" fill="#034c35"/>
              <polygon points="16.21 184.1 16.21 198.1 10.74 192.61 10.74 178.61 16.21 184.1" fill="#034c35"/>
              <polygon points="16.21 177.1 16.21 184.1 10.74 178.61 10.74 171.61 16.21 177.1" fill="#034c35"/>
              <polygon points="16.21 170.1 16.21 177.1 10.74 171.61 10.74 164.61 16.21 170.1" fill="#176b4f"/>
              <polygon points="16.21 163.1 16.21 170.1 10.74 164.61 10.74 157.61 16.21 163.1" fill="#034c35"/>
              <polygon points="16.21 156.1 16.21 163.1 10.74 157.61 10.74 150.61 16.21 156.1" fill="#176b4f"/>
              <path d="M16.21,144.86V156.1l-5.47-5.49V139.77A12.06,12.06,0,0,0,16.21,144.86Z" fill="#034c35"/>
              <path d="M10.74,388.61v9.11a40.09,40.09,0,0,1-6-19.7S-4,279.6,3.63,122.08c0,0,1.45,1.1,1.46,1.11.32.8,1.71,10.27,5.65,16.58V388.61Z" fill="#034c35"/>
            </g>
            <g>
              <path d="M16.71,406.1l-.85-.82a40.08,40.08,0,0,1-5.54-7.3h0A40.81,40.81,0,0,1,4.2,378c0-.22-2.19-25.1-3.4-68.9C-.32,268.71-.82,203.44,3.13,122.05l0-.47h.47c.36,0,1.8,1.24,1.82,1.25l.11.17a13.73,13.73,0,0,1,.34,1.44c.64,3,2.14,10.05,5.27,15.06a11.48,11.48,0,0,0,5.23,4.89l.31.13ZM4.09,123C.18,204,.69,268.85,1.8,309.1,3,352.88,5.18,377.73,5.2,378a40,40,0,0,0,6,19.49h0a43,43,0,0,0,4.54,6.19V145.19A12.86,12.86,0,0,1,10.32,140c-3.22-5.16-4.75-12.32-5.4-15.38-.1-.49-.2-1-.26-1.17Z" fill="#999"/>
              <path d="M10.74,398.33a.51.51,0,0,1-.5-.5V139.77a.5.5,0,0,1,.5-.5.5.5,0,0,1,.5.5V397.83A.5.5,0,0,1,10.74,398.33Z" fill="#999"/>
              <path d="M16.29,394.68a.49.49,0,0,1-.35-.15L10.39,389a.5.5,0,0,1,0-.71.51.51,0,0,1,.71,0l5.55,5.57a.51.51,0,0,1,0,.71A.51.51,0,0,1,16.29,394.68Z" fill="#a0a0a0"/>
              <path d="M16.29,387.68a.49.49,0,0,1-.35-.15L10.39,382a.5.5,0,0,1,0-.71.51.51,0,0,1,.71,0l5.55,5.57a.51.51,0,0,1,0,.71A.51.51,0,0,1,16.29,387.68Z" fill="#a0a0a0"/>
              <path d="M16.29,380.68a.49.49,0,0,1-.35-.15L10.39,375a.5.5,0,0,1,0-.71.51.51,0,0,1,.71,0l5.55,5.57a.51.51,0,0,1,0,.71A.51.51,0,0,1,16.29,380.68Z" fill="#a0a0a0"/>
              <path d="M16.29,373.68a.49.49,0,0,1-.35-.15L10.39,368a.5.5,0,0,1,0-.71.51.51,0,0,1,.71,0l5.55,5.57a.51.51,0,0,1,0,.71A.51.51,0,0,1,16.29,373.68Z" fill="#a0a0a0"/>
              <path d="M16.29,366.68a.49.49,0,0,1-.35-.15L10.39,361a.5.5,0,0,1,0-.71.51.51,0,0,1,.71,0l5.55,5.57a.51.51,0,0,1,0,.71A.51.51,0,0,1,16.29,366.68Z" fill="#a0a0a0"/>
              <path d="M16.29,359.68a.49.49,0,0,1-.35-.15L10.39,354a.5.5,0,0,1,0-.71.51.51,0,0,1,.71,0l5.55,5.57a.51.51,0,0,1,0,.71A.51.51,0,0,1,16.29,359.68Z" fill="#a0a0a0"/>
              <path d="M16.29,352.68a.49.49,0,0,1-.35-.15L10.39,347a.5.5,0,0,1,0-.71.51.51,0,0,1,.71,0l5.55,5.57a.51.51,0,0,1,0,.71A.51.51,0,0,1,16.29,352.68Z" fill="#a0a0a0"/>
              <path d="M16.29,345.68a.49.49,0,0,1-.35-.15L10.39,340a.5.5,0,0,1,0-.71.51.51,0,0,1,.71,0l5.55,5.57a.51.51,0,0,1,0,.71A.51.51,0,0,1,16.29,345.68Z" fill="#a0a0a0"/>
              <path d="M16.29,338.68a.49.49,0,0,1-.35-.15L10.39,333a.5.5,0,0,1,0-.71.51.51,0,0,1,.71,0l5.55,5.57a.51.51,0,0,1,0,.71A.51.51,0,0,1,16.29,338.68Z" fill="#a0a0a0"/>
              <path d="M16.29,331.68a.49.49,0,0,1-.35-.15L10.39,326a.5.5,0,0,1,0-.71.51.51,0,0,1,.71,0l5.55,5.57a.51.51,0,0,1,0,.71A.51.51,0,0,1,16.29,331.68Z" fill="#a0a0a0"/>
              <path d="M16.29,324.68a.49.49,0,0,1-.35-.15L10.39,319a.5.5,0,0,1,0-.71.51.51,0,0,1,.71,0l5.55,5.57a.51.51,0,0,1,0,.71A.51.51,0,0,1,16.29,324.68Z" fill="#a0a0a0"/>
              <path d="M16.29,310.68a.49.49,0,0,1-.35-.15L10.39,305a.5.5,0,0,1,0-.71.51.51,0,0,1,.71,0l5.55,5.57a.51.51,0,0,1,0,.71A.51.51,0,0,1,16.29,310.68Z" fill="#a0a0a0"/>
              <path d="M16.29,303.68a.49.49,0,0,1-.35-.15L10.39,298a.5.5,0,0,1,0-.71.51.51,0,0,1,.71,0l5.55,5.57a.51.51,0,0,1,0,.71A.51.51,0,0,1,16.29,303.68Z" fill="#a0a0a0"/>
              <path d="M16.29,289.68a.49.49,0,0,1-.35-.15L10.39,284a.5.5,0,0,1,0-.71.51.51,0,0,1,.71,0l5.55,5.57a.51.51,0,0,1,0,.71A.51.51,0,0,1,16.29,289.68Z" fill="#a0a0a0"/>
              <path d="M16.29,282.68a.49.49,0,0,1-.35-.15L10.39,277a.5.5,0,0,1,0-.71.51.51,0,0,1,.71,0l5.55,5.57a.51.51,0,0,1,0,.71A.51.51,0,0,1,16.29,282.68Z" fill="#a0a0a0"/>
              <path d="M16.29,275.68a.49.49,0,0,1-.35-.15L10.39,270a.5.5,0,0,1,0-.71.51.51,0,0,1,.71,0l5.55,5.57a.51.51,0,0,1,0,.71A.51.51,0,0,1,16.29,275.68Z" fill="#a0a0a0"/>
              <path d="M16.29,268.68a.49.49,0,0,1-.35-.15L10.39,263a.5.5,0,0,1,0-.71.51.51,0,0,1,.71,0l5.55,5.57a.51.51,0,0,1,0,.71A.51.51,0,0,1,16.29,268.68Z" fill="#a0a0a0"/>
              <path d="M16.29,261.68a.49.49,0,0,1-.35-.15L10.39,256a.5.5,0,0,1,0-.71.51.51,0,0,1,.71,0l5.55,5.57a.51.51,0,0,1,0,.71A.51.51,0,0,1,16.29,261.68Z" fill="#a0a0a0"/>
              <path d="M16.29,254.68a.49.49,0,0,1-.35-.15L10.39,249a.5.5,0,0,1,0-.71.51.51,0,0,1,.71,0l5.55,5.57a.51.51,0,0,1,0,.71A.51.51,0,0,1,16.29,254.68Z" fill="#a0a0a0"/>
              <path d="M16.29,247.68a.49.49,0,0,1-.35-.15L10.39,242a.5.5,0,0,1,0-.71.51.51,0,0,1,.71,0l5.55,5.57a.51.51,0,0,1,0,.71A.51.51,0,0,1,16.29,247.68Z" fill="#a0a0a0"/>
              <path d="M16.29,240.68a.49.49,0,0,1-.35-.15L10.39,235a.5.5,0,0,1,0-.71.51.51,0,0,1,.71,0l5.55,5.57a.51.51,0,0,1,0,.71A.51.51,0,0,1,16.29,240.68Z" fill="#a0a0a0"/>
              <path d="M16.29,233.68a.49.49,0,0,1-.35-.15L10.39,228a.5.5,0,0,1,0-.71.51.51,0,0,1,.71,0l5.55,5.57a.51.51,0,0,1,0,.71A.51.51,0,0,1,16.29,233.68Z" fill="#a0a0a0"/>
              <path d="M16.29,226.68a.49.49,0,0,1-.35-.15L10.39,221a.5.5,0,0,1,0-.71.51.51,0,0,1,.71,0l5.55,5.57a.51.51,0,0,1,0,.71A.51.51,0,0,1,16.29,226.68Z" fill="#a0a0a0"/>
              <path d="M16.29,219.68a.49.49,0,0,1-.35-.15L10.39,214a.5.5,0,0,1,0-.71.51.51,0,0,1,.71,0l5.55,5.57a.51.51,0,0,1,0,.71A.51.51,0,0,1,16.29,219.68Z" fill="#a0a0a0"/>
              <path d="M16.29,212.68a.49.49,0,0,1-.35-.15L10.39,207a.5.5,0,0,1,0-.71.51.51,0,0,1,.71,0l5.55,5.57a.51.51,0,0,1,0,.71A.51.51,0,0,1,16.29,212.68Z" fill="#a0a0a0"/>
              <path d="M16.29,205.68a.49.49,0,0,1-.35-.15L10.39,200a.5.5,0,0,1,0-.71.51.51,0,0,1,.71,0l5.55,5.57a.51.51,0,0,1,0,.71A.51.51,0,0,1,16.29,205.68Z" fill="#a0a0a0"/>
              <path d="M16.29,198.68a.49.49,0,0,1-.35-.15L10.39,193a.5.5,0,0,1,0-.71.51.51,0,0,1,.71,0l5.55,5.57a.51.51,0,0,1,0,.71A.51.51,0,0,1,16.29,198.68Z" fill="#a0a0a0"/>
              <path d="M16.29,184.68a.49.49,0,0,1-.35-.15L10.39,179a.5.5,0,0,1,0-.71.51.51,0,0,1,.71,0l5.55,5.57a.51.51,0,0,1,0,.71A.51.51,0,0,1,16.29,184.68Z" fill="#a0a0a0"/>
              <path d="M16.29,177.68a.49.49,0,0,1-.35-.15L10.39,172a.5.5,0,0,1,0-.71.51.51,0,0,1,.71,0l5.55,5.57a.51.51,0,0,1,0,.71A.51.51,0,0,1,16.29,177.68Z" fill="#a0a0a0"/>
              <path d="M16.29,170.68a.49.49,0,0,1-.35-.15L10.39,165a.5.5,0,0,1,0-.71.51.51,0,0,1,.71,0l5.55,5.57a.51.51,0,0,1,0,.71A.51.51,0,0,1,16.29,170.68Z" fill="#a0a0a0"/>
              <path d="M16.29,163.68a.49.49,0,0,1-.35-.15L10.39,158a.5.5,0,0,1,0-.71.51.51,0,0,1,.71,0l5.55,5.57a.51.51,0,0,1,0,.71A.51.51,0,0,1,16.29,163.68Z" fill="#a0a0a0"/>
              <path d="M16.29,156.68a.49.49,0,0,1-.35-.15L10.39,151a.5.5,0,0,1,0-.71.51.51,0,0,1,.71,0l5.55,5.57a.51.51,0,0,1,0,.71A.51.51,0,0,1,16.29,156.68Z" fill="#a0a0a0"/>
            </g>
          </g>
          <path d="M90.48,364.6a1.5,1.5,0,0,1-1.5-1.5v-142a1.5,1.5,0,0,1,3,0v142A1.5,1.5,0,0,1,90.48,364.6Z" fill="#fff"/>
          <path d="M147,379.1a1.5,1.5,0,0,1-1.5-1.5v-156a1.5,1.5,0,0,1,3,0v156A1.5,1.5,0,0,1,147,379.1Z" fill="#fff"/>
          <g>
            <path d="M43.8,165.71a2.55,2.55,0,0,1-.66,1.67,7.26,7.26,0,0,1-1.56,1.32,12.49,12.49,0,0,1-1.92,1c-.67.28-1.25.51-1.74.7,0,.34,0,.69,0,1s-.05.71-.09,1.07a15.74,15.74,0,0,1,1.76-.7,5.74,5.74,0,0,1,1.85-.31,2.11,2.11,0,0,1,1.15.31,1.13,1.13,0,0,1,.43,1,2.11,2.11,0,0,1-.59,1.42A5.84,5.84,0,0,1,41,175.35a10.86,10.86,0,0,1-1.69.8c-.59.22-1.09.39-1.49.51,0,.54,0,1.07,0,1.59s-.06,1.05-.1,1.57c0,.25-.05.58-.1,1a6,6,0,0,1-.26,1.13,3,3,0,0,1-.54.94,1.09,1.09,0,0,1-.88.38,1,1,0,0,1-.87-.51,4.63,4.63,0,0,1-.59-1.28,11.09,11.09,0,0,1-.39-1.75c-.09-.63-.16-1.26-.21-1.88s-.07-1.18-.07-1.7,0-.92,0-1.19,0-.52,0-.93,0-.87,0-1.38,0-1,.08-1.57S34,170,34,169.47s.09-.92.15-1.3a4.06,4.06,0,0,1,.22-.84,2.87,2.87,0,0,1,1.29-1,14.31,14.31,0,0,1,2.27-.89,23.17,23.17,0,0,1,2.42-.61,8.89,8.89,0,0,1,1.81-.23,3.45,3.45,0,0,1,.57.05,1.5,1.5,0,0,1,.52.16,1.1,1.1,0,0,1,.39.35A1,1,0,0,1,43.8,165.71Z" fill="#f7c852"/>
            <path d="M53,174.31a1.3,1.3,0,0,1-.58-.07l-.48-.19-.44-.19a1.06,1.06,0,0,0-.48-.06,1.7,1.7,0,0,0-.87.25,3.18,3.18,0,0,0-.69.59,4.19,4.19,0,0,0-.53.81,5.83,5.83,0,0,0-.36.88,5.47,5.47,0,0,0-.12.88c0,.4-.05.82-.06,1.28s0,.91,0,1.33a7.9,7.9,0,0,1-.07,1,6.05,6.05,0,0,1-.14.9,4.32,4.32,0,0,1-.31,1,2.47,2.47,0,0,1-.56.77,1.21,1.21,0,0,1-.88.3,1.08,1.08,0,0,1-.71-.25,2,2,0,0,1-.5-.66,4.12,4.12,0,0,1-.33-.94c-.08-.35-.14-.72-.19-1.09s-.07-.78-.09-1.17,0-.75,0-1.1,0-.67,0-1,0-.53,0-.71c0-.56,0-1.13,0-1.71s-.05-1.14,0-1.71c0-.36,0-.75.07-1.19a4.44,4.44,0,0,1,.29-1.22,2.47,2.47,0,0,1,.66-.95,1.69,1.69,0,0,1,1.18-.37,1,1,0,0,1,.7.28,2,2,0,0,1,.46.66,4,4,0,0,1,.27.83,6.76,6.76,0,0,1,.11.81,6.05,6.05,0,0,1,1.33-1.52,3.18,3.18,0,0,1,1.91-.62,5,5,0,0,1,1.15.13,3.31,3.31,0,0,1,1,.46,2.45,2.45,0,0,1,.77.8,2.37,2.37,0,0,1,.31,1.15,1.35,1.35,0,0,1-.48,1.18A2,2,0,0,1,53,174.31Z" fill="#f7c852"/>
            <path d="M66.46,176.67a13.05,13.05,0,0,1-.32,2.64,7.2,7.2,0,0,1-.93,2.33,4.92,4.92,0,0,1-1.72,1.64,5.11,5.11,0,0,1-2.64.58,4.9,4.9,0,0,1-2.59-.66,4.71,4.71,0,0,1-1.63-1.66,7.21,7.21,0,0,1-.84-2.32,14.36,14.36,0,0,1-.21-2.63,12.8,12.8,0,0,1,.39-2.88c.05-.26.15-.62.29-1.08a8.75,8.75,0,0,1,.56-1.35,5.41,5.41,0,0,1,.77-1.14,1.25,1.25,0,0,1,.94-.47,1.14,1.14,0,0,1,.78.28,1.92,1.92,0,0,1,.45.68,2.94,2.94,0,0,1,.2.85,8.1,8.1,0,0,1,0,.81,6.39,6.39,0,0,1-.11,1.09c-.06.36-.13.71-.2,1.07s-.14,1-.2,1.45a12,12,0,0,0-.11,1.46c0,.24,0,.51,0,.81a3.45,3.45,0,0,0,.17.86,1.92,1.92,0,0,0,.4.7,1,1,0,0,0,.75.3,1.43,1.43,0,0,0,1-.33,1.91,1.91,0,0,0,.57-.84,4.23,4.23,0,0,0,.25-1.09c0-.38.06-.74.07-1.06a16.29,16.29,0,0,0-.11-2.11c-.09-.69-.17-1.39-.23-2.1a1.12,1.12,0,0,1,0-.34,2.12,2.12,0,0,1,.13-.73,2.27,2.27,0,0,1,.35-.65,1.84,1.84,0,0,1,.54-.46,1.31,1.31,0,0,1,.71-.17,1.37,1.37,0,0,1,.94.39,3.11,3.11,0,0,1,.68,1,7.65,7.65,0,0,1,.43,1.35,12.86,12.86,0,0,1,.27,1.46c.07.48.11.93.13,1.35S66.46,176.43,66.46,176.67Z" fill="#f7c852"/>
            <path d="M73,175c0,.23,0,.47,0,.72s0,.49,0,.71,0,.64,0,1.11,0,1-.07,1.49-.11,1.07-.19,1.62a7.15,7.15,0,0,1-.38,1.5,2.92,2.92,0,0,1-.66,1.09,1.41,1.41,0,0,1-1,.44.9.9,0,0,1-.77-.38,3,3,0,0,1-.51-1,7.47,7.47,0,0,1-.28-1.38c0-.51-.1-1-.12-1.49s0-.92,0-1.32,0-.7,0-.9,0-.62,0-1.1,0-1,.07-1.54a16.21,16.21,0,0,1,.21-1.67,9,9,0,0,1,.41-1.55,3.28,3.28,0,0,1,.69-1.13,1.35,1.35,0,0,1,1-.42,1.08,1.08,0,0,1,1,.67,5.81,5.81,0,0,1,.48,1.54,11.39,11.39,0,0,1,.17,1.74Zm-.06-8.25a1.07,1.07,0,0,1-.19.6,2.14,2.14,0,0,1-.48.47,2.5,2.5,0,0,1-.64.3,2.16,2.16,0,0,1-.63.1,1.5,1.5,0,0,1-.85-.26.85.85,0,0,1-.35-.76,1.26,1.26,0,0,1,.19-.64,1.79,1.79,0,0,1,.46-.45,2,2,0,0,1,.61-.27,2.61,2.61,0,0,1,.66-.09,1.71,1.71,0,0,1,.84.24A.78.78,0,0,1,72.9,166.78Z" fill="#f7c852"/>
            <path d="M81,184.73a6.65,6.65,0,0,1-2.67-.49,3.19,3.19,0,0,1-1.41-1.3,4.68,4.68,0,0,1-.54-2c0-.78-.07-1.65,0-2.6,0-.76,0-1.53.11-2.29s.15-1.59.26-2.46h-.85a2.59,2.59,0,0,1-1.34-.36,1.14,1.14,0,0,1-.56-1.06,1.11,1.11,0,0,1,.34-.77,3.16,3.16,0,0,1,.85-.57,6,6,0,0,1,1.11-.37,7,7,0,0,1,1.13-.17,14.5,14.5,0,0,1,.12-1.51,7.14,7.14,0,0,1,.38-1.53,3.65,3.65,0,0,1,.71-1.19,1.43,1.43,0,0,1,1.13-.47,1.13,1.13,0,0,1,.69.24,1.84,1.84,0,0,1,.48.59,2.8,2.8,0,0,1,.28.8,3.55,3.55,0,0,1,.08.85,6.83,6.83,0,0,1-.08,1c-.06.34-.15.76-.29,1.26l.56-.05h.26a4.26,4.26,0,0,1,.86.09,3.5,3.5,0,0,1,.83.25,2,2,0,0,1,.61.46,1,1,0,0,1,.23.67,1.09,1.09,0,0,1-.37.78,2.89,2.89,0,0,1-.89.56,5.32,5.32,0,0,1-1.15.36,8.42,8.42,0,0,1-1.14.16c-.11.67-.19,1.27-.24,1.83s-.1,1.12-.16,1.69c0,.27-.07.55-.1.83s0,.57-.05.86,0,.46,0,.75a2.77,2.77,0,0,0,.16.81,1.62,1.62,0,0,0,.45.68,1.3,1.3,0,0,0,.87.29,4.2,4.2,0,0,0,.7-.05,4.56,4.56,0,0,1,.73,0,1,1,0,0,1,.91.45,2.14,2.14,0,0,1,.26,1.12,1.46,1.46,0,0,1-.32.89,2.44,2.44,0,0,1-.78.59,4.45,4.45,0,0,1-1,.34A6.05,6.05,0,0,1,81,184.73Z" fill="#f7c852"/>
            <path d="M104.3,183.17a1.75,1.75,0,0,1-.36,1.1,1.27,1.27,0,0,1-1,.41,1.76,1.76,0,0,1-1-.36,4.6,4.6,0,0,1-.86-.85,7.51,7.51,0,0,1-.69-1.07c-.19-.38-.35-.7-.48-1-.33-.68-.65-1.37-1-2s-.64-1.38-1-2.08l-1.47.87a7.44,7.44,0,0,1-.1,1.41c-.07.47-.13.93-.17,1.4A9.26,9.26,0,0,1,96,182a4.3,4.3,0,0,1-.37,1.06,2.44,2.44,0,0,1-.67.82,1.54,1.54,0,0,1-1,.33A1.69,1.69,0,0,1,93,184a2,2,0,0,1-.59-.6,2.5,2.5,0,0,1-.31-.83,4.3,4.3,0,0,1-.08-.95v-.2a25.35,25.35,0,0,1,.21-2.87c.12-1,.2-1.93.25-2.9,0-1.27.11-2.55.18-3.83s.16-2.55.26-3.83a4.11,4.11,0,0,1,.16-.85,2.31,2.31,0,0,1,.38-.73,1.69,1.69,0,0,1,1.44-.69,1.27,1.27,0,0,1,1.12.55,3.23,3.23,0,0,1,.5,1.29,7.31,7.31,0,0,1,.11,1.56c0,.53,0,1,0,1.33,0,1-.06,2-.13,3.06a13,13,0,0,0,1.4-1.31,14.68,14.68,0,0,0,1.2-1.51,14.45,14.45,0,0,0,.75-1.26c.28-.54.59-1.06.92-1.57a7.51,7.51,0,0,1,1.09-1.31,1.73,1.73,0,0,1,1.25-.55,1.21,1.21,0,0,1,1,.41,1.57,1.57,0,0,1,.31,1.06,7.08,7.08,0,0,1-.33,2,11.91,11.91,0,0,1-.85,2,14.16,14.16,0,0,1-1.18,1.85,12.79,12.79,0,0,1-1.33,1.52c.44.77.86,1.54,1.25,2.31l1.18,2.34c.14.26.28.55.41.86s.25.62.36,1a8.87,8.87,0,0,1,.26,1A4.31,4.31,0,0,1,104.3,183.17Z" fill="#f7c852"/>
            <path d="M112.83,185.06a.77.77,0,0,1-.65-.39,2.83,2.83,0,0,1-.35-.87,5.38,5.38,0,0,1-.14-1c0-.33,0-.59,0-.77a14.15,14.15,0,0,1,.11-1.45c.07-.49.14-1,.22-1.45s.15-1,.22-1.46a14.15,14.15,0,0,0,.11-1.45c0-.2,0-.41,0-.64a3.29,3.29,0,0,0-.09-.64,1.26,1.26,0,0,0-.27-.5.69.69,0,0,0-.51-.2c-.15,0-.31.11-.49.34a6,6,0,0,0-.51.79,7.77,7.77,0,0,0-.41.89,2.57,2.57,0,0,0-.17.67V178c0,.36,0,.73,0,1.11l0,1.4q0,.44-.09.9a6.36,6.36,0,0,1-.16.89,4.74,4.74,0,0,1-.23.84,2.64,2.64,0,0,1-.39.7,1.92,1.92,0,0,1-.55.48,1.43,1.43,0,0,1-.76.19,1.1,1.1,0,0,1-.79-.33,2.31,2.31,0,0,1-.5-.82,5.21,5.21,0,0,1-.26-1.13c0-.41-.08-.81-.1-1.21s0-.76,0-1.09,0-.6,0-.79l0-1.14c0-.62,0-1.22,0-1.82s0-1.2,0-1.8c0-.32,0-.74,0-1.24a7,7,0,0,1,.21-1.46,3.14,3.14,0,0,1,.58-1.22A1.33,1.33,0,0,1,108,170a.88.88,0,0,1,.6.23,2.47,2.47,0,0,1,.47.54,3.11,3.11,0,0,1,.32.69,4.91,4.91,0,0,1,.2.63,5.76,5.76,0,0,1,.58-.65,4.23,4.23,0,0,1,.75-.54,4.31,4.31,0,0,1,.93-.38,4.21,4.21,0,0,1,1.17-.12,2.89,2.89,0,0,1,1.92.62,3.65,3.65,0,0,1,1,1.5,7,7,0,0,1,.37,1.91c0,.68,0,1.3,0,1.85a12.14,12.14,0,0,1-.09,1.22c-.06.55-.14,1.14-.26,1.8s-.27,1.32-.46,2a13.13,13.13,0,0,1-.66,1.87,4.76,4.76,0,0,1-.88,1.37A1.52,1.52,0,0,1,112.83,185.06Z" fill="#f7c852"/>
            <path d="M122.94,185.25a3.55,3.55,0,0,1-2.14-.69,5.7,5.7,0,0,1-1.53-1.7,8.12,8.12,0,0,1-.91-2.29,9.54,9.54,0,0,1-.27-2.47,11.92,11.92,0,0,1,.35-2.65,9,9,0,0,1,1-2.48,5.71,5.71,0,0,1,1.7-1.82,4.13,4.13,0,0,1,2.44-.68,3.76,3.76,0,0,1,2.31.78,5.74,5.74,0,0,1,1.51,1.87,8.76,8.76,0,0,1,.78,2.43,10.08,10.08,0,0,1,.13,2.48,13.89,13.89,0,0,1-.44,2.59,8.52,8.52,0,0,1-1,2.34,5.31,5.31,0,0,1-1.63,1.67A4,4,0,0,1,122.94,185.25Zm.43-11a.79.79,0,0,0-.65.38,3.6,3.6,0,0,0-.48.94,7.16,7.16,0,0,0-.3,1.17,6.58,6.58,0,0,0-.11,1.08,7,7,0,0,0,.09,1.26,7.32,7.32,0,0,0,.28,1.26,3.11,3.11,0,0,0,.46.95.77.77,0,0,0,.63.39.84.84,0,0,0,.68-.35,2.93,2.93,0,0,0,.46-.92,6.1,6.1,0,0,0,.26-1.22,11.43,11.43,0,0,0,.1-1.25,8.55,8.55,0,0,0-.08-1.18,7.05,7.05,0,0,0-.26-1.2,2.69,2.69,0,0,0-.45-.93A.8.8,0,0,0,123.37,174.28Z" fill="#f7c852"/>
            <path d="M142.34,185.18a1.74,1.74,0,0,1-1.38-.85,8.1,8.1,0,0,1-1.05-2,18.15,18.15,0,0,1-.73-2.38c-.19-.82-.32-1.49-.41-2-.14.33-.32.72-.54,1.19s-.49.95-.78,1.46-.6,1-.94,1.55a11.41,11.41,0,0,1-1,1.41,6.08,6.08,0,0,1-1.06,1,1.68,1.68,0,0,1-1,.37,1.43,1.43,0,0,1-1.14-.65,5.14,5.14,0,0,1-.81-1.66,16.46,16.46,0,0,1-.54-2.27c-.14-.83-.24-1.65-.31-2.48s-.11-1.6-.13-2.31,0-1.29,0-1.72a10.75,10.75,0,0,1,.08-1.17,3.59,3.59,0,0,1,.26-1,1.54,1.54,0,0,1,.54-.68,1.51,1.51,0,0,1,.94-.24,1.3,1.3,0,0,1,.95.43,3.13,3.13,0,0,1,.65,1.09,9.38,9.38,0,0,1,.42,1.51c.1.56.18,1.13.23,1.7s.1,1.14.11,1.68,0,1,0,1.4c.1-.34.25-.75.43-1.25s.39-1,.61-1.56.46-1.11.72-1.65a16.39,16.39,0,0,1,.78-1.47,6.22,6.22,0,0,1,.75-1.06,1,1,0,0,1,.71-.4h0a1.23,1.23,0,0,1,.84.43,5.38,5.38,0,0,1,.78,1.08,10.49,10.49,0,0,1,.71,1.5q.33.84.6,1.71t.48,1.68c.14.55.25,1,.34,1.41,0-.47.06-1,.1-1.59s.12-1.19.22-1.78a12.22,12.22,0,0,1,.39-1.74,7.79,7.79,0,0,1,.59-1.51,3.39,3.39,0,0,1,.86-1.06,1.82,1.82,0,0,1,1.16-.38,1.16,1.16,0,0,1,1,.49,2.07,2.07,0,0,1,.31,1.16,13.44,13.44,0,0,1-.22,1.94c-.13.81-.31,1.68-.54,2.62s-.49,1.9-.79,2.86a22.45,22.45,0,0,1-1,2.59,10,10,0,0,1-1.1,1.89A1.48,1.48,0,0,1,142.34,185.18Z" fill="#f7c852"/>
            <path d="M153.79,170.34c0,.87-.06,1.75-.15,2.63s-.14,1.77-.15,2.66c0,1.15,0,2.3,0,3.45s.07,2.31.05,3.47a9,9,0,0,1-.06,1,3.49,3.49,0,0,1-.25,1,1.9,1.9,0,0,1-.56.77,1.38,1.38,0,0,1-1,.3,1.22,1.22,0,0,1-1-.58,4.77,4.77,0,0,1-.68-1.47,14.4,14.4,0,0,1-.43-2c-.11-.73-.19-1.44-.23-2.13s-.08-1.32-.09-1.89,0-1,0-1.28,0-.75.06-1.33.1-1.21.19-1.89.21-1.37.36-2.07a10.73,10.73,0,0,1,.58-1.91,4.61,4.61,0,0,1,.83-1.39,1.46,1.46,0,0,1,1.14-.53,1,1,0,0,1,.81.36,2.34,2.34,0,0,1,.39.86,5.81,5.81,0,0,1,.12,1C153.79,169.77,153.8,170.08,153.79,170.34Z" fill="#f7c852"/>
            <path d="M166.43,180.94a2.86,2.86,0,0,1-.55,1.6,5.83,5.83,0,0,1-1.33,1.39,7,7,0,0,1-1.7,1,4.34,4.34,0,0,1-1.66.35,4.19,4.19,0,0,1-2.28-.68,5.74,5.74,0,0,1-1.66-1.67,7.5,7.5,0,0,1-1-2.21,8.49,8.49,0,0,1-.31-2.35,10.82,10.82,0,0,1,.38-2.59,9.36,9.36,0,0,1,1.07-2.53,6.68,6.68,0,0,1,1.78-1.92,4.17,4.17,0,0,1,2.53-.73,4.61,4.61,0,0,1,1.57.3,4.2,4.2,0,0,1,1.3.81,4,4,0,0,1,.88,1.23,3.59,3.59,0,0,1,.31,1.59,4.81,4.81,0,0,1-.52,2.12,5.65,5.65,0,0,1-1.31,1.71,6.94,6.94,0,0,1-1.87,1.14,6,6,0,0,1-2.14.46,1.34,1.34,0,0,0,.55,1,2,2,0,0,0,1.12.34,2.06,2.06,0,0,0,1-.23,8.16,8.16,0,0,0,.9-.53c.3-.2.59-.38.87-.53a1.67,1.67,0,0,1,.87-.23,1.31,1.31,0,0,1,.87.33A1,1,0,0,1,166.43,180.94Zm-3.83-6a1.52,1.52,0,0,0-.16-.66.57.57,0,0,0-.53-.35,1.46,1.46,0,0,0-.9.27,2.29,2.29,0,0,0-.62.69,3.61,3.61,0,0,0-.39.9,4,4,0,0,0-.17.9l.81-.18a4.67,4.67,0,0,0,.91-.32,2.55,2.55,0,0,0,.73-.5A1.07,1.07,0,0,0,162.6,174.93Z" fill="#f7c852"/>
            <path d="M178.85,169.49c0,1.18-.08,2.35-.19,3.52s-.17,2.33-.19,3.51c0,1,0,1.91,0,2.85s.05,1.88,0,2.84c0,.26,0,.57,0,.93a5,5,0,0,1-.17,1.05,2.4,2.4,0,0,1-.45.87,1.06,1.06,0,0,1-.87.35,1.55,1.55,0,0,1-1.19-.56,2.62,2.62,0,0,1-.58-1.24,4.11,4.11,0,0,1-1.36,1.46,3.26,3.26,0,0,1-1.9.57,2.63,2.63,0,0,1-1.87-.78,6.5,6.5,0,0,1-1.28-1.84,10.41,10.41,0,0,1-.74-2.25,9.37,9.37,0,0,1-.22-2c0-.4,0-.86.1-1.38a11,11,0,0,1,.28-1.57,10.89,10.89,0,0,1,.5-1.56,5.43,5.43,0,0,1,.76-1.36,3.48,3.48,0,0,1,1.08-.95,2.71,2.71,0,0,1,1.43-.34,3,3,0,0,1,1.66.54,3.41,3.41,0,0,1,1.2,1.28l.28-3.86q0-.47.09-1.08a5.51,5.51,0,0,1,.23-1.17,2.44,2.44,0,0,1,.51-.94,1.25,1.25,0,0,1,1-.37,1.64,1.64,0,0,1,1.09.36,2,2,0,0,1,.55.87,3.77,3.77,0,0,1,.2,1.13C178.85,168.75,178.86,169.14,178.85,169.49Zm-4.13,10.71c0-.37,0-.73,0-1.09s0-.72,0-1.09c-.09-.21-.2-.45-.33-.7a3.59,3.59,0,0,0-.46-.71,2.92,2.92,0,0,0-.61-.56,1.4,1.4,0,0,0-.73-.23.94.94,0,0,0-.7.26,1.39,1.39,0,0,0-.4.63,3,3,0,0,0-.17.81c0,.29-.05.55-.05.76a7.2,7.2,0,0,0,0,.86,9.77,9.77,0,0,0,.16,1.16,4.51,4.51,0,0,0,.36,1,.76.76,0,0,0,.65.45,1.66,1.66,0,0,0,.64-.13,2.52,2.52,0,0,0,.6-.33,5.36,5.36,0,0,0,.54-.45c.17-.16.32-.32.45-.46Z" fill="#f7c852"/>
            <path d="M192.12,177.41c0,.82,0,1.65-.08,2.47s-.1,1.65-.17,2.47-.14,1.47-.24,2.28a18.17,18.17,0,0,1-.43,2.41,14.25,14.25,0,0,1-.74,2.29,7,7,0,0,1-1.18,1.94,5.39,5.39,0,0,1-1.76,1.33,5.32,5.32,0,0,1-2.44.47,6,6,0,0,1-1.46-.23,6.56,6.56,0,0,1-1.52-.62,4.44,4.44,0,0,1-1.2-1,2,2,0,0,1-.47-1.33,1.53,1.53,0,0,1,.41-1,1.27,1.27,0,0,1,1-.46,1.85,1.85,0,0,1,.74.15,7.13,7.13,0,0,1,.7.31c.23.12.46.22.67.31a1.59,1.59,0,0,0,.67.15,2.47,2.47,0,0,0,1.51-.42,3.37,3.37,0,0,0,1-1.13,6.13,6.13,0,0,0,.57-1.5,11.88,11.88,0,0,0,.28-1.53,2.53,2.53,0,0,1-1.14.74,4.64,4.64,0,0,1-1.35.19,4.86,4.86,0,0,1-2.17-.49,3.83,3.83,0,0,1-1.44-1.26,5.64,5.64,0,0,1-.8-1.85,9.51,9.51,0,0,1-.23-2.26,10.15,10.15,0,0,1,.19-1.69,13.81,13.81,0,0,1,.5-1.91,14.26,14.26,0,0,1,.82-1.88,7.74,7.74,0,0,1,1.14-1.61,5.29,5.29,0,0,1,1.43-1.12,3.59,3.59,0,0,1,1.75-.41,2.7,2.7,0,0,1,1.63.56,2.13,2.13,0,0,1,.81,1.52,4.87,4.87,0,0,1,.72-1,1.35,1.35,0,0,1,1.08-.48.67.67,0,0,1,.56.35,2.62,2.62,0,0,1,.35.89,9.57,9.57,0,0,1,.19,1.19c0,.43.06.85.07,1.26s0,.79,0,1.13S192.12,177.24,192.12,177.41Zm-3.72,1.51a5.39,5.39,0,0,0-.09-.95,6.83,6.83,0,0,0-.3-1.12,3.19,3.19,0,0,0-.51-.93.92.92,0,0,0-.74-.4,1.42,1.42,0,0,0-1,.37,3.49,3.49,0,0,0-.73.92,5.32,5.32,0,0,0-.47,1.16,4.78,4.78,0,0,0-.18,1.06c0,.21,0,.49,0,.85a4.64,4.64,0,0,0,.19,1,2.81,2.81,0,0,0,.41.89.84.84,0,0,0,.69.37,2,2,0,0,0,1.15-.3,2.8,2.8,0,0,0,.83-.78,4,4,0,0,0,.51-1.06A3.81,3.81,0,0,0,188.4,178.92Z" fill="#f7c852"/>
            <path d="M204.74,181.57a2.89,2.89,0,0,1-.55,1.61,6,6,0,0,1-1.33,1.38,7.1,7.1,0,0,1-1.71,1,4.14,4.14,0,0,1-3.94-.33,6,6,0,0,1-1.66-1.67,7.75,7.75,0,0,1-1-2.21,8.13,8.13,0,0,1-.31-2.35,10.82,10.82,0,0,1,.38-2.59,9.36,9.36,0,0,1,1.07-2.53,6.68,6.68,0,0,1,1.78-1.92,4.13,4.13,0,0,1,2.53-.73,4.61,4.61,0,0,1,1.57.3,4.2,4.2,0,0,1,1.3.81,4,4,0,0,1,.87,1.23,3.59,3.59,0,0,1,.32,1.59,4.78,4.78,0,0,1-.52,2.12,5.85,5.85,0,0,1-1.32,1.71,6.73,6.73,0,0,1-1.86,1.14,6,6,0,0,1-2.14.47,1.33,1.33,0,0,0,.55,1,2,2,0,0,0,1.12.34,2,2,0,0,0,.95-.23,9.34,9.34,0,0,0,.91-.53,10.13,10.13,0,0,1,.87-.53,1.65,1.65,0,0,1,.87-.23,1.27,1.27,0,0,1,.86.33A1,1,0,0,1,204.74,181.57Zm-3.83-6a1.52,1.52,0,0,0-.16-.66.57.57,0,0,0-.53-.35,1.51,1.51,0,0,0-.91.27,2.26,2.26,0,0,0-.61.69,3.61,3.61,0,0,0-.39.9,4.09,4.09,0,0,0-.18.9c.23,0,.5-.1.82-.18a5,5,0,0,0,.9-.31,2.86,2.86,0,0,0,.74-.51A1.11,1.11,0,0,0,200.91,175.56Z" fill="#f7c852"/>
          </g>
          <path d="M202,264.1h0l-166-5a1.51,1.51,0,0,1-1.46-1.55A1.49,1.49,0,0,1,36,256.1l166,5a1.48,1.48,0,0,1,1.45,1.54A1.5,1.5,0,0,1,202,264.1Z" fill="#fff"/>
          <path d="M202,325.1h0l-166-5a1.51,1.51,0,0,1-1.46-1.55A1.48,1.48,0,0,1,36,317.1l166,5a1.48,1.48,0,0,1,1.45,1.54A1.5,1.5,0,0,1,202,325.1Z" fill="#fff"/>
          <g>
            <g>
              <path d="M82.48,351.08c0-10.7-10.72-18-24-18-15.07,0-24,7.33-24,18,0,8.06,5.17,13.9,13.37,16.3a19,19,0,0,0,19.53-.3C76,364.51,82.48,358.82,82.48,351.08Z" fill="#f0904e"/>
              <path d="M58.41,337.32s-2.84-3.55-10.64-1.42c0,0-2.71,4.68,6.44,5.76,0,0-4.15,3.95.32,8a1.59,1.59,0,0,0,1.68.27c2.5-1,9-4.16,4.32-7.64a8.8,8.8,0,0,0,7.8,2.84s2.13-4.26-5-5c0,0,6.46-1.18,4.31-4.41C67.68,335.74,62,333.07,58.41,337.32Z" fill="#485349"/>
              <ellipse cx="58.79" cy="340.85" rx="1.35" ry="0.81" fill="#7d857e"/>
              <path d="M60.68,339.47a.5.5,0,0,1-.28-.92,6.84,6.84,0,0,1,3.51-1.16.5.5,0,0,1,0,1,6,6,0,0,0-3,1A.46.46,0,0,1,60.68,339.47Z" fill="#7d857e"/>
              <path d="M55.56,340.28h-.08c-.35-.06-3.42-.6-4.58-1.76a.48.48,0,0,1,0-.7.5.5,0,0,1,.71,0c.79.79,3.18,1.33,4,1.47a.5.5,0,0,1-.08,1Z" fill="#7d857e"/>
              <path d="M56.64,339.2a.52.52,0,0,1-.35-.14,5.69,5.69,0,0,0-2-1,.5.5,0,0,1-.32-.64.5.5,0,0,1,.63-.31,6.08,6.08,0,0,1,2.35,1.2.5.5,0,0,1-.35.85Z" fill="#7d857e"/>
              <path d="M60.41,345.66a.59.59,0,0,1-.23-.05.51.51,0,0,1-.22-.67c.33-.67-.27-1.84-.51-2.2a.5.5,0,1,1,.83-.55c.13.19,1.22,1.9.57,3.19A.48.48,0,0,1,60.41,345.66Z" fill="#7d857e"/>
              <path d="M56.64,347.81a.5.5,0,0,1-.5-.5,8.24,8.24,0,0,1,2.3-5.2.5.5,0,0,1,.71.71,7.34,7.34,0,0,0-2,4.49A.5.5,0,0,1,56.64,347.81Z" fill="#7d857e"/>
              <path d="M55,345.66a.5.5,0,0,1-.5-.5c0-1.26,2-2.8,2.36-3.09a.5.5,0,0,1,.7.1.51.51,0,0,1-.1.7c-.79.59-2,1.73-2,2.29A.5.5,0,0,1,55,345.66Z" fill="#7d857e"/>
              <path d="M66.33,343a.51.51,0,0,1-.5-.45,3.84,3.84,0,0,0-3.45-.91.49.49,0,0,1-.58-.4.5.5,0,0,1,.4-.58,5.18,5.18,0,0,1,4.07.9,1.3,1.3,0,0,1,.56.94A.5.5,0,0,1,66.33,343Z" fill="#7d857e"/>
            </g>
            <path d="M38,350.16s-1.87,10.43,8.5,14.51l.88-1.43s-7.5-4.88-7.72-13.08Z" fill="#ff8"/>
            <circle cx="38.74" cy="347.65" r="1.11" fill="#ff8"/>
          </g>
        </g>
        <g opacity="0.67">
          <path d="M132.1,201.27c-11.9,1-26.51,1-38.41,3-14.24,2.43-29.6,4.91-43.43,8.4-.11-.45.89-1.39-.33-1.33-4.76.62-5-.26-5.26-1.13-.12-.44,3.49-1,2.21-1.08l2.87-.82c1-.26,1.94-.52,2.66-.74,1.45-.45,2-.75.18-.56a15.61,15.61,0,0,0-3.61.56,10.33,10.33,0,0,1-3.62.56c-1.35-.33.83-1.64-.53-2l-4.73,1.31c-1.31-.11.81-1.64-.38-1.31a23.75,23.75,0,0,0-2.94.61c-1,.3-2.1.64-3.2,1l-6.88,2.37c-.14-.41-1.5-.45.78-1.46L35.23,206c.65-.22,1.29-.47,1.94-.67l2-.57,3.94-1.14,4-1.14c1.31-.4,2.65-.66,4-1l8-1.92c10.7-2.24,21.51-4.09,32.37-5.39a415.52,415.52,0,0,1,65.11-2.63c5.05.41,1.15,1.15-2.52,1.75,1.24-.2,1.22.48,2.46.29,0,.68-2.51,1.72-7.39,1.91l3.66,0c1.22.26,0,.69,0,1.14-1.22,0-2.43,0-2.44.19s0,.68,0,.91l4.85.08c-1.21,0-2.42,0-2.43.18s0,.68,0,.91c-2.42.18-6.05-.31-8.47-.07v.68c2.42.22,6,0,8.45.07-1.21.2-1.21.43-1.22.88-3.61.18-7.23-.51-10.85.21l3.62,0c-1.21.58-3.31.63-5.57.6S133.91,201.13,132.1,201.27Z" fill="#f7c852"/>
        </g>
        <g>
          <polygon points="69.5 265.55 83.84 280.58 78.98 283.57 62.56 270.16 69.5 265.55" fill="#f7c852"/>
          <polygon points="62.74 270.24 81.59 281.96 78.82 283.74 62.74 270.24" fill="#f7ae35"/>
          <g>
            <path d="M62.34,281.44a5.62,5.62,0,0,0,.64-5.16c-.62-1.6-2.06-3-5.34-2.24-6.55,1.53-15,15.7-24.86,13.88l-2.7,1.17s4,4.72,9,5.16C43.77,294.67,56.14,290.67,62.34,281.44Z" fill="#f7c852"/>
            <polygon points="33.62 288.04 32.63 287.92 30.08 289.11 30.98 290.02 33.6 289.25 33.62 288.04" fill="#534741"/>
            <path d="M33.6,289.25l-2.49.8s5,5.63,12.43,3.74C43.54,293.79,35.89,292.36,33.6,289.25Z" fill="#f7ae35"/>
          </g>
          <g>
            <path d="M69.37,286.11a7,7,0,0,0,.81-6.45c-.78-2-2.58-3.75-6.67-2.8-8.18,1.91-18.78,19.62-31.06,17.34l-3.38,1.46s5,5.89,11.25,6.45C46.18,302.64,61.63,297.64,69.37,286.11Z" fill="#f7c852"/>
            <polygon points="33.24 294.29 32.07 294.16 29.07 295.66 30.44 297.05 33.37 295.92 33.24 294.29" fill="#534741"/>
            <path d="M33.37,295.92s2.11,1.4,9.64,1.48c11,.11,27.14-17.55,27.14-17.55S74,284.53,61.76,294s-24.23,10.81-31.32,3Z" fill="#f7ae35"/>
          </g>
          <g>
            <path d="M76.28,295.05a7,7,0,0,0,.81-6.44c-.78-2-2.58-3.75-6.67-2.8-8.18,1.91-18.78,19.61-31.05,17.34L36,304.61s5,5.89,11.24,6.45C53.09,311.59,68.54,306.58,76.28,295.05Z" fill="#f7c852"/>
            <polygon points="40.16 303.24 38.99 303.1 35.99 304.61 37.35 306 40.29 304.87 40.16 303.24" fill="#534741"/>
            <path d="M40.29,304.87s2.1,1.4,9.63,1.47c11,.11,27.14-17.54,27.14-17.54s3.81,4.68-8.38,14.18-24.23,10.81-31.33,3Z" fill="#f7ae35"/>
          </g>
          <path d="M50.29,293.61s3.88-3.33,4.34-2.7S51.85,294.41,50.29,293.61Z" fill="#534741"/>
          <path d="M56.24,303.76s2.72-2.35,3-1.9S57.33,304.32,56.24,303.76Z" fill="#534741"/>
          <path d="M56,307.64s1.61-1.57,1.79-1.28S56.67,308,56,307.64Z" fill="#534741"/>
          <path d="M59.09,305.75s1.22-1.19,1.36-1S59.57,306,59.09,305.75Z" fill="#534741"/>
          <path d="M67,300.65s1.22-1.2,1.36-1S67.45,300.92,67,300.65Z" fill="#534741"/>
          <path d="M52.13,284.18s1.22-1.2,1.36-1S52.61,284.44,52.13,284.18Z" fill="#534741"/>
          <path d="M39.34,291.74s1.62-.51,1.65-.26S39.64,292.19,39.34,291.74Z" fill="#534741"/>
          <path d="M47.32,298.42s3.26-1.52,3.45-1S48.22,299.26,47.32,298.42Z" fill="#534741"/>
          <path d="M41.88,299.59a1.09,1.09,0,0,1,1.55.24C44.08,300.72,41.71,300.75,41.88,299.59Z" fill="#534741"/>
          <path d="M48.41,308.48a1.09,1.09,0,0,1,1.55.24C50.61,309.6,48.24,309.64,48.41,308.48Z" fill="#534741"/>
        </g>
        <path d="M131.28,117.8a.44.44,0,0,1-.48.52,1.22,1.22,0,0,1-.56-.2,9.31,9.31,0,0,1-1-.65,1.36,1.36,0,0,1,.24.85l.05,2a1.23,1.23,0,0,1-.24.91,1,1,0,0,1-.86.27l-4.77.13c-.82.08-1.2-.3-1.17-1.12l0-2a1.6,1.6,0,0,1,.09-.66,6.71,6.71,0,0,1-.85.71,1.19,1.19,0,0,1-.63.23q-.43,0-.45-.48c0-.16.19-.36.56-.6a9.67,9.67,0,0,0,1.76-1.4l-1.74.05q-.47,0-.48-.39c0-.28.15-.42.46-.43l2.44-.07a8.91,8.91,0,0,0,.58-1l-2.18.06c-.3,0-.45-.12-.46-.39s.14-.39.44-.4l2.55-.07.26-.72-3.41.1c-.3,0-.46-.13-.46-.4s.14-.42.44-.42l3.63-.11,0-.21c.06-.41.23-.63.51-.63s.5.11.5.36l0,.23-.06.23,4.25-.12c.31,0,.47.12.48.4s-.14.41-.46.42l-4.46.12-.25.73,4.17-.12q.43,0,.45.39c0,.25-.14.39-.43.39l-2.16.06a6.36,6.36,0,0,0,.61.94l2.44-.07c.3,0,.46.12.46.4s-.14.41-.44.42l-1.72,0a6.7,6.7,0,0,0,1.93,1.14C131.11,117.42,131.28,117.59,131.28,117.8Zm-2.34-.55h0a7.24,7.24,0,0,1-1.19-1l-3.76.1c-.25.28-.59.64-1,1.09a1.8,1.8,0,0,1,.62-.11l4.62-.13A1.39,1.39,0,0,1,128.94,117.25Zm-.37,1c0-.23-.13-.35-.38-.36l-4.48.12a.33.33,0,0,0-.36.39l0,.64,5.22-.14Zm0,1.37-5.22.15,0,.67c0,.29.16.43.45.44l4.33-.12a.41.41,0,0,0,.44-.47Zm-4-4.16,2.56-.08a9.94,9.94,0,0,1-.53-.93l-1.49,0A10.15,10.15,0,0,1,124.62,115.46Z" fill="#007453"/>
        <path d="M81.38,114.23c0,.35-.14.52-.46.53l-.47,0-.68-.07a17.8,17.8,0,0,1-3.59-.75,15.84,15.84,0,0,1-2.55.78,13.27,13.27,0,0,1-2.47.39.45.45,0,0,1-.35-.1.49.49,0,0,1-.11-.35.37.37,0,0,1,.19-.35,1.69,1.69,0,0,1,.64-.16,14.75,14.75,0,0,0,3.6-.69,7.92,7.92,0,0,1-1.64-1.39,5.32,5.32,0,0,1-2.14,1.15c-.26,0-.39-.14-.4-.46a.43.43,0,0,1,.33-.43A8,8,0,0,0,74,110.6l-1.19,0a1,1,0,0,1-.72-.19.84.84,0,0,1-.2-.69l-.07-2.62a1,1,0,0,1,.19-.72.87.87,0,0,1,.67-.2l2,0,.23-.6-4,.11c-.3,0-.45-.12-.45-.38s.13-.39.43-.4l9.64-.27c.31,0,.46.11.47.37s-.14.41-.45.41l-4.6.13-.32.6L79,106a1,1,0,0,1,.71.18.8.8,0,0,1,.2.68l.07,2.62a1.05,1.05,0,0,1-.18.73.8.8,0,0,1-.68.2l-4,.11-.49.54L79,111c.46,0,.69.14.7.45s-.23.47-.71.86a9.46,9.46,0,0,1-1.63,1.09,14.24,14.24,0,0,0,3.25.4C81.1,113.78,81.37,113.94,81.38,114.23Zm-8.67-7v.21l6.26-.17v-.21c0-.23-.12-.34-.34-.32l-5.6.16C72.8,106.91,72.69,107,72.71,107.24ZM79,108l-6.26.17,0,.55L79,108.5Zm-5.88,2,5.6-.16a.29.29,0,0,0,.32-.34v-.27l-6.26.18v.27A.29.29,0,0,0,73.11,109.92ZM76.19,113a12.62,12.62,0,0,0,1.22-.65q.69-.4.69-.54c0-.07-.06-.1-.17-.1l-3.67.1A6,6,0,0,0,76.14,113l0,0Z" fill="#007453"/>
        <path d="M107.51,98.61l-.13-4.72c-.47,1.76-.92,2.65-1.37,2.66a.3.3,0,0,1-.29-.12.71.71,0,0,1-.11-.4,1.25,1.25,0,0,1,.28-.62,10.42,10.42,0,0,0,1.35-3.13l-1.11,0c-.37,0-.56-.14-.56-.43s.17-.45.53-.46l1.21,0,0-1.6-1.3.16a.38.38,0,0,1-.34-.09.56.56,0,0,1-.12-.35.41.41,0,0,1,.19-.37,3.62,3.62,0,0,1,.68-.12l.28,0a15.73,15.73,0,0,0,2.15-.43l.23,0a.45.45,0,0,1,.53.49c0,.26-.46.48-1.38.65h0l0,1.71.9,0c.37,0,.56.14.57.43s-.17.45-.54.46l-.9,0,0,1.52a.41.41,0,0,1,.35-.17c.16,0,.43.21.8.64a2.5,2.5,0,0,1,.56.84c0,.3-.14.45-.45.46a.49.49,0,0,1-.41-.29l-.84-1.12.13,4.46c0,.32-.14.49-.45.5S107.52,98.94,107.51,98.61Zm1.83,0a.64.64,0,0,1-.15-.35c0-.16.11-.31.34-.45a4.68,4.68,0,0,0,2.27-2.63,17.53,17.53,0,0,0,.44-5.29l0-.89a.84.84,0,0,1,.09-.49.43.43,0,0,1,.34-.16.4.4,0,0,1,.35.15.86.86,0,0,1,.12.47l0,1.13A25.16,25.16,0,0,1,113.1,93a6.69,6.69,0,0,0,2.83,4.41.78.78,0,0,1,.42.57.71.71,0,0,1-.12.45.54.54,0,0,1-.39.15q-.48,0-1.41-1.08a9.51,9.51,0,0,1-1.53-2.7h-.05a7.43,7.43,0,0,1-.75,2,4.52,4.52,0,0,1-1.27,1.43,2.72,2.72,0,0,1-1.14.63A.43.43,0,0,1,109.34,98.63Zm.4-4.91a.88.88,0,0,1,.07-.31,9.09,9.09,0,0,0,.43-2.16c0-.35.18-.53.46-.54s.46.13.47.4l-.09.91-.33,1.6c-.07.34-.24.51-.51.52S109.75,94,109.74,93.72Zm4.47-.35a3,3,0,0,1,.24-.76,7.55,7.55,0,0,0,.4-1.43c.09-.37.27-.56.54-.56a.42.42,0,0,1,.34.09.45.45,0,0,1,.12.32,7.19,7.19,0,0,1-.38,1.5c-.26.8-.51,1.21-.74,1.21S114.22,93.63,114.21,93.37Z" fill="#007453"/>
        <path d="M154.58,109a.66.66,0,0,1,.12-.38.73.73,0,0,1,.29-.15c.15-.06.4-.13.76-.23a13.17,13.17,0,0,0,1.74-.61,14.8,14.8,0,0,0,1.6-.84,7.33,7.33,0,0,1-1.68-2,8.34,8.34,0,0,1-1.23,1.22,2.9,2.9,0,0,1-1.07.69c-.3,0-.45-.16-.46-.49,0-.17.2-.42.63-.72a8.68,8.68,0,0,0,2.3-2.41c.31-.5.58-.75.83-.75s.51.09.52.31a2,2,0,0,1-.47.81l4-.11c.61,0,.92.16.93.52s-.28.65-.88,1.27a15.76,15.76,0,0,1-1.82,1.65,11.39,11.39,0,0,0,4,1.26c.38,0,.57.21.58.52a.51.51,0,0,1-.57.59,7,7,0,0,1-2.22-.53,11.26,11.26,0,0,1-2.6-1.22,16.2,16.2,0,0,1-2.72,1.44,8.6,8.6,0,0,1-2.08.71C154.77,109.58,154.59,109.4,154.58,109Zm2.24,2.75c-.38,0-.57-.18-.58-.45s.19-.5.59-.51l3.29.41c.89.12,1.62.24,2.21.35a8.24,8.24,0,0,1,1.21.31,1,1,0,0,1,.31.19.45.45,0,0,1,.1.28c0,.32-.15.48-.48.49l-.49-.08A45.45,45.45,0,0,0,156.82,111.79Zm4.25-1.55a23.55,23.55,0,0,0-2.41-.64,1.21,1.21,0,0,1-.47-.16.32.32,0,0,1-.16-.26.43.43,0,0,1,.48-.47,8.21,8.21,0,0,1,1.68.33c.95.24,1.55.4,1.79.5s.42.26.43.45a.44.44,0,0,1-.47.51A7.59,7.59,0,0,1,161.07,110.24Zm.31-5.19c.42-.39.62-.63.62-.72s-.05,0-.15,0l-3.68.1a7.35,7.35,0,0,0,1.75,1.89A13.3,13.3,0,0,0,161.38,105.05Z" fill="#007453"/>
        <g>
          <path d="M39.8,86.39l0-1.13a1,1,0,0,1,.22-.77,1,1,0,0,1,.77-.23l3.56-.1,0-1.39c0-.32.15-.49.49-.5a.43.43,0,0,1,.5.47l0,1.39L49,84a1.13,1.13,0,0,1,.8.21A.84.84,0,0,1,50,85l0,1.13c0,.37-.15.57-.48.58s-.49-.18-.5-.55l0-.86c0-.27-.16-.41-.46-.42l-7.44.21a.4.4,0,0,0-.43.44l0,.86c0,.37-.14.57-.46.58S39.81,86.76,39.8,86.39Zm4.77,6L44.5,90l-2.4.07a.41.41,0,0,0-.43.47l0,1.61c0,.38-.14.57-.45.58s-.49-.17-.5-.56l0-1.78a1.18,1.18,0,0,1,.24-.86,1.07,1.07,0,0,1,.83-.27l2.7-.07,0-.83-1.73.05a1,1,0,0,1-.7-.2.93.93,0,0,1-.22-.7l0-.84a1,1,0,0,1,.2-.73.82.82,0,0,1,.66-.21l4.49-.12a.93.93,0,0,1,.7.19.91.91,0,0,1,.22.69l0,.85a1,1,0,0,1-.19.73.87.87,0,0,1-.67.22l-1.81,0,0,.82,2.88-.08a1.24,1.24,0,0,1,.88.24,1,1,0,0,1,.25.83l0,1.11c.09.87-.31,1.28-1.2,1.24l-.77,0q-.53,0-.54-.45c0-.32.16-.49.51-.5h.63c.26,0,.4-.16.41-.45l0-.76A.4.4,0,0,0,48,89.9L45.45,90l.07,2.45c0,.38-.14.57-.46.58S44.58,92.83,44.57,92.44Zm-2.67-8.5a1.79,1.79,0,0,1-.3-.31,2.1,2.1,0,0,1-.38-.64c0-.27.16-.41.52-.42.2,0,.41.14.63.44a1.66,1.66,0,0,1,.35.61c0,.27-.17.4-.53.41A.38.38,0,0,1,41.9,83.94Zm5.25,3.24v-.49c0-.21-.12-.31-.35-.32l-3.76.1a.3.3,0,0,0-.33.34v.49a.32.32,0,0,0,.35.33l3.76-.1A.32.32,0,0,0,47.15,87.18Zm-.24-3.66a1.84,1.84,0,0,1,.29-.61c.2-.35.4-.53.6-.53s.51.11.52.38a.75.75,0,0,1-.13.36l-.15.25c-.21.35-.41.53-.62.54S46.92,83.79,46.91,83.52Z" fill="#007453"/>
          <path d="M50.79,104.15c0,.32-.17.48-.56.49l-3.78.1,0,2c0,.4-.15.6-.48.61s-.51-.18-.52-.58l-.06-2-4.92.14c-.37,0-.55-.14-.56-.45s.17-.46.54-.47l1.24,0-.06-2a1.21,1.21,0,0,1,.23-1,1.13,1.13,0,0,1,.93-.29l2.48-.07,0-1.74L42.22,99a10.61,10.61,0,0,1-1.06,1.65c-.31.38-.56.57-.74.57s-.49-.13-.5-.44a1.68,1.68,0,0,1,.42-.71,11.71,11.71,0,0,0,1.6-2.77c.12-.3.3-.45.53-.46s.5.13.51.41a2.52,2.52,0,0,1-.28.82l6.85-.2a.66.66,0,0,1,.42.11.39.39,0,0,1,.15.33.41.41,0,0,1-.13.35.66.66,0,0,1-.42.14l-3.29.09,0,1.75,2.93-.09a.53.53,0,0,1,.34.11.46.46,0,0,1,.13.34.49.49,0,0,1-.11.35.44.44,0,0,1-.33.13l-2.93.08.06,2.31,3.79-.11C50.59,103.7,50.78,103.85,50.79,104.15Zm-5.37-.3-.07-2.31-2.2.06a.42.42,0,0,0-.46.48l.05,1.84Z" fill="#007453"/>
        </g>
      </g>
      <g>
        <path d="M306.45,125.39c-4.38-6-9.65-12.32-16.28-15.94-8.8-4.8-14.41-5.11-17.24-4.75a14.34,14.34,0,0,0-2.28-.43c-8.58-.9-22-1.66-34.66.29-8.49-3-36.72-11.48-55.71.94-15.64,8.89,13.08,15.49,13.1,15.49-.48-.11.84-2.42,1-2.56,2-2.2,5.95-1.41,8.43-.83a50.25,50.25,0,0,1,9.64,3.63c2.46,1.16,2.86,1.45,3.66,4q1.05,3.25,2.2,6.48a154.59,154.59,0,0,0,22.84,42.27L285,155.12s.49-5.43.51-13.13c.68,1,1.37,2,2.07,3A116.18,116.18,0,0,0,294.78,155c1.69,1.94,4.15,5,6.94,5.25,5.38.55,10.11-.54,13.33-5.27a12.91,12.91,0,0,0,2.19-5.47C318.39,141,311.14,131.81,306.45,125.39Z" fill="#007453"/>
        <g>
          <g>
            <path d="M408,246.71s-13,19-36.33,41.16c-29.12-57.73-96.57-128.5-96.57-128.5l9.91-4.25S350,196.56,408,246.71Z" fill="#ff7c74"/>
            <path d="M371.62,287.87A299.87,299.87,0,0,1,343,311.82c-27.61-59-75.89-149-75.89-149l7.91-3.4S342.5,230.14,371.62,287.87Z" fill="#f7c852"/>
            <path d="M267.14,162.77s48.28,90,75.89,149c-17.23,12.66-37.52,24.51-60.39,32.63h0C277.62,251.85,259.7,166,259.7,166Z" fill="#ff7c74"/>
            <path d="M282.64,344.45h0a189.91,189.91,0,0,1-32.79,8.5c-9.93-64.33.65-183,.65-183l9.2-3.95S277.62,251.85,282.64,344.45Z" fill="#f7c852"/>
            <path d="M241.11,173.94l9.39-4s-10.58,118.71-.65,183a177.93,177.93,0,0,1-28.79,2.36S220,195.59,241.11,173.94Z" fill="#ff7c74"/>
          </g>
          <g>
            <path d="M249.35,353c-5.13-33.27-4.68-81.3-3.4-115.73,1.39-37.3,4-67.12,4.06-67.42l1,.09c0,.29-2.66,30.1-4.05,67.37-1.28,34.39-1.73,82.35,3.39,115.54Z" fill="#005b48"/>
            <path d="M282.14,344.47c-5-91.5-22.75-177.54-22.93-178.4l1-.21c.18.86,18,87,22.95,178.56Z" fill="#005b48"/>
            <path d="M342.58,312c-27.29-58.35-75.4-148.12-75.88-149l.88-.48c.48.9,48.6,90.7,75.91,149.08Z" fill="#005b48"/>
            <path d="M371.17,288.1c-15-29.78-40.45-63.1-59.13-85.81-20.26-24.61-37.18-42.4-37.35-42.58l.73-.69c.16.18,17.1,18,37.38,42.63,18.72,22.75,44.2,56.13,59.27,86Z" fill="#005b48"/>
          </g>
        </g>
        <g>
          <g>
            <path d="M290.6,397.77h-9.2c-2.36-4.52-5-10.17-7.66-16l.06,0c.81-.27,1.22,1,2,.69s.41-1.5,1.23-1.77,1.22.95,2,.69.42-1.49,1.23-1.77,1.22,1,2,.69.42-1.49,1.23-1.75,1.21.92,2,.68C288.4,389.35,290.6,397.77,290.6,397.77Z" fill="#007453"/>
            <path d="M285.42,378.62l.17.61c-.79.24-1.19-1-2-.68s-.41,1.48-1.23,1.75-1.21-.95-2-.69-.41,1.5-1.23,1.77-1.22-1-2-.69-.41,1.49-1.23,1.77-1.23-1-2-.69l-.06,0c-6.78-15-13.25-30.92-13.25-30.92,5.53-1.16,15.05-4.05,15.05-4.05C277.87,352.17,282.05,366.51,285.42,378.62Z" fill="#ffdbb3"/>
          </g>
          <g>
            <path d="M291.24,398.27H281.1L281,398c-2.12-4.05-4.7-9.43-7.68-16-6.7-14.8-13.19-30.78-13.25-30.94l-.23-.55.59-.13c5.44-1.14,14.91-4,15-4l.42-.12.18.4c2.4,5.53,6.71,20.38,9.9,31.86l.17.62c2.78,10,5,18.46,5,18.54Zm-9.53-1H290c-.56-2.14-2.5-9.47-4.84-17.9l-.17-.62c-3.11-11.18-7.27-25.55-9.68-31.32-1.85.55-9.23,2.74-14.08,3.81,1.2,2.94,7,17.11,13,30.35C277.1,388,279.62,393.27,281.71,397.27Z" fill="#a0a0a0"/>
            <path d="M275.61,383a1.79,1.79,0,0,1-1.1-.49c-.3-.24-.42-.3-.56-.26l-.31-.95a1.54,1.54,0,0,1,1.49.43c.31.24.42.3.55.26s.19-.17.29-.54a1.53,1.53,0,0,1,.94-1.22,1.49,1.49,0,0,1,1.48.42c.31.24.43.31.56.26s.18-.16.28-.54a1.56,1.56,0,0,1,.94-1.22,1.51,1.51,0,0,1,1.48.43c.31.24.43.3.56.26s.18-.17.28-.54a1.54,1.54,0,0,1,.94-1.22,1.56,1.56,0,0,1,1.49.42c.29.23.4.3.53.27l.17,0v.5l.15.47h0a1.49,1.49,0,0,1-1.43-.43c-.31-.24-.42-.31-.55-.26s-.19.16-.29.54a1.37,1.37,0,0,1-2.43.79c-.3-.24-.42-.3-.55-.26s-.18.17-.28.54a1.37,1.37,0,0,1-2.42.8c-.31-.24-.42-.31-.55-.26s-.19.16-.29.54a1.54,1.54,0,0,1-.94,1.22A1.43,1.43,0,0,1,275.61,383Z" fill="#a0a0a0"/>
          </g>
        </g>
        <g>
          <g>
            <path d="M294.11,405.27c.45,1.34.61,2.39.16,2.65-8.6,5-22.11,5.09-29.16,4.73a1.64,1.64,0,0,1-1.55-1.7c23.9,2.6,30.54-5.68,30.54-5.68Z" fill="#007453"/>
            <path d="M294.11,405.27h0s-6.64,8.28-30.54,5.68a1.61,1.61,0,0,1,.71-1.3l17.13-11.88h9.2A59.71,59.71,0,0,1,294.11,405.27Z" fill="#f7c852"/>
          </g>
          <g>
            <path d="M270.07,413.27c-1.85,0-3.54,0-5-.13a2.14,2.14,0,0,1-2-2.2h0a2.16,2.16,0,0,1,.92-1.7l17.27-12h9.64l.14.25a59.64,59.64,0,0,1,3.55,7.59c.42,1.25.8,2.75-.06,3.25C287.58,412.39,277.53,413.27,270.07,413.27Zm-6-2.31a1.14,1.14,0,0,0,1.08,1.19c7.16.36,20.44.24,28.88-4.66h0s.19-.34-.39-2.06a56,56,0,0,0-3.33-7.16h-8.74l-17,11.79A1.13,1.13,0,0,0,264.06,411Z" fill="#999"/>
            <path d="M272.42,412a81.64,81.64,0,0,1-8.91-.51l.11-1c23.27,2.54,30-5.41,30.09-5.49l.78.62C294.25,405.88,289.15,412,272.42,412Z" fill="#999"/>
          </g>
        </g>
        <g>
          <g>
            <path d="M303.76,335.61s-3.15,12.09-7.55,25.06c-.7-.21-.6-1.36-1.4-1.46s-1,1.17-1.83,1.06-.68-1.38-1.51-1.49-1,1.18-1.84,1.07-.68-1.38-1.51-1.49-1,1.18-1.84,1.07-.68-1.38-1.51-1.49c.73-6.12,1.16-12.63-.09-14.15C284.68,343.79,298.7,338.13,303.76,335.61Z" fill="#ffdbb3"/>
            <path d="M294.81,359.21c.8.1.7,1.25,1.4,1.46-2.8,8.23-6.1,16.82-9.43,22.91L283,369.71s1.05-5.69,1.78-11.77c.83.11.67,1.38,1.51,1.49s1-1.17,1.84-1.07.67,1.39,1.51,1.49,1-1.17,1.84-1.07.67,1.39,1.51,1.49S294,359.1,294.81,359.21Z" fill="#007453"/>
          </g>
          <g>
            <path d="M286.63,384.9l-4.15-15.16,0-.12c0-.05,1.05-5.74,1.78-11.74h0c1.24-10.49.54-13.13,0-13.77l-.43-.53.63-.26c.14-.05,14.06-5.67,19.05-8.15l1-.49-.28,1.06c0,.12-3.2,12.25-7.56,25.09-3.37,9.94-6.56,17.67-9.46,23Zm-3.12-15.21,3.42,12.54a160.88,160.88,0,0,0,8.8-21.72c3.61-10.62,6.4-20.75,7.27-24-5,2.35-15.12,6.49-17.59,7.49.49,1.1,1,4.15-.14,14h0C284.6,363.56,283.66,368.86,283.51,369.69Z" fill="#a0a0a0"/>
            <path d="M296.26,361.19l-.21,0a1.6,1.6,0,0,1-.92-1c-.17-.34-.24-.45-.38-.47s-.23.07-.47.36a1.56,1.56,0,0,1-1.37.71,1.53,1.53,0,0,1-1.14-1c-.17-.34-.24-.45-.37-.47s-.22.07-.47.36a1.35,1.35,0,0,1-2.51-.31c-.16-.34-.24-.45-.37-.47s-.23.07-.47.36a1.36,1.36,0,0,1-2.51-.32c-.16-.34-.23-.45-.36-.46l.13-1a1.51,1.51,0,0,1,1.13,1c.17.35.24.46.37.47s.23-.07.48-.36a1.35,1.35,0,0,1,2.5.32c.17.34.24.45.37.47s.23-.08.48-.37a1.35,1.35,0,0,1,2.5.32c.17.34.24.45.37.47s.23-.07.48-.36a1.49,1.49,0,0,1,1.36-.71,1.54,1.54,0,0,1,1.15,1c.12.25.21.42.32.45Z" fill="#a0a0a0"/>
          </g>
        </g>
        <g>
          <path d="M276.1,386.94l-15.61,10.83s12.25,3,19.22-3.32Z" fill="#f7c852"/>
          <path d="M267.21,399a31,31,0,0,1-6.84-.75l-1.08-.26,17-11.79,4,8.37-.27.25C276.34,398.18,271.27,399,267.21,399Zm-5.47-1.5c3.11.54,11.86,1.51,17.35-3.18l-3.19-6.63Z" fill="#999"/>
        </g>
        <g>
          <path d="M275.42,385.47,258.9,397.08s0,.37,1.59.69l15.61-10.83Z" fill="#005b48"/>
          <path d="M260.6,398.3l-.21,0c-.51-.1-2.09-.4-2-1.24l0-.22,17.19-12.08,1.11,2.39Zm-.83-1.22a4.93,4.93,0,0,0,.61.15l15.09-10.46-.25-.55Z" fill="#a0a0a0"/>
        </g>
        <path d="M205,111.1a.48.48,0,0,1-.33-.13A26.66,26.66,0,0,0,186,104.09a.48.48,0,0,1-.54-.44.5.5,0,0,1,.44-.55,27.13,27.13,0,0,1,19.38,7.12.51.51,0,0,1,.05.71A.52.52,0,0,1,205,111.1Z" fill="#f7c852"/>
        <g>
          <g>
            <path d="M252.75,135.84a.52.52,0,0,1-.21,0,.5.5,0,0,1-.25-.66l2.59-5.82a.51.51,0,0,1,.67-.25.5.5,0,0,1,.25.66l-2.6,5.82A.49.49,0,0,1,252.75,135.84Z" fill="#f7c852"/>
            <path d="M257,134.23a.45.45,0,0,1-.2,0l-5.82-2.59a.51.51,0,0,1-.25-.67.5.5,0,0,1,.66-.25l5.82,2.6a.5.5,0,0,1,.25.66A.51.51,0,0,1,257,134.23Z" fill="#f7c852"/>
          </g>
          <g>
            <path d="M241.52,131.71a.54.54,0,0,1-.21-.05.5.5,0,0,1-.25-.66l2.59-5.82a.51.51,0,0,1,.67-.25.51.51,0,0,1,.25.66l-2.6,5.82A.49.49,0,0,1,241.52,131.71Z" fill="#f7c852"/>
            <path d="M245.72,130.1a.46.46,0,0,1-.2,0l-5.82-2.59a.51.51,0,0,1-.25-.66.5.5,0,0,1,.66-.26l5.82,2.6a.5.5,0,0,1,.25.66A.52.52,0,0,1,245.72,130.1Z" fill="#f7c852"/>
          </g>
          <g>
            <path d="M249.93,128.48a.52.52,0,0,1-.21,0,.5.5,0,0,1-.25-.66l2.59-5.82a.51.51,0,0,1,.67-.25.5.5,0,0,1,.25.66l-2.59,5.82A.52.52,0,0,1,249.93,128.48Z" fill="#f7c852"/>
            <path d="M254.13,126.87a.48.48,0,0,1-.2,0l-5.82-2.59a.51.51,0,0,1-.25-.67.5.5,0,0,1,.66-.25l5.82,2.6a.5.5,0,0,1,.25.66A.51.51,0,0,1,254.13,126.87Z" fill="#f7c852"/>
          </g>
          <g>
            <path d="M247.56,147.48a.54.54,0,0,1-.21,0,.5.5,0,0,1-.25-.66l2.6-5.81a.49.49,0,0,1,.66-.26.51.51,0,0,1,.25.66l-2.6,5.82A.49.49,0,0,1,247.56,147.48Z" fill="#f7c852"/>
            <path d="M251.76,145.86a.48.48,0,0,1-.2,0l-5.82-2.59a.51.51,0,0,1-.25-.66.5.5,0,0,1,.66-.26l5.82,2.6a.5.5,0,0,1-.21,1Z" fill="#f7c852"/>
          </g>
          <g>
            <path d="M240.2,150.3a.54.54,0,0,1-.21-.05.5.5,0,0,1-.25-.66l2.6-5.82a.5.5,0,0,1,.91.41L240.66,150A.53.53,0,0,1,240.2,150.3Z" fill="#f7c852"/>
            <path d="M244.4,148.68a.51.51,0,0,1-.2,0l-5.82-2.59a.51.51,0,0,1-.25-.66.5.5,0,0,1,.66-.26l5.82,2.6a.5.5,0,0,1,.25.66A.5.5,0,0,1,244.4,148.68Z" fill="#f7c852"/>
          </g>
          <g>
            <path d="M259.19,152.66a.45.45,0,0,1-.2,0,.5.5,0,0,1-.26-.66l2.6-5.82a.5.5,0,1,1,.91.41l-2.59,5.82A.52.52,0,0,1,259.19,152.66Z" fill="#f7c852"/>
            <path d="M263.4,151.05a.52.52,0,0,1-.21,0l-5.81-2.59a.5.5,0,0,1,.4-.92l5.82,2.6a.5.5,0,0,1-.2,1Z" fill="#f7c852"/>
          </g>
          <g>
            <path d="M256,144.25a.52.52,0,0,1-.21,0,.5.5,0,0,1-.25-.66l2.6-5.82a.5.5,0,0,1,.91.41L256.43,144A.52.52,0,0,1,256,144.25Z" fill="#f7c852"/>
            <path d="M260.17,142.64a.51.51,0,0,1-.2,0L254.15,140a.51.51,0,0,1-.25-.67.5.5,0,0,1,.66-.25l5.82,2.6a.5.5,0,0,1-.21.95Z" fill="#f7c852"/>
          </g>
          <g>
            <path d="M261.16,132.62a.52.52,0,0,1-.21,0,.5.5,0,0,1-.25-.66l2.6-5.82a.5.5,0,1,1,.91.41l-2.6,5.82A.49.49,0,0,1,261.16,132.62Z" fill="#f7c852"/>
            <path d="M265.36,131a.45.45,0,0,1-.2,0l-5.82-2.6a.5.5,0,1,1,.41-.91l5.82,2.59a.51.51,0,0,1,.25.66A.5.5,0,0,1,265.36,131Z" fill="#f7c852"/>
          </g>
          <g>
            <path d="M264.38,141a.45.45,0,0,1-.2,0,.5.5,0,0,1-.26-.66l2.6-5.82a.5.5,0,0,1,.91.41l-2.59,5.82A.52.52,0,0,1,264.38,141Z" fill="#f7c852"/>
            <path d="M268.58,139.42a.51.51,0,0,1-.2,0l-5.82-2.6a.5.5,0,0,1-.25-.66.51.51,0,0,1,.66-.25l5.82,2.59a.51.51,0,0,1,.25.67A.5.5,0,0,1,268.58,139.42Z" fill="#f7c852"/>
          </g>
          <g>
            <path d="M250.78,155.89a.46.46,0,0,1-.2,0,.5.5,0,0,1-.26-.66l2.6-5.81a.5.5,0,0,1,.66-.26.51.51,0,0,1,.25.66l-2.59,5.82A.51.51,0,0,1,250.78,155.89Z" fill="#f7c852"/>
            <path d="M255,154.28a.54.54,0,0,1-.21-.05L249,151.64a.5.5,0,0,1,.4-.92l5.82,2.6a.5.5,0,0,1,.25.66A.49.49,0,0,1,255,154.28Z" fill="#f7c852"/>
          </g>
          <g>
            <path d="M244.34,139.06a.52.52,0,0,1-.21,0,.5.5,0,0,1-.25-.66l2.59-5.82a.51.51,0,0,1,.67-.25.5.5,0,0,1,.25.66l-2.6,5.82A.49.49,0,0,1,244.34,139.06Z" fill="#f7c852"/>
            <path d="M248.54,137.45a.45.45,0,0,1-.2,0l-5.82-2.59a.51.51,0,0,1-.25-.66.5.5,0,0,1,.66-.26l5.82,2.6a.5.5,0,0,1-.21.95Z" fill="#f7c852"/>
          </g>
          <g>
            <path d="M237,141.88a.52.52,0,0,1-.21,0,.5.5,0,0,1-.25-.66l2.59-5.82a.51.51,0,0,1,.67-.25.5.5,0,0,1,.25.66l-2.6,5.82A.49.49,0,0,1,237,141.88Z" fill="#f7c852"/>
            <path d="M241.18,140.27a.45.45,0,0,1-.2,0l-5.82-2.59a.51.51,0,0,1-.25-.67.5.5,0,0,1,.66-.25l5.82,2.6a.5.5,0,0,1,.25.66A.51.51,0,0,1,241.18,140.27Z" fill="#f7c852"/>
          </g>
        </g>
        <path d="M310,156.1a.5.5,0,0,1-.29-.91c6.57-4.69,1.89-14.27,1.85-14.37a.49.49,0,0,1,.22-.67.5.5,0,0,1,.67.22c.05.11,5.11,10.45-2.16,15.63A.46.46,0,0,1,310,156.1Z" fill="#f7c852"/>
        <g>
          <g>
            <path d="M211,125.62c.18.41,3,7.08,4.36,10.18.94,2.18-.41,1.86-2.54.53-.5-.31-1-.67-1.6-1.07l0,0c-3.05-3-6.68-10.81-8.32-14.57a4.29,4.29,0,0,0-2.93-2.46c-8.36-2-21.68-9.81-21.68-9.81a5.79,5.79,0,0,1,4.4-2.49c18.58.74,26.95,12.33,26.95,12.33S219.05,129,219,131C219,133.59,212.17,127.11,211,125.62Z" fill="#ffdbb3"/>
            <path d="M202.86,120.67c1.64,3.76,5.27,11.6,8.32,14.57-3.82-2.71-8.68-7-8.68-7a9.24,9.24,0,0,1-2-4.16L198.87,121a172.57,172.57,0,0,1-17.52-5.39c-4.68-1.81-4.72-5-3.1-7.21,0,0,13.32,7.79,21.68,9.81A4.29,4.29,0,0,1,202.86,120.67Z" fill="#f7c852"/>
          </g>
          <g>
            <path d="M215.19,137.88a5.84,5.84,0,0,1-2.64-1.13c-.51-.31-1.06-.68-1.63-1.09a.5.5,0,0,1-.11-.69.49.49,0,0,1,.69-.12c.55.39,1.09.75,1.58,1.05a5.38,5.38,0,0,0,2.08,1,3,3,0,0,0-.27-.88l-2.38-5.57c-1-2.33-1.88-4.39-2-4.61a.5.5,0,0,1,.26-.66.5.5,0,0,1,.66.26c.1.22,1,2.28,2,4.61l2.38,5.57c.28.65.59,1.58,0,2.06A.93.93,0,0,1,215.19,137.88Z" fill="#999"/>
            <path d="M211.18,135.74a.46.46,0,0,1-.29-.1c-3.79-2.69-8.67-7-8.72-7a9.6,9.6,0,0,1-2.1-4.36l-1.53-2.8a170.7,170.7,0,0,1-17.37-5.36c-2.89-1.11-3.89-2.68-4.22-3.79a4.79,4.79,0,0,1,.9-4.18,6.24,6.24,0,0,1,4.8-2.69,39.44,39.44,0,0,1,20.73,6.52,28.27,28.27,0,0,1,6.63,6c1.57,1.79,9.54,11,9.51,13.11a1,1,0,0,1-.64,1c-1.94.65-7.9-5.66-8.28-6.14l-.06-.1a.46.46,0,0,1-.06-.23.5.5,0,0,1,.5-.5.48.48,0,0,1,.43.24c1.35,1.68,6,5.79,7.07,5.79h0V131c0-1.25-5.42-8-9.29-12.46-.11-.15-8.5-11.44-26.6-12.16a5.27,5.27,0,0,0-4,2.28,3.78,3.78,0,0,0-.75,3.3c.38,1.29,1.63,2.38,3.62,3.15A170.08,170.08,0,0,0,199,120.51a.54.54,0,0,1,.32.25l1.67,3.06a.47.47,0,0,1,.06.15,8.66,8.66,0,0,0,1.83,3.91s4.85,4.29,8.6,7a.5.5,0,0,1,.12.7A.52.52,0,0,1,211.18,135.74Z" fill="#999"/>
          </g>
        </g>
        <g>
          <path d="M237.79,96.05s-2.86,15.48,8.84,14.36,13.48-5,16.85-19.24C263.48,91.17,256.6,98.61,237.79,96.05Z" fill="#ffdbb3"/>
          <path d="M245.46,111a7.56,7.56,0,0,1-5.86-2.35c-3.82-4.16-2.36-12.32-2.3-12.66l.09-.47.47.06c18.34,2.49,25.19-4.65,25.26-4.72l1.29-1.4L264,91.28c-3.3,14-4.94,18.45-17.29,19.63C246.26,111,245.86,111,245.46,111Zm-7.25-14.36c-.24,1.76-.86,8.08,2.13,11.34,1.43,1.56,3.53,2.23,6.25,2,10.78-1,12.83-4.06,16-17.37C260,94.52,252.61,98.46,238.21,96.61Z" fill="gray"/>
        </g>
        <g>
          <g>
            <path d="M260.15,117l-.11.09a8.38,8.38,0,0,0-1.7-1.61c-4.42-2.53-7.57-5.26-7.45-8.63.11-3,4.21-4.64,7.05-5.42-1.14-1.07-2.86-2.13-3.07-3.25-.33-1.78,3.1-.14,6.82.76,2.2.53,2.69,4.17,2.72,7.06,2.2,3,4.09,6.28,4.09,6.28s25.64,18.48,36.58,29.92c4.07,4.26,4.47,7.54,3.35,10C296.42,158.8,266.44,124.44,260.15,117Z" fill="#ffdbb3"/>
            <path d="M260.15,117c6.29,7.44,36.27,41.8,48.28,35.17-1.87,4.1-8,5.81-8,5.81-9.33,4.36-32.91-32.4-40.37-40.89Z" fill="#f7c852"/>
          </g>
          <path d="M298.68,158.86c-7.9,0-21.5-18.27-31.65-31.9-3-4.07-5.65-7.59-7.36-9.54a8,8,0,0,0-1.57-1.51c-3.67-2.1-7.85-5-7.71-9.08.11-3,3.82-4.76,6.54-5.62l-.32-.27c-1-.83-2-1.68-2.23-2.67a1.1,1.1,0,0,1,.29-1.09c.69-.62,2.14-.18,4.33.48.86.26,1.84.56,2.81.79,2,.47,3,3,3.1,7.38,1.95,2.67,3.65,5.55,4,6.1,1.65,1.2,26,18.91,36.56,29.92,3.72,3.89,4.87,7.43,3.45,10.53-1.95,4.26-8.08,6-8.34,6.08A4.36,4.36,0,0,1,298.68,158.86ZM255.35,97.92a.55.55,0,0,0,0,.17c.12.63,1.06,1.4,1.88,2.08.36.3.73.59,1.05.89l.64.61-.85.24c-2.46.67-6.59,2.21-6.69,5s2.12,5.27,7.2,8.17a8.79,8.79,0,0,1,1.83,1.72c1.74,2,4.37,5.51,7.41,9.6,9.57,12.85,25.57,34.34,32.37,31.16.14,0,6-1.72,7.78-5.56h0c1.24-2.69.14-5.86-3.26-9.42-10.78-11.27-36.25-29.67-36.51-29.86l-.14-.15s-1.9-3.3-4.06-6.24l-.1-.13V106c0-2.25-.35-6.1-2.33-6.58-1-.24-2-.54-2.87-.8C257.43,98.24,255.68,97.7,255.35,97.92Z" fill="#999"/>
        </g>
      </g>
      <g>
        <g>
          <g>
            <path d="M210.91,82.84A15.46,15.46,0,0,1,209,74.21c.25-3.26,2.14-5.76,2.93-8.84,1-4-6.88-24,4.19-36v0c5.61-4.2,12.75-6.7,19.91-7.76a40.73,40.73,0,0,1,32.29,8.86C285.51,45,280.36,65.66,280.36,65.66s12.91-12.35,14.76,1.79-11.45,19.43-14.67,20.7-3.85-2.29-3.85-2.29A69.63,69.63,0,0,1,259,93.66s-22.88,2.71-35.25-1.23C218.58,90.78,213.62,87.69,210.91,82.84Z" fill="#ffdbb3"/>
            <path d="M235.21,96.68v0c-3.47.75-9.71-1.1-13.9-2s-9.09-2.17-11.81-5.51A16.43,16.43,0,0,1,205.69,78a34.78,34.78,0,0,1,1.59-8c.59-1.93,1.7-3.66,1-5.51-.61-1.69-1.6-3.21-2.13-5a28.92,28.92,0,0,1-.81-12.78,26.24,26.24,0,0,1,10.7-17.32v0c-11.07,11.94-3.17,32-4.19,36-.79,3.08-2.68,5.58-2.93,8.84a15.46,15.46,0,0,0,1.94,8.63c2.71,4.85,7.67,7.94,12.85,9.59C236.13,96.37,259,93.66,259,93.66,252.2,98,235.79,96.72,235.21,96.68Z" fill="#f7c852"/>
          </g>
          <path d="M233.32,97.28a45.73,45.73,0,0,1-9.57-1.62l-2.53-.58c-4.39-1-9.3-2.29-12-5.64a16.74,16.74,0,0,1-3.88-11.5,34,34,0,0,1,1.6-8.1c.15-.48.33-1,.51-1.41.5-1.34,1-2.6.53-3.86a21.09,21.09,0,0,0-.94-2.14,18.68,18.68,0,0,1-1.19-2.86A29.35,29.35,0,0,1,205,46.64a26.47,26.47,0,0,1,10.84-17.57,44.45,44.45,0,0,1,20.09-7.83,41.15,41.15,0,0,1,32.59,8.94c14.92,12.6,13.17,29.94,12.41,34.46,1.95-1.66,6.88-5.38,10.58-4.08,2.14.76,3.48,3.06,4,6.84.87,6.6-1,15.62-14.9,21.1a3.06,3.06,0,0,1-2.7,0,3.66,3.66,0,0,1-1.52-2A71.41,71.41,0,0,1,259.12,94a.38.38,0,0,1-.22-.72,69.71,69.71,0,0,0,17.5-7.75.37.37,0,0,1,.35,0,.35.35,0,0,1,.22.28,3.32,3.32,0,0,0,1.29,2,2.4,2.4,0,0,0,2.05,0c13.44-5.31,15.27-14,14.44-20.31-.45-3.48-1.63-5.58-3.48-6.23-4.17-1.47-10.59,4.6-10.66,4.66a.35.35,0,0,1-.44,0,.36.36,0,0,1-.18-.41c.05-.2,4.9-20.59-11.95-34.82a40.42,40.42,0,0,0-32-8.77,43.62,43.62,0,0,0-19.75,7.69,25.73,25.73,0,0,0-10.55,17.08,28.52,28.52,0,0,0,.8,12.61,18.38,18.38,0,0,0,1.14,2.74,22.25,22.25,0,0,1,1,2.22c.54,1.52,0,3-.54,4.37-.17.45-.35.91-.49,1.37A33.64,33.64,0,0,0,206.07,78a16,16,0,0,0,3.71,11c2.57,3.16,7.34,4.43,11.6,5.37l2.54.59c3.77.9,8.46,2,11.2,1.44a.37.37,0,0,1,.16.73A9.21,9.21,0,0,1,233.32,97.28Z" fill="gray"/>
        </g>
        <path d="M227.55,49.53s4-2.88,6.61,0C236.28,51.91,228.26,53.38,227.55,49.53Z" fill="#005b48"/>
        <path d="M249.37,49.64s-3.93-2.91-6.6,0C240.62,51.93,248.62,53.48,249.37,49.64Z" fill="#005b48"/>
        <g>
          <ellipse cx="231.94" cy="62.91" rx="6.64" ry="3.55" transform="translate(167.81 294.52) rotate(-89.7)" fill="#fff"/>
          <path d="M231.92,69.92h0a3.09,3.09,0,0,1-2.8-1c-.77-1-1.1-2.86-1.09-6,0-3.93,1.77-7,4-7s3.91,3.1,3.89,7c0,3.18-.37,5-1.15,6A3.08,3.08,0,0,1,231.92,69.92Zm0-.75h0c1,0,1.69,0,2.22-.67s1-2.65,1-5.57c0-3.4-1.42-6.27-3.14-6.28s-3.2,2.85-3.22,6.24c0,2.92.29,4.75.93,5.59.53.68,1.27.69,2.2.69Z" fill="gray"/>
        </g>
        <ellipse cx="230.9" cy="63.39" rx="6.16" ry="2.52" transform="matrix(0.01, -1, 1, 0.01, 166.29, 293.95)" fill="#007453"/>
        <g>
          <ellipse cx="248.33" cy="63" rx="6.64" ry="3.55" transform="translate(184.02 310.99) rotate(-89.7)" fill="#fff"/>
          <path d="M248.31,70h0a3.11,3.11,0,0,1-2.81-1c-.76-1-1.1-2.87-1.08-6,0-3.94,1.76-7,4-7s3.92,3.1,3.9,7c0,3.18-.38,5-1.15,6A3.09,3.09,0,0,1,248.31,70Zm0-.75h0c.95,0,1.68,0,2.22-.67.65-.83,1-2.66,1-5.58,0-3.39-1.43-6.27-3.15-6.28s-3.2,2.86-3.21,6.25c0,2.92.29,4.75.93,5.59.52.68,1.26.69,2.2.69Z" fill="gray"/>
        </g>
        <ellipse cx="247.28" cy="63.48" rx="6.16" ry="2.52" transform="translate(182.51 310.42) rotate(-89.7)" fill="#007453"/>
        <path d="M241.11,74.61a.51.51,0,0,1-.37-.17c-1.53-1.71-3.34-3-3.81-2.82-.15.07-.34.6-.07,2.13a.5.5,0,1,1-1,.18c-.21-1.15-.37-2.73.61-3.21,1.46-.72,4.19,2.16,5,3.06a.5.5,0,0,1-.38.83Z" fill="gray"/>
        <path d="M243.29,26.47s-.1,8.12,5.72,9-1-1,.58-6.38c0,0,32.75,4.94,30.76,36.59,0,0,7.87-7.34,12-4.27,0,0,16.23-13.39.19-34.57S263,1.47,249.61,5.49c0,0-15.41-20.15-46.13,16.75-21.44,25.76,2,41.34,2,41.34s-.63-24.3,18.15-33.89c0,0-.22,4.22-1.31,5.89a.28.28,0,0,0,.28.43c1.56-.27,5.3-1.64,8-8.39,0,0,1.48,7.38-3.78,11.62a.16.16,0,0,0,.14.27c2.5-.72,10.38-3.63,10.84-12,0,0-1.37,11.27.92,11.37S243.29,26.47,243.29,26.47Z" fill="#007453"/>
        <g opacity="0.74">
          <ellipse cx="258.59" cy="74.63" rx="6.23" ry="9.03" transform="matrix(0.01, -1, 1, 0.01, 182.59, 332.82)" fill="#ffcdaa"/>
        </g>
        <g opacity="0.74">
          <ellipse cx="221.89" cy="74.45" rx="6.23" ry="9.03" transform="translate(146.27 295.94) rotate(-89.7)" fill="#ffcdaa"/>
        </g>
        <path d="M290.88,60.71s0-.06,0-.09c0-.33.89-1.23,1.09-1.54A20.47,20.47,0,0,0,293.64,56a19.38,19.38,0,0,0,1.52-6.4,26.38,26.38,0,0,0-2.86-12.8A54.57,54.57,0,0,0,284.43,25a94.81,94.81,0,0,0-9.52-9.6,96.37,96.37,0,0,0-7.77-6.2c-.63-.45-1.26-.89-1.91-1.3C259.32,4.14,250.62,7,250.62,7a7.33,7.33,0,0,0-1-1.47s12.55-6.69,29.28,6.77a76.92,76.92,0,0,1,15.38,15.88c3.29,4.79,5.89,10.39,5.9,16.3a19.61,19.61,0,0,1-1.59,7.75,41.64,41.64,0,0,1-5.09,8.49c-.34.46-.88.82-1.16.71S290.87,60.62,290.88,60.71Z" fill="#f7c852"/>
        <g>
          <path d="M201,65.13a4.27,4.27,0,1,0,4.24,4.29A4.26,4.26,0,0,0,201,65.13Z" fill="#007453"/>
          <path d="M193.06,71.07a3.63,3.63,0,1,0,3.62,3.65A3.63,3.63,0,0,0,193.06,71.07Z" fill="#007453"/>
          <path d="M185.6,69a2.08,2.08,0,1,0,2.45,1.64A2.08,2.08,0,0,0,185.6,69Z" fill="#007453"/>
        </g>
        <g>
          <path d="M295.24,81a7.17,7.17,0,1,0,7.14,7.21A7.17,7.17,0,0,0,295.24,81Z" fill="#007453"/>
          <path d="M322.32,72.76A4.21,4.21,0,1,0,326.5,77,4.22,4.22,0,0,0,322.32,72.76Z" fill="#007453"/>
          <path d="M318.07,81.15a4.21,4.21,0,0,0-4.23,4.18c0,.15,0,.28,0,.42a7.08,7.08,0,0,0-4.47-1.61,7.19,7.19,0,1,0,6.78,5,4.07,4.07,0,0,0,1.84.45,4.21,4.21,0,0,0,0-8.41Z" fill="#007453"/>
        </g>
        <g>
          <path d="M205.4,54a.48.48,0,0,1-.42-.23c-6.6-10.34-4.72-16.91,6.24-37.57a.5.5,0,1,1,.89.47c-10.75,20.25-12.61,26.66-6.29,36.56a.51.51,0,0,1-.15.7A.52.52,0,0,1,205.4,54Z" fill="#f7c852"/>
          <path d="M198.93,33.3a.42.42,0,0,1-.26-.08.5.5,0,0,1-.16-.68c3.15-5,9.75-10.86,10-11.11a.49.49,0,0,1,.7.05.48.48,0,0,1,0,.7c-.07.06-6.77,6-9.84,10.89A.51.51,0,0,1,198.93,33.3Z" fill="#f7c852"/>
          <path d="M196.52,41a.47.47,0,0,1-.25-.07.5.5,0,0,1-.17-.68,69.31,69.31,0,0,1,8.73-11.15.5.5,0,1,1,.71.69,69.85,69.85,0,0,0-8.58,11A.51.51,0,0,1,196.52,41Z" fill="#f7c852"/>
          <path d="M197.1,46.6a.47.47,0,0,1-.3-.1.51.51,0,0,1-.11-.7,75,75,0,0,1,4.63-5.93.5.5,0,1,1,.73.69,74,74,0,0,0-4.55,5.83A.49.49,0,0,1,197.1,46.6Z" fill="#f7c852"/>
          <path d="M198.61,50.45a.53.53,0,0,1-.23-.06.52.52,0,0,1-.21-.68,23.85,23.85,0,0,1,3.46-4.36.5.5,0,0,1,.71,0,.5.5,0,0,1,0,.71,22.36,22.36,0,0,0-3.28,4.12A.51.51,0,0,1,198.61,50.45Z" fill="#f7c852"/>
        </g>
        <polygon points="230.01 60.91 230.3 61.52 230.97 61.62 230.49 62.09 230.6 62.76 230 62.44 229.4 62.75 229.52 62.08 229.03 61.61 229.71 61.52 230.01 60.91" fill="#fffdab"/>
        <polygon points="245.96 61.14 246.26 61.75 246.93 61.85 246.44 62.32 246.55 62.99 245.95 62.67 245.35 62.98 245.47 62.32 244.99 61.84 245.66 61.75 245.96 61.14" fill="#fffdab"/>
        <path d="M286,68.41a.62.62,0,0,0,.54,1.06c.94-.2,1.82-.14,1.81.8,0,4-6.72,9.59-8.89,9a.1.1,0,0,0-.14.11c.1.78,1.05,3.77,9.62-4.6,3.91-4,2.16-7.68,0-7.85A4.47,4.47,0,0,0,286,68.41Z" fill="#f7c852"/>
        <path d="M280.31,81.45l-.28,0a1.34,1.34,0,0,1-1.19-1,.5.5,0,0,1,1-.27c0,.11.08.23.36.27,1.67.25,6.61-2.94,8.92-6.73,1-1.56,1.79-3.82.44-5.74a1.39,1.39,0,0,0-1.17-.64c-1.08.06-2.25,1.58-2.61,2.16a.49.49,0,0,1-.69.16.5.5,0,0,1-.16-.68c.16-.26,1.61-2.53,3.4-2.64a2.41,2.41,0,0,1,2,1c1.33,1.89,1.19,4.26-.4,6.86C287.56,78.14,282.67,81.46,280.31,81.45Z" fill="gray"/>
        <polygon points="240.49 89.02 249.99 100.39 253.24 99.56 243.16 88.36 240.49 89.02" fill="#fff"/>
        <g>
          <path d="M246.13,86.52c-1.24,3.17-6,4.9-7.64,4.25s-3.85-5.43-2.61-8.59c.94-2.38,2.41-3.62,4.64-3.48a2,2,0,0,1-.25-.78s.58.55.94.45c.23-.39-.39-1.67-.39-1.67a4.59,4.59,0,0,1,1.2,1.83,7.58,7.58,0,0,0-.47-1.86,3,3,0,0,1,1,1.44c.5-.44.27-2.52.27-2.52,1.29.58.92,3.15.92,3.15,1.48-1.73,2.81-.65,2.81-.65-.93-.29-1.84,1.43-1.84,1.43a2.86,2.86,0,0,1,1.38.54c-.69-.23-.83,0-1.17.3C247,81.89,247.12,84,246.13,86.52Zm-6.08,3.11c.07.43.8.4.66-.86C240.71,88.77,240,89.26,240.05,89.63Zm2.47-1.82c.07.43.8.4.65-.86C243.17,87,242.46,87.44,242.52,87.81Zm-.78.44c0,.35.65.32.53-.7C242.27,87.55,241.69,88,241.74,88.25Zm2.18-2c.07.42.8.39.65-.86C244.57,85.43,243.85,85.91,243.92,86.29Zm-4.53,1.57c.07.43.8.39.66-.86C240.05,87,239.33,87.49,239.39,87.86Zm1.94-1.47c.07.42.8.39.65-.86C242,85.53,241.26,86,241.33,86.39Zm-3.8,1.81c.06.34.66.32.54-.7C238.07,87.5,237.48,87.89,237.53,88.2Zm7-4.77c.07.43.8.39.65-.86C245.21,82.57,244.5,83.06,244.56,83.43Zm-4.25,2.08c.07.43.81.39.66-.86C241,84.65,240.25,85.14,240.31,85.51Zm2.19-1.3c.07.43.8.4.65-.85C243.15,83.36,242.43,83.84,242.5,84.21Zm-4.69,2.39c.07.43.8.4.66-.86C238.47,85.74,237.75,86.23,237.81,86.6ZM237,85.14c.07.43.8.4.65-.85C237.6,84.29,236.89,84.77,237,85.14Zm3.77-2.1c.08.43.81.39.66-.86C241.38,82.18,240.66,82.67,240.72,83Zm-2.1.69c.07.43.8.39.66-.86C239.28,82.87,238.56,83.36,238.62,83.73ZM237.1,83c.06.35.65.32.53-.69C237.63,82.31,237.05,82.7,237.1,83Zm1.23-1.38c.07.43.8.4.66-.86C239,80.76,238.27,81.25,238.33,81.62Z" fill="#eb4801"/>
          <path d="M240.71,88.77c.14,1.26-.59,1.29-.66.86S240.71,88.77,240.71,88.77Z" fill="#fff"/>
          <path d="M243.17,87c.15,1.26-.58,1.29-.65.86S243.17,87,243.17,87Z" fill="#fff"/>
          <path d="M242.27,87.55c.12,1-.48,1-.53.7S242.27,87.55,242.27,87.55Z" fill="#fff"/>
          <path d="M244.57,85.43c.15,1.25-.58,1.28-.65.86S244.57,85.43,244.57,85.43Z" fill="#fff"/>
          <path d="M240.05,87c.14,1.25-.59,1.29-.66.86S240.05,87,240.05,87Z" fill="#fff"/>
          <path d="M242,85.53c.15,1.25-.58,1.28-.65.86S242,85.53,242,85.53Z" fill="#fff"/>
          <path d="M238.07,87.5c.12,1-.48,1-.54.7S238.07,87.5,238.07,87.5Z" fill="#fff"/>
          <path d="M245.21,82.57c.15,1.25-.58,1.29-.65.86S245.21,82.57,245.21,82.57Z" fill="#fbf8ef"/>
          <path d="M241,84.65c.15,1.25-.59,1.29-.66.86S241,84.65,241,84.65Z" fill="#fff"/>
          <path d="M243.15,83.36c.15,1.25-.58,1.28-.65.85S243.15,83.36,243.15,83.36Z" fill="#fff"/>
          <path d="M238.47,85.74c.14,1.26-.59,1.29-.66.86S238.47,85.74,238.47,85.74Z" fill="#fff"/>
          <path d="M237.6,84.29c.15,1.25-.58,1.28-.65.85S237.6,84.29,237.6,84.29Z" fill="#fff"/>
          <path d="M241.38,82.18c.15,1.25-.58,1.29-.66.86S241.38,82.18,241.38,82.18Z" fill="#fff"/>
          <path d="M239.28,82.87c.14,1.25-.59,1.29-.66.86S239.28,82.87,239.28,82.87Z" fill="#fff"/>
          <path d="M237.63,82.31c.12,1-.47,1-.53.69S237.63,82.31,237.63,82.31Z" fill="#fff"/>
          <path d="M239,80.76c.14,1.26-.59,1.29-.66.86S239,80.76,239,80.76Z" fill="#fff"/>
        </g>
      </g>
    </g>
  </g>
</svg>
