<svg xmlns="http://www.w3.org/2000/svg" viewBox="0 0 206 99">
  <g id="圖層_2" data-name="圖層 2">
    <g id="頁面">
      <g>
        <polygon points="197.75 1.5 204.5 21.47 204.5 97.5 13.77 97.5 1.5 82.91 1.5 1.5 197.75 1.5" fill="#f6d16b" stroke="#485349" stroke-linecap="round" stroke-linejoin="round" stroke-width="3"/>
        <path d="M58.36-54H139a0,0,0,0,1,0,0V138.26a1.1,1.1,0,0,1-1.1,1.1H58.36a0,0,0,0,1,0,0V-54A0,0,0,0,1,58.36-54Z" transform="translate(141.36 -56.03) rotate(90)" fill="#fff" stroke="#485349" stroke-linecap="round" stroke-linejoin="round" stroke-width="3"/>
        <g>
          <path d="M34.19,40.79c-.08,1.17-.16,2.15-.25,3a20.06,20.06,0,0,1-.45,2.48,1.81,1.81,0,0,1,.7-.33,1.78,1.78,0,0,1,.71-.06c.72.13,2,1.18,3.78,3.16s2.74,3.4,2.74,4.18c0,1-.55,1.56-1.64,1.56a1.88,1.88,0,0,1-1.41-1c-.13-.18-.36-.52-.68-1s-.66-.93-1-1.35c-1-1.27-2.06-2.47-3.12-3.59a2.75,2.75,0,0,1-.35-.51,17.35,17.35,0,0,1-4.11,7.38c-1.9,2-3.51,3.05-4.84,3.05a1.66,1.66,0,0,1-1.19-.39,1.36,1.36,0,0,1-.41-1c0-.75.78-1.65,2.34-2.69a11.9,11.9,0,0,0,4.34-5.1A21,21,0,0,0,31,40.79h-6.6c-1.15,0-1.72-.5-1.72-1.49s.57-1.44,1.72-1.44h6.76V30.32H27.9a37.74,37.74,0,0,1-2.3,4.53,1.67,1.67,0,0,1-1.37.82,1.33,1.33,0,0,1-1.52-1.48,3.32,3.32,0,0,1,.58-1.41,37.16,37.16,0,0,0,3.6-8.55c.28-1,.83-1.45,1.64-1.45,1,0,1.56.44,1.56,1.33A16.74,16.74,0,0,1,29,27.39H39c1.17,0,1.75.49,1.75,1.48s-.58,1.45-1.75,1.45H34.31v7.54H39.7q1.8,0,1.8,1.44c0,1-.6,1.49-1.8,1.49ZM55.93,55.26a3.76,3.76,0,0,1-3.07.8H46.38a3.76,3.76,0,0,1-3.07-.8,3.8,3.8,0,0,1-.8-3.07v-22a4.54,4.54,0,0,1,.9-3,3.51,3.51,0,0,1,2.81-.9h6.64a4.26,4.26,0,0,1,2.93.9,3.59,3.59,0,0,1,.94,2.82V52.19A3.8,3.8,0,0,1,55.93,55.26Zm-2.4-4.2V31.33a1.68,1.68,0,0,0-1.88-1.91H47.59a1.69,1.69,0,0,0-1.91,1.91V51.06A1.69,1.69,0,0,0,47.59,53h4.06A1.66,1.66,0,0,0,53.53,51.06Z"/>
          <path d="M62.55,31.1q0-1.44,1.68-1.44h8.32c1.15,0,1.72.48,1.72,1.44s-.57,1.45-1.72,1.45H64.23C63.11,32.55,62.55,32.06,62.55,31.1Zm1.13-5.27c0-1,.58-1.45,1.72-1.45h6.53c1.14,0,1.72.48,1.72,1.45s-.58,1.44-1.72,1.44H65.4C64.26,27.27,63.68,26.79,63.68,25.83Zm1,30.23a3.09,3.09,0,0,1-.8-2.3V48.33q0-3.09,3.13-3.09h3.55q3.17,0,3.16,3.09v5.35q0,3.16-3.16,3.16H67A3.2,3.2,0,0,1,64.64,56.06Zm-.76-19.8c0-.91.53-1.37,1.6-1.37h6.13c1.07,0,1.61.47,1.61,1.41s-.54,1.36-1.61,1.36H65.48C64.41,37.66,63.88,37.19,63.88,36.26Zm0,5.23c0-.94.53-1.41,1.6-1.41h6.25c1.09,0,1.64.47,1.64,1.41s-.55,1.37-1.64,1.37H65.48C64.41,42.86,63.88,42.4,63.88,41.49Zm7.19,11.68v-4.3a.93.93,0,0,0-1-1H67.43c-.62,0-1,.34-1,1v4.3c0,.68.32,1,1,1h2.66C70.72,54.19,71,53.85,71.07,53.17Zm12,3.71c0-.52.46-1,1.37-1.56a20,20,0,0,0,5.66-4.88A60.64,60.64,0,0,1,88.61,38.6H75.05c-1,0-1.52-.47-1.52-1.41s.51-1.38,1.52-1.4h1.84a59.83,59.83,0,0,0-.59-6h-.74c-.94,0-1.41-.44-1.41-1.33s.47-1.36,1.41-1.36H79.5v-2.7c0-1.07.51-1.6,1.53-1.6s1.52.53,1.52,1.6v2.7h4c.86,0,1.28.44,1.28,1.32s-.4,1.37-1.21,1.37h-.93v.67l-.59,5.31h3.4l-.08-11.33c0-1.15.48-1.72,1.45-1.72s1.44.63,1.44,1.88l0,11.17h5.12c1.14,0,1.72.47,1.72,1.4s-.58,1.41-1.72,1.41H91.38l0,1A55.25,55.25,0,0,0,92,47,21.71,21.71,0,0,0,94,42q.39-1.68,1.56-1.68,1.44,0,1.44,1.17a5.07,5.07,0,0,1-.54,1.88l-.63,1.52a34.65,34.65,0,0,1-2.93,5.78c.71,2.5,1.37,3.75,2,3.75s.85-1.09.85-3.28A1.73,1.73,0,0,1,96.09,50a1.13,1.13,0,0,1,1-.41c.84,0,1.25.52,1.25,1.56A13.08,13.08,0,0,1,97.4,56c-.58,1.44-1.35,2.15-2.31,2.15q-2.22,0-4.14-4.88a23.27,23.27,0,0,1-3.55,3.36C86,57.7,85,58.25,84.35,58.25A1.19,1.19,0,0,1,83,56.88Zm-7.46-5V43.13a2.8,2.8,0,0,1,.66-2,2.65,2.65,0,0,1,2-.68h5.66a2.38,2.38,0,0,1,2.7,2.69v8.48c0,2-1,3-3,3H78.25A2.38,2.38,0,0,1,75.56,51.92Zm8.32-8a.93.93,0,0,0-1.06-1H79.31c-.73,0-1.09.35-1.09,1v2.46h5.66Zm0,7.27V48.64H78.22v2.54c0,.7.36,1,1.09,1h3.51A.93.93,0,0,0,83.88,51.18Zm-.7-21.37H78.8q.32,1.88.55,5.82l0,.16h3.28Zm11.13,2.35-1.29-3-.16-.63c0-.83.45-1.25,1.33-1.25.57,0,1.17.67,1.8,2l1,2.07a3.4,3.4,0,0,1,.31,1.21c0,.91-.48,1.36-1.45,1.36C95.18,33.87,94.67,33.3,94.31,32.16Z"/>
          <path d="M138.18,26.57c0,1-.64,1.52-1.92,1.52h-15l-1.72,5.32H130.4a3.92,3.92,0,0,1,3.19.85,4.17,4.17,0,0,1,.88,3.21V53.25a4.39,4.39,0,0,1-1,3.14,3.73,3.73,0,0,1-3.11.84H110.48q-4.38.29-4.06-4V37.47a3.94,3.94,0,0,1,.86-3.21,3.94,3.94,0,0,1,3.2-.85h6l1-5.32H104.58c-1.25,0-1.87-.51-1.87-1.52s.62-1.56,1.87-1.56h31.68Q138.18,25,138.18,26.57Zm-26.72,9.84a1.65,1.65,0,0,0-1.88,1.84v5.39h21.64V38.25a1.62,1.62,0,0,0-1.83-1.84Zm19.76,10.24H109.58v5.7a1.66,1.66,0,0,0,1.88,1.88h17.93a1.64,1.64,0,0,0,1.83-1.88Z"/>
          <path d="M149.74,56.73V41.61a36.38,36.38,0,0,1-2.89,6.8Q145,51.8,144,51.8c-.94,0-1.41-.62-1.41-1.87a3.72,3.72,0,0,1,.9-1.8,39.89,39.89,0,0,0,5.94-12.07H144.5q-1.83,0-1.83-1.56c0-1,.61-1.52,1.83-1.52h5.24V27.66c-2.92.34-4.61.51-5.08.51a1.4,1.4,0,0,1-1.6-1.56,1.11,1.11,0,0,1,.64-1,5,5,0,0,1,1.94-.43,43.39,43.39,0,0,0,9.92-1.75,3.27,3.27,0,0,1,1-.24c1,0,1.53.54,1.53,1.6s-1.76,1.83-5.28,2.42V33h3.68c1.19,0,1.79.52,1.79,1.56s-.6,1.52-1.79,1.52h-3.68v4.1a1.13,1.13,0,0,1,1-.58,2.09,2.09,0,0,1,1.11.58,10.52,10.52,0,0,1,1.59,1.68c1.25,1.57,1.87,2.56,1.87,3a1.34,1.34,0,0,1-1.52,1.52,1.31,1.31,0,0,1-1.06-.7c-.49-.75-1-1.5-1.6-2.22a17.14,17.14,0,0,1-1.41-2V56.73c0,1.11-.52,1.68-1.56,1.68S149.74,57.84,149.74,56.73Zm20.66-.16V47.35l-12.22,2.46a1.37,1.37,0,0,1-1.53-1.56c0-.83.51-1.34,1.53-1.52l12.22-2.5V24.58c0-1.17.52-1.76,1.57-1.76s1.52.59,1.52,1.76v19l2.54-.55.78-.07c.91-.08,1.37.4,1.37,1.44a1.52,1.52,0,0,1-.37,1.06,2.38,2.38,0,0,1-1.16.58l-3.16.7v9.81c0,1.14-.51,1.72-1.52,1.72S170.4,57.71,170.4,56.57Zm-7.26-16.64a16.89,16.89,0,0,0-2.46-2c-.86-.6-1.29-1.15-1.29-1.64,0-1,.54-1.45,1.64-1.45A5.11,5.11,0,0,1,163.29,36c.94.68,1.77,1.33,2.5,2a2.17,2.17,0,0,1,.94,1.52c0,1.07-.56,1.6-1.68,1.6A3.55,3.55,0,0,1,163.14,39.93Zm1.21-9.06c-.78-.65-1.75-1.42-2.89-2.31a2,2,0,0,1-1-1.44c0-1,.53-1.49,1.6-1.49.47,0,1.55.61,3.24,1.84s2.47,2.09,2.47,2.77c0,1-.58,1.56-1.72,1.56A3.3,3.3,0,0,1,164.35,30.87Z"/>
        </g>
      </g>
    </g>
  </g>
</svg>
