<svg xmlns="http://www.w3.org/2000/svg" xmlns:xlink="http://www.w3.org/1999/xlink" viewBox="0 0 524.14 468.38">
  <defs>
    <clipPath id="clip-path">
      <path d="M345.12,186.57a9,9,0,0,0-13.3,6.58c-2.54,17.72-8.71,49.71-21.57,66.41-12.37,16.08-23,55.93-5.39,72,28.37,25.85,62.29-17,75.54-39.08C404.72,251.88,384.85,209,345.12,186.57Z" fill="none"/>
    </clipPath>
  </defs>
  <g id="圖層_2" data-name="圖層 2">
    <g id="圖層_1-2" data-name="圖層 1">
      <g>
        <g>
          <g>
            <g>
              <path d="M485.89,358.64s-102.28-64-158.95-58.28,5.61,112.84,5.61,112.84l60.81.33c-31.14-20.38-50.82-60.81-50.82-60.81s39.07,79.88,96.35,73.63C478.69,422,485.89,358.64,485.89,358.64Z" fill="#d68400"/>
              <path d="M432.6,427.19c-14.66,0-28-5.51-39.36-13.16l-61-.33-.14-.25a322.74,322.74,0,0,1-18.74-39.19c-11.22-28.54-13.7-49.29-7.37-61.68,3.79-7.43,10.82-11.71,20.88-12.71,16.22-1.63,46.91,1.74,101,27.05a616.34,616.34,0,0,1,58.28,31.29l.27.17,0,.31a136.82,136.82,0,0,1-8.61,32.37c-8.94,21.62-22.37,34-38.83,35.79A59.7,59.7,0,0,1,432.6,427.19ZM343,352.5a199.14,199.14,0,0,0,26.63,39.06c15.37,17.41,39.85,37.5,69.22,34.29,37.52-4.09,45.89-62.14,46.52-67a622.28,622.28,0,0,0-57.91-31.07c-29.74-13.91-71.3-29.87-100.46-27-9.7,1-16.46,5.07-20.09,12.18-14.35,28.08,23.3,95,25.94,99.66l58.85.32c-30.1-20.5-49.41-59.68-49.6-60.08l.9-.44Z" fill="gray"/>
            </g>
            <g>
              <path d="M455,383.2s-75,9-112-30c0,0,45.5,84.5,98.5,74.5,24-5,30.5-24.5,30.5-24.5Z" fill="#a87a00"/>
              <path d="M432.82,429c-19.45,0-40.31-11.76-60.87-34.46a237.13,237.13,0,0,1-29.44-41.1l-1.78-3.3,2.58,2.72c36.41,38.37,110.83,29.93,111.58,29.85l.27,0,17.35,20.42-.09.27a35.5,35.5,0,0,1-6.34,10.54,42.86,42.86,0,0,1-24.53,14.29A47.19,47.19,0,0,1,432.82,429Zm-87.6-72.81a238.81,238.81,0,0,0,27.49,37.69c16.33,18,41.49,38.44,68.65,33.33a41.91,41.91,0,0,0,24-14,36.29,36.29,0,0,0,6.06-9.95l-16.64-19.57C449.88,384.24,381.63,390.78,345.22,356.19Z" fill="#999"/>
            </g>
            <path d="M495.8,284.48s2.39-35.43-26-27.82-43.26-21.1-73.37,58l75,88S504.58,347.46,495.8,284.48Z" fill="#003238"/>
            <g>
              <path d="M441.73,256.39S438.3,275,452.34,273.62s16.17-6,20.21-23.08C472.55,250.54,464.3,259.46,441.73,256.39Z" fill="#fdd9b1"/>
              <path d="M450.94,274.19a9,9,0,0,1-7-2.78c-4.54-5-2.81-14.7-2.73-15.11l.09-.47.47.07c22,3,30.3-5.61,30.38-5.7l1.29-1.38-.43,1.83c-4,16.71-5.91,22.06-20.65,23.47C451.89,274.17,451.4,274.19,450.94,274.19ZM442.15,257c-.28,2-1.11,9.78,2.56,13.79,1.74,1.9,4.29,2.71,7.58,2.39,13.07-1.25,15.49-4.94,19.41-21.19C468.69,254.24,459.88,259.26,442.15,257Z" fill="gray"/>
            </g>
            <g>
              <g>
                <path d="M413.11,240.26a18.76,18.76,0,0,1-2.35-10.45c.3-3.94,2.59-7,3.55-10.68,1.23-4.84-8.32-29.08,5.06-43.52v0c6.79-5.08,15.42-8.1,24.09-9.38a49.26,49.26,0,0,1,39.06,10.71c20.84,17.6,14.6,42.57,14.6,42.57s15.62-14.94,17.86,2.16-13.85,23.51-17.75,25-4.65-2.77-4.65-2.77a84.63,84.63,0,0,1-21.28,9.43s-27.68,3.28-42.64-1.49C422.39,249.87,416.38,246.13,413.11,240.26Z" fill="#fdd9b1"/>
                <path d="M442.5,257.56s-6.16,1-15.8-2.13c-4.78-1.54-11.71-3.88-15-7.92-3.09-3.81-5.19-8.2-4.9-13.15.27-4.61,1-9.09,3.82-12.89,3.18-4.35-2.11-5.76-3.22-9.49a35.06,35.06,0,0,1-1-15.44,31.79,31.79,0,0,1,12.94-21v0c-13.38,14.44,2.45,41,.22,45.5-.86,1.72-7.74.86-8.83,8.7a17.06,17.06,0,0,0,2.35,10.45c3.27,5.87,9.28,9.61,15.54,11.59,15,4.77,42.64,1.49,42.64,1.49C463.06,258.54,443.2,257.62,442.5,257.56Z" fill="#f5c652"/>
              </g>
              <path d="M439.24,258.18c-6.64,0-14.94-2.75-20.73-5.48-.66-.3-1.3-.64-1.9-1a20.31,20.31,0,0,1-9-9.7c-2.46-6.09-1.5-14.16,2.44-20.55,1.12-1.81,1.41-3,.11-4.78-.31-.42-.65-.83-1-1.26a9.49,9.49,0,0,1-2.13-3.34,35.42,35.42,0,0,1-1-15.61,32,32,0,0,1,13.08-21.2c6.4-4.79,14.79-8.06,24.27-9.45a49.62,49.62,0,0,1,39.35,10.79c18.27,15.43,15.84,36.73,14.95,41.82,2.23-1.92,8.35-6.66,12.89-5.06,2.56.91,4.16,3.67,4.75,8.21,1,8-1.23,18.83-18,25.44a3.61,3.61,0,0,1-3.2,0,4.31,4.31,0,0,1-1.82-2.51,86,86,0,0,1-20.94,9.2.38.38,0,0,1-.47-.25.38.38,0,0,1,.25-.47,84,84,0,0,0,21.19-9.39.39.39,0,0,1,.35,0,.35.35,0,0,1,.22.27,4,4,0,0,0,1.59,2.51,2.9,2.9,0,0,0,2.56,0c16.3-6.43,18.52-17,17.51-24.64-.56-4.24-2-6.8-4.26-7.6-5.09-1.8-12.89,5.58-13,5.66a.38.38,0,0,1-.45.05.37.37,0,0,1-.17-.41c.06-.25,5.93-25-14.48-42.2a49,49,0,0,0-38.76-10.62c-9.36,1.38-17.63,4.6-23.93,9.31a31.25,31.25,0,0,0-12.79,20.71,34.71,34.71,0,0,0,1,15.29,8.93,8.93,0,0,0,2,3.07c.35.42.72.85,1,1.3,1.55,2.12,1.17,3.61-.07,5.61-3.82,6.2-4.76,14-2.38,19.88a19.5,19.5,0,0,0,8.65,9.33c.59.33,1.21.65,1.85,1,5.53,2.6,16.82,6.6,24.07,5a.39.39,0,0,1,.45.29.38.38,0,0,1-.29.44A17.88,17.88,0,0,1,439.24,258.18Z" fill="gray"/>
            </g>
            <g>
              <ellipse cx="444.43" cy="219.85" rx="3.12" ry="5.83" fill="#fff"/>
              <path d="M444.44,226.05h0a2.78,2.78,0,0,1-2.51-.87c-.69-.89-1-2.53-1-5.33,0-3.48,1.53-6.2,3.49-6.2s3.5,2.72,3.5,6.2c0,2.8-.31,4.44-1,5.33A2.79,2.79,0,0,1,444.44,226.05Zm0-11.65c-1.49,0-2.74,2.49-2.74,5.45,0,2.55.27,4.15.83,4.87.43.56,1,.58,1.91.58s1.48,0,1.91-.58c.56-.72.84-2.32.84-4.87C447.18,216.89,445.92,214.4,444.43,214.4Z" fill="#9f9f9f"/>
            </g>
            <ellipse cx="445.34" cy="220.28" rx="2.21" ry="5.41" fill="#005a48"/>
            <g>
              <ellipse cx="458.82" cy="219.85" rx="3.12" ry="5.83" fill="#fff"/>
              <path d="M458.82,226.05h0a2.8,2.8,0,0,1-2.51-.87c-.68-.89-1-2.53-1-5.33,0-3.48,1.54-6.2,3.5-6.2s3.49,2.72,3.49,6.2c0,2.8-.3,4.44-1,5.33A2.77,2.77,0,0,1,458.82,226.05Zm0-11.65c-1.49,0-2.75,2.49-2.75,5.45,0,2.55.27,4.15.84,4.87.42.56,1,.58,1.9.58s1.49,0,1.92-.58c.56-.72.83-2.32.83-4.87C461.56,216.89,460.3,214.4,458.82,214.4Z" fill="#9f9f9f"/>
            </g>
            <ellipse cx="459.73" cy="220.28" rx="2.21" ry="5.41" fill="#005a48"/>
            <polygon points="445.56 218.23 445.83 218.76 446.41 218.85 445.99 219.26 446.09 219.85 445.56 219.57 445.04 219.85 445.14 219.26 444.71 218.85 445.3 218.76 445.56 218.23" fill="#fffcaf"/>
            <polygon points="459.38 218.23 459.64 218.76 460.23 218.85 459.81 219.26 459.91 219.85 459.38 219.57 458.86 219.85 458.96 219.26 458.53 218.85 459.12 218.76 459.38 218.23" fill="#fffcaf"/>
            <path d="M447.55,188.24s25.21,29,50.58,31.49c0,0,7.26-7,12.25-5.71s9-30.29-9.76-46.21-57.52-23.14-81.06.39-12.67,38.28-16.83,51.65C407,217.44,409,218,416.68,203c6-11.72,11-16.45,11-16.45l4.79,3.33,2.5-2.71,4,3.75,2.77-3.75,3.61,4.88Z" fill="#005a48"/>
            <path d="M503.34,222.79a.84.84,0,0,0,.75,1.44c1.27-.27,2.47-.19,2.46,1.09,0,5.45-9.16,13.06-12.12,12.27-.11,0-.2,0-.19.15.14,1.06,1.43,5.14,13.11-6.26,5.33-5.45,2.94-10.46.06-10.7C506,220.67,504.54,221.69,503.34,222.79Z" fill="#f5c652"/>
            <path d="M495.57,240.55a2.34,2.34,0,0,1-.38,0,1.81,1.81,0,0,1-1.62-1.34.68.68,0,0,1,.47-.84.67.67,0,0,1,.84.47c0,.15.12.31.49.36,2.28.34,9-4,12.15-9.16,1.3-2.13,2.45-5.21.61-7.82a1.9,1.9,0,0,0-1.6-.88c-1.47.09-3.06,2.16-3.55,2.95a.68.68,0,0,1-.94.22.69.69,0,0,1-.22-.94c.22-.35,2.2-3.45,4.63-3.59a3.26,3.26,0,0,1,2.78,1.42c1.81,2.57,1.62,5.79-.54,9.34C505.44,236,498.78,240.57,495.57,240.55Z" fill="gray"/>
            <g opacity="0.6">
              <circle cx="454.75" cy="225.68" r="6.01" fill="#c2ffed"/>
              <path d="M454.74,232.19a6.51,6.51,0,1,1,6.52-6.51A6.52,6.52,0,0,1,454.74,232.19Zm0-12a5.51,5.51,0,1,0,5.52,5.51A5.52,5.52,0,0,0,454.74,220.17Z" fill="#a0a0a0"/>
            </g>
            <g opacity="0.6">
              <circle cx="441.31" cy="225.68" r="6.01" fill="#c2ffed"/>
              <path d="M441.31,232.19a6.51,6.51,0,1,1,6.51-6.51A6.52,6.52,0,0,1,441.31,232.19Zm0-12a5.51,5.51,0,1,0,5.51,5.51A5.51,5.51,0,0,0,441.31,220.17Z" fill="#a0a0a0"/>
            </g>
            <g>
              <line x1="447.32" y1="225.68" x2="448.73" y2="225.68" fill="#c2ffed"/>
              <rect x="447.32" y="225.18" width="1.41" height="1" fill="#a0a0a0"/>
            </g>
            <g>
              <line x1="460.76" y1="225.68" x2="465.08" y2="222.98" fill="#c2ffed"/>
              <path d="M460.76,226.18a.5.5,0,0,1-.27-.92l4.32-2.7a.49.49,0,0,1,.69.16.48.48,0,0,1-.16.68L461,226.1A.42.42,0,0,1,460.76,226.18Z" fill="#a0a0a0"/>
            </g>
            <g>
              <line x1="435.45" y1="224.33" x2="438.63" y2="222.36" fill="#c2ffed"/>
              <path d="M435.45,224.83a.48.48,0,0,1-.42-.24.49.49,0,0,1,.16-.68l3.18-2a.49.49,0,0,1,.69.16.51.51,0,0,1-.16.69l-3.18,2A.45.45,0,0,1,435.45,224.83Z" fill="#a0a0a0"/>
            </g>
            <path d="M443.45,167.63s-20.12,11.1-29,25c-6.68,10.27-11.76,8.63-11.76,8.63l-1-.89s5.09-1.25,14.39-14.51,27.37-19.63,27.37-19.63Z" fill="#fcffe4"/>
            <path d="M472.3,174.14s17.18,31.86,40.45,27.18c0,0-9.38,4.7-22.3-4.37a60.89,60.89,0,0,1-18.69-21.37Z" fill="#fcffe4"/>
            <g>
              <path d="M453.71,138.8s26.24-11.6,44.52,22.57c16.47,30.77,19.46,28.14,25.45,28.94l-1.8,7S498.34,217,472.3,174.14c0,0-4.79,14.2-13.77,21.17a10,10,0,0,0-3.49,4.47H446.4a9.19,9.19,0,0,0-1.37-5.2c-1.61-2.51-1.58-28.38-1.58-28.38s-23,9.15-32.84,27.68c-4,7.58-8.92,6.46-8.92,6.46l-4.2-3.77s4.76-3.25,5.83-8.18S421,126.2,453.71,138.8Z" fill="#8cae00"/>
              <path d="M507.92,202.18a24.59,24.59,0,0,1-4-.33C492.84,200,482.23,191,472.38,175c-1.13,3-5.84,14.57-13.62,20.61a9.79,9.79,0,0,0-3.36,4.27l-.07.27H446l0-.4a8.79,8.79,0,0,0-1.31-5c-1.53-2.4-1.63-23.59-1.63-28-3.45,1.49-23.32,10.63-32.14,27.29-4.1,7.75-9.12,6.7-9.33,6.65l-.17-.08-4.56-4.09.39-.27c.05,0,4.66-3.23,5.68-7.95.08-.36,9.64-37.66,30.08-48.69a24,24,0,0,1,20.67-1.22c2.16-.86,27.33-10,44.86,22.8,14.9,27.82,18.73,28.16,23.6,28.58.5,0,1,.09,1.56.16l.42.06-1.93,7.49-.09.07A23.75,23.75,0,0,1,507.92,202.18ZM472.2,173.26l.42.69c9.84,16.2,20.4,25.34,31.41,27.16a23.36,23.36,0,0,0,17.52-4.05l1.66-6.43-1.12-.11c-5.29-.45-9.1-.78-24.19-29-17.91-33.48-43.78-22.52-44-22.41l-.14.07-.15-.06a23.21,23.21,0,0,0-20.18,1.13c-20.17,10.88-29.62,47.83-29.7,48.19-.93,4.25-4.43,7.22-5.61,8.12l3.78,3.4c.68.1,4.85.45,8.42-6.29,9.76-18.43,32.8-27.76,33-27.85l.52-.21v.56c0,7.16.25,26.19,1.51,28.18a9.57,9.57,0,0,1,1.45,5h8a11,11,0,0,1,3.51-4.38c8.79-6.82,13.6-20.86,13.65-21Z" fill="#9f9f9f"/>
            </g>
            <circle cx="500.1" cy="173.06" r="1.08" fill="#e0dd00"/>
            <circle cx="503.46" cy="194.49" r="1.08" fill="#e0dd00"/>
            <circle cx="514.54" cy="197.73" r="1.08" fill="#e0dd00"/>
            <circle cx="404.22" cy="192.89" r="1.08" fill="#e0dd00"/>
            <circle cx="423.65" cy="176.3" r="1.08" fill="#e0dd00"/>
            <circle cx="428.14" cy="170.03" r="1.08" fill="#e0dd00"/>
            <circle cx="414.65" cy="183.76" r="1.08" fill="#e0dd00"/>
            <circle cx="416.81" cy="179.54" r="1.08" fill="#e0dd00"/>
            <circle cx="407.72" cy="195.57" r="1.08" fill="#e0dd00"/>
            <circle cx="408.8" cy="177.38" r="1.08" fill="#e0dd00"/>
            <circle cx="407.72" cy="183.76" r="1.08" fill="#e0dd00"/>
            <circle cx="401.69" cy="196.65" r="1.08" fill="#e0dd00"/>
            <circle cx="410.71" cy="189.23" r="1.08" fill="#e0dd00"/>
            <circle cx="468.69" cy="174.14" r="1.08" fill="#e0dd00"/>
            <circle cx="458.1" cy="190.31" r="1.08" fill="#e0dd00"/>
            <circle cx="454.75" cy="193.41" r="1.08" fill="#e0dd00"/>
            <circle cx="451.75" cy="196.41" r="1.08" fill="#e0dd00"/>
            <circle cx="447.75" cy="194.41" r="1.08" fill="#e0dd00"/>
            <circle cx="461.94" cy="188.15" r="1.08" fill="#e0dd00"/>
            <circle cx="466.53" cy="180.37" r="1.08" fill="#e0dd00"/>
            <circle cx="461.53" cy="183.76" r="1.08" fill="#e0dd00"/>
            <circle cx="518.38" cy="195.57" r="1.08" fill="#e0dd00"/>
            <circle cx="508.74" cy="197.73" r="1.08" fill="#e0dd00"/>
            <circle cx="501.18" cy="197.73" r="1.08" fill="#e0dd00"/>
            <circle cx="452.16" cy="190.31" r="1.08" fill="#e0dd00"/>
            <path d="M446.65,229a.4.4,0,0,1-.15,0,.5.5,0,0,1-.33-.63c.59-1.81,1.19-2.58,1.95-2.57,1.07,0,1.6,1.84,1.77,2.61a.5.5,0,0,1-1,.23c-.2-.86-.62-1.78-.85-1.84,0,0-.39.14-.94,1.88A.51.51,0,0,1,446.65,229Z" fill="gray"/>
            <g opacity="0.74">
              <ellipse cx="467.56" cy="231.74" rx="4.92" ry="7.12" transform="matrix(0.01, -1, 1, 0.01, 233.35, 698.07)" fill="#fdcba8"/>
            </g>
            <g opacity="0.74">
              <ellipse cx="427.56" cy="231.74" rx="4.92" ry="7.12" transform="matrix(0.01, -1, 1, 0.01, 193.56, 658.07)" fill="#fdcba8"/>
            </g>
            <path d="M444.43,235a4.87,4.87,0,0,0,5,3.37,5.56,5.56,0,0,0,5.34-3.37Z" fill="#e11776"/>
            <g>
              <path d="M497.23,215.15h-.07a43.43,43.43,0,0,1-21.94-9.67,32.14,32.14,0,0,1-6.74-7.49.49.49,0,0,1,.17-.68.51.51,0,0,1,.69.17c.08.14,8.38,13.83,28,16.68a.51.51,0,0,1,.42.57A.5.5,0,0,1,497.23,215.15Z" fill="#f5c652"/>
              <path d="M483.65,210.93a.51.51,0,0,1-.36-.15.51.51,0,0,1,0-.71l9.92-9.95a.5.5,0,0,1,.71,0,.5.5,0,0,1,0,.71l-9.92,10A.49.49,0,0,1,483.65,210.93Z" fill="#f5c652"/>
              <path d="M488,212.65a.47.47,0,0,1-.35-.15.5.5,0,0,1,0-.71l9.28-9.31a.5.5,0,0,1,.71,0,.48.48,0,0,1,0,.7l-9.28,9.32A.49.49,0,0,1,488,212.65Z" fill="#f5c652"/>
              <path d="M479.8,208.71a.5.5,0,0,1-.35-.15.48.48,0,0,1,0-.7l9.46-9.47a.51.51,0,0,1,.71,0,.5.5,0,0,1,0,.71l-9.46,9.46A.51.51,0,0,1,479.8,208.71Z" fill="#f5c652"/>
              <path d="M476.36,206.13a.5.5,0,0,1-.35-.85l9.46-9.47a.5.5,0,1,1,.71.71L476.72,206A.51.51,0,0,1,476.36,206.13Z" fill="#f5c652"/>
              <path d="M473.78,203.55a.5.5,0,0,1-.35-.85l9.46-9.47a.5.5,0,1,1,.71.71l-9.46,9.46A.51.51,0,0,1,473.78,203.55Z" fill="#f5c652"/>
            </g>
          </g>
          <circle cx="483.65" cy="151.27" r="1.08" fill="#e0dd00"/>
          <circle cx="486.8" cy="163.31" r="1.08" fill="#e0dd00"/>
          <circle cx="492.26" cy="161.15" r="1.08" fill="#e0dd00"/>
          <circle cx="495.32" cy="165.64" r="1.08" fill="#e0dd00"/>
          <circle cx="480.46" cy="147.17" r="1.08" fill="#e0dd00"/>
          <circle cx="438.76" cy="146.59" r="1.08" fill="#e0dd00"/>
          <circle cx="435.3" cy="145.02" r="1.08" fill="#e0dd00"/>
          <circle cx="435.3" cy="149.02" r="1.08" fill="#e0dd00"/>
          <circle cx="430.3" cy="144.02" r="1.08" fill="#e0dd00"/>
          <circle cx="429.22" cy="148.89" r="1.08" fill="#e0dd00"/>
          <circle cx="437.22" cy="141.89" r="1.08" fill="#e0dd00"/>
          <circle cx="476.88" cy="144.79" r="1.08" fill="#e0dd00"/>
          <circle cx="500.1" cy="167.8" r="1.08" fill="#e0dd00"/>
          <circle cx="458.69" cy="156.14" r="1.08" fill="#e0dd00"/>
          <circle cx="458.69" cy="152.14" r="1.08" fill="#e0dd00"/>
          <circle cx="456.69" cy="149.14" r="1.08" fill="#e0dd00"/>
          <circle cx="453.24" cy="145.87" r="1.08" fill="#e0dd00"/>
          <circle cx="488.96" cy="156.99" r="1.08" fill="#e0dd00"/>
          <circle cx="473.3" cy="145.02" r="1.08" fill="#e0dd00"/>
          <circle cx="470.68" cy="142.06" r="1.08" fill="#e0dd00"/>
          <circle cx="467.61" cy="143.94" r="1.08" fill="#e0dd00"/>
          <path d="M451.42,140.7a.56.56,0,0,0-.09,1,5.54,5.54,0,0,0,3.65.63C458,142,455.56,139.07,451.42,140.7Z" fill="#4a6900"/>
          <path d="M452.37,141.28a.9.9,0,0,0,.86.37c.6-.05,2.27-.14,1.91-.57S453,140.16,452.37,141.28Z"/>
          <path d="M440.14,145.52a.51.51,0,0,1-.38-.18.51.51,0,0,1,.06-.71c5.3-4.42,9.88-2.81,10.07-2.74a.5.5,0,1,1-.34.94c-.17-.06-4.25-1.46-9.09,2.57A.49.49,0,0,1,440.14,145.52Z" fill="#e0dd00"/>
          <path d="M458.63,147.67a.5.5,0,0,1-.48-.35,4.32,4.32,0,0,0-3-3.29.51.51,0,0,1-.41-.58.5.5,0,0,1,.57-.41c.12,0,2.79.5,3.84,4a.5.5,0,0,1-.33.62A.39.39,0,0,1,458.63,147.67Z" fill="#e0dd00"/>
          <path d="M458.1,140.7a.49.49,0,0,1-.38-.82,3.86,3.86,0,0,1,3.94-.95.5.5,0,0,1-.27,1,2.89,2.89,0,0,0-2.92.63A.48.48,0,0,1,458.1,140.7Z" fill="#e0dd00"/>
        </g>
        <path d="M218.28,113.52s22.34,11.6,29,21.84-32,12.84-42,16.19-21.93-9.23-21.93-9.23Z" fill="#005a48"/>
        <g>
          <polyline points="175.66 146.99 164.81 140.52 153.65 135.08 141.89 130.16 129.04 130.02 117.34 135.14 105.95 140.26 97.09 149.21 88.85 158.63 80.27 167.8 72.5 177.67 64.9 187.71 58.06 199.19 69.14 193.25 78.66 186.25 89.59 181.88 100.09 176.69 110.6 171.46 122.11 168.76 133.14 164.99 144.41 161.96 156.02 161.24 167.18 163.14 174.82 147.12" fill="#809868"/>
          <g>
            <ellipse cx="219.6" cy="252.38" rx="71.54" ry="103.45" transform="matrix(0.97, -0.26, 0.26, 0.97, -57.17, 64.44)" fill="#f7c852"/>
            <g>
              <polyline points="203.58 150.47 205.49 138.67 210.79 127.89 219.58 119.65 228.09 111.81 236.89 103.54 248.69 101.23 260.88 99.13 273.34 99.76 285.38 103.04 297.29 106.45 308.94 110.64 320.61 114.74 332.35 118.67 345.37 123 332.04 123.95 320.13 125.42 308.33 127.68 296.17 127.58 284.38 130.01 272.74 133.09 261.04 135.88 249.88 140.41 239.05 145.46 229.06 151.83 220.77 158.71 211.68 155.35 202.48 151.25" fill="#809868"/>
              <polygon points="180.88 165.21 167.59 124.58 130.32 102.07 89.38 86.85 45.57 88.76 0 90.4 39.87 96.48 75.13 111.7 111.65 123.58 141.1 148.09 168.15 174.3 171.05 175.37 172.12 169.94 177.49 171.26 178.24 166.09 180.88 165.21" fill="#005a48"/>
              <polygon points="207.67 0 185.86 18.66 172.52 46.21 157.95 73.13 158.24 103.71 158.24 134.18 163.64 141.05 163.6 150.04 171.71 154.01 174.96 162.41 182.92 163.46 188.3 166.09 192.2 160.92 198.15 163.49 202.05 158.32 209.48 158.73 193.66 128.27 191.01 94.7 186.46 61.33 196.8 29.32 207.67 0" fill="#005a48"/>
              <g opacity="0.92">
                <path d="M159.54,259.66a3.49,3.49,0,0,1-2.87-5.49l59.64-85.82a3.5,3.5,0,0,1,5.75,4l-59.64,85.82A3.49,3.49,0,0,1,159.54,259.66Z" fill="#f0904e"/>
              </g>
              <g opacity="0.92">
                <path d="M169.69,297.29a3.47,3.47,0,0,1-2-.62,3.5,3.5,0,0,1-.89-4.87l70.77-102.05a3.5,3.5,0,0,1,5.75,4L172.57,295.79A3.49,3.49,0,0,1,169.69,297.29Z" fill="#f0904e"/>
              </g>
              <g opacity="0.92">
                <path d="M189.05,324.26a3.5,3.5,0,0,1-2.87-5.5l68.73-98.56a3.5,3.5,0,0,1,5.74,4l-68.73,98.56A3.47,3.47,0,0,1,189.05,324.26Z" fill="#f0904e"/>
              </g>
              <g opacity="0.92">
                <path d="M213.2,335a3.53,3.53,0,0,1-2-.63,3.49,3.49,0,0,1-.87-4.87L270,243.66a3.5,3.5,0,1,1,5.74,4l-59.64,85.82A3.5,3.5,0,0,1,213.2,335Z" fill="#f0904e"/>
              </g>
              <path d="M269.15,303.1a3.49,3.49,0,0,1-2.78-1.37L179.23,187.56a3.5,3.5,0,0,1,5.57-4.25l87.13,114.17a3.49,3.49,0,0,1-2.78,5.62Z" fill="#f0904e"/>
              <path d="M247,326.26a3.5,3.5,0,0,1-2.75-1.33L157.85,215.21a3.5,3.5,0,1,1,5.5-4.33L249.74,320.6a3.5,3.5,0,0,1-.59,4.91A3.44,3.44,0,0,1,247,326.26Z" fill="#f0904e"/>
              <ellipse cx="218.95" cy="197.42" rx="4.9" ry="7.55" transform="translate(-43.15 62.45) rotate(-14.79)" fill="#f0904e"/>
              <ellipse cx="197.17" cy="230.82" rx="4.9" ry="7.55" transform="translate(-52.4 58) rotate(-14.79)" fill="#f0904e"/>
              <ellipse cx="214.64" cy="257.02" rx="4.9" ry="7.55" transform="translate(-58.52 63.33) rotate(-14.79)" fill="#f0904e"/>
              <ellipse cx="200.02" cy="281.56" rx="4.9" ry="7.55" transform="matrix(0.97, -0.26, 0.26, 0.97, -65.27, 60.41)" fill="#f0904e"/>
              <ellipse cx="257.01" cy="249.63" rx="4.9" ry="7.55" transform="translate(-55.22 73.9) rotate(-14.79)" fill="#f0904e"/>
              <polygon points="193.15 136.83 187.28 140.79 182.22 147.64 173.88 145.95 166.75 150.6 158.12 145.99 149.1 171.87 142.87 198.14 153.33 223.13 162.82 248.51 179.71 267.15 175.17 241.3 167.01 214.52 171.86 187.01 176.12 159.41 193.15 136.83" fill="#809868"/>
              <polygon points="186.79 131.11 198.63 118.68 202.17 103.15 211.75 90.42 212.16 74.52 217.89 59.68 213.67 51.9 216.3 43.4 210.29 36.83 211.18 27.98 207.08 20.06 223.07 46.47 239.43 72.4 239.03 102.91 234.66 133.1 214.78 154.96 208.53 153.11 206.06 145.04 197.95 142.66 195.31 134.45 186.79 131.11" fill="#005a48"/>
              <polygon points="191.05 156.27 195.18 148.24 202.14 143.63 211.64 141.83 221.81 142.68 231.44 146.21 240.89 150.27 249.57 155.77 258.04 161.6 265.21 168.98 272.31 176.32 279.72 183.94 270.51 178.46 260.51 175.55 251.17 171.18 241.6 167.35 231.89 163.88 221.91 161.28 211.89 158.88 201.79 156.91 191.05 156.27" fill="#809868"/>
            </g>
          </g>
        </g>
        <g>
          <g clip-path="url(#clip-path)">
            <polygon points="343.75 357.38 404.72 249.46 404.72 357.38 343.75 357.38" fill="#ff8a69"/>
            <polygon points="342.5 357.38 404.72 247.24 404.72 249.46 343.75 357.38 342.5 357.38" fill="#ff8a69"/>
            <polygon points="341.24 357.38 404.72 245.02 404.72 247.24 342.5 357.38 341.24 357.38" fill="#ff8b68"/>
            <polygon points="339.99 357.38 404.72 242.8 404.72 245.02 341.24 357.38 339.99 357.38" fill="#ff8b67"/>
            <polygon points="338.73 357.38 404.72 240.57 404.72 242.8 339.99 357.38 338.73 357.38" fill="#ff8c66"/>
            <polygon points="337.48 357.38 404.72 238.35 404.72 240.57 338.73 357.38 337.48 357.38" fill="#ff8d65"/>
            <polygon points="336.22 357.38 404.72 236.13 404.72 238.35 337.48 357.38 336.22 357.38" fill="#ff8e64"/>
            <polygon points="334.96 357.38 404.72 233.91 404.72 236.13 336.22 357.38 334.96 357.38" fill="#ff8e63"/>
            <polygon points="333.71 357.38 404.72 231.69 404.72 233.91 334.96 357.38 333.71 357.38" fill="#ff8f62"/>
            <polygon points="332.45 357.38 404.72 229.47 404.72 231.69 333.71 357.38 332.45 357.38" fill="#ff9061"/>
            <polygon points="331.2 357.38 404.72 227.25 404.72 229.47 332.45 357.38 331.2 357.38" fill="#ff9060"/>
            <polygon points="329.94 357.38 404.72 225.02 404.72 227.25 331.2 357.38 329.94 357.38" fill="#ff915f"/>
            <polygon points="329.16 357.38 328.8 357.18 404.72 222.8 404.72 225.02 329.94 357.38 329.16 357.38" fill="#ff925e"/>
            <polygon points="328.8 357.18 327.85 356.64 404.72 220.58 404.72 222.8 328.8 357.18" fill="#ff935d"/>
            <polygon points="327.85 356.64 326.9 356.1 404.72 218.36 404.72 220.58 327.85 356.64" fill="#ff935c"/>
            <polygon points="326.9 356.1 325.95 355.56 403.97 217.47 404.72 217.89 404.72 218.36 326.9 356.1" fill="#ff945b"/>
            <rect x="285.18" y="285.7" width="158.61" height="1.09" transform="translate(-64.02 462.79) rotate(-60.54)" fill="#ff955a"/>
            <rect x="284.23" y="285.16" width="158.61" height="1.09" transform="translate(-64.04 461.69) rotate(-60.54)" fill="#ff9559"/>
            <rect x="283.27" y="284.63" width="158.61" height="1.09" transform="translate(-64.05 460.59) rotate(-60.54)" fill="#ff9658"/>
            <rect x="282.32" y="284.09" width="158.61" height="1.09" transform="translate(-64.07 459.48) rotate(-60.54)" fill="#ff9757"/>
            <rect x="281.37" y="283.55" width="158.61" height="1.09" transform="translate(-64.08 458.38) rotate(-60.54)" fill="#ff9856"/>
            <rect x="280.42" y="283.01" width="158.61" height="1.09" transform="translate(-64.1 457.28) rotate(-60.54)" fill="#ff9855"/>
            <rect x="279.47" y="282.48" width="158.61" height="1.09" transform="translate(-64.12 456.18) rotate(-60.54)" fill="#ff9954"/>
            <rect x="278.52" y="281.94" width="158.61" height="1.09" transform="translate(-64.13 455.08) rotate(-60.54)" fill="#ff9a53"/>
            <rect x="277.57" y="281.4" width="158.61" height="1.09" transform="translate(-64.15 453.98) rotate(-60.54)" fill="#ff9a52"/>
            <rect x="276.61" y="280.86" width="158.61" height="1.09" transform="translate(-64.16 452.88) rotate(-60.54)" fill="#ff9b51"/>
            <rect x="275.66" y="280.33" width="158.61" height="1.09" transform="translate(-64.18 451.77) rotate(-60.54)" fill="#ff9c50"/>
            <rect x="274.71" y="279.79" width="158.61" height="1.09" transform="translate(-64.19 450.67) rotate(-60.54)" fill="#ff9c4f"/>
            <rect x="273.76" y="279.25" width="158.61" height="1.09" transform="translate(-64.21 449.57) rotate(-60.54)" fill="#ff9d4e"/>
            <rect x="272.81" y="278.71" width="158.61" height="1.09" transform="translate(-64.22 448.47) rotate(-60.54)" fill="#ff9e4d"/>
            <rect x="271.86" y="278.18" width="158.61" height="1.09" transform="translate(-64.24 447.37) rotate(-60.54)" fill="#ff9f4c"/>
            <rect x="270.91" y="277.64" width="158.61" height="1.09" transform="translate(-64.25 446.27) rotate(-60.54)" fill="#ff9f4b"/>
            <rect x="269.95" y="277.1" width="158.61" height="1.09" transform="translate(-64.27 445.17) rotate(-60.54)" fill="#ffa04a"/>
            <rect x="269" y="276.56" width="158.61" height="1.09" transform="translate(-64.29 444.06) rotate(-60.54)" fill="#ffa149"/>
            <rect x="268.05" y="276.03" width="158.61" height="1.09" transform="translate(-64.3 442.96) rotate(-60.54)" fill="#ffa148"/>
            <rect x="267.1" y="275.49" width="158.61" height="1.09" transform="translate(-64.32 441.86) rotate(-60.54)" fill="#ffa247"/>
            <rect x="266.15" y="274.95" width="158.61" height="1.09" transform="translate(-64.33 440.76) rotate(-60.54)" fill="#ffa346"/>
            <rect x="265.2" y="274.41" width="158.61" height="1.09" transform="translate(-64.35 439.66) rotate(-60.54)" fill="#ffa445"/>
            <rect x="264.25" y="273.88" width="158.61" height="1.09" transform="translate(-64.36 438.56) rotate(-60.54)" fill="#ffa444"/>
            <rect x="263.29" y="273.34" width="158.61" height="1.09" transform="translate(-64.38 437.46) rotate(-60.54)" fill="#ffa543"/>
            <rect x="262.34" y="272.8" width="158.61" height="1.09" transform="translate(-64.39 436.35) rotate(-60.54)" fill="#ffa642"/>
            <rect x="261.39" y="272.26" width="158.61" height="1.09" transform="translate(-64.41 435.25) rotate(-60.54)" fill="#ffa641"/>
            <rect x="260.44" y="271.73" width="158.61" height="1.09" transform="translate(-64.42 434.15) rotate(-60.54)" fill="#ffa740"/>
            <rect x="259.49" y="271.19" width="158.61" height="1.09" transform="translate(-64.44 433.05) rotate(-60.54)" fill="#ffa83e"/>
            <rect x="258.54" y="270.65" width="158.61" height="1.09" transform="translate(-64.46 431.95) rotate(-60.54)" fill="#ffa93d"/>
            <rect x="257.59" y="270.11" width="158.61" height="1.09" transform="translate(-64.47 430.85) rotate(-60.54)" fill="#ffa93c"/>
            <rect x="256.63" y="269.58" width="158.61" height="1.09" transform="translate(-64.49 429.75) rotate(-60.54)" fill="#ffaa3b"/>
            <rect x="255.68" y="269.04" width="158.61" height="1.09" transform="translate(-64.5 428.64) rotate(-60.54)" fill="#ffab3a"/>
            <rect x="254.73" y="268.5" width="158.61" height="1.09" transform="translate(-64.52 427.54) rotate(-60.54)" fill="#ffab39"/>
            <rect x="253.78" y="267.96" width="158.61" height="1.09" transform="translate(-64.53 426.44) rotate(-60.54)" fill="#ffac38"/>
            <rect x="252.83" y="267.43" width="158.61" height="1.09" transform="translate(-64.55 425.34) rotate(-60.54)" fill="#ffad37"/>
            <rect x="251.88" y="266.89" width="158.61" height="1.09" transform="translate(-64.56 424.24) rotate(-60.54)" fill="#ffae36"/>
            <rect x="250.93" y="266.35" width="158.61" height="1.09" transform="translate(-64.58 423.14) rotate(-60.54)" fill="#ffae35"/>
            <rect x="249.97" y="265.81" width="158.61" height="1.09" transform="translate(-64.59 422.03) rotate(-60.54)" fill="#ffaf34"/>
            <rect x="249.02" y="265.28" width="158.61" height="1.09" transform="translate(-64.61 420.93) rotate(-60.54)" fill="#ffb033"/>
            <rect x="248.07" y="264.74" width="158.61" height="1.09" transform="translate(-64.63 419.83) rotate(-60.54)" fill="#ffb032"/>
            <polygon points="287.89 334.06 287.26 333.71 287.26 332.97 364.96 195.43 365.91 195.97 287.89 334.06" fill="#ffb131"/>
            <polygon points="287.26 330.75 364.01 194.89 364.96 195.43 287.26 332.97 287.26 330.75" fill="#ffb230"/>
            <polygon points="287.26 328.53 363.06 194.35 364.01 194.89 287.26 330.75 287.26 328.53" fill="#ffb32f"/>
            <polygon points="287.26 326.3 362.11 193.82 363.06 194.35 287.26 328.53 287.26 326.3" fill="#ffb32e"/>
            <polygon points="287.26 324.08 361.16 193.28 362.11 193.82 287.26 326.3 287.26 324.08" fill="#ffb42d"/>
            <polygon points="287.26 321.86 360.2 192.74 361.16 193.28 287.26 324.08 287.26 321.86" fill="#ffb52c"/>
            <polygon points="287.26 319.64 359.25 192.2 360.2 192.74 287.26 321.86 287.26 319.64" fill="#ffb52b"/>
            <polygon points="287.26 317.42 358.3 191.67 359.25 192.2 287.26 319.64 287.26 317.42" fill="#ffb62a"/>
            <polygon points="287.26 315.2 357.35 191.13 358.3 191.67 287.26 317.42 287.26 315.2" fill="#ffb729"/>
            <polygon points="287.26 312.98 356.4 190.59 357.35 191.13 287.26 315.2 287.26 312.98" fill="#ffb728"/>
            <polygon points="287.26 310.75 355.45 190.05 356.4 190.59 287.26 312.98 287.26 310.75" fill="#ffb827"/>
            <polygon points="287.26 308.53 354.5 189.52 355.45 190.05 287.26 310.75 287.26 308.53" fill="#ffb926"/>
            <polygon points="287.26 306.31 353.55 188.98 354.5 189.52 287.26 308.53 287.26 306.31" fill="#ffba25"/>
            <polygon points="287.26 304.09 352.59 188.44 353.55 188.98 287.26 306.31 287.26 304.09" fill="#ffba24"/>
            <polygon points="287.26 301.87 351.64 187.9 352.59 188.44 287.26 304.09 287.26 301.87" fill="#ffbb23"/>
            <polygon points="287.26 299.64 350.69 187.37 351.64 187.9 287.26 301.87 287.26 299.64" fill="#ffbc22"/>
            <polygon points="287.26 297.42 349.74 186.83 350.69 187.37 287.26 299.64 287.26 297.42" fill="#ffbc21"/>
            <polygon points="287.26 295.2 348.79 186.29 349.74 186.83 287.26 297.42 287.26 295.2" fill="#ffbd20"/>
            <polygon points="287.26 292.98 347.84 185.75 348.79 186.29 287.26 295.2 287.26 292.98" fill="#ffbe1f"/>
            <polygon points="287.26 290.76 346.88 185.22 347.84 185.75 287.26 292.98 287.26 290.76" fill="#ffbf1e"/>
            <polygon points="287.26 288.54 345.93 184.68 346.88 185.22 287.26 290.76 287.26 288.54" fill="#ffbf1d"/>
            <polygon points="287.26 286.32 344.98 184.14 345.93 184.68 287.26 288.54 287.26 286.32" fill="#ffc01c"/>
            <polygon points="287.26 284.1 344.03 183.6 344.98 184.14 287.26 286.32 287.26 284.1" fill="#ffc11b"/>
            <polygon points="287.26 281.87 342.85 183.46 343.78 183.46 344.03 183.6 287.26 284.1 287.26 281.87" fill="#ffc11a"/>
            <polygon points="287.26 279.65 341.6 183.46 342.85 183.46 287.26 281.87 287.26 279.65" fill="#ffc219"/>
            <polygon points="287.26 277.43 340.34 183.46 341.6 183.46 287.26 279.65 287.26 277.43" fill="#ffc318"/>
            <polygon points="287.26 275.21 339.09 183.46 340.34 183.46 287.26 277.43 287.26 275.21" fill="#ffc417"/>
            <polygon points="287.26 272.99 337.83 183.46 339.09 183.46 287.26 275.21 287.26 272.99" fill="#ffc416"/>
            <polygon points="287.26 270.76 336.58 183.46 337.83 183.46 287.26 272.99 287.26 270.76" fill="#ffc515"/>
            <polygon points="336.58 183.46 287.26 270.76 287.26 183.46 336.58 183.46" fill="#ffc515"/>
          </g>
          <path d="M363.9,299.65a1.39,1.39,0,0,0,2.21,1.49,20.47,20.47,0,0,0,6.35-9.79c2.73-9,1.29-7.44,1.29-7.44S369.63,282.1,363.9,299.65Z" fill="#965500"/>
          <path d="M351.84,308.6a1.38,1.38,0,0,0,2.2,1.49,20.48,20.48,0,0,0,6.36-9.79c2.73-9,1.28-7.44,1.28-7.44S357.57,291.05,351.84,308.6Z" fill="#965500"/>
          <path d="M376.17,268.24c-1.82,3.11-6.63.67-5.07-2.58a9.84,9.84,0,0,1,2.35-2.94C377.87,258.73,378.43,264.4,376.17,268.24Z" fill="#965500"/>
        </g>
        <g>
          <g>
            <path d="M169.47,365.82a4,4,0,0,1-.05-8l78.48-1,78.4-4.72h.19l78.61-1h.2l78.82,2.9a4,4,0,1,1-.3,8l-78.72-2.9-78.41,1-78.41,4.72h-.19l-78.57,1Z" fill="#e6e6e6"/>
            <path d="M479.4,425.84a2.88,2.88,0,0,1-.41,0l-75.3-7.62-75.4,3.23h-.2l-75.61-.65-75.53.91h0a4,4,0,0,1-.05-8l75.62-.91,75.58.65,75.59-3.23a3.64,3.64,0,0,1,.57,0l75.59,7.65a4,4,0,0,1-.4,8Z" fill="#e6e6e6"/>
            <g opacity="0.8">
              <polygon points="159.81 301.09 201.15 300.8 244 294.51 287.14 296.83 330.14 293.76 373.2 292.28 416.23 297.94 459.29 296.49 499.45 300.24 498.18 351.58 442.12 348.09 396.76 348.99 351.39 349.41 306.02 348.44 260.65 350.64 215.25 351.49 168.13 349.49 159.81 301.09" fill="#00ad00"/>
            </g>
            <g opacity="0.8">
              <path d="M171.09,369.06l44-.45,45.38-5,45.66,1.76L351.68,363l45.62-.93,45.42,5,45.29,1,3.77,9.36a33.35,33.35,0,0,1,1.18,22l-4.24,14.65-45.4-3.29-44.46-.05-44.46-.39L310,408.9,265.46,410l-44.5.1L174.81,408Z" fill="#ff3475"/>
            </g>
            <g opacity="0.8">
              <path d="M178.16,429.27l42.59-.58,43.58-4.34,43.83,1.49,43.73-2,43.79-.81,43.61,4.32,43.41.84-1.42,7.34c-1.59,8.23-7.31,15.86-16.24,21.68l-7.53,4.9-44,.58-44,.26-44-.67-44,1.46-44,.59-27.77-.26c-10.38-.1-20.23-3.06-27.18-8.17h0Z" fill="#09f"/>
            </g>
          </g>
          <path d="M359.05,467.14s31-102.26,16.05-179.25c-4.14-23.69-36.49-19.67-47.59-13.23,0,0,16.41,1.21,22.69,3.62s16.9,12.47,15.45,58.33-18.83,130.53-18.83,130.53Z" fill="#ff8"/>
          <path d="M263.14,273s-25.23,97.65-8.5,194.75H240.88s-5-74.77,1.34-112.72,12-82,12-82Z" fill="#ff8"/>
          <path d="M204.2,371.16s.63-53.57,20.28-63.06,38-27.9,29.78-35.15h8.88s5.05,19.55-35.18,47.44c-16.79,13.38-17.11,49.24-12.83,52.24C215.13,372.63,208,373.39,204.2,371.16Z" fill="#ffdb88"/>
          <g opacity="0.8">
            <path d="M352.34,468.38a1.74,1.74,0,0,1-.45-.06,1.51,1.51,0,0,1-1.05-1.44,1.72,1.72,0,0,1,.06-.44l.11-.36a461.89,461.89,0,0,0,19.84-122c.86-33.09-2.31-54.51-3.78-57.87C362,274.58,342.15,274.45,342,274.45a1.5,1.5,0,0,1,0-3c.9,0,22.05.15,27.87,13.51,3.49,8,12.61,89.15-15.94,182l-.11.36A1.49,1.49,0,0,1,352.34,468.38Z" fill="#ff3475"/>
          </g>
          <g opacity="0.8">
            <path d="M209.66,369.66h0a1,1,0,0,1-1-1l0-2.32c.13-20.41.16-25.89,4.84-37.26,4.25-10.31,5.27-11,17.73-19.22,2.58-1.71,5.8-3.84,9.64-6.45,21.17-14.38,17.48-30.06,17.44-30.22a1,1,0,0,1,1.93-.49c.18.7,4.07,17.2-18.25,32.37-3.84,2.61-7.07,4.74-9.66,6.46-12.48,8.25-13,8.57-17,18.31-4.53,11-4.57,16.41-4.69,36.51l0,2.32A1,1,0,0,1,209.66,369.66Z" fill="#ff3475"/>
          </g>
          <g opacity="0.8">
            <path d="M247.27,467.63a.75.75,0,0,1-.74-.66c0-.2-2.25-19.88-3.35-45.09-1-23.27-1.26-56.16,3.36-80.66l7.17-38.05a.75.75,0,0,1,1.48.27L248,341.5c-8.79,46.63-.08,124.52,0,125.3a.75.75,0,0,1-.66.83Z" fill="#ff3475"/>
          </g>
          <path d="M349.74,269.71s-13.73-.11-22,4.91S297.2,338.25,263.06,353s-37.63,21.53-58.86,18.13c0,0,1.9,5.58,10.14,8.37s37.3-18.13,52.87-19.94,47.26-45.35,65.63-76.6C339.82,271.27,349.74,269.71,349.74,269.71Z" fill="#ff8"/>
          <g opacity="0.8">
            <path d="M211.45,379a1,1,0,0,1-.2-2c8.88-1.84,18.73-6.56,28.27-11.13s19.61-9.39,28.73-11.29c8.26-1.71,28.6-21.54,37.31-38.7,7.19-14.18,21.59-34.24,27.45-42.2a1,1,0,1,1,1.61,1.18c-5.83,7.93-20.15,27.87-27.28,41.92-9.09,17.93-29.84,37.92-38.69,39.76s-18.74,6.57-28.27,11.13-19.61,9.4-28.73,11.29Z" fill="#ff3475"/>
          </g>
        </g>
        <g>
          <g>
            <path d="M400.67,345.71s-11.88-3.39-17.54,0-5.65,8.48-2.82,12.44c0,0-4,4,1.13,5.66s16.26,1.78,26.79-4.48C408.23,359.33,401.23,354.19,400.67,345.71Z" fill="#fdd9b1"/>
            <path d="M388.67,365.28a24.35,24.35,0,0,1-7.39-1c-1.64-.54-2.61-1.39-2.87-2.51-.36-1.51.72-3,1.26-3.66a9,9,0,0,1-1.56-6.8,9.45,9.45,0,0,1,4.77-6c5.77-3.46,17.43-.19,17.92,0l.34.1,0,.35c.55,8.15,7.3,13.2,7.36,13.25l.61.44-.65.39A39.27,39.27,0,0,1,388.67,365.28Zm1.5-20.58a13.47,13.47,0,0,0-6.78,1.44,8.38,8.38,0,0,0-4.3,5.37,8.13,8.13,0,0,0,1.62,6.35l.25.34-.3.31s-1.61,1.63-1.28,3c.18.75.93,1.35,2.22,1.78,4.77,1.6,15.48,1.78,25.75-4.07-1.71-1.44-6.54-6.11-7.16-13.16A43.5,43.5,0,0,0,390.17,344.7Z" fill="#999"/>
          </g>
          <g>
            <path d="M498.65,282.12a15.84,15.84,0,0,0-.77-9.9c-2.38-5.49-8.54-11-24.49-1.1a45.16,45.16,0,0,0-9.11,7.38c-15,15.79-15.69,38.56-63.91,66.24a3.21,3.21,0,0,0-1.61,3c.32,4.53,2.68,14.74,17.69,11.87C435.27,356,484.19,343.74,498.65,282.12Z" fill="#005a48"/>
            <path d="M482.36,306.42a.52.52,0,0,1-.29-.09.51.51,0,0,1-.21-.41l-.05-6.6-6.16,2.33a.47.47,0,0,1-.46-.06.48.48,0,0,1-.22-.41l0-6.59-6.16,2.33a.47.47,0,0,1-.46-.06.48.48,0,0,1-.22-.41l0-6.58-6.17,2.32a.5.5,0,0,1-.46-.05.52.52,0,0,1-.21-.41l-.05-7.31a.5.5,0,0,1,.5-.5h0a.49.49,0,0,1,.5.49l0,6.59,6.17-2.32a.5.5,0,0,1,.46.05.52.52,0,0,1,.21.41l0,6.59,6.16-2.33a.53.53,0,0,1,.46.06.49.49,0,0,1,.22.41l0,6.59,6.16-2.33a.53.53,0,0,1,.46.06.49.49,0,0,1,.22.41l0,6.6,6.18-2.33a.5.5,0,0,1,.64.3.5.5,0,0,1-.29.64l-6.85,2.57A.33.33,0,0,1,482.36,306.42Z" fill="#f5c652"/>
            <path d="M479.78,312.44a.52.52,0,0,1-.29-.09.51.51,0,0,1-.21-.41l0-6.6-6.16,2.33a.5.5,0,0,1-.46-.05.5.5,0,0,1-.22-.41l0-6.59-6.16,2.32a.5.5,0,0,1-.46-.05.5.5,0,0,1-.22-.41l0-6.59-6.17,2.32a.5.5,0,0,1-.46,0,.55.55,0,0,1-.22-.41l0-7.31a.5.5,0,0,1,.5-.5h0a.49.49,0,0,1,.5.49l0,6.6,6.17-2.33a.5.5,0,0,1,.46.05.52.52,0,0,1,.21.41l0,6.59,6.16-2.32a.5.5,0,0,1,.46.05.49.49,0,0,1,.22.41l0,6.59,6.16-2.32a.5.5,0,0,1,.46,0,.49.49,0,0,1,.22.41l0,6.6,6.18-2.32a.5.5,0,0,1,.35.93L480,312.41A.51.51,0,0,1,479.78,312.44Z" fill="#f5c652"/>
            <path d="M476.33,316.74a.51.51,0,0,1-.28-.09.53.53,0,0,1-.22-.41l0-6.59L469.62,312a.5.5,0,0,1-.46-.05.52.52,0,0,1-.21-.41l0-6.59-6.17,2.32a.48.48,0,0,1-.45-.05.5.5,0,0,1-.22-.41l0-6.59-6.17,2.33a.54.54,0,0,1-.46-.06.52.52,0,0,1-.22-.41l0-7.31a.5.5,0,0,1,.5-.5h0a.5.5,0,0,1,.5.5l0,6.59,6.17-2.33a.48.48,0,0,1,.46.06.49.49,0,0,1,.21.41l0,6.58,6.16-2.32a.5.5,0,0,1,.68.46l0,6.59,6.17-2.32a.5.5,0,0,1,.68.46l0,6.6L483,313.2a.5.5,0,0,1,.65.29.49.49,0,0,1-.29.64l-6.85,2.58A.57.57,0,0,1,476.33,316.74Z" fill="#f5c652"/>
            <circle cx="470.3" cy="323.88" r="3.01" fill="#f5c652"/>
            <circle cx="465.57" cy="320.01" r="1.29" fill="#f5c652"/>
            <circle cx="456.96" cy="312.27" r="1.29" fill="#f5c652"/>
            <circle cx="461.27" cy="316.57" r="3.01" fill="#f5c652"/>
            <circle cx="451.8" cy="308.82" r="3.01" fill="#f5c652"/>
          </g>
        </g>
        <path d="M439.78,218.7h9.34s0-7-4.67-7S439.78,218.7,439.78,218.7Z" fill="#007453"/>
        <path d="M453.78,218.7h9.34s0-7-4.67-7S453.78,218.7,453.78,218.7Z" fill="#007453"/>
      </g>
    </g>
  </g>
</svg>
