<svg xmlns="http://www.w3.org/2000/svg" viewBox="0 0 206 99">
  <g id="圖層_2" data-name="圖層 2">
    <g id="頁面">
      <g>
        <polygon points="197.75 1.5 204.5 21.47 204.5 97.5 13.77 97.5 1.5 82.91 1.5 1.5 197.75 1.5" fill="#f6d16b" stroke="#485349" stroke-linecap="round" stroke-linejoin="round" stroke-width="3"/>
        <path d="M58.36-54H139a0,0,0,0,1,0,0V138.26a1.1,1.1,0,0,1-1.1,1.1H58.36a0,0,0,0,1,0,0V-54A0,0,0,0,1,58.36-54Z" transform="translate(141.36 -56.03) rotate(90)" fill="#fff" stroke="#485349" stroke-linecap="round" stroke-linejoin="round" stroke-width="3"/>
        <g>
          <path d="M35,31.24a2.57,2.57,0,0,1,.78,2.05,25.15,25.15,0,0,1-4.6,14.65,36.93,36.93,0,0,1-4,5c-1.11,1.1-2,1.66-2.79,1.66a1.66,1.66,0,0,1-1.25-.41,2,2,0,0,1-.39-1.39,2.29,2.29,0,0,1,1-1.64,26.26,26.26,0,0,0,6.6-8.36,18.54,18.54,0,0,0,2.11-8c0-.81-.45-1.21-1.36-1.21h-6c-1.2,0-1.8-.53-1.8-1.6s.58-1.49,1.72-1.49h7.54A3.57,3.57,0,0,1,35,31.24ZM57.81,51.67a1.59,1.59,0,0,1,.41,1,1.68,1.68,0,0,1-1.88,1.92,5,5,0,0,1-2.69-1.33,28,28,0,0,1-3.83-3.87,35.67,35.67,0,0,1-4-5.86,57,57,0,0,1-3.38-7.26h-.15v18a3.83,3.83,0,0,1-.82,3.11,3.86,3.86,0,0,1-3.09.8h-3c-1.27,0-1.91-.54-1.91-1.6S34.07,55,35.32,55h1.92a1.73,1.73,0,0,0,1.25-.45A1.89,1.89,0,0,0,39,53.25V25c0-1.41.54-2.11,1.64-2.11a1.48,1.48,0,0,1,1.25.51,2.63,2.63,0,0,1,.39,1.6v4.1c.54,1.8,1,3.25,1.44,4.35A33.08,33.08,0,0,0,45.32,37q2.24-2,6.72-6.45c1.12-1.11,1.89-1.68,2.31-1.68a2,2,0,0,1,1.38.43,1.77,1.77,0,0,1,.45,1.33c0,.58-.82,1.62-2.46,3.13a80.93,80.93,0,0,1-7.11,5.62,41.59,41.59,0,0,0,4.73,6.72,26.33,26.33,0,0,0,5.2,4.57A5.83,5.83,0,0,1,57.81,51.67Z"/>
          <path d="M78.65,56.45V47.9a29.67,29.67,0,0,1-7.5,5.9q-5,3-7,3c-1,0-1.52-.56-1.52-1.68q0-1.12,1.95-1.83a36.18,36.18,0,0,0,12.85-7.38H64.54a2.09,2.09,0,0,1-1.36-.36,1.36,1.36,0,0,1-.43-1.13c0-.94.6-1.4,1.79-1.4H78.65V40.05H69.43a3.72,3.72,0,0,1-2.78-.94,4,4,0,0,1-1-2.85V27.94a4,4,0,0,1,1-2.93,3.77,3.77,0,0,1,2.78-1H91.07a4.31,4.31,0,0,1,3,1A3.58,3.58,0,0,1,95,27.82V36.1a4.61,4.61,0,0,1-.93,3,3.62,3.62,0,0,1-2.82.94H81.77V43H96.26c1.25,0,1.88.48,1.88,1.44s-.63,1.45-1.88,1.45H82.94a30.44,30.44,0,0,0,12.7,7.07q2.61.62,2.61,2a1.54,1.54,0,0,1-1.71,1.76,8,8,0,0,1-2.5-.71A29.44,29.44,0,0,1,81.77,47.7v8.75c0,1.3-.52,2-1.56,2S78.65,57.75,78.65,56.45Zm0-29.57H70.56a2.09,2.09,0,0,0-1.41.35,1.87,1.87,0,0,0-.31,1.37v1.88h9.81Zm0,6.45H68.84v2.15a2,2,0,0,0,.35,1.36,2,2,0,0,0,1.37.35h8.09ZM91.81,28.6a2.07,2.07,0,0,0-.33-1.37,1.9,1.9,0,0,0-1.35-.35H81.77v3.6h10Zm-.33,8.24a2,2,0,0,0,.33-1.36V33.33h-10v3.86h8.36A1.86,1.86,0,0,0,91.48,36.84Z"/>
          <path d="M103.1,30.3a1.48,1.48,0,0,1-.43-1.19A1.42,1.42,0,0,1,103.1,28a2,2,0,0,1,1.33-.38h13.94V24.5a1.76,1.76,0,0,1,3.52,0v3.08h14.53q1.8,0,1.8,1.53a1.49,1.49,0,0,1-.45,1.19,2.07,2.07,0,0,1-1.35.37h-32A2,2,0,0,1,103.1,30.3Zm15.39,26.23V39.23H111.3a2.11,2.11,0,0,0-1.5.5,2,2,0,0,0-.53,1.49V53.05a1.92,1.92,0,0,1-.39,1.33,1.61,1.61,0,0,1-1.25.43c-1.09,0-1.64-.58-1.64-1.76V40.16q-.31-4.29,4-4h8.52V33c0-1,.55-1.52,1.64-1.52s1.68.51,1.68,1.52v3.17h9c2.87-.21,4.19,1.12,4,4V50.55c.2,3-1.2,4.4-4.22,4.22h-2.85A1.5,1.5,0,0,1,126,53.09a1.54,1.54,0,0,1,1.72-1.76h1.87a1.69,1.69,0,0,0,1.92-1.91v-8.2a2,2,0,0,0-.51-1.49,2.06,2.06,0,0,0-1.49-.5h-7.73v17.3q0,1.8-1.68,1.8C119,58.33,118.49,57.73,118.49,56.53Z"/>
          <path d="M178.29,55.4a1.56,1.56,0,0,1-1.75,1.79q-2.46,0-6.92-2.14a34,34,0,0,1-7.77-5v6.41q0,1.92-1.56,1.92t-1.53-1.92V50.2a38.78,38.78,0,0,1-7.69,4.85q-4.73,2.34-6.84,2.34c-1.09,0-1.64-.57-1.64-1.72,0-.73.51-1.22,1.52-1.48a41.84,41.84,0,0,0,13.4-5.94h-13c-1.12,0-1.68-.46-1.68-1.37s.56-1.33,1.68-1.33h14.26V43.37h-8.32a3.23,3.23,0,0,1-2.38-.75,3,3,0,0,1-.66-2.38v-9q-2.67,2.85-3.36,2.85c-1,0-1.45-.53-1.45-1.6,0-.5.44-1.11,1.33-1.84a27.35,27.35,0,0,0,5.55-6.87A1.79,1.79,0,0,1,151,22.74q1.56,0,1.56,1.17a6.86,6.86,0,0,1-1.33,2.42h9.06l1.06-2.26a1.82,1.82,0,0,1,1.76-1.17c1.09,0,1.64.39,1.64,1.17a4.29,4.29,0,0,1-1,1.84l-.31.42h11.95c.91,0,1.37.42,1.37,1.25s-.46,1.25-1.37,1.25h-12.3v2.23H173.8c.91,0,1.37.41,1.37,1.21s-.46,1.21-1.37,1.21H163.14v2.35H173.8c.91,0,1.37.4,1.37,1.21s-.46,1.21-1.37,1.21H163.14v2.62H176c.94,0,1.4.41,1.4,1.25a1.2,1.2,0,0,1-.33,1,1.57,1.57,0,0,1-1.07.3H161.85v2.18H176.3c1.17,0,1.76.46,1.76,1.37s-.59,1.33-1.76,1.33H163.25a30.33,30.33,0,0,0,12.93,5.47C177.59,54,178.29,54.54,178.29,55.4ZM150.44,29.58v1.48h9.69V28.83h-8.91A.7.7,0,0,0,150.44,29.58Zm9.69,6.25V33.48h-9.69v2.35Zm0,5V38.25h-9.69V39.5c0,.86.46,1.31,1.37,1.37Z"/>
        </g>
      </g>
    </g>
  </g>
</svg>
