<svg id="ab253a23-acef-4215-acae-df227180c128" data-name="圖層 1" xmlns="http://www.w3.org/2000/svg" xmlns:xlink="http://www.w3.org/1999/xlink" viewBox="0 0 524.14 468.38"><defs><style>.fe973084-3f52-4aa6-b7ad-a7d3ae59250a{fill:none;}.bc056d28-a353-4a98-b9f2-efc4bf19f963{fill:#d78400;}.fc6a80e0-4053-48ba-ab59-89f063fdfe14{fill:gray;}.a2496471-5324-431f-a0d1-ac5beb9b6add{fill:#a87b00;}.b21de547-b8e2-4ff0-b195-4e95f15e72ac{fill:#989898;}.b291124f-10a1-4284-9d94-8046289ee447{fill:#003239;}.f2aa0a1d-e190-49f7-9da4-bad49eda4256{fill:#fdd8ad;}.f75a3856-04c2-4797-af1b-2dde6c8baff3{fill:#f5c646;}.adf2db51-fd13-477c-a3d5-41a1f3577298{fill:#fff;}.ad2da9e0-a107-4b51-921a-059b1b31197f{fill:#9e9e9e;}.a3489066-7c73-46cb-8d42-97820ce52a8c{fill:#005a48;}.b865e9f8-253f-49c3-b9ed-f6cbfc4cb799{fill:#fffcaa;}.b4bf351b-f956-4cfa-a31b-7af8c5d458dd{opacity:0.6;}.b269bdfc-3d25-4fd2-b2e9-8aad9422a012{fill:#bfffec;}.a7a52a4a-ad3e-458a-9386-1a0f3237f5d5{fill:#a0a0a0;}.a18546ce-fda1-4332-9740-5be0dc79f0c2{fill:#fbffe2;}.a70d6ea6-3186-4a11-8e82-2cbf12b841a7{fill:#8aaf00;}.e1bc7cdd-4762-4114-b36b-1b2a41ca6979{fill:#dfde00;}.ff416e9b-5fb7-4762-8e95-cc20c6ca9b8f{opacity:0.74;}.edc67d00-b77f-4220-960e-3a16cd06e8bb{fill:#fdcaa4;}.b2a248a2-323d-4ca2-a9b2-7b863d292942{fill:#e30875;}.f8c0505d-44a5-4cda-b5b0-37a718a97dfe{fill:#496a00;}.a291ffab-1e33-41ce-bd7c-9cbb4a5348e4{fill:#7f9966;}.a32f9ec7-0324-44ec-862b-dd80b86386cf{fill:#f7c845;}.a2df5933-c7b2-4847-8d9c-dda2934b4925{opacity:0.92;}.bb9b421c-610a-4884-a8ec-131fb0112d58{fill:#f29046;}.b274f323-d5b0-47fa-ab8a-e02e0b40f69c{clip-path:url(#e6b6fe22-465c-4d6e-903e-3abf3fda4e71);}.b1bc5812-e41f-4fad-8aaf-3eba92ed166c{fill:#ff8964;}.b89829a6-0bb1-4a34-ad9d-5ede86938b68{fill:#ff8a63;}.b26495e6-2815-41b7-9627-98ac1a5cf0e3{fill:#ff8a62;}.a397cd7c-29d6-4191-8809-7faad6e46fe5{fill:#ff8b61;}.fd9f32a1-7136-4b25-be96-9aa8af8a550e{fill:#ff8c60;}.e743da69-cb03-4aa9-b554-b4a6763ad772{fill:#ff8d5e;}.a46c3f9a-cd65-4a99-8c1e-0a550e1ec412{fill:#ff8d5d;}.b3a249bc-32e5-4be5-bbc3-87860b3d3393{fill:#ff8e5c;}.f9932026-2a6c-487b-90ea-403810d616da{fill:#ff8f5b;}.f2c6e1bc-388b-4a87-9d99-363609a115f7{fill:#ff8f5a;}.f9e2d563-fda8-415a-9a52-1174e3b95507{fill:#ff9059;}.f653cd58-2e21-49b6-bdaa-62d76002613a{fill:#ff9157;}.e8c8dd0e-d1de-44b3-abf3-e6814e4259c2{fill:#ff9256;}.ac304103-c697-416f-834c-5e71e616e9d6{fill:#ff9255;}.b0d85b77-c0c0-43eb-bb15-f73d51df7b81{fill:#ff9354;}.a9d9e464-6bf7-49b1-9712-c56784a0ee67{fill:#ff9453;}.eb6ea774-bb91-4e26-aa66-10ea40b30586{fill:#ff9452;}.b4f4f66e-ede2-4225-a995-201330de675b{fill:#ff9550;}.e3d60584-8848-4f71-9c21-2e591e1c58a5{fill:#ff964f;}.b3ecff64-1980-477d-90a1-ae9226d60d4f{fill:#ff974e;}.b5740f30-573e-4332-a646-4ca3869d3ef7{fill:#ff974d;}.ad1fef14-cb5f-4e13-ae09-688ccd55786f{fill:#ff984b;}.bec769b6-45a1-465e-b4fb-a31b2a869595{fill:#ff994a;}.f97d9255-beb0-49ac-9631-18889055fe3a{fill:#ff9949;}.a931b5cb-83f1-4e5a-8b28-782b33577f54{fill:#ff9a48;}.ec7f9e3d-cf24-4898-a604-8df922a504f5{fill:#ff9b46;}.b9ad1ea8-3e0e-421b-8a67-3b97ca4335b7{fill:#ff9b45;}.bb0994f6-9610-4f89-b114-e5c3dc0c7caf{fill:#ff9c44;}.a04fd135-0f54-48f1-a973-1cd40b80f20c{fill:#ff9d43;}.ea6d3ff4-67ac-47e0-b3c9-7a89f1883432{fill:#ff9f41;}.a96141d4-88cb-4b2a-951d-e1dc5f2732df{fill:#ff9f40;}.b9ed5e52-fe8f-4ee6-83d4-c8a0c62b7c32{fill:#ffa03f;}.e02b3991-425b-45c3-bb12-fdc2c3ffe796{fill:#ffa13d;}.e7039547-8947-4ef1-b03d-31bd70946f36{fill:#ffa13c;}.b25daac0-fc74-4f56-ad6c-6b37dd2e0239{fill:#ffa23b;}.fa179cd7-09fd-4cb8-8008-42755d832c2b{fill:#ffa339;}.e505c2fa-e70e-43fe-a826-9e8b130bf753{fill:#ffa438;}.b5abe2fb-bbd9-4fed-bbc2-f8f77def86b8{fill:#ffa436;}.a50c46b2-ca5d-4ca2-9b13-48b12315dc2d{fill:#ffa535;}.b3c458ed-7b5f-466b-9edf-8cad02fb1b77{fill:#ffa634;}.ed842060-70c5-4897-a932-c9774a75080d{fill:#ffa632;}.a0764873-efd0-46f9-903c-577fb3d43243{fill:#ffa731;}.b2ba57a6-13f8-4c9e-8853-f874de89b786{fill:#ffa82e;}.b6437727-1470-4d20-8a26-e61a65354fac{fill:#ffa92c;}.a622ac6d-075a-4b0d-8592-4e193ccb7e1a{fill:#ffa92a;}.b15c2fcd-71c7-44a6-abc9-db2ad1fd6332{fill:#ffaa29;}.a333141b-a821-41ac-87e1-b7e29d56524a{fill:#ffab27;}.e06cc990-7175-41cb-ab36-aae52c8976e8{fill:#ffab25;}.b9860e79-0d4b-46b1-96b8-a0f4390c0e8e{fill:#ffac24;}.ac36b80f-711b-4d7f-8ad3-28d8a33e8a60{fill:#ffad22;}.a0400bed-4155-40f5-91e9-469271e6c00e{fill:#ffae20;}.ab198297-51b3-4ffe-bce6-d30af8e91c13{fill:#ffae1e;}.ef58553d-d3ec-47f5-946b-f00b4148c9a0{fill:#ffaf1c;}.a8f55f2f-1bd0-4dd9-ad17-964097b95781{fill:#ffb019;}.be912709-f809-465b-ad7d-30296feaf0b2{fill:#ffb017;}.b0ab4877-acd7-43c9-8cfa-2e1c64d619ea{fill:#ffb115;}.b1a01c26-e5b9-4323-94c0-bc56172c45a1{fill:#ffb212;}.f266137e-3df3-4a73-b97e-6090a5ce094d{fill:#ffb30f;}.ebbf0d3f-51b9-438f-9477-3483360351a6{fill:#ffb30b;}.abf13aba-2530-4ae6-9992-990693e24638{fill:#ffb407;}.bd943cb2-a09c-4a4b-ba01-e9f673795dac{fill:#ffb503;}.b6ce879b-6661-4591-96c4-d56c65f726b1{fill:#ffb500;}.bf7fe2aa-8447-412e-bd90-fe8666be5027{fill:#ffb600;}.b3a0bac1-94e5-4c5e-a8c0-4f45e0a42d24{fill:#ffb700;}.b1506884-5f0f-4157-9323-49891e5e9cb2{fill:#ffb800;}.b647e027-273e-480e-8d85-5e7be0c0238e{fill:#ffb900;}.f833c456-b350-41d2-9bd5-e7dfeb0eafd2{fill:#ffba00;}.b831b742-8ded-42a7-8029-1570c137d9f2{fill:#fb0;}.fa7da88e-3a32-48aa-84e5-dacd400da8b1{fill:#ffbc00;}.b8211d76-3fd0-4ba1-ac36-b2ba3274f765{fill:#ffbd00;}.f6c68114-9942-4844-a942-0b34225895a8{fill:#ffbe00;}.b432be65-b617-437c-952a-1ec3cbaaa274{fill:#ffbf00;}.a34cc17e-25a8-44bc-8fef-d69bfa998e3d{fill:#ffc000;}.f7082684-f10e-43ba-a241-af7a1a656bbb{fill:#ffc100;}.e46968a9-8c45-41e8-8ddd-47d5c3fcc540{fill:#ffc200;}.f5ec8945-4acb-409f-8feb-c956d80ff4f8{fill:#ffc300;}.b3906c2c-5ddb-4ce6-bb32-13f8858d96b7{fill:#ffc400;}.bc87afde-f938-4792-b2b4-70ea10f03b48{fill:#ffc500;}.a033fd7d-ea0e-4c98-b22d-b7133a01a57e{fill:#965500;}.a69b2657-4cfb-4752-ab22-1ac11dc8184d{fill:#e5e5e5;}.a3e123f3-054e-443a-8524-1f1619232cc4{opacity:0.8;}.b2c8119b-724b-42d3-9a08-4553cff51dfa{fill:#00ae00;}.a29d502d-7e66-4533-9bfc-a564d0004981{fill:#ff2e73;}.a0ba4028-66c9-4c3b-a587-e2c014a60e61{fill:#0095ff;}.ae2354cf-ca59-4b84-b7e5-227b751ded40{fill:#ffff80;}.bd926991-423c-4aef-b004-86da36b54176{fill:#ffdb81;}.a73d615d-4090-424b-891d-6f3e12533f8e{fill:#007552;}</style><clipPath id="e6b6fe22-465c-4d6e-903e-3abf3fda4e71" transform="translate(-384.55 -133.3)"><path class="fe973084-3f52-4aa6-b7ad-a7d3ae59250a" d="M729.68,319.86a9,9,0,0,0-13.31,6.59c-2.54,17.71-8.7,49.7-21.57,66.41-12.37,16.08-23,55.92-5.39,72,28.37,25.86,62.3-17,75.54-39.07C789.27,385.18,769.41,342.26,729.68,319.86Z"/></clipPath></defs><title>market_Img</title><path class="bc056d28-a353-4a98-b9f2-efc4bf19f963" d="M870.44,491.93s-102.28-63.95-159-58.27S717.1,546.5,717.1,546.5l60.81.33C746.77,526.45,727.09,486,727.09,486s39.07,79.87,96.35,73.63C863.24,555.31,870.44,491.93,870.44,491.93Z" transform="translate(-384.55 -133.3)"/><path class="fc6a80e0-4053-48ba-ab59-89f063fdfe14" d="M817.15,560.49c-14.66,0-28-5.51-39.36-13.16l-61-.33-.14-.25a323.63,323.63,0,0,1-18.74-39.19c-11.22-28.55-13.7-49.3-7.37-61.68,3.79-7.43,10.82-11.71,20.88-12.72,16.22-1.62,46.91,1.75,101,27a617.69,617.69,0,0,1,58.28,31.3l.27.17,0,.31a136.11,136.11,0,0,1-8.61,32.36c-8.94,21.62-22.37,34-38.83,35.8A59.42,59.42,0,0,1,817.15,560.49ZM727.54,485.8a200,200,0,0,0,26.63,39.06c15.37,17.41,39.85,37.5,69.22,34.29,37.52-4.09,45.89-62.14,46.52-67A620.79,620.79,0,0,0,812,461.12c-29.73-13.91-71.3-29.87-100.46-27-9.7,1-16.46,5.07-20.09,12.18-14.35,28.08,23.3,95,25.94,99.66l58.86.32c-30.11-20.5-49.42-59.68-49.61-60.08l.9-.44Z" transform="translate(-384.55 -133.3)"/><path class="a2496471-5324-431f-a0d1-ac5beb9b6add" d="M839.5,516.5s-75,9-112-30c0,0,45.5,84.5,98.5,74.5,24-5,30.5-24.5,30.5-24.5Z" transform="translate(-384.55 -133.3)"/><path class="b21de547-b8e2-4ff0-b195-4e95f15e72ac" d="M817.37,562.3c-19.45,0-40.3-11.76-60.87-34.46a237.55,237.55,0,0,1-29.44-41.1l-1.78-3.3,2.58,2.72c36.41,38.37,110.83,29.93,111.58,29.84l.27,0,17.35,20.42-.09.27a35.24,35.24,0,0,1-6.34,10.54,42.86,42.86,0,0,1-24.53,14.29A47.19,47.19,0,0,1,817.37,562.3Zm-87.6-72.82a239,239,0,0,0,27.49,37.7c16.33,18,41.5,38.44,68.65,33.33a41.87,41.87,0,0,0,24-14,36.16,36.16,0,0,0,6.06-9.95L839.29,517C834.43,517.54,766.18,524.08,729.77,489.48Z" transform="translate(-384.55 -133.3)"/><path class="b291124f-10a1-4284-9d94-8046289ee447" d="M880.36,417.78s2.39-35.44-26-27.82-43.26-21.1-73.37,58l75,88S889.13,480.75,880.36,417.78Z" transform="translate(-384.55 -133.3)"/><path class="f2aa0a1d-e190-49f7-9da4-bad49eda4256" d="M826.28,389.69s-3.43,18.57,10.61,17.23,16.17-6,20.21-23.08C857.1,383.84,848.85,392.76,826.28,389.69Z" transform="translate(-384.55 -133.3)"/><path class="fc6a80e0-4053-48ba-ab59-89f063fdfe14" d="M835.49,407.49a9,9,0,0,1-7-2.78c-4.54-5-2.8-14.7-2.73-15.11l.09-.47.47.07c22,3,30.3-5.62,30.38-5.7l1.29-1.38-.43,1.83c-4,16.71-5.9,22.06-20.65,23.47A14.49,14.49,0,0,1,835.49,407.49Zm-8.79-17.24c-.28,2-1.11,9.78,2.56,13.79,1.74,1.89,4.29,2.7,7.58,2.38,13.07-1.24,15.49-4.94,19.41-21.18C853.25,387.54,844.43,392.55,826.7,390.25Z" transform="translate(-384.55 -133.3)"/><path class="f2aa0a1d-e190-49f7-9da4-bad49eda4256" d="M797.66,373.55a18.71,18.71,0,0,1-2.35-10.44c.3-3.94,2.59-7,3.55-10.69,1.23-4.83-8.32-29.07,5.07-43.52l0,0c6.79-5.08,15.42-8.11,24.09-9.39a49.34,49.34,0,0,1,39.06,10.71c20.84,17.6,14.6,42.57,14.6,42.57s15.62-14.94,17.86,2.17-13.85,23.5-17.74,25-4.66-2.77-4.66-2.77a84.82,84.82,0,0,1-21.28,9.43s-27.67,3.28-42.64-1.49C806.94,383.16,800.94,379.42,797.66,373.55Z" transform="translate(-384.55 -133.3)"/><path class="f75a3856-04c2-4797-af1b-2dde6c8baff3" d="M827.05,390.85s-6.16,1-15.8-2.12c-4.77-1.54-11.71-3.88-15-7.92-3.1-3.82-5.2-8.2-4.91-13.16.28-4.61,1-9.08,3.82-12.88,3.18-4.35-2.11-5.76-3.22-9.49a35.09,35.09,0,0,1-1-15.45,31.79,31.79,0,0,1,12.94-20.95l0,0c-13.39,14.45,2.44,41.05.21,45.51-.86,1.72-7.74.86-8.83,8.7a17,17,0,0,0,2.35,10.44c3.28,5.87,9.28,9.61,15.54,11.6,15,4.77,42.64,1.49,42.64,1.49C847.61,391.84,827.75,390.91,827.05,390.85Z" transform="translate(-384.55 -133.3)"/><path class="fc6a80e0-4053-48ba-ab59-89f063fdfe14" d="M823.79,391.48c-6.63,0-14.94-2.75-20.73-5.48-.66-.31-1.3-.64-1.9-1a20.31,20.31,0,0,1-9-9.7c-2.46-6.09-1.5-14.16,2.44-20.56,1.12-1.8,1.42-3,.11-4.78-.31-.42-.65-.82-1-1.25a9.49,9.49,0,0,1-2.13-3.34,35.45,35.45,0,0,1-1-15.62,31.94,31.94,0,0,1,13.09-21.19c6.39-4.79,14.78-8.06,24.26-9.46a49.66,49.66,0,0,1,39.35,10.8c18.27,15.43,15.85,36.73,15,41.82,2.23-1.92,8.35-6.66,12.89-5.06,2.56.9,4.16,3.67,4.76,8.21,1,8-1.24,18.83-18,25.44a3.64,3.64,0,0,1-3.2,0,4.27,4.27,0,0,1-1.82-2.5A86,86,0,0,1,856,387a.38.38,0,1,1-.21-.72,83.88,83.88,0,0,0,21.18-9.39.36.36,0,0,1,.35,0,.37.37,0,0,1,.22.28,4,4,0,0,0,1.59,2.51,2.93,2.93,0,0,0,2.56,0c16.3-6.43,18.52-16.95,17.51-24.64-.55-4.24-2-6.8-4.26-7.6-5.09-1.8-12.89,5.58-13,5.66a.39.39,0,0,1-.45.05.38.38,0,0,1-.17-.42c.06-.24,5.93-24.95-14.48-42.19a48.88,48.88,0,0,0-38.76-10.62c-9.36,1.38-17.63,4.6-23.93,9.31a31.25,31.25,0,0,0-12.79,20.71,34.67,34.67,0,0,0,1,15.28,9,9,0,0,0,2,3.08c.35.42.72.85,1.05,1.29,1.54,2.13,1.16,3.61-.08,5.62-3.82,6.2-4.76,14-2.38,19.88a19.55,19.55,0,0,0,8.65,9.33c.59.33,1.21.65,1.85,1,5.53,2.6,16.82,6.6,24.07,5.05a.37.37,0,1,1,.16.73A18.55,18.55,0,0,1,823.79,391.48Z" transform="translate(-384.55 -133.3)"/><ellipse class="adf2db51-fd13-477c-a3d5-41a1f3577298" cx="444.43" cy="219.85" rx="3.12" ry="5.83"/><path class="ad2da9e0-a107-4b51-921a-059b1b31197f" d="M829,359.35h0a2.78,2.78,0,0,1-2.51-.87c-.69-.89-1-2.53-1-5.33,0-3.48,1.53-6.21,3.49-6.21s3.5,2.73,3.5,6.21c0,2.8-.31,4.44-1,5.33A2.78,2.78,0,0,1,829,359.35Zm0-11.66c-1.48,0-2.74,2.5-2.74,5.46,0,2.55.27,4.14.83,4.87.43.55,1,.58,1.91.58s1.49,0,1.92-.58c.56-.73.83-2.32.83-4.87C831.73,350.19,830.47,347.69,829,347.69Z" transform="translate(-384.55 -133.3)"/><ellipse class="a3489066-7c73-46cb-8d42-97820ce52a8c" cx="445.34" cy="220.28" rx="2.21" ry="5.41"/><ellipse class="adf2db51-fd13-477c-a3d5-41a1f3577298" cx="458.82" cy="219.85" rx="3.12" ry="5.83"/><path class="ad2da9e0-a107-4b51-921a-059b1b31197f" d="M843.37,359.35h0a2.8,2.8,0,0,1-2.51-.87c-.68-.89-1-2.53-1-5.33,0-3.48,1.54-6.21,3.5-6.21s3.49,2.73,3.49,6.21c0,2.8-.3,4.44-1,5.33A2.77,2.77,0,0,1,843.37,359.35Zm0-11.66c-1.49,0-2.75,2.5-2.75,5.46,0,2.55.28,4.14.84,4.87.43.55,1,.58,1.9.58s1.49,0,1.92-.58c.56-.73.83-2.32.83-4.87C846.11,350.19,844.86,347.69,843.37,347.69Z" transform="translate(-384.55 -133.3)"/><ellipse class="a3489066-7c73-46cb-8d42-97820ce52a8c" cx="459.73" cy="220.28" rx="2.21" ry="5.41"/><polygon class="b865e9f8-253f-49c3-b9ed-f6cbfc4cb799" points="445.56 218.23 445.83 218.76 446.41 218.85 445.99 219.26 446.09 219.85 445.56 219.57 445.04 219.85 445.14 219.26 444.71 218.85 445.3 218.76 445.56 218.23"/><polygon class="b865e9f8-253f-49c3-b9ed-f6cbfc4cb799" points="459.38 218.23 459.64 218.76 460.23 218.85 459.81 219.26 459.91 219.85 459.38 219.57 458.86 219.85 458.96 219.26 458.53 218.85 459.12 218.76 459.38 218.23"/><path class="a3489066-7c73-46cb-8d42-97820ce52a8c" d="M832.1,321.54s25.22,29,50.58,31.48c0,0,7.26-7,12.25-5.7s9-30.3-9.76-46.22-57.52-23.13-81,.4-12.68,38.28-16.84,51.65c4.25-2.42,6.29-1.87,14-16.83,6-11.72,11-16.45,11-16.45l4.79,3.34,2.5-2.71,4,3.75,2.77-3.75,3.62,4.88Z" transform="translate(-384.55 -133.3)"/><path class="f75a3856-04c2-4797-af1b-2dde6c8baff3" d="M887.89,356.09a.84.84,0,0,0,.75,1.43c1.27-.27,2.47-.18,2.46,1.1,0,5.45-9.16,13.06-12.12,12.27a.14.14,0,0,0-.19.15c.14,1.06,1.43,5.14,13.12-6.26,5.32-5.45,2.93-10.46.05-10.7C890.59,354,889.09,355,887.89,356.09Z" transform="translate(-384.55 -133.3)"/><path class="fc6a80e0-4053-48ba-ab59-89f063fdfe14" d="M880.12,373.85a2.34,2.34,0,0,1-.38,0,1.82,1.82,0,0,1-1.62-1.34.68.68,0,0,1,.47-.84.67.67,0,0,1,.84.47c0,.15.12.31.5.36,2.27.34,9-4,12.14-9.17,1.3-2.12,2.45-5.21.62-7.82a1.94,1.94,0,0,0-1.61-.87c-1.47.08-3.06,2.16-3.55,2.95a.68.68,0,0,1-.93.22.69.69,0,0,1-.23-.94c.22-.35,2.2-3.45,4.63-3.59a3.23,3.23,0,0,1,2.78,1.42c1.81,2.57,1.62,5.79-.54,9.34C890,369.34,883.33,373.86,880.12,373.85Z" transform="translate(-384.55 -133.3)"/><g class="b4bf351b-f956-4cfa-a31b-7af8c5d458dd"><circle class="b269bdfc-3d25-4fd2-b2e9-8aad9422a012" cx="454.75" cy="225.68" r="6.01"/><path class="a7a52a4a-ad3e-458a-9386-1a0f3237f5d5" d="M839.3,365.49a6.51,6.51,0,1,1,6.51-6.51A6.53,6.53,0,0,1,839.3,365.49Zm0-12a5.51,5.51,0,1,0,5.51,5.51A5.52,5.52,0,0,0,839.3,353.47Z" transform="translate(-384.55 -133.3)"/></g><g class="b4bf351b-f956-4cfa-a31b-7af8c5d458dd"><circle class="b269bdfc-3d25-4fd2-b2e9-8aad9422a012" cx="441.31" cy="225.68" r="6.01"/><path class="a7a52a4a-ad3e-458a-9386-1a0f3237f5d5" d="M825.86,365.49a6.51,6.51,0,1,1,6.51-6.51A6.52,6.52,0,0,1,825.86,365.49Zm0-12a5.51,5.51,0,1,0,5.51,5.51A5.51,5.51,0,0,0,825.86,353.47Z" transform="translate(-384.55 -133.3)"/></g><line class="b269bdfc-3d25-4fd2-b2e9-8aad9422a012" x1="447.32" y1="225.68" x2="448.73" y2="225.68"/><rect class="a7a52a4a-ad3e-458a-9386-1a0f3237f5d5" x="447.32" y="225.18" width="1.41" height="1"/><line class="b269bdfc-3d25-4fd2-b2e9-8aad9422a012" x1="460.76" y1="225.68" x2="465.08" y2="222.98"/><path class="a7a52a4a-ad3e-458a-9386-1a0f3237f5d5" d="M845.31,359.48a.52.52,0,0,1-.43-.24.51.51,0,0,1,.16-.69l4.32-2.7a.51.51,0,0,1,.69.16.49.49,0,0,1-.16.69l-4.32,2.7A.5.5,0,0,1,845.31,359.48Z" transform="translate(-384.55 -133.3)"/><line class="b269bdfc-3d25-4fd2-b2e9-8aad9422a012" x1="435.45" y1="224.33" x2="438.63" y2="222.36"/><path class="a7a52a4a-ad3e-458a-9386-1a0f3237f5d5" d="M820,358.13a.51.51,0,0,1-.43-.24.51.51,0,0,1,.16-.69l3.18-2a.5.5,0,1,1,.53.84l-3.18,2A.5.5,0,0,1,820,358.13Z" transform="translate(-384.55 -133.3)"/><path class="a18546ce-fda1-4332-9740-5be0dc79f0c2" d="M828,300.93s-20.13,11.1-29,25c-6.68,10.27-11.76,8.63-11.76,8.63l-1-.9s5.09-1.24,14.39-14.51S828,299.49,828,299.49Z" transform="translate(-384.55 -133.3)"/><path class="a18546ce-fda1-4332-9740-5be0dc79f0c2" d="M856.85,307.44S874,339.29,897.3,334.62c0,0-9.38,4.7-22.3-4.37a60.89,60.89,0,0,1-18.69-21.37Z" transform="translate(-384.55 -133.3)"/><path class="a70d6ea6-3186-4a11-8e82-2cbf12b841a7" d="M838.26,272.1s26.24-11.6,44.53,22.57c16.46,30.77,19.45,28.13,25.44,28.94l-1.8,7s-23.54,19.74-49.58-23.13c0,0-4.79,14.2-13.77,21.17a10,10,0,0,0-3.49,4.47H831a9.19,9.19,0,0,0-1.37-5.2c-1.6-2.51-1.58-28.39-1.58-28.39s-23,9.16-32.84,27.68c-4,7.59-8.92,6.46-8.92,6.46l-4.2-3.77s4.76-3.24,5.83-8.17S805.5,259.5,838.26,272.1Z" transform="translate(-384.55 -133.3)"/><path class="ad2da9e0-a107-4b51-921a-059b1b31197f" d="M892.48,335.48a24.71,24.71,0,0,1-4-.33c-11.08-1.83-21.69-10.86-31.54-26.85-1.13,3-5.84,14.57-13.62,20.61a9.79,9.79,0,0,0-3.36,4.27l-.07.27h-9.34l0-.4a9,9,0,0,0-1.32-5c-1.53-2.4-1.63-23.59-1.63-28-3.45,1.49-23.32,10.63-32.14,27.29-4.1,7.75-9.12,6.7-9.33,6.65l-.17-.09-4.56-4.09.4-.27s4.65-3.22,5.68-7.94c.08-.37,9.63-37.66,30.07-48.69a24,24,0,0,1,20.67-1.22c2.16-.86,27.33-10,44.87,22.79,14.89,27.83,18.73,28.16,23.59,28.59.5,0,1,.08,1.57.16l.42.05-1.94,7.49-.09.08A23.74,23.74,0,0,1,892.48,335.48Zm-35.73-28.92.42.69c9.84,16.2,20.41,25.33,31.41,27.16a23.34,23.34,0,0,0,17.52-4.05l1.66-6.43-1.12-.11c-5.28-.45-9.1-.79-24.19-29-17.91-33.48-43.78-22.52-44-22.41l-.14.06-.15-.05a23.21,23.21,0,0,0-20.18,1.13c-20.17,10.88-29.62,47.83-29.7,48.19-.92,4.24-4.43,7.22-5.61,8.12l3.79,3.39c.68.11,4.84.46,8.41-6.28,9.76-18.43,32.8-27.76,33-27.85l.52-.21v.55c0,7.17.25,26.2,1.51,28.19a9.57,9.57,0,0,1,1.45,5h8a11.13,11.13,0,0,1,3.51-4.38c8.79-6.82,13.6-20.86,13.65-21Z" transform="translate(-384.55 -133.3)"/><circle class="e1bc7cdd-4762-4114-b36b-1b2a41ca6979" cx="500.1" cy="173.06" r="1.08"/><circle class="e1bc7cdd-4762-4114-b36b-1b2a41ca6979" cx="503.46" cy="194.49" r="1.08"/><circle class="e1bc7cdd-4762-4114-b36b-1b2a41ca6979" cx="514.54" cy="197.73" r="1.08"/><circle class="e1bc7cdd-4762-4114-b36b-1b2a41ca6979" cx="404.22" cy="192.89" r="1.08"/><circle class="e1bc7cdd-4762-4114-b36b-1b2a41ca6979" cx="423.65" cy="176.3" r="1.08"/><circle class="e1bc7cdd-4762-4114-b36b-1b2a41ca6979" cx="428.14" cy="170.03" r="1.08"/><circle class="e1bc7cdd-4762-4114-b36b-1b2a41ca6979" cx="414.65" cy="183.76" r="1.08"/><circle class="e1bc7cdd-4762-4114-b36b-1b2a41ca6979" cx="416.81" cy="179.54" r="1.08"/><circle class="e1bc7cdd-4762-4114-b36b-1b2a41ca6979" cx="407.72" cy="195.57" r="1.08"/><circle class="e1bc7cdd-4762-4114-b36b-1b2a41ca6979" cx="408.8" cy="177.38" r="1.08"/><circle class="e1bc7cdd-4762-4114-b36b-1b2a41ca6979" cx="407.72" cy="183.76" r="1.08"/><circle class="e1bc7cdd-4762-4114-b36b-1b2a41ca6979" cx="401.69" cy="196.65" r="1.08"/><circle class="e1bc7cdd-4762-4114-b36b-1b2a41ca6979" cx="410.71" cy="189.23" r="1.08"/><circle class="e1bc7cdd-4762-4114-b36b-1b2a41ca6979" cx="468.69" cy="174.14" r="1.08"/><circle class="e1bc7cdd-4762-4114-b36b-1b2a41ca6979" cx="458.1" cy="190.31" r="1.08"/><circle class="e1bc7cdd-4762-4114-b36b-1b2a41ca6979" cx="454.75" cy="193.41" r="1.08"/><circle class="e1bc7cdd-4762-4114-b36b-1b2a41ca6979" cx="451.75" cy="196.41" r="1.08"/><circle class="e1bc7cdd-4762-4114-b36b-1b2a41ca6979" cx="447.75" cy="194.41" r="1.08"/><circle class="e1bc7cdd-4762-4114-b36b-1b2a41ca6979" cx="461.94" cy="188.15" r="1.08"/><circle class="e1bc7cdd-4762-4114-b36b-1b2a41ca6979" cx="466.53" cy="180.37" r="1.08"/><circle class="e1bc7cdd-4762-4114-b36b-1b2a41ca6979" cx="461.53" cy="183.76" r="1.08"/><circle class="e1bc7cdd-4762-4114-b36b-1b2a41ca6979" cx="518.38" cy="195.57" r="1.08"/><circle class="e1bc7cdd-4762-4114-b36b-1b2a41ca6979" cx="508.74" cy="197.73" r="1.08"/><circle class="e1bc7cdd-4762-4114-b36b-1b2a41ca6979" cx="501.18" cy="197.73" r="1.08"/><circle class="e1bc7cdd-4762-4114-b36b-1b2a41ca6979" cx="452.16" cy="190.31" r="1.08"/><path class="fc6a80e0-4053-48ba-ab59-89f063fdfe14" d="M831.2,362.24a.39.39,0,0,1-.15,0,.5.5,0,0,1-.33-.63c.59-1.81,1.19-2.58,1.95-2.57,1.07,0,1.6,1.84,1.78,2.61a.5.5,0,0,1-.38.6.5.5,0,0,1-.6-.37,3.64,3.64,0,0,0-.85-1.85s-.38.15-.94,1.89A.5.5,0,0,1,831.2,362.24Z" transform="translate(-384.55 -133.3)"/><g class="ff416e9b-5fb7-4762-8e95-cc20c6ca9b8f"><ellipse class="edc67d00-b77f-4220-960e-3a16cd06e8bb" cx="852.11" cy="365.04" rx="4.92" ry="7.12" transform="matrix(0.01, -1, 1, 0.01, 98.03, 1081.91)"/></g><g class="ff416e9b-5fb7-4762-8e95-cc20c6ca9b8f"><ellipse class="edc67d00-b77f-4220-960e-3a16cd06e8bb" cx="812.11" cy="365.04" rx="4.92" ry="7.12" transform="matrix(0.01, -1, 1, 0.01, 58.24, 1041.91)"/></g><path class="b2a248a2-323d-4ca2-a9b2-7b863d292942" d="M829,368.3a4.87,4.87,0,0,0,5,3.37,5.56,5.56,0,0,0,5.34-3.37Z" transform="translate(-384.55 -133.3)"/><path class="f75a3856-04c2-4797-af1b-2dde6c8baff3" d="M881.78,348.45h-.07a43.43,43.43,0,0,1-21.94-9.67,32.44,32.44,0,0,1-6.74-7.49.5.5,0,0,1,.86-.51c.08.14,8.38,13.83,28,16.68a.51.51,0,0,1,.42.57A.5.5,0,0,1,881.78,348.45Z" transform="translate(-384.55 -133.3)"/><path class="f75a3856-04c2-4797-af1b-2dde6c8baff3" d="M868.2,344.22a.5.5,0,0,1-.36-.85l9.92-10a.51.51,0,0,1,.71,0,.5.5,0,0,1,0,.71l-9.92,10A.52.52,0,0,1,868.2,344.22Z" transform="translate(-384.55 -133.3)"/><path class="f75a3856-04c2-4797-af1b-2dde6c8baff3" d="M872.5,345.94a.5.5,0,0,1-.35-.85l9.28-9.31a.5.5,0,1,1,.7.7l-9.28,9.32A.5.5,0,0,1,872.5,345.94Z" transform="translate(-384.55 -133.3)"/><path class="f75a3856-04c2-4797-af1b-2dde6c8baff3" d="M864.35,342a.5.5,0,0,1-.35-.15.51.51,0,0,1,0-.71l9.46-9.46a.51.51,0,0,1,.71,0,.5.5,0,0,1,0,.71l-9.46,9.46A.51.51,0,0,1,864.35,342Z" transform="translate(-384.55 -133.3)"/><path class="f75a3856-04c2-4797-af1b-2dde6c8baff3" d="M860.91,339.43a.5.5,0,0,1-.35-.15.51.51,0,0,1,0-.71l9.46-9.46a.51.51,0,0,1,.71,0,.5.5,0,0,1,0,.71l-9.46,9.46A.51.51,0,0,1,860.91,339.43Z" transform="translate(-384.55 -133.3)"/><path class="f75a3856-04c2-4797-af1b-2dde6c8baff3" d="M858.33,336.85a.5.5,0,0,1-.35-.15.5.5,0,0,1,0-.71l9.46-9.46a.5.5,0,0,1,.71,0,.51.51,0,0,1,0,.71l-9.46,9.46A.51.51,0,0,1,858.33,336.85Z" transform="translate(-384.55 -133.3)"/><circle class="e1bc7cdd-4762-4114-b36b-1b2a41ca6979" cx="483.65" cy="151.27" r="1.08"/><circle class="e1bc7cdd-4762-4114-b36b-1b2a41ca6979" cx="486.8" cy="163.31" r="1.08"/><circle class="e1bc7cdd-4762-4114-b36b-1b2a41ca6979" cx="492.26" cy="161.15" r="1.08"/><circle class="e1bc7cdd-4762-4114-b36b-1b2a41ca6979" cx="495.32" cy="165.64" r="1.08"/><circle class="e1bc7cdd-4762-4114-b36b-1b2a41ca6979" cx="480.46" cy="147.17" r="1.08"/><circle class="e1bc7cdd-4762-4114-b36b-1b2a41ca6979" cx="438.76" cy="146.59" r="1.08"/><circle class="e1bc7cdd-4762-4114-b36b-1b2a41ca6979" cx="435.3" cy="145.02" r="1.08"/><circle class="e1bc7cdd-4762-4114-b36b-1b2a41ca6979" cx="435.3" cy="149.02" r="1.08"/><circle class="e1bc7cdd-4762-4114-b36b-1b2a41ca6979" cx="430.3" cy="144.02" r="1.08"/><circle class="e1bc7cdd-4762-4114-b36b-1b2a41ca6979" cx="429.22" cy="148.89" r="1.08"/><circle class="e1bc7cdd-4762-4114-b36b-1b2a41ca6979" cx="437.22" cy="141.89" r="1.08"/><circle class="e1bc7cdd-4762-4114-b36b-1b2a41ca6979" cx="476.88" cy="144.79" r="1.08"/><circle class="e1bc7cdd-4762-4114-b36b-1b2a41ca6979" cx="500.1" cy="167.8" r="1.08"/><circle class="e1bc7cdd-4762-4114-b36b-1b2a41ca6979" cx="458.69" cy="156.14" r="1.08"/><circle class="e1bc7cdd-4762-4114-b36b-1b2a41ca6979" cx="458.69" cy="152.14" r="1.08"/><circle class="e1bc7cdd-4762-4114-b36b-1b2a41ca6979" cx="456.69" cy="149.14" r="1.08"/><circle class="e1bc7cdd-4762-4114-b36b-1b2a41ca6979" cx="453.24" cy="145.87" r="1.08"/><circle class="e1bc7cdd-4762-4114-b36b-1b2a41ca6979" cx="488.96" cy="156.99" r="1.08"/><circle class="e1bc7cdd-4762-4114-b36b-1b2a41ca6979" cx="473.3" cy="145.02" r="1.08"/><circle class="e1bc7cdd-4762-4114-b36b-1b2a41ca6979" cx="470.68" cy="142.06" r="1.08"/><circle class="e1bc7cdd-4762-4114-b36b-1b2a41ca6979" cx="467.61" cy="143.94" r="1.08"/><path class="f8c0505d-44a5-4cda-b5b0-37a718a97dfe" d="M836,274a.55.55,0,0,0-.09,1,5.42,5.42,0,0,0,3.65.63C842.57,275.25,840.11,272.37,836,274Z" transform="translate(-384.55 -133.3)"/><path d="M836.92,274.58a.9.9,0,0,0,.86.37c.61-.05,2.27-.14,1.91-.58S837.57,273.45,836.92,274.58Z" transform="translate(-384.55 -133.3)"/><path class="e1bc7cdd-4762-4114-b36b-1b2a41ca6979" d="M824.69,278.81a.5.5,0,0,1-.32-.88c5.31-4.42,9.88-2.81,10.08-2.74a.5.5,0,0,1-.35.94c-.17-.06-4.25-1.46-9.09,2.57A.48.48,0,0,1,824.69,278.81Z" transform="translate(-384.55 -133.3)"/><path class="e1bc7cdd-4762-4114-b36b-1b2a41ca6979" d="M843.18,281a.49.49,0,0,1-.47-.35c-.87-2.87-3-3.28-3.05-3.29a.51.51,0,0,1-.41-.58.5.5,0,0,1,.58-.41c.11,0,2.78.49,3.83,4a.5.5,0,0,1-.33.62A.39.39,0,0,1,843.18,281Z" transform="translate(-384.55 -133.3)"/><path class="e1bc7cdd-4762-4114-b36b-1b2a41ca6979" d="M842.65,274a.5.5,0,0,1-.33-.12.51.51,0,0,1-.05-.71,3.89,3.89,0,0,1,3.94-.94.5.5,0,0,1,.35.61.49.49,0,0,1-.61.35,2.92,2.92,0,0,0-2.93.64A.5.5,0,0,1,842.65,274Z" transform="translate(-384.55 -133.3)"/><path class="a3489066-7c73-46cb-8d42-97820ce52a8c" d="M602.83,246.81s22.35,11.61,29,21.85-32,12.84-42,16.19-21.93-9.23-21.93-9.23Z" transform="translate(-384.55 -133.3)"/><polyline class="a291ffab-1e33-41ce-bd7c-9cbb4a5348e4" points="175.66 146.99 164.81 140.52 153.65 135.08 141.89 130.16 129.04 130.02 117.34 135.14 105.95 140.26 97.09 149.21 88.85 158.63 80.27 167.8 72.5 177.67 64.9 187.71 58.06 199.19 69.14 193.25 78.66 186.25 89.59 181.88 100.09 176.69 110.6 171.46 122.11 168.76 133.14 164.99 144.41 161.96 156.02 161.24 167.18 163.14 174.82 147.12"/><ellipse class="a32f9ec7-0324-44ec-862b-dd80b86386cf" cx="604.15" cy="385.68" rx="71.54" ry="103.45" transform="matrix(0.97, -0.26, 0.26, 0.97, -463.01, 33.76)"/><polyline class="a291ffab-1e33-41ce-bd7c-9cbb4a5348e4" points="203.58 150.47 205.49 138.67 210.79 127.89 219.58 119.65 228.09 111.81 236.89 103.54 248.69 101.23 260.88 99.13 273.34 99.76 285.38 103.04 297.29 106.45 308.94 110.64 320.61 114.74 332.35 118.67 345.37 123 332.04 123.95 320.13 125.42 308.33 127.68 296.17 127.58 284.38 130.01 272.74 133.09 261.04 135.88 249.88 140.41 239.05 145.46 229.06 151.83 220.77 158.71 211.68 155.35 202.48 151.25"/><polygon class="a3489066-7c73-46cb-8d42-97820ce52a8c" points="180.88 165.21 167.59 124.58 130.32 102.07 89.38 86.85 45.57 88.76 0 90.4 39.87 96.48 75.13 111.7 111.65 123.58 141.1 148.09 168.15 174.3 171.05 175.37 172.12 169.94 177.49 171.26 178.24 166.09 180.88 165.21"/><polygon class="a3489066-7c73-46cb-8d42-97820ce52a8c" points="207.67 0 185.86 18.66 172.52 46.21 157.95 73.13 158.24 103.71 158.24 134.18 163.64 141.05 163.6 150.04 171.71 154.01 174.96 162.41 182.92 163.46 188.3 166.09 192.2 160.92 198.15 163.49 202.05 158.32 209.48 158.73 193.66 128.27 191.01 94.7 186.46 61.33 196.8 29.32 207.67 0"/><g class="a2df5933-c7b2-4847-8d9c-dda2934b4925"><path class="bb9b421c-610a-4884-a8ec-131fb0112d58" d="M544.09,393a3.47,3.47,0,0,1-2-.62,3.51,3.51,0,0,1-.88-4.88l59.64-85.81a3.5,3.5,0,0,1,5.75,4L547,391.46A3.49,3.49,0,0,1,544.09,393Z" transform="translate(-384.55 -133.3)"/></g><g class="a2df5933-c7b2-4847-8d9c-dda2934b4925"><path class="bb9b421c-610a-4884-a8ec-131fb0112d58" d="M554.24,430.59a3.49,3.49,0,0,1-2.87-5.49L622.13,323a3.5,3.5,0,0,1,5.75,4L557.12,429.08A3.48,3.48,0,0,1,554.24,430.59Z" transform="translate(-384.55 -133.3)"/></g><g class="a2df5933-c7b2-4847-8d9c-dda2934b4925"><path class="bb9b421c-610a-4884-a8ec-131fb0112d58" d="M573.6,457.56a3.5,3.5,0,0,1-2.87-5.51l68.73-98.56a3.5,3.5,0,1,1,5.74,4l-68.72,98.56A3.53,3.53,0,0,1,573.6,457.56Z" transform="translate(-384.55 -133.3)"/></g><g class="a2df5933-c7b2-4847-8d9c-dda2934b4925"><path class="bb9b421c-610a-4884-a8ec-131fb0112d58" d="M597.75,468.27a3.49,3.49,0,0,1-2.87-5.49L654.52,377a3.5,3.5,0,0,1,5.75,4l-59.65,85.82A3.49,3.49,0,0,1,597.75,468.27Z" transform="translate(-384.55 -133.3)"/></g><path class="bb9b421c-610a-4884-a8ec-131fb0112d58" d="M653.7,436.4a3.47,3.47,0,0,1-2.78-1.38L563.78,320.86a3.5,3.5,0,1,1,5.57-4.25l87.13,114.17a3.49,3.49,0,0,1-2.78,5.62Z" transform="translate(-384.55 -133.3)"/><path class="bb9b421c-610a-4884-a8ec-131fb0112d58" d="M631.54,459.56a3.5,3.5,0,0,1-2.75-1.33L542.41,348.5a3.5,3.5,0,0,1,5.5-4.33L634.29,453.9a3.5,3.5,0,0,1-.59,4.91A3.44,3.44,0,0,1,631.54,459.56Z" transform="translate(-384.55 -133.3)"/><ellipse class="bb9b421c-610a-4884-a8ec-131fb0112d58" cx="603.5" cy="330.72" rx="4.9" ry="7.55" transform="matrix(0.97, -0.26, 0.26, 0.97, -448.99, 31.77)"/><ellipse class="bb9b421c-610a-4884-a8ec-131fb0112d58" cx="581.72" cy="364.12" rx="4.9" ry="7.55" transform="translate(-458.25 27.32) rotate(-14.79)"/><ellipse class="bb9b421c-610a-4884-a8ec-131fb0112d58" cx="599.19" cy="390.32" rx="4.9" ry="7.55" transform="translate(-464.36 32.65) rotate(-14.79)"/><ellipse class="bb9b421c-610a-4884-a8ec-131fb0112d58" cx="584.57" cy="414.86" rx="4.9" ry="7.55" transform="translate(-471.11 29.73) rotate(-14.79)"/><ellipse class="bb9b421c-610a-4884-a8ec-131fb0112d58" cx="641.56" cy="382.93" rx="4.9" ry="7.55" transform="translate(-461.06 43.22) rotate(-14.79)"/><polygon class="a291ffab-1e33-41ce-bd7c-9cbb4a5348e4" points="193.15 136.83 187.28 140.79 182.22 147.64 173.88 145.95 166.75 150.6 158.12 145.99 149.1 171.87 142.87 198.14 153.33 223.13 162.82 248.51 179.71 267.15 175.17 241.3 167.01 214.52 171.86 187.01 176.12 159.41 193.15 136.83"/><polygon class="a3489066-7c73-46cb-8d42-97820ce52a8c" points="186.79 131.11 198.63 118.68 202.17 103.15 211.75 90.42 212.16 74.52 217.89 59.68 213.67 51.9 216.3 43.4 210.29 36.83 211.18 27.98 207.08 20.06 223.07 46.47 239.43 72.4 239.03 102.91 234.66 133.1 214.78 154.96 208.53 153.11 206.06 145.04 197.95 142.66 195.31 134.45 186.79 131.11"/><polygon class="a291ffab-1e33-41ce-bd7c-9cbb4a5348e4" points="191.05 156.27 195.18 148.24 202.14 143.63 211.64 141.83 221.81 142.68 231.44 146.21 240.89 150.27 249.57 155.77 258.04 161.6 265.21 168.98 272.31 176.32 279.72 183.94 270.51 178.46 260.51 175.55 251.17 171.18 241.6 167.35 231.89 163.88 221.91 161.28 211.89 158.88 201.79 156.91 191.05 156.27"/><g class="b274f323-d5b0-47fa-ab8a-e02e0b40f69c"><polygon class="b1bc5812-e41f-4fad-8aaf-3eba92ed166c" points="343.75 357.38 404.72 249.46 404.72 357.38 343.75 357.38"/><polygon class="b1bc5812-e41f-4fad-8aaf-3eba92ed166c" points="342.5 357.38 404.72 247.24 404.72 249.46 343.75 357.38 342.5 357.38"/><polygon class="b89829a6-0bb1-4a34-ad9d-5ede86938b68" points="341.24 357.38 404.72 245.02 404.72 247.24 342.5 357.38 341.24 357.38"/><polygon class="b26495e6-2815-41b7-9627-98ac1a5cf0e3" points="339.99 357.38 404.72 242.8 404.72 245.02 341.24 357.38 339.99 357.38"/><polygon class="a397cd7c-29d6-4191-8809-7faad6e46fe5" points="338.73 357.38 404.72 240.57 404.72 242.8 339.99 357.38 338.73 357.38"/><polygon class="fd9f32a1-7136-4b25-be96-9aa8af8a550e" points="337.48 357.38 404.72 238.35 404.72 240.57 338.73 357.38 337.48 357.38"/><polygon class="e743da69-cb03-4aa9-b554-b4a6763ad772" points="336.22 357.38 404.72 236.13 404.72 238.35 337.48 357.38 336.22 357.38"/><polygon class="a46c3f9a-cd65-4a99-8c1e-0a550e1ec412" points="334.96 357.38 404.72 233.91 404.72 236.13 336.22 357.38 334.96 357.38"/><polygon class="b3a249bc-32e5-4be5-bbc3-87860b3d3393" points="333.71 357.38 404.72 231.69 404.72 233.91 334.96 357.38 333.71 357.38"/><polygon class="f9932026-2a6c-487b-90ea-403810d616da" points="332.45 357.38 404.72 229.47 404.72 231.69 333.71 357.38 332.45 357.38"/><polygon class="f2c6e1bc-388b-4a87-9d99-363609a115f7" points="331.2 357.38 404.72 227.25 404.72 229.47 332.45 357.38 331.2 357.38"/><polygon class="f9e2d563-fda8-415a-9a52-1174e3b95507" points="329.94 357.38 404.72 225.02 404.72 227.25 331.2 357.38 329.94 357.38"/><polygon class="f653cd58-2e21-49b6-bdaa-62d76002613a" points="329.16 357.38 328.8 357.18 404.72 222.8 404.72 225.02 329.94 357.38 329.16 357.38"/><polygon class="e8c8dd0e-d1de-44b3-abf3-e6814e4259c2" points="328.8 357.18 327.85 356.64 404.72 220.58 404.72 222.8 328.8 357.18"/><polygon class="ac304103-c697-416f-834c-5e71e616e9d6" points="327.85 356.64 326.9 356.1 404.72 218.36 404.72 220.58 327.85 356.64"/><polygon class="b0d85b77-c0c0-43eb-bb15-f73d51df7b81" points="326.9 356.1 325.95 355.56 403.97 217.47 404.72 217.89 404.72 218.36 326.9 356.1"/><rect class="a9d9e464-6bf7-49b1-9712-c56784a0ee67" x="669.73" y="419" width="158.61" height="1.09" transform="translate(-369.23 732.04) rotate(-60.54)"/><rect class="eb6ea774-bb91-4e26-aa66-10ea40b30586" x="668.78" y="418.46" width="158.61" height="1.09" transform="translate(-369.25 730.94) rotate(-60.54)"/><rect class="b4f4f66e-ede2-4225-a995-201330de675b" x="667.83" y="417.92" width="158.61" height="1.09" transform="translate(-369.27 729.83) rotate(-60.54)"/><rect class="e3d60584-8848-4f71-9c21-2e591e1c58a5" x="666.87" y="417.39" width="158.61" height="1.09" transform="translate(-369.28 728.73) rotate(-60.54)"/><rect class="b3ecff64-1980-477d-90a1-ae9226d60d4f" x="665.92" y="416.85" width="158.61" height="1.09" transform="translate(-369.3 727.63) rotate(-60.54)"/><rect class="b5740f30-573e-4332-a646-4ca3869d3ef7" x="664.97" y="416.31" width="158.61" height="1.09" transform="matrix(0.49, -0.87, 0.87, 0.49, -369.31, 726.53)"/><rect class="ad1fef14-cb5f-4e13-ae09-688ccd55786f" x="664.02" y="415.77" width="158.61" height="1.09" transform="translate(-369.33 725.43) rotate(-60.54)"/><rect class="bec769b6-45a1-465e-b4fb-a31b2a869595" x="663.07" y="415.24" width="158.61" height="1.09" transform="matrix(0.49, -0.87, 0.87, 0.49, -369.34, 724.33)"/><rect class="f97d9255-beb0-49ac-9631-18889055fe3a" x="662.12" y="414.7" width="158.61" height="1.09" transform="translate(-369.36 723.23) rotate(-60.54)"/><rect class="a931b5cb-83f1-4e5a-8b28-782b33577f54" x="661.17" y="414.16" width="158.61" height="1.09" transform="matrix(0.49, -0.87, 0.87, 0.49, -369.37, 722.12)"/><rect class="ec7f9e3d-cf24-4898-a604-8df922a504f5" x="660.21" y="413.62" width="158.61" height="1.09" transform="translate(-369.39 721.02) rotate(-60.54)"/><rect class="b9ad1ea8-3e0e-421b-8a67-3b97ca4335b7" x="659.26" y="413.09" width="158.61" height="1.09" transform="translate(-369.4 719.92) rotate(-60.54)"/><rect class="bb0994f6-9610-4f89-b114-e5c3dc0c7caf" x="658.31" y="412.55" width="158.61" height="1.09" transform="translate(-369.42 718.82) rotate(-60.54)"/><rect class="a04fd135-0f54-48f1-a973-1cd40b80f20c" x="657.36" y="412.01" width="158.61" height="1.09" transform="matrix(0.49, -0.87, 0.87, 0.49, -369.44, 717.72)"/><rect class="ea6d3ff4-67ac-47e0-b3c9-7a89f1883432" x="656.41" y="411.47" width="158.61" height="1.09" transform="translate(-369.45 716.62) rotate(-60.54)"/><rect class="a96141d4-88cb-4b2a-951d-e1dc5f2732df" x="655.46" y="410.94" width="158.61" height="1.09" transform="matrix(0.49, -0.87, 0.87, 0.49, -369.47, 715.51)"/><rect class="b9ed5e52-fe8f-4ee6-83d4-c8a0c62b7c32" x="654.51" y="410.4" width="158.61" height="1.09" transform="translate(-369.48 714.41) rotate(-60.54)"/><rect class="e02b3991-425b-45c3-bb12-fdc2c3ffe796" x="653.55" y="409.86" width="158.61" height="1.09" transform="matrix(0.49, -0.87, 0.87, 0.49, -369.5, 713.31)"/><rect class="e7039547-8947-4ef1-b03d-31bd70946f36" x="652.6" y="409.32" width="158.61" height="1.09" transform="translate(-369.51 712.21) rotate(-60.54)"/><rect class="b25daac0-fc74-4f56-ad6c-6b37dd2e0239" x="651.65" y="408.79" width="158.61" height="1.09" transform="translate(-369.53 711.11) rotate(-60.54)"/><rect class="fa179cd7-09fd-4cb8-8008-42755d832c2b" x="650.7" y="408.25" width="158.61" height="1.09" transform="translate(-369.54 710.01) rotate(-60.54)"/><rect class="e505c2fa-e70e-43fe-a826-9e8b130bf753" x="649.75" y="407.71" width="158.61" height="1.09" transform="translate(-369.56 708.91) rotate(-60.54)"/><rect class="b5abe2fb-bbd9-4fed-bbc2-f8f77def86b8" x="648.8" y="407.17" width="158.61" height="1.09" transform="translate(-369.57 707.8) rotate(-60.54)"/><rect class="a50c46b2-ca5d-4ca2-9b13-48b12315dc2d" x="647.85" y="406.64" width="158.61" height="1.09" transform="matrix(0.49, -0.87, 0.87, 0.49, -369.59, 706.7)"/><rect class="b3c458ed-7b5f-466b-9edf-8cad02fb1b77" x="646.89" y="406.1" width="158.61" height="1.09" transform="translate(-369.61 705.6) rotate(-60.54)"/><rect class="ed842060-70c5-4897-a932-c9774a75080d" x="645.94" y="405.56" width="158.61" height="1.09" transform="matrix(0.49, -0.87, 0.87, 0.49, -369.62, 704.5)"/><rect class="a0764873-efd0-46f9-903c-577fb3d43243" x="644.99" y="405.02" width="158.61" height="1.09" transform="translate(-369.64 703.4) rotate(-60.54)"/><rect class="b2ba57a6-13f8-4c9e-8853-f874de89b786" x="644.04" y="404.49" width="158.61" height="1.09" transform="matrix(0.49, -0.87, 0.87, 0.49, -369.65, 702.3)"/><rect class="b6437727-1470-4d20-8a26-e61a65354fac" x="643.09" y="403.95" width="158.61" height="1.09" transform="translate(-369.67 701.2) rotate(-60.54)"/><rect class="a622ac6d-075a-4b0d-8592-4e193ccb7e1a" x="642.14" y="403.41" width="158.61" height="1.09" transform="translate(-369.68 700.09) rotate(-60.54)"/><rect class="b15c2fcd-71c7-44a6-abc9-db2ad1fd6332" x="641.19" y="402.87" width="158.61" height="1.09" transform="translate(-369.7 698.99) rotate(-60.54)"/><rect class="a333141b-a821-41ac-87e1-b7e29d56524a" x="640.23" y="402.34" width="158.61" height="1.09" transform="translate(-369.71 697.89) rotate(-60.54)"/><rect class="e06cc990-7175-41cb-ab36-aae52c8976e8" x="639.28" y="401.8" width="158.61" height="1.09" transform="translate(-369.73 696.79) rotate(-60.54)"/><rect class="b9860e79-0d4b-46b1-96b8-a0f4390c0e8e" x="638.33" y="401.26" width="158.61" height="1.09" transform="matrix(0.49, -0.87, 0.87, 0.49, -369.74, 695.69)"/><rect class="ac36b80f-711b-4d7f-8ad3-28d8a33e8a60" x="637.38" y="400.72" width="158.61" height="1.09" transform="translate(-369.76 694.59) rotate(-60.54)"/><rect class="a0400bed-4155-40f5-91e9-469271e6c00e" x="636.43" y="400.19" width="158.61" height="1.09" transform="matrix(0.49, -0.87, 0.87, 0.49, -369.78, 693.49)"/><rect class="ab198297-51b3-4ffe-bce6-d30af8e91c13" x="635.48" y="399.65" width="158.61" height="1.09" transform="translate(-369.79 692.38) rotate(-60.54)"/><rect class="ef58553d-d3ec-47f5-946b-f00b4148c9a0" x="634.53" y="399.11" width="158.61" height="1.09" transform="matrix(0.49, -0.87, 0.87, 0.49, -369.81, 691.28)"/><rect class="a8f55f2f-1bd0-4dd9-ad17-964097b95781" x="633.57" y="398.57" width="158.61" height="1.09" transform="translate(-369.82 690.18) rotate(-60.54)"/><rect class="be912709-f809-465b-ad7d-30296feaf0b2" x="632.62" y="398.04" width="158.61" height="1.09" transform="translate(-369.84 689.08) rotate(-60.54)"/><polygon class="b0ab4877-acd7-43c9-8cfa-2e1c64d619ea" points="287.89 334.06 287.26 333.71 287.26 332.97 364.96 195.43 365.91 195.97 287.89 334.06"/><polygon class="b1a01c26-e5b9-4323-94c0-bc56172c45a1" points="287.26 330.75 364.01 194.89 364.96 195.43 287.26 332.97 287.26 330.75"/><polygon class="f266137e-3df3-4a73-b97e-6090a5ce094d" points="287.26 328.53 363.06 194.35 364.01 194.89 287.26 330.75 287.26 328.53"/><polygon class="ebbf0d3f-51b9-438f-9477-3483360351a6" points="287.26 326.3 362.11 193.82 363.06 194.35 287.26 328.53 287.26 326.3"/><polygon class="abf13aba-2530-4ae6-9992-990693e24638" points="287.26 324.08 361.16 193.28 362.11 193.82 287.26 326.3 287.26 324.08"/><polygon class="bd943cb2-a09c-4a4b-ba01-e9f673795dac" points="287.26 321.86 360.2 192.74 361.16 193.28 287.26 324.08 287.26 321.86"/><polygon class="b6ce879b-6661-4591-96c4-d56c65f726b1" points="287.26 319.64 359.25 192.2 360.2 192.74 287.26 321.86 287.26 319.64"/><polygon class="bf7fe2aa-8447-412e-bd90-fe8666be5027" points="287.26 317.42 358.3 191.67 359.25 192.2 287.26 319.64 287.26 317.42"/><polygon class="b3a0bac1-94e5-4c5e-a8c0-4f45e0a42d24" points="287.26 315.2 357.35 191.13 358.3 191.67 287.26 317.42 287.26 315.2"/><polygon class="b3a0bac1-94e5-4c5e-a8c0-4f45e0a42d24" points="287.26 312.98 356.4 190.59 357.35 191.13 287.26 315.2 287.26 312.98"/><polygon class="b1506884-5f0f-4157-9323-49891e5e9cb2" points="287.26 310.75 355.45 190.05 356.4 190.59 287.26 312.98 287.26 310.75"/><polygon class="b647e027-273e-480e-8d85-5e7be0c0238e" points="287.26 308.53 354.5 189.52 355.45 190.05 287.26 310.75 287.26 308.53"/><polygon class="f833c456-b350-41d2-9bd5-e7dfeb0eafd2" points="287.26 306.31 353.55 188.98 354.5 189.52 287.26 308.53 287.26 306.31"/><polygon class="f833c456-b350-41d2-9bd5-e7dfeb0eafd2" points="287.26 304.09 352.59 188.44 353.55 188.98 287.26 306.31 287.26 304.09"/><polygon class="b831b742-8ded-42a7-8029-1570c137d9f2" points="287.26 301.87 351.64 187.9 352.59 188.44 287.26 304.09 287.26 301.87"/><polygon class="fa7da88e-3a32-48aa-84e5-dacd400da8b1" points="287.26 299.64 350.69 187.37 351.64 187.9 287.26 301.87 287.26 299.64"/><polygon class="fa7da88e-3a32-48aa-84e5-dacd400da8b1" points="287.26 297.42 349.74 186.83 350.69 187.37 287.26 299.64 287.26 297.42"/><polygon class="b8211d76-3fd0-4ba1-ac36-b2ba3274f765" points="287.26 295.2 348.79 186.29 349.74 186.83 287.26 297.42 287.26 295.2"/><polygon class="f6c68114-9942-4844-a942-0b34225895a8" points="287.26 292.98 347.84 185.75 348.79 186.29 287.26 295.2 287.26 292.98"/><polygon class="b432be65-b617-437c-952a-1ec3cbaaa274" points="287.26 290.76 346.88 185.22 347.84 185.75 287.26 292.98 287.26 290.76"/><polygon class="b432be65-b617-437c-952a-1ec3cbaaa274" points="287.26 288.54 345.93 184.68 346.88 185.22 287.26 290.76 287.26 288.54"/><polygon class="a34cc17e-25a8-44bc-8fef-d69bfa998e3d" points="287.26 286.32 344.98 184.14 345.93 184.68 287.26 288.54 287.26 286.32"/><polygon class="f7082684-f10e-43ba-a241-af7a1a656bbb" points="287.26 284.1 344.03 183.6 344.98 184.14 287.26 286.32 287.26 284.1"/><polygon class="f7082684-f10e-43ba-a241-af7a1a656bbb" points="287.26 281.87 342.85 183.46 343.78 183.46 344.03 183.6 287.26 284.1 287.26 281.87"/><polygon class="e46968a9-8c45-41e8-8ddd-47d5c3fcc540" points="287.26 279.65 341.6 183.46 342.85 183.46 287.26 281.87 287.26 279.65"/><polygon class="f5ec8945-4acb-409f-8feb-c956d80ff4f8" points="287.26 277.43 340.34 183.46 341.6 183.46 287.26 279.65 287.26 277.43"/><polygon class="b3906c2c-5ddb-4ce6-bb32-13f8858d96b7" points="287.26 275.21 339.09 183.46 340.34 183.46 287.26 277.43 287.26 275.21"/><polygon class="b3906c2c-5ddb-4ce6-bb32-13f8858d96b7" points="287.26 272.99 337.83 183.46 339.09 183.46 287.26 275.21 287.26 272.99"/><polygon class="bc87afde-f938-4792-b2b4-70ea10f03b48" points="287.26 270.76 336.58 183.46 337.83 183.46 287.26 272.99 287.26 270.76"/><polygon class="bc87afde-f938-4792-b2b4-70ea10f03b48" points="336.58 183.46 287.26 270.76 287.26 183.46 336.58 183.46"/></g><path class="a033fd7d-ea0e-4c98-b22d-b7133a01a57e" d="M748.45,433a1.39,1.39,0,0,0,2.21,1.49,20.52,20.52,0,0,0,6.35-9.79c2.73-9,1.29-7.44,1.29-7.44S754.18,415.39,748.45,433Z" transform="translate(-384.55 -133.3)"/><path class="a033fd7d-ea0e-4c98-b22d-b7133a01a57e" d="M736.39,441.9a1.38,1.38,0,0,0,2.2,1.49A20.46,20.46,0,0,0,745,433.6c2.73-9,1.29-7.44,1.29-7.44S742.12,424.34,736.39,441.9Z" transform="translate(-384.55 -133.3)"/><path class="a033fd7d-ea0e-4c98-b22d-b7133a01a57e" d="M760.72,401.54c-1.82,3.1-6.63.67-5.07-2.58A9.74,9.74,0,0,1,758,396C762.42,392,763,397.7,760.72,401.54Z" transform="translate(-384.55 -133.3)"/><path class="a69b2657-4cfb-4752-ab22-1ac11dc8184d" d="M554,499.12a4,4,0,0,1,0-8l78.48-1,78.4-4.72H711l78.61-1h.2l78.82,2.9a4,4,0,0,1-.29,8l-78.73-2.9-78.41,1-78.41,4.72h-.19l-78.57,1Z" transform="translate(-384.55 -133.3)"/><path class="a69b2657-4cfb-4752-ab22-1ac11dc8184d" d="M864,559.14l-.41,0-75.3-7.62-75.39,3.22h-.21L637,554.08,561.5,555h0a4,4,0,0,1-.05-8l75.62-.91,75.59.65,75.58-3.24a3.62,3.62,0,0,1,.57,0l75.59,7.65a4,4,0,0,1-.4,8Z" transform="translate(-384.55 -133.3)"/><g class="a3e123f3-054e-443a-8524-1f1619232cc4"><polygon class="b2c8119b-724b-42d3-9a08-4553cff51dfa" points="159.81 301.09 201.15 300.8 244 294.51 287.14 296.83 330.14 293.76 373.2 292.28 416.23 297.94 459.29 296.49 499.45 300.24 498.18 351.58 442.12 348.09 396.76 348.99 351.39 349.41 306.02 348.44 260.65 350.64 215.25 351.49 168.13 349.49 159.81 301.09"/></g><g class="a3e123f3-054e-443a-8524-1f1619232cc4"><path class="a29d502d-7e66-4533-9bfc-a564d0004981" d="M555.64,502.36l44-.45L645,496.86l45.66,1.77,45.55-2.36,45.62-.92,45.42,5,45.29,1,3.77,9.37a33.35,33.35,0,0,1,1.18,22l-4.24,14.65-45.39-3.29L783.41,544,739,543.65l-44.44-1.45L650,543.28l-44.5.1-46.15-2.08Z" transform="translate(-384.55 -133.3)"/></g><g class="a3e123f3-054e-443a-8524-1f1619232cc4"><path class="a0ba4028-66c9-4c3b-a587-e2c014a60e61" d="M562.71,562.57,605.3,562l43.58-4.34,43.83,1.49,43.73-2,43.79-.8,43.62,4.31,43.4.85-1.42,7.34c-1.59,8.23-7.3,15.86-16.24,21.67l-7.53,4.91-44,.58-44,.26-44-.67-44,1.46-44,.58-27.77-.25c-10.38-.1-20.23-3.06-27.18-8.18h0Z" transform="translate(-384.55 -133.3)"/></g><path class="ae2354cf-ca59-4b84-b7e5-227b751ded40" d="M743.6,600.44s31-102.26,16-179.25c-4.14-23.69-36.49-19.67-47.59-13.23,0,0,16.41,1.21,22.69,3.62s16.9,12.47,15.45,58.33-18.83,130.53-18.83,130.53Z" transform="translate(-384.55 -133.3)"/><path class="ae2354cf-ca59-4b84-b7e5-227b751ded40" d="M647.69,406.25S622.47,503.9,639.2,601H625.43s-5-74.78,1.34-112.72,12.05-82,12.05-82Z" transform="translate(-384.55 -133.3)"/><path class="bd926991-423c-4aef-b004-86da36b54176" d="M588.75,504.46s.64-53.57,20.28-63.06,38-27.9,29.79-35.15h8.87s5.06,19.55-35.18,47.44c-16.79,13.38-17.11,49.24-12.83,52.23C599.68,505.92,592.55,506.69,588.75,504.46Z" transform="translate(-384.55 -133.3)"/><g class="a3e123f3-054e-443a-8524-1f1619232cc4"><path class="a29d502d-7e66-4533-9bfc-a564d0004981" d="M736.89,601.68a1.31,1.31,0,0,1-.44-.07,1.48,1.48,0,0,1-1.06-1.43,1.67,1.67,0,0,1,.06-.44l.12-.37a462.19,462.19,0,0,0,19.84-122c.85-33.09-2.32-54.52-3.79-57.87-5-11.58-24.92-11.71-25.12-11.71a1.5,1.5,0,0,1,0-3c.9,0,22,.15,27.88,13.51,3.48,8,12.6,89.15-16,182l-.11.37A1.49,1.49,0,0,1,736.89,601.68Z" transform="translate(-384.55 -133.3)"/></g><g class="a3e123f3-054e-443a-8524-1f1619232cc4"><path class="a29d502d-7e66-4533-9bfc-a564d0004981" d="M594.22,503h0a1,1,0,0,1-1-1v-2.32c.13-20.41.16-25.89,4.85-37.26,4.24-10.31,5.26-11,17.72-19.23,2.58-1.71,5.8-3.84,9.64-6.44,21.17-14.38,17.48-30.06,17.44-30.22a1,1,0,0,1,.72-1.21,1,1,0,0,1,1.22.72c.17.69,4.07,17.2-18.26,32.36-3.84,2.62-7.07,4.75-9.66,6.46-12.48,8.26-13,8.58-17,18.32-4.53,11-4.56,16.41-4.69,36.51V502A1,1,0,0,1,594.22,503Z" transform="translate(-384.55 -133.3)"/></g><g class="a3e123f3-054e-443a-8524-1f1619232cc4"><path class="a29d502d-7e66-4533-9bfc-a564d0004981" d="M631.82,600.93a.75.75,0,0,1-.74-.67c0-.19-2.25-19.87-3.35-45.08-1-23.28-1.26-56.17,3.36-80.66l7.17-38.06a.75.75,0,0,1,.88-.59.74.74,0,0,1,.6.87l-7.18,38.06c-8.79,46.63-.08,124.51,0,125.29a.74.74,0,0,1-.66.83Z" transform="translate(-384.55 -133.3)"/></g><path class="ae2354cf-ca59-4b84-b7e5-227b751ded40" d="M734.29,403s-13.73-.11-22,4.91-30.58,63.63-64.72,78.41S610,507.86,588.75,504.46c0,0,1.9,5.58,10.14,8.37s37.3-18.13,52.87-20S699,447.54,717.4,416.29C724.37,404.57,734.29,403,734.29,403Z" transform="translate(-384.55 -133.3)"/><g class="a3e123f3-054e-443a-8524-1f1619232cc4"><path class="a29d502d-7e66-4533-9bfc-a564d0004981" d="M596,512.33a1,1,0,0,1-1-.8,1,1,0,0,1,.78-1.18c8.88-1.84,18.74-6.57,28.27-11.13s19.61-9.39,28.73-11.29c8.26-1.71,28.6-21.54,37.31-38.7C697.3,435,711.7,415,717.56,407a1,1,0,1,1,1.61,1.19c-5.83,7.92-20.15,27.87-27.28,41.92-9.09,17.93-29.84,37.92-38.69,39.76s-18.74,6.57-28.27,11.13-19.61,9.4-28.73,11.29Z" transform="translate(-384.55 -133.3)"/></g><path class="f2aa0a1d-e190-49f7-9da4-bad49eda4256" d="M785.22,479s-11.88-3.39-17.53,0-5.66,8.48-2.83,12.44c0,0-4,4,1.13,5.66s16.26,1.78,26.79-4.48C792.78,492.63,785.78,487.49,785.22,479Z" transform="translate(-384.55 -133.3)"/><path class="b21de547-b8e2-4ff0-b195-4e95f15e72ac" d="M773.22,498.58a24.35,24.35,0,0,1-7.39-1c-1.64-.55-2.6-1.39-2.87-2.51-.36-1.51.72-3,1.26-3.66a9,9,0,0,1-1.56-6.8,9.45,9.45,0,0,1,4.77-6c5.77-3.46,17.43-.19,17.92-.05l.34.09,0,.36c.54,8.15,7.29,13.19,7.36,13.24l.61.45-.65.39A39.33,39.33,0,0,1,773.22,498.58Zm1.5-20.58a13.47,13.47,0,0,0-6.78,1.44c-2.41,1.45-3.86,3.25-4.3,5.37a8.13,8.13,0,0,0,1.62,6.35l.25.34-.3.3s-1.61,1.64-1.27,3c.18.76.92,1.36,2.21,1.79,4.78,1.6,15.48,1.78,25.75-4.07-1.71-1.44-6.54-6.11-7.15-13.16A43.71,43.71,0,0,0,774.72,478Z" transform="translate(-384.55 -133.3)"/><path class="a3489066-7c73-46cb-8d42-97820ce52a8c" d="M883.2,415.42a15.84,15.84,0,0,0-.77-9.9c-2.38-5.5-8.54-11-24.49-1.11a45.19,45.19,0,0,0-9.11,7.39c-15,15.79-15.69,38.56-63.91,66.24a3.2,3.2,0,0,0-1.61,3c.32,4.53,2.68,14.74,17.7,11.87C819.82,489.31,868.74,477,883.2,415.42Z" transform="translate(-384.55 -133.3)"/><path class="f75a3856-04c2-4797-af1b-2dde6c8baff3" d="M866.91,439.71a.6.6,0,0,1-.29-.08.52.52,0,0,1-.21-.41l0-6.6L860.2,435a.53.53,0,0,1-.46-.06.48.48,0,0,1-.22-.41l0-6.59-6.16,2.33a.53.53,0,0,1-.46-.06.48.48,0,0,1-.22-.41l0-6.58-6.17,2.32a.5.5,0,0,1-.46-.05.52.52,0,0,1-.21-.41l0-7.31a.5.5,0,0,1,.49-.51h0a.51.51,0,0,1,.5.5l0,6.59,6.17-2.32a.5.5,0,0,1,.46,0,.55.55,0,0,1,.22.41l0,6.59,6.16-2.33a.5.5,0,0,1,.46.06.48.48,0,0,1,.22.41l0,6.59,6.16-2.33a.53.53,0,0,1,.46.06.48.48,0,0,1,.22.41l0,6.59,6.18-2.32a.5.5,0,0,1,.64.29.5.5,0,0,1-.29.65l-6.85,2.57A.47.47,0,0,1,866.91,439.71Z" transform="translate(-384.55 -133.3)"/><path class="f75a3856-04c2-4797-af1b-2dde6c8baff3" d="M864.33,445.74a.49.49,0,0,1-.5-.5l-.05-6.6L857.62,441a.47.47,0,0,1-.46-.06.48.48,0,0,1-.22-.41l0-6.59-6.16,2.33a.47.47,0,0,1-.46-.06.48.48,0,0,1-.22-.41l0-6.58-6.17,2.32a.5.5,0,0,1-.46-.05.52.52,0,0,1-.21-.41l0-7.31a.49.49,0,0,1,.49-.5h0a.51.51,0,0,1,.5.49l0,6.59,6.17-2.32a.5.5,0,0,1,.46.05.52.52,0,0,1,.21.41l0,6.59,6.16-2.33a.53.53,0,0,1,.46.06.49.49,0,0,1,.22.41l0,6.59,6.16-2.33a.53.53,0,0,1,.46.06.48.48,0,0,1,.22.41l0,6.59,6.18-2.32a.5.5,0,0,1,.64.3.5.5,0,0,1-.29.64l-6.85,2.57A.47.47,0,0,1,864.33,445.74Z" transform="translate(-384.55 -133.3)"/><path class="f75a3856-04c2-4797-af1b-2dde6c8baff3" d="M860.89,450a.52.52,0,0,1-.29-.09.51.51,0,0,1-.21-.41l0-6.6-6.16,2.33a.47.47,0,0,1-.46-.06.48.48,0,0,1-.22-.41l0-6.59-6.16,2.33a.51.51,0,0,1-.68-.46l0-6.59-6.17,2.32a.49.49,0,0,1-.67-.46l0-7.31a.5.5,0,0,1,.5-.5h0a.49.49,0,0,1,.5.49l0,6.59,6.17-2.32a.5.5,0,0,1,.46.05.52.52,0,0,1,.21.41l0,6.59,6.16-2.32a.5.5,0,0,1,.46.05.49.49,0,0,1,.22.41l0,6.59,6.16-2.32a.5.5,0,0,1,.46.05.49.49,0,0,1,.22.41l0,6.6,6.18-2.33a.5.5,0,0,1,.64.3.5.5,0,0,1-.29.64L861.06,450A.33.33,0,0,1,860.89,450Z" transform="translate(-384.55 -133.3)"/><circle class="f75a3856-04c2-4797-af1b-2dde6c8baff3" cx="470.3" cy="323.88" r="3.01"/><circle class="f75a3856-04c2-4797-af1b-2dde6c8baff3" cx="465.57" cy="320.01" r="1.29"/><circle class="f75a3856-04c2-4797-af1b-2dde6c8baff3" cx="456.96" cy="312.27" r="1.29"/><circle class="f75a3856-04c2-4797-af1b-2dde6c8baff3" cx="461.27" cy="316.57" r="3.01"/><circle class="f75a3856-04c2-4797-af1b-2dde6c8baff3" cx="451.8" cy="308.82" r="3.01"/><path class="a73d615d-4090-424b-891d-6f3e12533f8e" d="M824.33,352h9.34s0-7-4.67-7S824.33,352,824.33,352Z" transform="translate(-384.55 -133.3)"/><path class="a73d615d-4090-424b-891d-6f3e12533f8e" d="M838.33,352h9.34s0-7-4.67-7S838.33,352,838.33,352Z" transform="translate(-384.55 -133.3)"/></svg>