<svg xmlns="http://www.w3.org/2000/svg" viewBox="0 0 206 99">
  <g id="圖層_2" data-name="圖層 2">
    <g id="頁面">
      <g>
        <polygon points="197.75 1.5 204.5 21.47 204.5 97.5 13.77 97.5 1.5 82.91 1.5 1.5 197.75 1.5" fill="#f6d16b" stroke="#485349" stroke-linecap="round" stroke-linejoin="round" stroke-width="3"/>
        <path d="M58.36-54H139a0,0,0,0,1,0,0V138.26a1.1,1.1,0,0,1-1.1,1.1H58.36a0,0,0,0,1,0,0V-54A0,0,0,0,1,58.36-54Z" transform="translate(141.36 -56.03) rotate(90)" fill="#fff" stroke="#485349" stroke-linecap="round" stroke-linejoin="round" stroke-width="3"/>
        <g>
          <path d="M22.59,32.08a1.24,1.24,0,0,1,.39-.9,2.48,2.48,0,0,1,1.17-.59,37.46,37.46,0,0,0,14-6.83,10.29,10.29,0,0,1,1.38-1,2.18,2.18,0,0,1,1-.31,2,2,0,0,1,1.19.37,1.08,1.08,0,0,1,.53.88,1,1,0,0,1-.27.7l.58.39a32.73,32.73,0,0,0,6.29,3.05A39.85,39.85,0,0,0,56,30.05c1.51.23,2.26.75,2.26,1.56,0,1.25-.53,1.87-1.6,1.87q-1.87,0-6.87-2.07l-.12,0a1.56,1.56,0,0,1-.31,1.21,1.49,1.49,0,0,1-1.1.36H32.51c-.94,0-1.4-.42-1.4-1.25l0-.32c-3.75,1.72-6.09,2.58-7,2.58S22.59,33.33,22.59,32.08Zm3.63,11.25a3.11,3.11,0,0,1-.7-2.35V37.66a3.35,3.35,0,0,1,.74-2.42,3,3,0,0,1,2.35-.66H52.24a3.38,3.38,0,0,1,2.42.72,3,3,0,0,1,.66,2.36V41a3.42,3.42,0,0,1-.72,2.41,3,3,0,0,1-2.36.68H28.61A3.3,3.3,0,0,1,26.22,43.33Zm1.7,13.14a3.07,3.07,0,0,1-.68-2.4V48.8A3.45,3.45,0,0,1,28,46.33a3.21,3.21,0,0,1,2.44-.74h20a3.42,3.42,0,0,1,2.5.78,3.12,3.12,0,0,1,.71,2.43v5.27a3.4,3.4,0,0,1-.77,2.46,3,3,0,0,1-2.44.7h-20A3.47,3.47,0,0,1,27.92,56.47ZM38.88,37H29.7a1.09,1.09,0,0,0-1.21,1.25V40.4a1.13,1.13,0,0,0,1.21,1.25h9.18ZM50.52,49.23a1.12,1.12,0,0,0-.31-.88,1.37,1.37,0,0,0-.86-.34H31.54c-.73,0-1.12.41-1.18,1.22v1.09H50.52Zm-.33,5.35a1.42,1.42,0,0,0,.33-.86V52.43H30.36v1.29c0,.73.39,1.12,1.18,1.17H49.35A1.1,1.1,0,0,0,50.19,54.58ZM32.82,40.28A3.74,3.74,0,0,1,32,38.56c0-.65.4-1,1.18-1,.47,0,.93.34,1.4,1A3.14,3.14,0,0,1,35.29,40c0,.75-.43,1.13-1.29,1.13C33.61,41.1,33.22,40.83,32.82,40.28ZM40,26.14a45.42,45.42,0,0,1-7,4.3H47.71A47.06,47.06,0,0,1,40,26.14ZM52.36,40.4V38.25A1.13,1.13,0,0,0,51.11,37H41.65v4.65h9.46C51.89,41.65,52.3,41.23,52.36,40.4Zm-7.11-.24a3.11,3.11,0,0,1,.7-1.72c.44-.62.88-.93,1.33-.93.88,0,1.33.34,1.33,1A2.93,2.93,0,0,1,48,40.16a1.91,1.91,0,0,1-1.48,1C45.66,41.18,45.25,40.84,45.25,40.16Z"/>
          <path d="M62.79,56.73a1.36,1.36,0,0,1,1.28-1.49,50.06,50.06,0,0,0,11.06-2.62,1.78,1.78,0,0,1,.55-.11,1.32,1.32,0,0,1,1.17.7A1.66,1.66,0,0,1,77,54a1.39,1.39,0,0,1-.19.72,1.33,1.33,0,0,1-.59.53,25.25,25.25,0,0,1-5.37,1.94,45,45,0,0,1-6.19,1.07C63.42,58.31,62.79,57.82,62.79,56.73Zm4-5.43a3.45,3.45,0,0,1-.8-2.54V38.29a3.45,3.45,0,0,1,.8-2.54A3.56,3.56,0,0,1,69.31,35H92a3.48,3.48,0,0,1,2.54.78,3.49,3.49,0,0,1,.78,2.54V48.76A2.84,2.84,0,0,1,92,52.08H69.31A3.56,3.56,0,0,1,66.75,51.3Zm1.52-19.22a3.31,3.31,0,0,1-.76-2.42V27a3.22,3.22,0,0,1,.76-2.4,3.55,3.55,0,0,1,2.48-.73H90.68a3.38,3.38,0,0,1,2.46.75A3.28,3.28,0,0,1,93.88,27v2.66a3.35,3.35,0,0,1-.74,2.42,3.43,3.43,0,0,1-2.46.74H70.75A3.5,3.5,0,0,1,68.27,32.08Zm23.81,6.64c0-.78-.4-1.17-1.21-1.17H70.4a1,1,0,0,0-1.17,1.17v1.17H92.08Zm0,5.9V42.31H69.23v2.31Zm0,3.67V47H69.23v1.25c0,.81.39,1.21,1.17,1.21H90.87A1.07,1.07,0,0,0,92.08,48.29ZM90.56,29V27.7a1.09,1.09,0,0,0-1.21-1.25H72.08a1.09,1.09,0,0,0-1.21,1.25V29a1.07,1.07,0,0,0,1.21,1.21H89.35A1.07,1.07,0,0,0,90.56,29Zm.62,28a39.33,39.33,0,0,1-5.66-1.8,3.14,3.14,0,0,1-.84-.6,1.08,1.08,0,0,1-.25-.73,1.39,1.39,0,0,1,.33-.9,1.22,1.22,0,0,1,1-.39,2.15,2.15,0,0,1,.63.08,82.69,82.69,0,0,0,10.19,2.38c1.07.21,1.61.69,1.61,1.45a1.44,1.44,0,0,1-1.61,1.64A27.1,27.1,0,0,1,91.18,57Z"/>
          <path d="M136.69,34.07v8.71a4.74,4.74,0,0,1-1,3.36,4,4,0,0,1-3.25.9H122.16v9.45c0,1.28-.57,1.92-1.72,1.92s-1.72-.64-1.72-1.92V47h-9.88q-4.49.27-4.26-4.26V34.07a4.81,4.81,0,0,1,1-3.4,4,4,0,0,1,3.26-.9h9.88V24.66c0-1.31.58-2,1.72-2s1.72.65,1.72,2v5.11h10.27Q136.93,29.5,136.69,34.07Zm-18,9.84v-11h-8.51a2.56,2.56,0,0,0-1.78.45,2.62,2.62,0,0,0-.45,1.81v6.53a2.53,2.53,0,0,0,.45,1.77,2.56,2.56,0,0,0,1.78.45Zm14.53-8.75a2.68,2.68,0,0,0-.44-1.81A2.58,2.58,0,0,0,131,32.9h-8.87v11H131a2.58,2.58,0,0,0,1.78-.45,2.59,2.59,0,0,0,.44-1.77Z"/>
          <path d="M143.57,51.28a1.2,1.2,0,0,1-.59-.84,4.58,4.58,0,0,1,.31-1.88,30.36,30.36,0,0,0,1.45-5.19q.47-2.58.78-6.06a1.84,1.84,0,0,1,.49-1.19,1.57,1.57,0,0,1,1.15-.41,1.75,1.75,0,0,1,1.31.47,1.68,1.68,0,0,1,.41,1.29,51.89,51.89,0,0,1-.65,6.38,35.92,35.92,0,0,1-1.38,5.84A3.58,3.58,0,0,1,146,51.1a1.63,1.63,0,0,1-1.15.51A2.29,2.29,0,0,1,143.57,51.28ZM155.5,57.1a4.4,4.4,0,0,1-2.62-1.1,3.73,3.73,0,0,1-.8-2.63V32.58a2.51,2.51,0,0,1,.43-1.6,1.68,1.68,0,0,1,1.33-.5c1.17,0,1.76.7,1.76,2.1V51.8a2.27,2.27,0,0,0,.49,1.66,2.6,2.6,0,0,0,1.58.63,34.3,34.3,0,0,0,3.71.14c3,0,4.79-.15,5.31-.43a2,2,0,0,0,.82-1.27,11.83,11.83,0,0,0,.31-2.84,1.85,1.85,0,0,1,.43-1.28,1.6,1.6,0,0,1,1.25-.47,1.57,1.57,0,0,1,1.29.47,2.18,2.18,0,0,1,.43,1.36,13.22,13.22,0,0,1-.64,4.87,3.44,3.44,0,0,1-2.17,2.16,30,30,0,0,1-7.3.55A44.62,44.62,0,0,1,155.5,57.1ZM163,29.89q-1.95-1.37-5.35-3.63a1.94,1.94,0,0,1-.74-.75,1.73,1.73,0,0,1-.16-.93,1.71,1.71,0,0,1,.55-1,1.57,1.57,0,0,1,1.13-.45,1.7,1.7,0,0,1,.74.16,23.09,23.09,0,0,1,3.11,1.56c1.16.68,2.24,1.38,3.26,2.11a3.07,3.07,0,0,1,.92.84,1.86,1.86,0,0,1,.25,1,1.76,1.76,0,0,1-.41,1.21,1.54,1.54,0,0,1-1,.54A3.39,3.39,0,0,1,163,29.89ZM175,49.3a14.09,14.09,0,0,1-1.52-3.63,40.3,40.3,0,0,0-2.7-6.05,12.5,12.5,0,0,1-1.52-3.44c0-1,.59-1.49,1.76-1.49.8,0,2.2,1.88,4.18,5.63s2.93,6.26,2.93,7.77a1.5,1.5,0,0,1-.59,1.14,2.16,2.16,0,0,1-1.37.5A1.75,1.75,0,0,1,175,49.3Z"/>
        </g>
      </g>
    </g>
  </g>
</svg>
