<svg xmlns="http://www.w3.org/2000/svg" xmlns:xlink="http://www.w3.org/1999/xlink" viewBox="0 0 725.44 614.9">
  <defs>
    <clipPath id="clip-path">
      <path d="M695,339A56.56,56.56,0,0,1,671.23,328c-17.85-14.5-48.43-40.87-70-67.69-25-31.11-25-55.45-70.32-39.9-35.69,12.25-33.81,139.3-72.36,168.38-36.13,27.25-30.66,69.37,42.59,74.53a45.16,45.16,0,0,1,19,5.77c6,3.37,21.8,5.91,63.47-1.19,21.17-3.61,32.84-8.93,39.09-14.29a70.4,70.4,0,0,1,32-15.43c9.91-2,23-7,39.84-17.61C725.44,401.13,719.43,344.3,695,339Z" fill="none"/>
    </clipPath>
  </defs>
  <g id="圖層_2" data-name="圖層 2">
    <g id="圖層_1-2" data-name="圖層 1">
      <g>
        <path d="M658,422s6.52,72-8.52,122.51L625.87,551S599.39,489.73,596,451C596,451,631.37,417.73,658,422Z" fill="#007453"/>
        <path d="M585.39,455.22s-29.49-5.94-50.5,2.46c0,0-.49,54.22,28.09,98.58l25.74-3.45S592,485.29,585.39,455.22Z" fill="#007453"/>
        <g>
          <path d="M547.28,530.41l43.39-8.27,3.42,78s-32,13.07-63.47,5.35S556.51,569,556.51,569Z" fill="#f7c852"/>
          <path d="M551.7,608.45A88.85,88.85,0,0,1,530.5,606c-6.1-1.5-9.39-3.94-9.76-7.25-1.25-11.08,31.19-28,35.2-30L546.67,530l44.47-8.47,3.46,79-.32.13A126.31,126.31,0,0,1,551.7,608.45Zm-3.82-77.65,9.21,38.46-.35.18A191,191,0,0,0,538.67,580c-11.58,7.75-17.44,14.19-16.94,18.63.32,2.85,3.36,5,9,6.39,29.25,7.19,59.38-3.86,62.83-5.19l-3.38-77.11Z" fill="gray"/>
        </g>
        <g>
          <path d="M613.53,532.6l44.89-4.46,1,78.5s-32,13.07-63.47,5.34,25.89-36.53,25.89-36.53Z" fill="#f7c852"/>
          <path d="M617.05,614.9a89.34,89.34,0,0,1-21.2-2.43c-6.1-1.5-9.39-3.94-9.76-7.26-1.25-11.08,31.28-28,35.21-30l-8.37-43,46-4.57,1,79.38-.31.13A126.74,126.74,0,0,1,617.05,614.9Zm-2.93-81.85,8.31,42.67-.34.17A196.23,196.23,0,0,0,604,586.47c-11.58,7.75-17.44,14.2-16.94,18.63.32,2.86,3.35,5,9,6.4,29.26,7.19,59.44-3.89,62.84-5.2l-1-77.61Z" fill="gray"/>
        </g>
        <path d="M479.13,93.89s87.73,52.47,209.06,16.4C688.19,110.29,601.29,44.7,479.13,93.89Z" fill="#b07c1a"/>
        <path d="M501.47,97.12a8.39,8.39,0,0,0-1.05,2.12c-8,23.07-11.43,47.48-12.82,71.78-1.28,22.39-3.88,48.59-.21,70.65,16.12-5.21,28.14-17.54,46.07-18,37.47-1,85.64-29.49,112.4-14.46s23.46,12.47,23.46,12.47,7.18-104.69-21-127.31C620.49,72,522.75,66.36,501.47,97.12Z" fill="#df8e80"/>
        <path d="M606.58,206a132.5,132.5,0,0,1-48.34,0c-26.41-4.95-50.48,6.13-52.58,32s30.81,87,30.81,87l96.13-3.05s50.86-87,25.56-114.77C635.12,181.82,606.58,206,606.58,206Z" fill="#007453"/>
        <g>
          <path d="M565.47,195.42s-4.11,22.19,12.67,20.59,19.33-7.16,24.16-27.59C602.3,188.42,592.44,199.09,565.47,195.42Z" fill="#fdd9b1"/>
          <path d="M576.47,216.59a10.68,10.68,0,0,1-8.26-3.29c-5.39-5.89-3.32-17.48-3.23-18l.08-.47.48.06c13.77,1.87,22.94-.09,28.2-2.06,5.69-2.14,8.17-4.75,8.19-4.78l1.29-1.38-.43,1.84c-4.71,19.91-7,26.29-24.6,28A17,17,0,0,1,576.47,216.59ZM565.88,196c-.32,2.22-1.4,11.76,3.07,16.65,2.1,2.29,5.18,3.27,9.15,2.88,15.75-1.5,18.61-6,23.35-25.66C598.09,192.5,587.56,198.81,565.88,196Z" fill="gray"/>
        </g>
        <g>
          <g>
            <g clip-path="url(#clip-path)">
              <polygon points="427 474.95 422.42 434 422.42 327.73 715.93 294.93 725.44 380.05 725.44 474.95 427 474.95" fill="#fa596c"/>
              <polygon points="422.42 326.8 715.83 294 715.93 294.93 422.42 327.73 422.42 326.8" fill="#fa596c"/>
              <polygon points="422.42 325.86 715.72 293.08 715.83 294 422.42 326.8 422.42 325.86" fill="#fa5a6d"/>
              <polygon points="422.42 324.93 715.62 292.16 715.72 293.08 422.42 325.86 422.42 324.93" fill="#fa5b6d"/>
              <polygon points="422.42 324 715.51 291.24 715.62 292.16 422.42 324.93 422.42 324" fill="#fa5c6e"/>
              <polygon points="422.42 323.06 715.41 290.31 715.51 291.24 422.42 324 422.42 323.06" fill="#fa5d6f"/>
              <polygon points="422.42 322.13 715.31 289.39 715.41 290.31 422.42 323.06 422.42 322.13" fill="#fa5e6f"/>
              <polygon points="422.42 321.19 715.21 288.47 715.31 289.39 422.42 322.13 422.42 321.19" fill="#fa5f70"/>
              <polygon points="422.42 320.26 715.1 287.55 715.21 288.47 422.42 321.19 422.42 320.26" fill="#fa6071"/>
              <polygon points="422.42 319.33 715 286.63 715.1 287.55 422.42 320.26 422.42 319.33" fill="#fa6171"/>
              <polygon points="422.42 318.39 714.9 285.7 715 286.63 422.42 319.33 422.42 318.39" fill="#fa6272"/>
              <polygon points="422.42 317.46 714.79 284.78 714.9 285.7 422.42 318.39 422.42 317.46" fill="#fa6373"/>
              <polygon points="422.42 316.53 714.69 283.86 714.79 284.78 422.42 317.46 422.42 316.53" fill="#fa6473"/>
              <polygon points="422.42 315.59 714.59 282.94 714.69 283.86 422.42 316.53 422.42 315.59" fill="#fa6574"/>
              <polygon points="422.42 314.66 714.49 282.02 714.59 282.94 422.42 315.59 422.42 314.66" fill="#fa6675"/>
              <polygon points="422.42 313.73 714.38 281.1 714.49 282.02 422.42 314.66 422.42 313.73" fill="#fa6775"/>
              <polygon points="422.42 312.79 714.28 280.17 714.38 281.1 422.42 313.73 422.42 312.79" fill="#fa6876"/>
              <polygon points="422.42 311.86 714.18 279.25 714.28 280.17 422.42 312.79 422.42 311.86" fill="#fa6977"/>
              <polygon points="422.42 310.93 714.07 278.33 714.18 279.25 422.42 311.86 422.42 310.93" fill="#fa6a77"/>
              <polygon points="422.42 309.99 713.97 277.41 714.07 278.33 422.42 310.93 422.42 309.99" fill="#fa6b78"/>
              <polygon points="422.42 309.06 713.87 276.49 713.97 277.41 422.42 309.99 422.42 309.06" fill="#fa6c79"/>
              <polygon points="422.42 308.13 713.76 275.56 713.87 276.49 422.42 309.06 422.42 308.13" fill="#fa6d79"/>
              <polygon points="422.42 307.19 713.66 274.64 713.76 275.56 422.42 308.13 422.42 307.19" fill="#fa6e7a"/>
              <polygon points="422.42 306.26 713.56 273.72 713.66 274.64 422.42 307.19 422.42 306.26" fill="#fa6f7b"/>
              <polygon points="422.42 305.32 713.45 272.8 713.56 273.72 422.42 306.26 422.42 305.32" fill="#fa707b"/>
              <polygon points="422.42 304.39 713.35 271.88 713.45 272.8 422.42 305.32 422.42 304.39" fill="#fa717c"/>
              <polygon points="422.42 303.46 713.25 270.95 713.35 271.88 422.42 304.39 422.42 303.46" fill="#fa727d"/>
              <polygon points="422.42 302.52 713.14 270.03 713.25 270.95 422.42 303.46 422.42 302.52" fill="#fb737d"/>
              <polygon points="422.42 301.59 713.04 269.11 713.14 270.03 422.42 302.52 422.42 301.59" fill="#fb747e"/>
              <polygon points="422.42 300.66 712.94 268.19 713.04 269.11 422.42 301.59 422.42 300.66" fill="#fb757f"/>
              <polygon points="422.42 299.72 712.84 267.26 712.94 268.19 422.42 300.66 422.42 299.72" fill="#fb767f"/>
              <polygon points="422.42 298.79 712.73 266.34 712.84 267.26 422.42 299.72 422.42 298.79" fill="#fb7780"/>
              <polygon points="422.42 297.86 712.63 265.42 712.73 266.34 422.42 298.79 422.42 297.86" fill="#fb7881"/>
              <polygon points="422.42 296.92 712.53 264.5 712.63 265.42 422.42 297.86 422.42 296.92" fill="#fb7981"/>
              <polygon points="422.42 295.99 712.42 263.58 712.53 264.5 422.42 296.92 422.42 295.99" fill="#fb7a82"/>
              <polygon points="422.42 295.06 712.32 262.65 712.42 263.58 422.42 295.99 422.42 295.06" fill="#fb7b83"/>
              <polygon points="422.42 294.12 712.22 261.73 712.32 262.65 422.42 295.06 422.42 294.12" fill="#fb7c83"/>
              <polygon points="422.42 293.19 712.12 260.81 712.22 261.73 422.42 294.12 422.42 293.19" fill="#fb7d84"/>
              <polygon points="422.42 292.26 712.01 259.89 712.12 260.81 422.42 293.19 422.42 292.26" fill="#fb7e85"/>
              <polygon points="422.42 291.32 711.91 258.97 712.01 259.89 422.42 292.26 422.42 291.32" fill="#fb7f85"/>
              <polygon points="422.42 290.39 711.81 258.05 711.91 258.97 422.42 291.32 422.42 290.39" fill="#fb8086"/>
              <polygon points="422.42 289.45 711.7 257.12 711.81 258.05 422.42 290.39 422.42 289.45" fill="#fb8187"/>
              <polygon points="422.42 288.52 711.6 256.2 711.7 257.12 422.42 289.45 422.42 288.52" fill="#fb8287"/>
              <polygon points="422.42 287.59 711.5 255.28 711.6 256.2 422.42 288.52 422.42 287.59" fill="#fb8388"/>
              <polygon points="422.42 286.65 711.39 254.36 711.5 255.28 422.42 287.59 422.42 286.65" fill="#fb8489"/>
              <polygon points="422.42 285.72 711.29 253.44 711.39 254.36 422.42 286.65 422.42 285.72" fill="#fb8589"/>
              <polygon points="422.42 284.79 711.19 252.51 711.29 253.44 422.42 285.72 422.42 284.79" fill="#fb868a"/>
              <polygon points="422.42 283.85 711.08 251.59 711.19 252.51 422.42 284.79 422.42 283.85" fill="#fb878b"/>
              <polygon points="422.42 282.92 710.98 250.67 711.08 251.59 422.42 283.85 422.42 282.92" fill="#fb888b"/>
              <polygon points="422.42 281.99 710.88 249.75 710.98 250.67 422.42 282.92 422.42 281.99" fill="#fb898c"/>
              <polygon points="422.42 281.05 710.77 248.83 710.88 249.75 422.42 281.99 422.42 281.05" fill="#fb8a8d"/>
              <polygon points="422.42 280.12 710.67 247.9 710.77 248.83 422.42 281.05 422.42 280.12" fill="#fb8b8d"/>
              <polygon points="422.42 279.19 710.57 246.98 710.67 247.9 422.42 280.12 422.42 279.19" fill="#fb8c8e"/>
              <polygon points="422.42 278.25 710.47 246.06 710.57 246.98 422.42 279.19 422.42 278.25" fill="#fb8d8f"/>
              <polygon points="422.42 277.32 710.36 245.14 710.47 246.06 422.42 278.25 422.42 277.32" fill="#fb8e8f"/>
              <polygon points="422.42 276.39 710.26 244.22 710.36 245.14 422.42 277.32 422.42 276.39" fill="#fb8f90"/>
              <polygon points="422.42 275.45 710.16 243.29 710.26 244.22 422.42 276.39 422.42 275.45" fill="#fb9091"/>
              <polygon points="422.42 274.52 710.05 242.37 710.16 243.29 422.42 275.45 422.42 274.52" fill="#fb9191"/>
              <polygon points="422.42 273.59 709.95 241.45 710.05 242.37 422.42 274.52 422.42 273.59" fill="#fb9292"/>
              <polygon points="422.42 272.65 709.85 240.53 709.95 241.45 422.42 273.59 422.42 272.65" fill="#fb9393"/>
              <polygon points="422.42 271.72 709.75 239.61 709.85 240.53 422.42 272.65 422.42 271.72" fill="#fb9493"/>
              <polygon points="422.42 270.79 709.64 238.68 709.75 239.61 422.42 271.72 422.42 270.79" fill="#fb9594"/>
              <polygon points="422.42 269.85 709.54 237.76 709.64 238.68 422.42 270.79 422.42 269.85" fill="#fb9695"/>
              <polygon points="422.42 268.92 709.44 236.84 709.54 237.76 422.42 269.85 422.42 268.92" fill="#fb9795"/>
              <polygon points="422.42 267.99 709.33 235.92 709.44 236.84 422.42 268.92 422.42 267.99" fill="#fb9896"/>
              <polygon points="422.42 267.05 709.23 235 709.33 235.92 422.42 267.99 422.42 267.05" fill="#fb9997"/>
              <polygon points="422.42 266.12 709.13 234.07 709.23 235 422.42 267.05 422.42 266.12" fill="#fb9a97"/>
              <polygon points="422.42 265.18 709.02 233.15 709.13 234.07 422.42 266.12 422.42 265.18" fill="#fb9b98"/>
              <polygon points="422.42 264.25 708.92 232.23 709.02 233.15 422.42 265.18 422.42 264.25" fill="#fb9c99"/>
              <polygon points="422.42 263.32 708.82 231.31 708.92 232.23 422.42 264.25 422.42 263.32" fill="#fb9d99"/>
              <polygon points="422.42 262.38 708.71 230.39 708.82 231.31 422.42 263.32 422.42 262.38" fill="#fb9e9a"/>
              <polygon points="422.42 261.45 708.61 229.46 708.71 230.39 422.42 262.38 422.42 261.45" fill="#fb9f9b"/>
              <polygon points="422.42 260.52 708.51 228.54 708.61 229.46 422.42 261.45 422.42 260.52" fill="#fba09b"/>
              <polygon points="422.42 259.58 708.4 227.62 708.51 228.54 422.42 260.52 422.42 259.58" fill="#fba19c"/>
              <polygon points="422.42 258.65 708.3 226.7 708.4 227.62 422.42 259.58 422.42 258.65" fill="#fba29d"/>
              <polygon points="422.42 257.72 708.2 225.78 708.3 226.7 422.42 258.65 422.42 257.72" fill="#fba39d"/>
              <polygon points="422.42 256.78 708.1 224.85 708.2 225.78 422.42 257.72 422.42 256.78" fill="#fba49e"/>
              <polygon points="422.42 255.85 707.99 223.93 708.1 224.85 422.42 256.78 422.42 255.85" fill="#fba59f"/>
              <polygon points="422.42 254.91 707.89 223.01 707.99 223.93 422.42 255.85 422.42 254.91" fill="#fba69f"/>
              <polygon points="422.42 253.98 707.79 222.09 707.89 223.01 422.42 254.91 422.42 253.98" fill="#fca8a0"/>
              <polygon points="422.42 253.05 707.68 221.17 707.79 222.09 422.42 253.98 422.42 253.05" fill="#fca9a1"/>
              <polygon points="422.42 252.12 707.58 220.24 707.68 221.17 422.42 253.05 422.42 252.12" fill="#fcaaa1"/>
              <polygon points="422.42 251.18 707.48 219.32 707.58 220.24 422.42 252.12 422.42 251.18" fill="#fcaba2"/>
              <polygon points="422.42 250.25 707.38 218.4 707.48 219.32 422.42 251.18 422.42 250.25" fill="#fcaca3"/>
              <polygon points="422.42 249.31 707.27 217.48 707.38 218.4 422.42 250.25 422.42 249.31" fill="#fcada3"/>
              <polygon points="422.42 248.38 707.17 216.56 707.27 217.48 422.42 249.31 422.42 248.38" fill="#fcaea4"/>
              <polygon points="422.42 247.45 707.07 215.63 707.17 216.56 422.42 248.38 422.42 247.45" fill="#fcafa5"/>
              <polygon points="422.42 246.51 706.96 214.71 707.07 215.63 422.42 247.45 422.42 246.51" fill="#fcb0a5"/>
              <polygon points="422.42 245.58 706.86 213.79 706.96 214.71 422.42 246.51 422.42 245.58" fill="#fcb1a6"/>
              <polygon points="422.42 244.65 706.76 212.87 706.86 213.79 422.42 245.58 422.42 244.65" fill="#fcb2a7"/>
              <polygon points="422.42 243.71 706.65 211.95 706.76 212.87 422.42 244.65 422.42 243.71" fill="#fcb3a7"/>
              <polygon points="422.42 242.78 706.55 211.02 706.65 211.95 422.42 243.71 422.42 242.78" fill="#fcb4a8"/>
              <polygon points="422.42 241.85 706.45 210.1 706.55 211.02 422.42 242.78 422.42 241.85" fill="#fcb5a9"/>
              <polygon points="422.42 240.91 706.34 209.18 706.45 210.1 422.42 241.85 422.42 240.91" fill="#fcb6a9"/>
              <polygon points="422.42 239.98 706.24 208.26 706.34 209.18 422.42 240.91 422.42 239.98" fill="#fcb7aa"/>
              <polygon points="422.42 239.05 706.14 207.34 706.24 208.26 422.42 239.98 422.42 239.05" fill="#fcb8ab"/>
              <polygon points="422.42 238.11 706.03 206.41 706.14 207.34 422.42 239.05 422.42 238.11" fill="#fcb9ab"/>
              <polygon points="422.42 237.18 705.93 205.49 706.03 206.41 422.42 238.11 422.42 237.18" fill="#fcbaac"/>
              <polygon points="422.42 236.25 703.69 204.81 705.86 204.81 705.93 205.49 422.42 237.18 422.42 236.25" fill="#fcbbad"/>
              <polygon points="422.42 235.31 695.34 204.81 703.69 204.81 422.42 236.25 422.42 235.31" fill="#fcbcad"/>
              <polygon points="422.42 234.38 686.99 204.81 695.34 204.81 422.42 235.31 422.42 234.38" fill="#fcbdae"/>
              <polygon points="422.42 233.44 678.64 204.81 686.99 204.81 422.42 234.38 422.42 233.44" fill="#fcbeaf"/>
              <polygon points="422.42 232.51 670.28 204.81 678.64 204.81 422.42 233.44 422.42 232.51" fill="#fcbfaf"/>
              <polygon points="422.42 231.58 661.93 204.81 670.28 204.81 422.42 232.51 422.42 231.58" fill="#fcc0b0"/>
              <polygon points="422.42 230.64 653.58 204.81 661.93 204.81 422.42 231.58 422.42 230.64" fill="#fcc1b1"/>
              <polygon points="422.42 229.71 645.23 204.81 653.58 204.81 422.42 230.64 422.42 229.71" fill="#fcc2b1"/>
              <polygon points="422.42 228.78 636.87 204.81 645.23 204.81 422.42 229.71 422.42 228.78" fill="#fcc3b2"/>
              <polygon points="422.42 227.84 628.52 204.81 636.87 204.81 422.42 228.78 422.42 227.84" fill="#fcc4b3"/>
              <polygon points="422.42 226.91 620.17 204.81 628.52 204.81 422.42 227.84 422.42 226.91" fill="#fcc5b3"/>
              <polygon points="422.42 225.98 611.82 204.81 620.17 204.81 422.42 226.91 422.42 225.98" fill="#fcc6b4"/>
              <polygon points="422.42 225.04 603.46 204.81 611.82 204.81 422.42 225.98 422.42 225.04" fill="#fcc7b5"/>
              <polygon points="422.42 224.11 595.11 204.81 603.46 204.81 422.42 225.04 422.42 224.11" fill="#fcc8b5"/>
              <polygon points="422.42 223.18 586.76 204.81 595.11 204.81 422.42 224.11 422.42 223.18" fill="#fcc9b6"/>
              <polygon points="422.42 222.24 578.41 204.81 586.76 204.81 422.42 223.18 422.42 222.24" fill="#fccab7"/>
              <polygon points="422.42 221.31 570.05 204.81 578.41 204.81 422.42 222.24 422.42 221.31" fill="#fccbb7"/>
              <polygon points="422.42 220.38 561.7 204.81 570.05 204.81 422.42 221.31 422.42 220.38" fill="#fcccb8"/>
              <polygon points="422.42 219.44 553.35 204.81 561.7 204.81 422.42 220.38 422.42 219.44" fill="#fccdb9"/>
              <polygon points="422.42 218.51 545 204.81 553.35 204.81 422.42 219.44 422.42 218.51" fill="#fcceb9"/>
              <polygon points="422.42 217.57 536.64 204.81 545 204.81 422.42 218.51 422.42 217.57" fill="#fccfba"/>
              <polygon points="422.42 216.64 528.29 204.81 536.64 204.81 422.42 217.57 422.42 216.64" fill="#fcd0bb"/>
              <polygon points="422.42 215.71 519.94 204.81 528.29 204.81 422.42 216.64 422.42 215.71" fill="#fcd1bb"/>
              <polygon points="422.42 214.78 511.59 204.81 519.94 204.81 422.42 215.71 422.42 214.78" fill="#fcd2bc"/>
              <polygon points="422.42 213.84 503.24 204.81 511.59 204.81 422.42 214.78 422.42 213.84" fill="#fcd3bd"/>
              <polygon points="422.42 212.91 494.88 204.81 503.24 204.81 422.42 213.84 422.42 212.91" fill="#fcd4bd"/>
              <polygon points="422.42 211.97 486.53 204.81 494.88 204.81 422.42 212.91 422.42 211.97" fill="#fcd5be"/>
              <polygon points="422.42 211.04 478.18 204.81 486.53 204.81 422.42 211.97 422.42 211.04" fill="#fcd6bf"/>
              <polygon points="422.42 210.11 469.83 204.81 478.18 204.81 422.42 211.04 422.42 210.11" fill="#fcd7bf"/>
              <polygon points="422.42 209.17 461.47 204.81 469.83 204.81 422.42 210.11 422.42 209.17" fill="#fcd8c0"/>
              <polygon points="422.42 208.24 453.12 204.81 461.47 204.81 422.42 209.17 422.42 208.24" fill="#fcd9c1"/>
              <polygon points="422.42 207.31 444.77 204.81 453.12 204.81 422.42 208.24 422.42 207.31" fill="#fcdac1"/>
              <polygon points="422.42 206.37 436.42 204.81 444.77 204.81 422.42 207.31 422.42 206.37" fill="#fcdbc2"/>
              <polygon points="422.42 205.44 428.06 204.81 436.42 204.81 422.42 206.37 422.42 205.44" fill="#fddcc3"/>
              <polygon points="428.06 204.81 422.42 205.44 422.42 204.81 428.06 204.81" fill="#fdddc3"/>
            </g>
            <path d="M658,382.65s-48.68,18.26-73,10.14c0,0-33.81,33.14-65.59,31.78,0,0,48.69-1.35,66.27,16.91,0,0,13.52-20.29,44-18.93C629.63,422.55,631.66,398.2,658,382.65Z" fill="#fbf8ef"/>
          </g>
          <path d="M537.91,226.46a1.7,1.7,0,0,1-.68-3.09c3.12-2.09,8.54-4.9,13.09-3C556.14,222.92,545,227.54,537.91,226.46Z" fill="#809868"/>
        </g>
        <g>
          <g>
            <path d="M527.23,177.32a24.08,24.08,0,0,1-3-13.39c.39-5.06,3.33-8.93,4.55-13.71,1.58-6.2-10.67-37.29,6.5-55.82l0,0c8.71-6.52,19.78-10.4,30.9-12,17.91-2.64,36.28,2.06,50.1,13.73C643,118.64,635,150.67,635,150.67s20-19.16,22.91,2.78-17.76,30.15-22.76,32.12-6-3.56-6-3.56a108.57,108.57,0,0,1-27.3,12.1s-35.5,4.21-54.69-1.91C539.13,189.65,531.43,184.85,527.23,177.32Z" fill="#fdd9b1"/>
            <path d="M564.92,198.79v.09c-5.38,1.15-15.06-1.72-21.56-3.14-6.29-1.39-14.11-3.36-18.32-8.54a25.55,25.55,0,0,1-5.9-17.44,53.19,53.19,0,0,1,2.47-12.43c.91-3,2.62-5.69,1.6-8.55-.94-2.62-2.48-5-3.3-7.72a45,45,0,0,1-1.26-19.82c1.85-11.7,8.09-20.54,16.6-26.87l0,0c-17.17,18.53-4.92,49.62-6.5,55.82-1.22,4.78-4.16,8.65-4.55,13.71a24.08,24.08,0,0,0,3,13.39c4.2,7.53,11.9,12.33,19.93,14.88,19.19,6.12,54.69,1.91,54.69,1.91C591.29,200.78,565.82,198.86,564.92,198.79Z" fill="#f5c652"/>
          </g>
          <path d="M562,199.52c-4.29,0-9.81-1.31-14.8-2.5-1.39-.33-2.71-.65-3.92-.92-6.78-1.5-14.36-3.53-18.53-8.67a25.77,25.77,0,0,1-6-17.7,52.66,52.66,0,0,1,2.48-12.51c.23-.75.5-1.48.77-2.19.81-2.1,1.56-4.09.84-6.12-.41-1.14-1-2.26-1.47-3.35a29.28,29.28,0,0,1-1.84-4.4,45.3,45.3,0,0,1-1.27-20c1.74-11,7.38-20.14,16.75-27.11C543.21,87.93,554,83.75,566.09,82c18.43-2.71,36.79,2.33,50.39,13.82,23.77,20.07,20.18,47.9,19.09,53.84,2.64-2.31,10.72-8.75,16.65-6.67,3.25,1.15,5.28,4.66,6,10.45,1.33,10.17-1.57,24.06-23,32.52a4.58,4.58,0,0,1-4,0,5.57,5.57,0,0,1-2.33-3.28A110.1,110.1,0,0,1,602,194.47a.38.38,0,1,1-.21-.72A107.94,107.94,0,0,0,629,181.69a.39.39,0,0,1,.35,0,.34.34,0,0,1,.22.27,5.23,5.23,0,0,0,2.09,3.3,3.85,3.85,0,0,0,3.37,0c21-8.28,23.83-21.82,22.53-31.72-.72-5.49-2.58-8.8-5.54-9.84-6.6-2.32-16.64,7.18-16.74,7.28a.36.36,0,0,1-.45.05.37.37,0,0,1-.17-.41c.08-.32,7.63-32.07-18.61-54.23C602.56,85,584.41,80,566.2,82.7c-12,1.77-22.64,5.91-30.74,12-9.2,6.85-14.74,15.81-16.45,26.63A44.73,44.73,0,0,0,520.26,141a29.58,29.58,0,0,0,1.79,4.29,35.92,35.92,0,0,1,1.5,3.41c.82,2.29,0,4.41-.84,6.65-.26.69-.53,1.41-.75,2.14a51.75,51.75,0,0,0-2.45,12.34A25,25,0,0,0,525.32,187c4,4.95,11.46,6.94,18.11,8.41,1.22.27,2.54.58,3.93.92,5.87,1.4,13.18,3.14,17.47,2.22a.38.38,0,0,1,.16.74A14.67,14.67,0,0,1,562,199.52Z" fill="gray"/>
        </g>
        <g>
          <ellipse cx="559.86" cy="146.4" rx="10.3" ry="5.51" transform="translate(410.5 705.48) rotate(-89.7)" fill="#fff"/>
          <path d="M559.83,157.29h0c-1.57,0-3.18,0-4.34-1.54s-1.71-4.45-1.69-9.38c0-6.1,2.74-10.87,6.16-10.85s6.07,4.81,6,10.92c0,4.92-.57,7.81-1.78,9.35S561.39,157.29,559.83,157.29Zm0-1.17h0c1.47,0,2.62,0,3.45-1,1-1.29,1.51-4.12,1.53-8.65,0-5.27-2.21-9.73-4.88-9.75s-5,4.43-5,9.7c0,4.53.44,7.36,1.44,8.66.81,1.06,2,1.07,3.41,1.08Z" fill="gray"/>
        </g>
        <ellipse cx="558.24" cy="147.15" rx="9.56" ry="3.9" transform="translate(408.16 704.6) rotate(-89.7)" fill="#007453"/>
        <g>
          <ellipse cx="585.28" cy="146.54" rx="10.3" ry="5.51" transform="matrix(0.01, -1, 1, 0.01, 435.66, 731.03)" fill="#fff"/>
          <path d="M585.25,157.42h0c-1.57,0-3.19,0-4.34-1.54s-1.71-4.45-1.69-9.37c0-6.11,2.74-10.87,6.16-10.86s6.07,4.82,6,10.92c0,4.93-.57,7.82-1.78,9.36S586.81,157.43,585.25,157.42Zm0-1.16h0c1.47,0,2.62,0,3.45-1,1-1.29,1.51-4.12,1.53-8.65,0-5.26-2.21-9.73-4.88-9.74s-5,4.42-5,9.69c0,4.53.44,7.36,1.44,8.67.81,1.06,2,1.07,3.41,1.08Z" fill="gray"/>
        </g>
        <ellipse cx="583.66" cy="147.28" rx="9.56" ry="3.9" transform="translate(433.31 730.16) rotate(-89.7)" fill="#007453"/>
        <path d="M574.09,164.55a.77.77,0,0,1-.58-.26c-2.37-2.65-5.19-4.74-5.92-4.38-.22.11-.53.94-.1,3.31a.77.77,0,1,1-1.52.27c-.33-1.78-.58-4.23.94-5,2.27-1.11,6.51,3.35,7.76,4.74a.77.77,0,0,1-.06,1.09A.76.76,0,0,1,574.09,164.55Z" fill="gray"/>
        <g opacity="0.74">
          <ellipse cx="601.2" cy="164.59" rx="9.67" ry="14" transform="translate(433.44 764.91) rotate(-89.7)" fill="#fdcba8"/>
        </g>
        <g opacity="0.74">
          <ellipse cx="544.26" cy="164.31" rx="9.67" ry="14" transform="translate(377.08 707.69) rotate(-89.7)" fill="#fdcba8"/>
        </g>
        <polygon points="558.36 151.21 558.82 152.15 559.86 152.31 559.1 153.04 559.27 154.07 558.35 153.58 557.42 154.06 557.6 153.03 556.85 152.29 557.89 152.15 558.36 151.21" fill="#fffba9"/>
        <polygon points="584.15 150.43 584.61 151.37 585.64 151.53 584.89 152.26 585.06 153.29 584.13 152.8 583.2 153.28 583.39 152.25 582.64 151.51 583.68 151.37 584.15 150.43" fill="#fffba9"/>
        <path d="M643.76,154.94a1,1,0,0,0,.84,1.64c1.45-.31,2.82-.21,2.81,1.24,0,6.21-10.43,14.88-13.8,14a.16.16,0,0,0-.22.17c.16,1.21,1.63,5.85,14.93-7.13,6.07-6.2,3.35-11.92.07-12.19C646.82,152.52,645.11,153.69,643.76,154.94Z" fill="#f5c652"/>
        <path d="M634.91,175.17a3,3,0,0,1-.44,0,2.08,2.08,0,0,1-1.84-1.54.77.77,0,0,1,1.49-.42c0,.17.13.36.56.42,2.59.38,10.26-4.57,13.84-10.44,1.47-2.42,2.79-5.93.69-8.91a2.19,2.19,0,0,0-1.82-1c-1.68.09-3.49,2.45-4,3.35a.78.78,0,0,1-1.07.26.77.77,0,0,1-.25-1.07c.24-.4,2.5-3.93,5.27-4.09a3.68,3.68,0,0,1,3.16,1.62c2.06,2.93,1.84,6.59-.62,10.64C646.15,170,638.56,175.19,634.91,175.17Z" fill="gray"/>
        <path d="M652.56,117.46A20,20,0,0,0,628,88.09,20.05,20.05,0,0,0,600,72.84a20,20,0,0,0-38.51-.16,20,20,0,0,0-24,6.71l-.74,0a20.06,20.06,0,0,0-19.41,15h-.63a20,20,0,1,0,19.4,25.06l.64,0A20,20,0,0,0,553,111.18l.74,0a20,20,0,0,0,9.58-2.43,19.23,19.23,0,0,0,29.41-4.8,20.07,20.07,0,0,0,23.18,5.67,20,20,0,0,0,5.94,11.4,20,20,0,1,0,30.69-3.58Z" fill="#007453"/>
        <path d="M628.31,63,588.8,16,542.34,55.87c-4.52,1.42-36.51,12.15-63.21,38.22,0,0,140.52-14.4,209.06,15.76C688.19,109.85,657.44,73.72,628.31,63Z" fill="#f3aa2a"/>
        <path d="M648.35,91.28a1,1,0,0,1-.84-.45c-5.57-8.45-27.45-22.31-27.67-22.45a1,1,0,0,1-.31-1.38,1,1,0,0,1,1.38-.31c.92.57,22.47,14.23,28.27,23a1,1,0,0,1-.28,1.38A.94.94,0,0,1,648.35,91.28Z" fill="gray"/>
        <path d="M590.78,86.14a1,1,0,0,1-.92-.61c-3.87-9.3,1.29-20.57,1.51-21a1,1,0,0,1,1.82.84c-.06.11-5,11-1.49,19.43a1,1,0,0,1-.53,1.3A.91.91,0,0,1,590.78,86.14Z" fill="gray"/>
        <path d="M552.19,85.77a1,1,0,0,1-.24,0,1,1,0,0,1-.73-1.22c3.06-12.24,18.52-21.93,19.18-22.33a1,1,0,0,1,1.37.32,1,1,0,0,1-.32,1.38C571.3,64,556,73.56,553.16,85A1,1,0,0,1,552.19,85.77Z" fill="gray"/>
        <path d="M515.47,86.52a1,1,0,0,1-.33-.06,1,1,0,0,1-.61-1.28c3.86-10.8,35.23-22.58,36.56-23.08a1,1,0,0,1,1.29.59,1,1,0,0,1-.59,1.28c-.08,0-8.11,3-16.49,7.27-10.91,5.52-17.44,10.57-18.88,14.61A1,1,0,0,1,515.47,86.52Z" fill="gray"/>
        <path d="M587,130.11s-6.1-4.53-10.25-.05C573.42,133.66,585.85,136.07,587,130.11Z" fill="#015b48"/>
        <path d="M567.67,130.11s-6.11-4.53-10.25-.05C554.08,133.66,566.5,136.07,567.67,130.11Z" fill="#015b48"/>
        <path d="M593,233.84c-7.5-16.77,3-36.08,20.94-39.77,15.24-3.13,35.6-3.27,51,11.44,28.11,26.83,46,72,2.56,126C640.62,360.51,596,378.9,596,378.9l-12.31-12s63.83-86.44,46.38-103C618.15,252.54,600,249.51,593,233.84Z" fill="#007453"/>
        <path d="M491.41,316.38s-34.3,10.64-21.29,39c0,0,1.95,6.93,7.61,10.81,0,0,13.94-14.84,13.68-30.74S491.41,316.38,491.41,316.38Z" fill="#007453"/>
        <g>
          <path d="M491.41,335.47s1.4.31,9.36,0,17.24,8.66-1.33,8.49c0,0,8.63,4.14,16.92,4.47s5.93,19.23-10.8,19.23-22.88-7.78-22.88-7.78S491.53,347.77,491.41,335.47Z" fill="#fdd9b1"/>
          <path d="M505.56,368.16c-16.78,0-23-7.65-23.27-8l-.23-.3.22-.31c.09-.12,8.74-12.12,8.63-24.1v-.63l.6.13c.09,0,1.63.28,9.24,0,3.74-.13,8.12,1.74,9.56,4.11a2.5,2.5,0,0,1,.16,2.62c-.92,1.61-3.9,2.54-8.67,2.73a47.13,47.13,0,0,0,14.58,3.5c3.13.13,5.19,2.82,5.11,6.7C521.39,359.86,517,368.16,505.56,368.16Zm-22.24-8.32c1.29,1.36,7.77,7.32,22.24,7.32,10.7,0,14.84-7.7,14.93-12.55,0-2.54-1-5.55-4.16-5.68-8.29-.33-17-4.48-17.1-4.52l-2-1,2.25,0c8,.07,9.75-1.55,10.15-2.26a1.54,1.54,0,0,0-.15-1.61c-1.11-1.82-4.94-3.8-8.66-3.62-5.5.21-7.9.13-8.88.06C491.77,347,484.71,357.83,483.32,359.84Z" fill="#999"/>
        </g>
        <g>
          <path d="M583.66,366.89s-17,2.79-18.88,5.94,11.41,3.78,11.41,3.78-9.83,4.72-17.39,4.72-1.61,10.72,12.43,7.26A104.87,104.87,0,0,0,596,378.9Z" fill="#fdd9b1"/>
          <path d="M565.89,389.76c-4.66,0-8.16-1.64-9.85-3.71a3.38,3.38,0,0,1-.82-3.56c.29-.62,1.15-1.66,3.58-1.66,5.43,0,12.14-2.52,15.33-3.86-3.25-.27-8.86-1-9.86-2.87a1.48,1.48,0,0,1,.08-1.53c2-3.25,17.47-5.88,19.23-6.17l.25,0,13,12.64-.57.34a106.45,106.45,0,0,1-24.87,9.73A22.86,22.86,0,0,1,565.89,389.76Zm17.6-22.33c-4.84.81-16.85,3.28-18.28,5.66a.47.47,0,0,0-.05.54c.78,1.46,7.19,2.3,11.06,2.48l2,.1-1.79.85c-.41.2-10,4.77-17.61,4.77-1.4,0-2.35.39-2.68,1.09a2.51,2.51,0,0,0,.69,2.5c2.11,2.57,7.34,4.4,14.3,2.68a106.22,106.22,0,0,0,24-9.31Z" fill="#999"/>
        </g>
        <path d="M627.7,350a.5.5,0,0,1-.26-.92c34.61-21.66,46.56-47.29,50.49-65,4.26-19.14.3-33.32.26-33.46a.51.51,0,0,1,.34-.62.49.49,0,0,1,.62.35c0,.14,4.07,14.57-.24,34-4,17.87-16,43.76-50.94,65.61A.52.52,0,0,1,627.7,350Z" fill="#f5c652"/>
        <path d="M573.29,180.39c-12.34,0-14.31-6.07-14.39-6.33a1,1,0,0,1,1.91-.59c0,.09,1.82,4.92,12.48,4.92,10.49,0,11-4.62,11-4.67a1,1,0,0,1,1-.95,1,1,0,0,1,1,1C586.26,174.08,585.84,180.39,573.29,180.39Z" fill="gray"/>
        <path d="M646.35,98.1s-4.15,25.39,6.75,35.62-22,66-12.87,104.11c0,0,10.77-5.86,33.4,2.52s34,0,34,0S691.53,122.7,665.07,102.46C665.07,102.46,653.48,99.39,646.35,98.1Z" fill="#ffa994"/>
        <path d="M683.71,202c0,1.44-2.48,2.22-3.15,3.38s-.15,3.73-1.35,4.42-3.06-1.05-4.5-1.05-3.34,1.72-4.5,1.05-.65-3.23-1.35-4.42-3.15-1.94-3.15-3.38,2.48-2.21,3.15-3.37.16-3.73,1.35-4.42,3.07,1,4.5,1,3.34-1.71,4.5-1,.66,3.22,1.35,4.42S683.71,200.58,683.71,202Z" fill="#ff6d5c"/>
        <path d="M696.71,226c0,1.44-2.48,2.22-3.15,3.38s-.15,3.73-1.35,4.42-3.06-1.05-4.5-1.05-3.34,1.72-4.5,1.05-.65-3.23-1.35-4.42-3.15-1.94-3.15-3.38,2.48-2.21,3.15-3.37.16-3.73,1.35-4.42,3.07,1,4.5,1,3.34-1.71,4.5-1,.66,3.22,1.35,4.42S696.71,224.58,696.71,226Z" fill="#ff6d5c"/>
        <path d="M666.71,225c0,1.44-2.48,2.22-3.15,3.38s-.15,3.73-1.35,4.42-3.06-1.05-4.5-1.05-3.34,1.72-4.5,1.05-.65-3.23-1.35-4.42-3.15-1.94-3.15-3.38,2.48-2.21,3.15-3.37.16-3.73,1.35-4.42,3.07,1,4.5,1,3.34-1.71,4.5-1,.66,3.22,1.35,4.42S666.71,223.58,666.71,225Z" fill="#ff6d5c"/>
        <path d="M666.71,185c0,1.44-2.48,2.22-3.15,3.38s-.15,3.73-1.35,4.42-3.06-1.05-4.5-1.05-3.34,1.72-4.5,1.05-.65-3.23-1.35-4.42-3.15-1.94-3.15-3.38,2.48-2.21,3.15-3.37.16-3.73,1.35-4.42,3.07,1,4.5,1,3.34-1.71,4.5-1,.66,3.22,1.35,4.42S666.71,183.58,666.71,185Z" fill="#ff6d5c"/>
        <path d="M687.71,177c0,1.44-2.48,2.22-3.15,3.38s-.15,3.73-1.35,4.42-3.06-1.05-4.5-1.05-3.34,1.72-4.5,1.05-.65-3.23-1.35-4.42-3.15-1.94-3.15-3.38,2.48-2.21,3.15-3.37.16-3.73,1.35-4.42,3.07,1,4.5,1,3.34-1.71,4.5-1,.66,3.22,1.35,4.42S687.71,175.58,687.71,177Z" fill="#ff6d5c"/>
        <path d="M680.71,151c0,1.44-2.48,2.22-3.15,3.38s-.15,3.73-1.35,4.42-3.06-1.05-4.5-1.05-3.34,1.72-4.5,1.05-.65-3.23-1.35-4.42-3.15-1.94-3.15-3.38,2.48-2.21,3.15-3.37.16-3.73,1.35-4.42,3.07,1,4.5,1,3.34-1.71,4.5-1,.66,3.22,1.35,4.42S680.71,149.58,680.71,151Z" fill="#ff6d5c"/>
        <path d="M668.71,123c0,1.44-2.48,2.22-3.15,3.38s-.15,3.73-1.35,4.42-3.06-1.05-4.5-1.05-3.34,1.72-4.5,1.05-.65-3.23-1.35-4.42-3.15-1.94-3.15-3.38,2.48-2.21,3.15-3.37.16-3.73,1.35-4.42,3.07,1,4.5,1,3.34-1.71,4.5-1,.66,3.22,1.35,4.42S668.71,121.58,668.71,123Z" fill="#ff6d5c"/>
        <path d="M676.71,134c0,.64-1.1,1-1.4,1.5s-.07,1.66-.6,2-1.36-.47-2-.47-1.48.77-2,.47-.29-1.44-.6-2-1.4-.86-1.4-1.5,1.11-1,1.4-1.5.07-1.65.6-2,1.36.46,2,.46,1.49-.76,2-.46.29,1.43.6,2S676.71,133.38,676.71,134Z" fill="#ff6d5c"/>
        <path d="M663.71,165c0,.64-1.1,1-1.4,1.5s-.07,1.66-.6,2-1.36-.47-2-.47-1.48.77-2,.47-.29-1.44-.6-2-1.4-.86-1.4-1.5,1.11-1,1.4-1.5.07-1.65.6-2,1.36.46,2,.46,1.49-.76,2-.46.29,1.43.6,2S663.71,164.38,663.71,165Z" fill="#ff6d5c"/>
        <path d="M697.71,198c0,.64-1.1,1-1.4,1.5s-.07,1.66-.6,2-1.36-.47-2-.47-1.48.77-2,.47-.29-1.44-.6-2-1.4-.86-1.4-1.5,1.11-1,1.4-1.5.07-1.65.6-2,1.36.46,2,.46,1.49-.76,2-.46.29,1.43.6,2S697.71,197.38,697.71,198Z" fill="#ff6d5c"/>
        <path d="M656.71,206c0,.64-1.1,1-1.4,1.5s-.07,1.66-.6,2-1.36-.47-2-.47-1.48.77-2,.47-.29-1.44-.6-2-1.4-.86-1.4-1.5,1.11-1,1.4-1.5.07-1.65.6-2,1.36.46,2,.46,1.49-.76,2-.46.29,1.43.6,2S656.71,205.38,656.71,206Z" fill="#ff6d5c"/>
      </g>
      <g>
        <polygon points="126.9 423.41 143.21 503.93 165.5 500.41 197.28 401.05 126.9 423.41" fill="#007453"/>
        <g>
          <path d="M143.21,503.93l33.9-5.06V549.8s27.76,7.41,42.81,22.46S143.21,589,143.21,589Z" fill="#f7c852"/>
          <path d="M142.71,589.48v-86l34.9-5.21v51.13c3.36,1,28.64,8.46,42.66,22.48,1.66,1.66,2.18,3.28,1.56,4.81-4.55,11.28-75.59,12.71-78.61,12.76Zm1-85.12v84.1c3.1-.07,19.86-.5,36.86-2.05,31.12-2.82,39.11-7,40.34-10.07.46-1.15,0-2.37-1.35-3.73-14.77-14.78-42.31-22.26-42.58-22.33l-.37-.1V499.45Z" fill="gray"/>
        </g>
        <polygon points="143.21 426.95 194.54 490.95 226.85 511.18 231.56 382.13 143.21 426.95" fill="#007453"/>
        <g>
          <path d="M188.79,485.2l41.65,26-43.2,41.7s13.69,42.8,16.52,57.82-52.29-18.75-65.5-48Z" fill="#f7c852"/>
          <path d="M200.6,614.9c-12.6,0-52.32-28.81-62.79-52l-.12-.25.15-.23,50.8-77.88.42.26,42.19,26.32L187.81,553c1.22,3.83,13.77,43.36,16.44,57.58.51,2.69-.77,3.7-1.93,4.06A5.6,5.6,0,0,1,200.6,614.9Zm-61.77-52.19c11.69,25.49,54.29,53.81,63.19,51,.73-.23,1.66-.79,1.25-2.93C200.48,596,186.9,553.46,186.77,553l-.1-.3,43-41.47-40.7-25.38Z" fill="gray"/>
        </g>
        <g>
          <path d="M185.48,194s-3.94,21.28,12.15,19.74,18.53-6.86,23.16-26.45C220.79,187.32,211.34,197.55,185.48,194Z" fill="#fdd9b1"/>
          <path d="M196,214.35a10.27,10.27,0,0,1-7.93-3.16c-5.18-5.66-3.2-16.78-3.11-17.25l.09-.47.47.06c13.2,1.8,22-.08,27-2,5.45-2,7.82-4.54,7.84-4.57l1.29-1.38-.43,1.84c-4.52,19.1-6.75,25.22-23.6,26.83C197.11,214.32,196.56,214.35,196,214.35ZM185.9,194.59c-.31,2.16-1.33,11.26,2.94,15.92,2,2.2,4.95,3.12,8.75,2.76,15.07-1.44,17.82-5.7,22.35-24.53C216.67,191.31,206.57,197.28,185.9,194.59Z" fill="gray"/>
        </g>
        <g>
          <g>
            <path d="M256.69,173.2a24,24,0,0,0,3-13.31c-.39-5-3.31-8.86-4.52-13.61-1.57-6.16,10.59-37-6.46-55.44l0,0c-8.65-6.47-19.64-10.32-30.69-12-17.78-2.62-36,2-49.75,13.64-26.55,22.42-18.6,54.23-18.6,54.23s-19.9-19-22.75,2.76,17.65,29.93,22.61,31.89,5.92-3.53,5.92-3.53a107.89,107.89,0,0,0,27.11,12S217.84,194,236.9,188C244.88,185.44,252.52,180.67,256.69,173.2Z" fill="#fdd9b1"/>
            <path d="M219.26,194.51v.09c5.34,1.15,15-1.7,21.41-3.12,6.24-1.38,14-3.34,18.2-8.48a25.35,25.35,0,0,0,5.85-17.32,52.94,52.94,0,0,0-2.45-12.34c-.91-3-2.61-5.65-1.59-8.49.94-2.61,2.46-4.95,3.27-7.67a44.55,44.55,0,0,0,1.26-19.68c-1.84-11.62-8-20.4-16.49-26.69l0,0c17,18.4,4.89,49.28,6.46,55.44,1.21,4.75,4.13,8.59,4.52,13.61a24,24,0,0,1-3,13.31c-4.17,7.47-11.81,12.24-19.79,14.77-19.06,6.07-54.32,1.89-54.32,1.89C193.07,196.49,218.37,194.59,219.26,194.51Z" fill="#f5c652"/>
          </g>
          <path d="M222.17,195.25a14.51,14.51,0,0,1-3-.28.38.38,0,0,1-.29-.45.37.37,0,0,1,.45-.28c4.26.91,11.52-.82,17.35-2.22,1.37-.33,2.69-.64,3.9-.9,6.6-1.47,14-3.44,18-8.36a24.79,24.79,0,0,0,5.77-17.06,51.48,51.48,0,0,0-2.43-12.25c-.22-.72-.49-1.44-.75-2.12-.85-2.23-1.65-4.33-.83-6.61a34.42,34.42,0,0,1,1.49-3.39,29.14,29.14,0,0,0,1.77-4.26,44.24,44.24,0,0,0,1.25-19.51c-1.7-10.74-7.2-19.64-16.34-26.44-8-6-18.59-10.13-30.52-11.89-18.08-2.66-36.11,2.28-49.45,13.56-26.06,22-18.56,53.53-18.48,53.84a.37.37,0,0,1-.18.42.39.39,0,0,1-.45-.05c-.1-.1-10.07-9.55-16.62-7.23-2.94,1-4.78,4.32-5.5,9.76-1.28,9.84,1.55,23.29,22.38,31.5a3.78,3.78,0,0,0,3.34,0,5.1,5.1,0,0,0,2.07-3.27.42.42,0,0,1,.22-.28.45.45,0,0,1,.36,0,107.11,107.11,0,0,0,27,12,.38.38,0,0,1,.25.47.37.37,0,0,1-.46.25,109.2,109.2,0,0,1-26.77-11.77,5.45,5.45,0,0,1-2.31,3.25,4.48,4.48,0,0,1-4,0c-21.27-8.39-24.16-22.19-22.84-32.29.75-5.75,2.77-9.24,6-10.38,5.89-2.07,13.91,4.32,16.54,6.62-1.09-5.91-4.64-33.54,19-53.47,13.51-11.41,31.75-16.42,50-13.72,12.05,1.78,22.72,5.93,30.86,12,9.3,6.93,14.9,16,16.63,26.94a45,45,0,0,1-1.27,19.84,29.29,29.29,0,0,1-1.82,4.37c-.51,1.07-1.05,2.18-1.46,3.32-.72,2,0,4,.83,6.08.27.7.54,1.42.77,2.17a52.46,52.46,0,0,1,2.46,12.43,25.59,25.59,0,0,1-5.93,17.58c-4.15,5.1-11.68,7.12-18.41,8.61-1.2.26-2.52.58-3.89.9C231.92,193.94,226.43,195.24,222.17,195.25Z" fill="gray"/>
        </g>
        <path d="M197.1,90.34S146.64,98,149.7,146.73c0,0-12.13-11.31-18.46-6.58,0,0-25-20.63-.28-53.26,8.5-11.23,16.52-19.35,24.24-24.92a37,37,0,1,1,63.4-16.33c11.73.82,28.24,8.6,49.54,34.18,33,39.7-3,63.7-3,63.7s1-37.45-28-52.22l1.28,8.17h-7.36l-4.65-7.24-2.22,7.24H213.92V92.74l-4.54,6.73H201.2Z" fill="#007453"/>
        <path d="M231.05,121.87s-6.11-4.43-10.18.06C217.6,125.54,230,127.8,231.05,121.87Z" fill="#015b48"/>
        <path d="M197.43,122.05s6.06-4.5,10.18,0C210.92,125.57,198.58,128,197.43,122.05Z" fill="#015b48"/>
        <g>
          <ellipse cx="224.29" cy="142.49" rx="5.48" ry="10.23" transform="translate(-0.75 1.18) rotate(-0.3)" fill="#fff"/>
          <path d="M220,151.82c-1.2-1.54-1.74-4.4-1.77-9.3,0-6.06,2.6-10.82,6-10.84s6.08,4.72,6.11,10.78c0,4.89-.49,7.76-1.67,9.31s-2.75,1.52-4.32,1.53a0,0,0,0,0,0,0C222.77,153.3,221.17,153.31,220,151.82Zm4.36.32c1.44,0,2.58,0,3.39-1.07,1-1.29,1.46-4.11,1.43-8.61,0-5.23-2.29-9.64-5-9.62s-4.87,4.44-4.84,9.68c0,4.49.52,7.3,1.52,8.58.82,1.05,2,1.05,3.42,1h0Z" fill="gray"/>
        </g>
        <ellipse cx="225.89" cy="143.23" rx="3.88" ry="9.49" transform="translate(-0.75 1.19) rotate(-0.3)" fill="#007453"/>
        <g>
          <ellipse cx="199.04" cy="142.62" rx="5.48" ry="10.23" transform="translate(-0.75 1.05) rotate(-0.3)" fill="#fff"/>
          <path d="M194.76,152c-1.2-1.53-1.75-4.4-1.77-9.3,0-6.06,2.6-10.82,6-10.83s6.08,4.71,6.12,10.77c0,4.9-.49,7.77-1.68,9.31s-2.75,1.52-4.32,1.53h0C197.53,153.44,195.93,153.44,194.76,152Zm4.36.32c1.44,0,2.58,0,3.39-1.07,1-1.29,1.45-4.11,1.43-8.6,0-5.23-2.29-9.64-4.95-9.63s-4.87,4.45-4.85,9.68c0,4.5.53,7.31,1.53,8.59.82,1,2,1,3.42,1h0Z" fill="gray"/>
        </g>
        <ellipse cx="200.65" cy="143.36" rx="3.88" ry="9.49" transform="translate(-0.75 1.06) rotate(-0.3)" fill="#007453"/>
        <path d="M210.16,160.51a.76.76,0,0,0,.57-.26c2.35-2.63,5.15-4.7,5.87-4.35.22.11.53.94.1,3.29a.77.77,0,0,0,1.52.27c.32-1.77.57-4.2-.94-4.94-2.25-1.1-6.46,3.33-7.7,4.71a.76.76,0,0,0,.58,1.28Z" fill="gray"/>
        <g opacity="0.74">
          <ellipse cx="183.23" cy="160.55" rx="13.91" ry="9.6" transform="translate(-0.84 0.97) rotate(-0.3)" fill="#fdcba8"/>
        </g>
        <g opacity="0.74">
          <ellipse cx="239.78" cy="160.27" rx="13.91" ry="9.6" transform="translate(-0.84 1.27) rotate(-0.3)" fill="#fdcba8"/>
        </g>
        <path d="M133.48,139.09s0-.08,0-.12c0-.51-1.37-1.91-1.68-2.38a32.05,32.05,0,0,1-2.59-4.83,29.48,29.48,0,0,1-2.33-9.86c-.42-6.84,1.49-13.59,4.39-19.72A84.2,84.2,0,0,1,143.42,84a145.17,145.17,0,0,1,14.66-14.79,150.51,150.51,0,0,1,12-9.56c1-.69,1.94-1.36,2.95-2,9.1-5.72,22.51-1.38,22.51-1.38A11.55,11.55,0,0,1,197.07,54S177.72,43.72,152,64.45c-8.83,7.11-17.24,15.09-23.69,24.47-5.08,7.38-9.08,16-9.1,25.11a30.29,30.29,0,0,0,2.46,12,64.77,64.77,0,0,0,7.83,13.07c.53.72,1.36,1.27,1.79,1.1C131.91,139.9,133.49,139,133.48,139.09Z" fill="#f5c652"/>
        <g>
          <path d="M265.18,128.8a.77.77,0,0,0,.65-.36c10.17-15.93,7.28-26.06-9.62-57.89a.78.78,0,0,0-1-.32.77.77,0,0,0-.32,1c16.56,31.2,19.43,41.08,9.68,56.34a.78.78,0,0,0,.24,1.07A.75.75,0,0,0,265.18,128.8Z" fill="#f5c652"/>
          <path d="M275.14,96.87a.78.78,0,0,0,.41-.12.76.76,0,0,0,.24-1.06C271,88,260.78,79,260.35,78.58a.77.77,0,1,0-1,1.16c.1.09,10.43,9.26,15.16,16.77A.77.77,0,0,0,275.14,96.87Z" fill="#f5c652"/>
          <path d="M278.86,108.76a.67.67,0,0,0,.38-.11.77.77,0,0,0,.28-1.05c-5-8.5-13.37-17.1-13.45-17.18a.76.76,0,0,0-1.09,0,.77.77,0,0,0,0,1.09c.09.08,8.31,8.54,13.23,16.88A.76.76,0,0,0,278.86,108.76Z" fill="#f5c652"/>
          <path d="M278,117.35a.77.77,0,0,0,.45-.14.78.78,0,0,0,.16-1.08c-5-6.87-7-9-7.12-9.14a.76.76,0,0,0-1.09,0,.77.77,0,0,0,0,1.09s2.06,2.22,7,9A.74.74,0,0,0,278,117.35Z" fill="#f5c652"/>
          <path d="M275.64,123.28a.85.85,0,0,0,.35-.08.78.78,0,0,0,.32-1,35.18,35.18,0,0,0-5.33-6.72.77.77,0,0,0-1.09,0,.76.76,0,0,0,0,1.09,35.32,35.32,0,0,1,5.05,6.35A.75.75,0,0,0,275.64,123.28Z" fill="#f5c652"/>
        </g>
        <polygon points="227.27 139.41 226.81 140.34 225.78 140.5 226.53 141.22 226.36 142.25 227.28 141.76 228.21 142.24 228.02 141.22 228.77 140.48 227.73 140.34 227.27 139.41" fill="#fffba9"/>
        <polygon points="202.69 139.76 202.23 140.7 201.2 140.86 201.95 141.58 201.78 142.61 202.7 142.12 203.63 142.6 203.44 141.57 204.19 140.84 203.16 140.7 202.69 139.76" fill="#fffba9"/>
        <path d="M141,151a1,1,0,0,1-.84,1.62c-1.44-.3-2.8-.2-2.79,1.24,0,6.16,10.36,14.77,13.71,13.88.12,0,.23,0,.21.16-.16,1.21-1.62,5.82-14.83-7.08-6-6.15-3.32-11.83-.06-12.09C137.92,148.57,139.62,149.72,141,151Z" fill="#f5c652"/>
        <path d="M149.76,171.05a3,3,0,0,0,.43,0A2.06,2.06,0,0,0,152,169.5a.77.77,0,1,0-1.48-.41c0,.16-.13.35-.56.41-2.57.38-10.19-4.54-13.74-10.37-1.46-2.41-2.77-5.89-.69-8.84a2.15,2.15,0,0,1,1.81-1c1.67.09,3.47,2.44,4,3.33a.77.77,0,0,0,1.31-.81c-.25-.4-2.48-3.9-5.24-4.06a3.64,3.64,0,0,0-3.13,1.6c-2.06,2.91-1.84,6.56.61,10.57C138.59,166,146.13,171.07,149.76,171.05Z" fill="gray"/>
        <path d="M212.05,167.76a4.48,4.48,0,0,0-2.83,4.17c-.05,3,.51,7.83,4.7,7.36C219.2,178.71,217.69,165.68,212.05,167.76Z" fill="#df8e80"/>
        <path d="M149.05,203.42h0s-22.48,7.58-29,24.31S67.74,344.9,67.74,344.9l153.68,79.26s14.69-136.44-4.24-191.55L165.59,208C159.83,205.15,155,204.19,149.05,203.42Z" fill="#007453"/>
        <g>
          <path d="M257,302.1c-2.23.1-9.13-5.39-11.34-6.37-13.1-5.8-27.67-8.44-41.82-10-26.07-2.78-53-1.48-78.92,2.37C75,295.58,20.54,308.72.5,362c0,0,1.36,25.51,19.11,36.6s8.87,41,78.74,51,145.29-27.72,180.78-65.43c8.33-7.49,33.88-4.8,37.24-41.79,0,0,5.68-.79,5.33-9.56s-8.78-6.67-8.78-6.67S311.88,299.46,257,302.1Z" fill="#ffaa2a"/>
          <path d="M121.49,451.71a164.88,164.88,0,0,1-23.21-1.61c-49.53-7.08-59.58-24-67.66-37.54C27.32,407,24.47,402.21,19.34,399c-9.29-5.81-14-15.56-16.41-22.73A61.2,61.2,0,0,1,0,362v-.1l0-.1c9.12-24.26,25.89-42.05,51.25-54.38,23-11.2,50.09-16.28,73.51-19.77,28-4.18,54.64-5,79.05-2.37,17.46,1.86,30.79,5,42,10a32.76,32.76,0,0,1,3.82,2.36c2.51,1.67,5.94,4,7.24,4h.05c15.94-.77,37.43.6,49.26,11.44,5.8,5.32,7,10.76,7.19,12.51a8.47,8.47,0,0,1,6.17,1.22c1.65,1.24,2.55,3.27,2.66,6,.31,7.74-4,9.6-5.36,10-2.62,27.44-17.47,33.09-28.32,37.22-3.74,1.43-7,2.66-9.06,4.53C246.82,419.22,183.22,451.71,121.49,451.71ZM1,362.06c.12,1.77,2.11,25.63,18.86,36.1,5.33,3.33,8.24,8.22,11.61,13.89,8,13.39,17.89,30.05,66.94,37.06,68.07,9.72,143.73-26.38,180.34-65.28,2.25-2,5.57-3.29,9.4-4.75,10.66-4.06,25.25-9.62,27.71-36.74l0-.4.39-.05c.21,0,5.22-.87,4.9-9.05-.1-2.45-.86-4.22-2.26-5.27-2.37-1.78-5.86-.94-5.9-.94l-.59.15,0-.61c0-.06-.34-6.38-6.95-12.42-6.4-5.85-20-12.51-48.5-11.15h0c-1.45.07-4.2-1.67-7.89-4.13a33.77,33.77,0,0,0-3.68-2.28c-11.07-4.91-24.31-8.06-41.66-9.91-24.32-2.59-50.83-1.8-78.79,2.37-23.35,3.48-50.3,8.54-73.22,19.68C26.64,320.53,10.05,338.11,1,362.06Z" fill="#999"/>
        </g>
        <path d="M254.64,372c-41.73,8.79-140.44,28.1-194.49,26.47a2.12,2.12,0,0,0-.6,4.18c29.67,7.75,97.4,16.06,196.36-26.61A2.13,2.13,0,0,0,254.64,372Z" fill="#b7c794"/>
        <path d="M315.24,330.67s-1.57,3.27,0,5.27S321.1,329.84,315.24,330.67Z" fill="#007453"/>
        <path d="M181,412.46s22.82-14.86,26.81-9.06S182,423.69,181,412.46Z" fill="#b66100"/>
        <path d="M177.14,426s18.31-6.6,20.14-1.92S176.06,434,177.14,426Z" fill="#b66100"/>
        <path d="M109.48,426.25s-32.11.07-41.74-3.87,12.19,7.66,20.87,7.74S122.11,429.7,109.48,426.25Z" fill="#b66100"/>
        <g>
          <g>
            <path d="M285.13,266.83c.84,12.19-3.36,16.81-13.44,17.65s-2.05,20.57-11.94,21.42c0,0-77.52-100.38-110.7-102.48,0,0,5.81-3.7,10.56-12.16.57-1,1.06-1.86,1.5-2.64C161.11,188.62,201.36,200.81,285.13,266.83Z" fill="#ff7c74"/>
            <path d="M293.78,254.56s-9.49.1-8.65,12.27c-83.77-66-124-78.21-124-78.21l3.27-5.8S214.57,186.85,293.78,254.56Z" fill="#ff6d5c"/>
          </g>
          <path d="M284.82,267.23c-43.25-34.09-74.64-53.52-93.35-63.82-20.26-11.15-30.41-14.28-30.51-14.31l.29-1c.11,0,10.35,3.19,30.7,14.39,18.75,10.32,50.19,29.79,93.49,63.91Z" fill="#ffd371"/>
        </g>
        <path d="M162.43,306.48S187.37,254.4,183,230.92,150.1,182,122.63,219.64,90.29,308.3,95.15,321.4s88.37,55.41,88.37,55.41l16.53-22Z" fill="#007453"/>
        <g>
          <path d="M199.49,355.21s13.79,7.11,20,8.12-7.91,6.92-14.67,2.79c0,0,8.5,12.29,16.22,12s-3.84,23.08-33.82-6.48Z" fill="#fdd9b1"/>
          <path d="M213.8,387.19C203.26,387.19,191,376,186.89,372l-.31-.31,12.76-17.12.38.2c.14.07,13.79,7.08,19.87,8.07,1.17.19,1.8.57,1.94,1.16s-.18,1.06-.91,1.6c-2.18,1.57-9.17,3.48-14.2,1.79,2.57,3.26,8.93,10.49,14.62,10.23a2.51,2.51,0,0,1,2.73,1.72c.49,1.65-.59,4.37-3.55,6.15A12.31,12.31,0,0,1,213.8,387.19Zm-25.89-15.6c5.18,5.06,21.29,19.34,31.8,13,2.43-1.46,3.49-3.69,3.1-5a1.53,1.53,0,0,0-1.73-1h-.29c-7.82,0-16-11.72-16.36-12.23l-1.35-1.94,2,1.23c4.19,2.56,11.43,1.05,14.31-.52,1.08-.59,1.15-.94,1.15-.95h0s-.15-.24-1.13-.4c-5.73-.93-17.49-6.8-19.79-8Z" fill="#999"/>
        </g>
        <path d="M168.46,356.15l-.13,0c-.41-.11-40.49-11.55-57.3-32.16a25.28,25.28,0,0,1-5.16-20.64c3.45-18.71,13.14-44.42,13.23-44.68a.51.51,0,0,1,.65-.29.5.5,0,0,1,.29.64c-.1.26-9.75,25.89-13.19,44.52a24.32,24.32,0,0,0,5,19.82c16.61,20.37,56.4,31.72,56.8,31.83a.49.49,0,0,1,.34.61A.5.5,0,0,1,168.46,356.15Z" fill="#f5c652"/>
      </g>
    </g>
  </g>
</svg>
