<svg id="fe250562-2da0-43e8-b15c-5de4482e2bd3" data-name="圖層 1" xmlns="http://www.w3.org/2000/svg" viewBox="0 0 33.12 30.77"><defs><style>.badd5568-bb32-47d1-819e-fb3628a1cae1{fill:#007552;}.baae3812-a5e7-44d7-bbd0-b2856afe4f2c{fill:#df9b00;}.fecc9d7a-1a53-4419-b596-2c052bb50334{fill:#ffde62;}.ac281fb9-1cd0-4599-905f-54c1963dd16f{fill:#723700;}.b8d5c80b-47d5-422f-b999-e3897c134932{fill:#fbf8ef;}</style></defs><title>navbar_account_img</title><circle class="badd5568-bb32-47d1-819e-fb3628a1cae1" cx="15.38" cy="15.38" r="15.38"/><path class="baae3812-a5e7-44d7-bbd0-b2856afe4f2c" d="M790.42,473.08a9.42,9.42,0,0,1-5.11,8.32,9.49,9.49,0,0,1-4.8,1.05,9.07,9.07,0,0,1-4.68-1.27,9.5,9.5,0,0,1-3.64-3.3,9.63,9.63,0,0,1,0-9.63,8,8,0,0,1,8.36-4.74,9.33,9.33,0,0,1,4.72,1.38,9.92,9.92,0,0,1,3.87,3.22A10.18,10.18,0,0,1,790.42,473.08Z" transform="translate(-769.26 -455.87)"/><circle class="fecc9d7a-1a53-4419-b596-2c052bb50334" cx="3.22" cy="15.65" r="0.36"/><circle class="fecc9d7a-1a53-4419-b596-2c052bb50334" cx="3.22" cy="17.56" r="0.36"/><circle class="fecc9d7a-1a53-4419-b596-2c052bb50334" cx="4.18" cy="20.2" r="0.36"/><circle class="fecc9d7a-1a53-4419-b596-2c052bb50334" cx="3.7" cy="21.16" r="0.36"/><circle class="fecc9d7a-1a53-4419-b596-2c052bb50334" cx="4.42" cy="21.88" r="0.36"/><circle class="fecc9d7a-1a53-4419-b596-2c052bb50334" cx="4.66" cy="19" r="0.36"/><circle class="fecc9d7a-1a53-4419-b596-2c052bb50334" cx="19.04" cy="19" r="0.36"/><circle class="fecc9d7a-1a53-4419-b596-2c052bb50334" cx="18.08" cy="14.93" r="0.36"/><circle class="fecc9d7a-1a53-4419-b596-2c052bb50334" cx="4.9" cy="11.57" r="0.36"/><circle class="fecc9d7a-1a53-4419-b596-2c052bb50334" cx="19.04" cy="20.68" r="0.36"/><circle class="fecc9d7a-1a53-4419-b596-2c052bb50334" cx="17.84" cy="21.4" r="0.36"/><circle class="fecc9d7a-1a53-4419-b596-2c052bb50334" cx="17.84" cy="22.6" r="0.36"/><circle class="fecc9d7a-1a53-4419-b596-2c052bb50334" cx="16.64" cy="23.08" r="0.36"/><circle class="fecc9d7a-1a53-4419-b596-2c052bb50334" cx="15.44" cy="22.12" r="0.36"/><circle class="fecc9d7a-1a53-4419-b596-2c052bb50334" cx="15.44" cy="24.27" r="0.36"/><circle class="fecc9d7a-1a53-4419-b596-2c052bb50334" cx="14" cy="24.27" r="0.36"/><circle class="fecc9d7a-1a53-4419-b596-2c052bb50334" cx="10.65" cy="24.75" r="0.36"/><circle class="fecc9d7a-1a53-4419-b596-2c052bb50334" cx="13.52" cy="23.32" r="0.36"/><circle class="fecc9d7a-1a53-4419-b596-2c052bb50334" cx="13.04" cy="24.51" r="0.36"/><circle class="fecc9d7a-1a53-4419-b596-2c052bb50334" cx="12.33" cy="24.99" r="0.36"/><circle class="fecc9d7a-1a53-4419-b596-2c052bb50334" cx="13.52" cy="25.23" r="0.36"/><circle class="fecc9d7a-1a53-4419-b596-2c052bb50334" cx="3.94" cy="16.37" r="0.36"/><ellipse class="ac281fb9-1cd0-4599-905f-54c1963dd16f" cx="11.13" cy="9.78" rx="0.84" ry="0.24"/><path class="ac281fb9-1cd0-4599-905f-54c1963dd16f" d="M781.47,460.37h.95a38.7,38.7,0,0,1-1.67,5.28H780s1-3.12,1.2-3.6A5.41,5.41,0,0,0,781.47,460.37Z" transform="translate(-769.26 -455.87)"/><path class="badd5568-bb32-47d1-819e-fb3628a1cae1" d="M783.14,461.81s2.4-3.83,10.79-1,8.39,2.64,8.39,2.64S789.61,469.72,783.14,461.81Z" transform="translate(-769.26 -455.87)"/><path class="b8d5c80b-47d5-422f-b999-e3897c134932" d="M797.54,464.23A54.84,54.84,0,0,1,783,462.29l.27-1a53,53,0,0,0,19,1.67l.13,1A43.14,43.14,0,0,1,797.54,464.23Z" transform="translate(-769.26 -455.87)"/></svg>