<svg xmlns="http://www.w3.org/2000/svg" viewBox="0 0 1918 254.22"><defs><style>.cls-1{fill:#f8a47c;opacity:0.6;}.cls-2{fill:#0e7453;}.cls-3{fill:#f9e3cd;opacity:0.9;}</style></defs><title>navbackground</title><g id="圖層_2" data-name="圖層 2"><g id="footer"><rect class="cls-1" y="151.27" width="1918" height="102"/><polygon class="cls-2" points="785.18 124.72 771.93 139.16 728.58 95.81 710.06 115.99 671.22 77.15 636.73 114.74 617.81 95.81 564.23 154.21 600.52 154.21 672.51 154.21 665.25 162.11 822.87 162.41 785.18 124.72"/><polygon class="cls-2" points="1374.76 124.72 1361.51 139.16 1318.16 95.81 1299.65 115.99 1260.8 77.15 1226.32 114.74 1207.39 95.81 1153.81 154.21 1190.1 154.21 1262.09 154.21 1254.84 162.11 1412.45 162.41 1374.76 124.72"/><polygon class="cls-2" points="1336 234.21 1322.75 248.65 1279.4 205.3 1260.88 225.48 1222.04 186.63 1187.56 224.22 1168.63 205.3 1124.61 253.28 1355.07 253.28 1336 234.21"/><polygon class="cls-2" points="666.86 216.53 653.61 230.97 610.25 187.62 591.74 207.8 552.9 168.96 518.41 206.54 499.49 187.62 445.91 246.01 482.19 246.01 554.18 246.01 546.93 253.92 704.55 254.22 666.86 216.53"/><polygon class="cls-2" points="488.18 139.86 477.35 151.67 441.89 116.21 426.75 132.72 394.99 100.95 366.78 131.69 351.31 116.21 307.49 163.97 337.17 163.97 396.04 163.97 384.29 176.77 407.23 176.77 454.31 176.77 455.07 176.77 500.63 176.77 525.1 176.77 488.18 139.86"/><path class="cls-3" d="M997.94,66.26a25.78,25.78,0,0,0-39.49-11.94,43.8,43.8,0,0,0-20.7-5c-17,0-31.19,9-35,21-7.64,2.16-13.18,8.6-13.18,16.21,0,9.38,8.42,17,18.8,17A20.36,20.36,0,0,0,917,101.7c1.62,5.72,9.52,10.06,19,10.06a25.34,25.34,0,0,0,14.38-4.06,74.45,74.45,0,0,0,10.87.78c11.14,0,21.12-2.37,27.83-6.12a18.81,18.81,0,1,0,8.87-36.11Z"/><path class="cls-3" d="M1412.23,95a21.94,21.94,0,0,0-33.6-10.16A37.27,37.27,0,0,0,1361,80.59c-14.43,0-26.53,7.63-29.76,17.9-6.5,1.84-11.21,7.32-11.21,13.8,0,8,7.16,14.45,16,14.45a17.33,17.33,0,0,0,7.29-1.58c1.38,4.87,8.1,8.56,16.19,8.56a21.56,21.56,0,0,0,12.24-3.46,63.34,63.34,0,0,0,9.25.67c9.48,0,18-2,23.68-5.2A16,16,0,1,0,1412.23,95Z"/><path class="cls-3" d="M905.45,47.22A25.78,25.78,0,0,0,866,35.28a43.8,43.8,0,0,0-20.7-5c-17,0-31.19,9-35,21-7.64,2.16-13.18,8.6-13.18,16.21,0,9.38,8.42,17,18.8,17a20.36,20.36,0,0,0,8.57-1.86c1.62,5.72,9.52,10.06,19,10.06a25.34,25.34,0,0,0,14.38-4.06,74.45,74.45,0,0,0,10.87.78c11.14,0,21.12-2.37,27.83-6.12a18.81,18.81,0,1,0,8.87-36.11Z"/><path class="cls-3" d="M548.44,62.86A25.78,25.78,0,0,0,509,50.92a43.8,43.8,0,0,0-20.7-5c-17,0-31.19,9-35,21-7.64,2.16-13.18,8.6-13.18,16.21,0,9.38,8.42,17,18.8,17a20.36,20.36,0,0,0,8.57-1.86c1.62,5.72,9.52,10.06,19,10.06a25.34,25.34,0,0,0,14.38-4.06,74.45,74.45,0,0,0,10.87.78c11.14,0,21.12-2.37,27.83-6.12a18.81,18.81,0,1,0,8.87-36.11Z"/><path class="cls-3" d="M1215.49,15.66a23.83,23.83,0,0,0-36.49-11A40.48,40.48,0,0,0,1159.86,0c-15.68,0-28.82,8.29-32.32,19.45-7.06,2-12.18,8-12.18,15,0,8.67,7.78,15.7,17.38,15.7a18.82,18.82,0,0,0,7.92-1.72c1.5,5.29,8.8,9.3,17.58,9.3A23.41,23.41,0,0,0,1171.53,54a68.8,68.8,0,0,0,10,.72c10.29,0,19.51-2.19,25.72-5.65a17.38,17.38,0,1,0,8.2-33.37Z"/><polygon class="cls-2" points="1543.41 144.44 1530.16 158.88 1486.81 115.53 1468.29 135.71 1429.45 96.87 1394.96 134.46 1376.04 115.53 1322.46 173.93 1358.75 173.93 1430.73 173.93 1423.48 181.83 1581.1 182.13 1543.41 144.44"/></g></g></svg>