<svg id="b26858e5-cb95-4084-a997-e7940d6f2015" data-name="圖層 1" xmlns="http://www.w3.org/2000/svg" viewBox="0 0 49 35.71"><defs><style>.a94d7b39-227b-499f-b5fa-ca62529bd28e{fill:#009744;}.ab6115cf-1814-4a30-ac0c-5a5443419930{fill:#ff2e73;opacity:0.8;}.ebb4af74-84a3-468e-ae41-e3ab7ba95122{fill:#006cb3;}</style></defs><title>navbar_cart</title><path class="a94d7b39-227b-499f-b5fa-ca62529bd28e" d="M800.3,467.19c0,1.34,0,2.68,0,4a149.31,149.31,0,0,0,.66,16c.1,1.12.1,2.26.13,3.39a.79.79,0,0,1-.06.49c-.16.22-.4.52-.59.52a.81.81,0,0,1-.57-.54,12.63,12.63,0,0,1-.15-1.74c-.21-3.37-.46-6.73-.61-10.09-.1-2.36-.07-4.71-.1-7.07a4.79,4.79,0,0,0-.12-1.24,1.48,1.48,0,0,1-.07.53.81.81,0,0,1-.45.34c-.07,0-.21-.22-.37-.3a16,16,0,0,1,0,4.68,1.32,1.32,0,0,1-1,1.18,14.88,14.88,0,0,1-2.79.45c-2.34,0-4.69,0-7-.11a10.54,10.54,0,0,1-1.57-.2,2.22,2.22,0,0,1-1.92-2.41c0-.81,0-1.62,0-2.43a2.77,2.77,0,0,1,.71-1.9,1.59,1.59,0,0,1,.86-.53c.39-.06,14.12-6.61,14.24-7a7.8,7.8,0,0,1,4.38-4.92,10.78,10.78,0,0,1,3.93-.69c1.46-.06,2.93-.06,4.39-.08a4.4,4.4,0,0,1,2.74.88,10.2,10.2,0,0,1,1.69,1.72,18.33,18.33,0,0,1,1.56,2.31,9,9,0,0,1,1.07,4.05c.22,3.44.52,6.87.67,10.31.13,3,.09,5.92.12,8.87,0,.26,0,.52,0,.87.14-.13.22-.17.26-.24a2.35,2.35,0,0,1,2.39-1.27c2.37.09,4.75.16,7.13.27a1.83,1.83,0,0,1,1.91,1.33,2.14,2.14,0,0,1-.88,2.68,33,33,0,0,1-4.17,2.46,15.39,15.39,0,0,1-3.39,1.08,2.49,2.49,0,0,1-2.95-2.77,4.37,4.37,0,0,0-.22-2.18v1.94c0,.36,0,.72,0,1.08,0,.6-.26,1-.65.94s-.62-.46-.64-.9c-.06-1.29-.14-2.59-.15-3.89-.05-3.26,0-6.52-.13-9.78s-.47-6.57-.88-9.84a36.64,36.64,0,0,0-1.17-4.64c-.09-.34-.18-.68-.28-1-.39-1.35-1.59-1.65-2.63-2.16-.33-.16-.69-.24-1-.37a10,10,0,0,0-9,1,6,6,0,0,0-2.34,3.12A18.44,18.44,0,0,0,800.3,467.19Zm-3,3.41,0,0a5.43,5.43,0,0,0-1.15-.35c-1.34-.1-2.69-.17-4-.2-1.54,0-3.07,0-4.6,0v.08Z" transform="translate(-783.5 -457.54)"/><path class="ab6115cf-1814-4a30-ac0c-5a5443419930" d="M812.47,478c-1-.07-2-.18-2.94-.2-2.33,0-4.65,0-7,0-1.21,0-1.77-.58-1.77-1.84,0-1.05,0-2.11,0-3.16a1.26,1.26,0,0,1,1.33-1.43c.71,0,1.43-.09,2.14-.1.33,0,1.14,0,1.6,0,.72,0,1.43.07,2.14.07h8a2.06,2.06,0,0,1,2.08,1.36,2.18,2.18,0,0,1,.1.81c0,.76-.1,1.53-.07,2.28a1.39,1.39,0,0,1-.83,1.49l-.94.45c.05.08.07.13.09.14,1.57.27,2.06,1,1.78,2.66-.14.81-.14,1.65-.22,2.47-.09,1-.38,1.27-1.31,1.3-3.77.1-7.54.18-11.31.29a10.43,10.43,0,0,0-1.25.17v.2H805c2.51,0,5,0,7.52-.05,1.37,0,2.74-.17,4.11-.19.94,0,1.27.44,1.45,1.4a20,20,0,0,1-.17,4.89,1.28,1.28,0,0,1-1.38,1.31c-1.9.13-3.8.23-5.7.29s-3.8.06-5.7.09h-.77a2.68,2.68,0,0,1-2.84-2.78c-.06-.86-.15-1.72-.24-2.58a2.17,2.17,0,0,1,1.21-2.23c-.26-.21-.59-.37-.73-.64a4.34,4.34,0,0,1-.47-1.41c-.12-.89-.13-1.79-.21-2.69a1.77,1.77,0,0,1,1.47-2.05,6,6,0,0,1,1-.07h7c.61,0,1.23-.07,1.85-.1Z" transform="translate(-783.5 -457.54)"/><path class="ebb4af74-84a3-468e-ae41-e3ab7ba95122" d="M797.15,485a2.44,2.44,0,0,1,1.73,2.57c0,1.13-.12,2.26-.27,3.38a2.53,2.53,0,0,1-2.43,2.34,18.92,18.92,0,0,1-7.2-.9,9.92,9.92,0,0,1-4.89-4.51,2.12,2.12,0,0,1,.53-2.7l.24-.23c-1.64-1.05-1.34-2.7-1.33-4.26,0-.22,0-.45.05-.67a1.86,1.86,0,0,1,2.15-1.91c2.15.12,4.3.25,6.46.27a23.25,23.25,0,0,0,3.21-.31c2.06-.27,3.41,1.07,3.22,3.23,0,.65-.08,1.31-.11,2C798.47,484.37,798.28,484.63,797.15,485Z" transform="translate(-783.5 -457.54)"/><path class="ab6115cf-1814-4a30-ac0c-5a5443419930" d="M825.66,470.73h4.11c.33,0,.66,0,1,0a1.6,1.6,0,0,1,1.49,1.36,8.11,8.11,0,0,1-.06,4.29c-.24.82-.53.93-1.37.95-2.33,0-4.66.15-7,.23-.73,0-1.46.06-2.19.06a.93.93,0,0,1-1-.74,30.34,30.34,0,0,1-.41-4.34,1.78,1.78,0,0,1,2-1.76c1.16,0,2.31,0,3.46,0Z" transform="translate(-783.5 -457.54)"/><path class="ebb4af74-84a3-468e-ae41-e3ab7ba95122" d="M827.89,477.94c.68,0,1.51,0,2.32.13a1.91,1.91,0,0,1,1.79,2.61c-.21.95-.39,1.91-.62,2.85a1.32,1.32,0,0,1-1.61,1.09c-1.63-.48-3.23,0-4.84,0-1,0-1.94.08-2.91.05s-1.29-.51-1.31-1.44-.09-1.77-.09-2.66a2.09,2.09,0,0,1,2.14-2.33Z" transform="translate(-783.5 -457.54)"/></svg>