<svg id="e0dcb8d1-fcb9-4ddc-8830-07c4eedd404e" data-name="圖層 1" xmlns="http://www.w3.org/2000/svg" viewBox="0 0 431.66 94.62"><defs><style>.a2e7fb5a-8c48-412d-9386-72bac0a41491,.afce7015-d0bc-4c31-ad9a-4a598647207a{fill:none;stroke-miterlimit:10;}.a2e7fb5a-8c48-412d-9386-72bac0a41491{stroke:#007651;stroke-width:10px;}.befe3054-e529-4901-8107-5ab3a879425b{fill:#e09b00;}.afdc758e-4ba6-4071-ab98-4f611368e100{fill:#ffde56;}.bc923315-7680-40db-a458-09993e6796e7{fill:#733700;}.ae0536e7-f379-4a99-82da-c93ff099e88e{fill:#007651;}.afce7015-d0bc-4c31-ad9a-4a598647207a{stroke:#fbf8ef;}.bbfff2d5-9936-4287-93e5-659bce45fecf{opacity:0.8;}.bb009b7d-ec92-4827-8663-75767c4f9f03{fill:#f8ce49;}</style></defs><title>blog_logo</title><line class="a2e7fb5a-8c48-412d-9386-72bac0a41491" x1="5" x2="5" y2="84"/><path class="befe3054-e529-4901-8107-5ab3a879425b" d="M148.75,349.83a24.55,24.55,0,0,1-3.45,12c-2.06,3.56-5.48,6.28-9,8.34s-7.47,2.59-11.74,2.59a22.24,22.24,0,0,1-11.44-3.11c-3.56-2.06-6.82-4.53-8.88-8.08a23.46,23.46,0,0,1-.1-23.52c2.06-3.56,4.72-7.19,8.27-9.25s7.88-2.34,12.15-2.34a22.91,22.91,0,0,1,11.55,3.36c3.56,2.06,7.4,4.33,9.45,7.89A24.89,24.89,0,0,1,148.75,349.83Z" transform="translate(-55 -307)"/><circle class="afdc758e-4ba6-4071-ab98-4f611368e100" cx="49.91" cy="39.02" r="0.88"/><circle class="afdc758e-4ba6-4071-ab98-4f611368e100" cx="49.91" cy="43.71" r="0.88"/><circle class="afdc758e-4ba6-4071-ab98-4f611368e100" cx="52.25" cy="50.15" r="0.88"/><circle class="afdc758e-4ba6-4071-ab98-4f611368e100" cx="51.08" cy="52.49" r="0.88"/><circle class="afdc758e-4ba6-4071-ab98-4f611368e100" cx="52.84" cy="54.25" r="0.88"/><circle class="afdc758e-4ba6-4071-ab98-4f611368e100" cx="53.42" cy="47.22" r="0.88"/><circle class="afdc758e-4ba6-4071-ab98-4f611368e100" cx="88.56" cy="47.22" r="0.88"/><circle class="afdc758e-4ba6-4071-ab98-4f611368e100" cx="86.22" cy="37.26" r="0.88"/><circle class="afdc758e-4ba6-4071-ab98-4f611368e100" cx="54.01" cy="29.06" r="0.88"/><circle class="afdc758e-4ba6-4071-ab98-4f611368e100" cx="88.56" cy="51.32" r="0.88"/><circle class="afdc758e-4ba6-4071-ab98-4f611368e100" cx="85.64" cy="53.08" r="0.88"/><circle class="afdc758e-4ba6-4071-ab98-4f611368e100" cx="85.64" cy="56.01" r="0.88"/><circle class="afdc758e-4ba6-4071-ab98-4f611368e100" cx="82.71" cy="57.18" r="0.88"/><circle class="afdc758e-4ba6-4071-ab98-4f611368e100" cx="79.78" cy="54.83" r="0.88"/><circle class="afdc758e-4ba6-4071-ab98-4f611368e100" cx="79.78" cy="60.11" r="0.88"/><circle class="afdc758e-4ba6-4071-ab98-4f611368e100" cx="76.26" cy="60.11" r="0.88"/><circle class="afdc758e-4ba6-4071-ab98-4f611368e100" cx="68.06" cy="61.28" r="0.88"/><circle class="afdc758e-4ba6-4071-ab98-4f611368e100" cx="75.09" cy="57.76" r="0.88"/><circle class="afdc758e-4ba6-4071-ab98-4f611368e100" cx="73.92" cy="60.69" r="0.88"/><circle class="afdc758e-4ba6-4071-ab98-4f611368e100" cx="72.16" cy="61.86" r="0.88"/><circle class="afdc758e-4ba6-4071-ab98-4f611368e100" cx="75.09" cy="62.45" r="0.88"/><circle class="afdc758e-4ba6-4071-ab98-4f611368e100" cx="51.66" cy="40.78" r="0.88"/><ellipse class="bc923315-7680-40db-a458-09993e6796e7" cx="69.24" cy="24.67" rx="2.05" ry="0.59"/><path class="bc923315-7680-40db-a458-09993e6796e7" d="M126.87,318.78h2.34s-2.34,9.38-4.1,12.89h-1.75s2.34-7.61,2.93-8.79A13.31,13.31,0,0,0,126.87,318.78Z" transform="translate(-55 -307)"/><path class="ae0536e7-f379-4a99-82da-c93ff099e88e" d="M131,322.3s5.86-9.37,26.36-2.34,20.5,6.44,20.5,6.44S146.79,341.63,131,322.3Z" transform="translate(-55 -307)"/><path class="afce7015-d0bc-4c31-ad9a-4a598647207a" d="M177.83,326.4A128.9,128.9,0,0,1,131,322.3" transform="translate(-55 -307)"/><g class="bbfff2d5-9936-4287-93e5-659bce45fecf"><path class="bb009b7d-ec92-4827-8663-75767c4f9f03" d="M383.12,363.27l7.35-.23c-41.76-.57-85.66,3.32-124.84,4.57l-9.89-.43C236.16,368,211.85,371,192.5,374a44,44,0,0,0-16.5,6.15c-2.34,1-4.59,2.65-2.08,3,4.89-.29,17-1.76,17.16-.4,0,.34-2.37.63-4.8.93.17,1.35-6.75,5-9.17,5.27-2.34,1-16.56,4.89-18.86,5.92-3.54,1,.28,2,6.19,2.78a153.36,153.36,0,0,0,18.81,1.21c4.9.08.21,1.69.34,2.71,4.77-.94,7.3-.21,12.07-1.13,0,.17,3.65-.09,8.18-.49s9.95-.94,13.57-1.33a79.15,79.15,0,0,1,9.59-1.4c2.42-.26,2.38-.6,2.34-.94l.08.68c2.34-.94,7.23-.78,9.61-1.36l.07.68c4.75-1.19,9.64-1,14.43-1.81l.06.68c2.42-.24,4.82-.48,4.86-.13l.06.68c2.45.11,7.21-1,7.27-.35l-.06-.68c9.65-.91,16.91-1.21,24.17-1.47,19.4-.28,43.45-2.72,65.11-4.5,2.41-.13,4.79-.93,2.34-1.49l7.24-.36c4.82-.2,2.36-1.13,7.19-1.33,19.27-1.64,38.58-2.08,57.8-1.8s38.32,1.34,57.09,3c-9.33-1.37-16.38-2.72-25.94-2.91,0-.34.06-1-2.33-1.16-14.34-1.13-31.2-.63-38.44-2a47.59,47.59,0,0,0-12.09-1.28l7.26-.08v-1c-9.69-.27-21.81-.42-31.52-.4l0-1-4.85.16c-2.47-1.12,3-1.81,10.56-2.31,3.8-.23,8.13-.38,12.27-.52l11.12-.32c0-.34,0-1,0-1.37l-4.87.05v-.68c14.62-.19,26.8-.09,41.42.44-2.44-.08-7.31-.29-9.75-.3,0-.34,0-.69-2.42-.73,4.88,0,10.36.37,15.84.56l8.15.34c2.67.09,5.27.1,7.71.15,1.23-.08,1.26-.42.07-.85a17.71,17.71,0,0,0-2.72-.7c-1.21-.22-2.73-.44-4.55-.62-7.35-.46-12.23-.58-19.57-.84l0-.68c2.44.07,5.5.28,8.56.43l4.51.18c1.46.07,2.84.1,4.07.09,2.47-.21-4.86-1.3-2.39-1.51a53.71,53.71,0,0,0,7.4.08c-7.39-.47-17.21-.53-24.56-1-2.45-.38-4.9-.77-4.88-1.45-6.15,0-11.65-.1-16.57-.56a97.82,97.82,0,0,1-12.9-1.86c-1.23-.35-4.92-.34-9.21-.25S386.79,363.14,383.12,363.27Z" transform="translate(-55 -307)"/></g><path class="ae0536e7-f379-4a99-82da-c93ff099e88e" d="M197,357.48a49,49,0,0,0,16.2,8.4,24,24,0,0,0-4,5.05,50.17,50.17,0,0,1-16.55-10.65v12.3h-6.3V360.53a48,48,0,0,1-16.65,10.7,30.83,30.83,0,0,0-4.05-5,44.82,44.82,0,0,0,16.35-8.8h-14.8V352h19.15v-2.95H172V328.17h35.1v20.91h-14.5V352h19.1v5.45Zm-18.7-21.16h8.05v-3.2h-8.05Zm8.05,7.8v-3.2h-8.05v3.2Zm14.25-11h-8v3.2h8Zm0,7.8h-8v3.2h8Z" transform="translate(-55 -307)"/><path class="ae0536e7-f379-4a99-82da-c93ff099e88e" d="M260.58,362.78c-2.65,1.05-5.35,2.15-7.85,3a40.86,40.86,0,0,0,10.2,2,19,19,0,0,0-3.05,4.7c-10.4-1.4-16.85-5.15-20.7-12h-4.5v6l7.55-1.45a35.25,35.25,0,0,0,0,4.6c-10.7,2.35-12.45,2.7-13.45,3.3a15.57,15.57,0,0,0-1.65-4.65,3.54,3.54,0,0,0,2.05-3.55v-4.25H226a27.12,27.12,0,0,1-4.8,12.2,27.8,27.8,0,0,0-5-3.05c4.35-5.35,4.85-12.85,4.85-18.05v-6.46h39.55v4.21h-33.9v1.55h31.95v3.7h-32c0,.55-.1,1.1-.1,1.7h35.35v4.2h-4Zm-2-19.2h-37.2V328.92h10.1v-3.05h5.8v3.05h4.8v-3.05h5.85v3.05h10.65Zm-31.75-9.06h4.65v-2h-4.65Zm0,5.4h4.65v-2h-4.65Zm10.45-7.4v2h4.8v-2Zm0,5.4v2h4.8v-2Zm7.55,22.56a12.41,12.41,0,0,0,3.3,2.9,48.73,48.73,0,0,0,6.15-2.9Zm8-28h-4.95v2h4.95Zm0,5.4h-4.95v2h4.95Z" transform="translate(-55 -307)"/><path class="ae0536e7-f379-4a99-82da-c93ff099e88e" d="M306.88,328.87v43h-6.4v-3.15h-22.2V372h-6.15V328.87Zm-28.6,6v10.74h22.2V334.88Zm22.2,27.85v-11.2h-22.2v11.2Z" transform="translate(-55 -307)"/><path class="ae0536e7-f379-4a99-82da-c93ff099e88e" d="M333.28,338.83h-17v-4.71h7.9a43.51,43.51,0,0,0-3.8-6.25l4.55-2.45a56.4,56.4,0,0,1,4.3,6.6l-3.4,2.1h7.5Zm-1.3,31h-9.4v2.1h-4.45V354.68H332Zm-.25-24.25H318.18v-4.5h13.55Zm-13.55,2.2h13.55v4.5H318.18Zm4.4,11.65V365h4.9v-5.6Zm9.65,6.05c1.7-2.65,2.7-6.9,3.1-10.85L340,356c-.5,4.35-1.35,9.4-3.45,12.65Zm17.75.6c1,0,1.25-.85,1.4-6a14.51,14.51,0,0,0,4.8,2.15c-.5,6.95-1.85,8.8-5.6,8.8h-4.15c-4.6,0-5.7-1.65-5.7-6.55V353.13l5.3-.05c-1.1-.95-2.25-1.75-3.3-2.5l2-1.7h-9.15v-5.41h9.1V338H334.53v-5.4h10.15V326h5.9v6.6h11.5V338h-11.5v5.5H361v5.41H348.83a28,28,0,0,1,5.4,4.95l-4.05,3.6a24.66,24.66,0,0,0-3.95-4.15v11.15c0,1.45.15,1.65,1.15,1.65ZM358.33,354a35.29,35.29,0,0,1,5,11.8l-4.9,2.25a35.36,35.36,0,0,0-4.65-12Z" transform="translate(-55 -307)"/></svg>